# Created by DisUnity v0.3.1
v -0.071866 -3.255832E-8 -0.22077788
v -0.044873886 0.06516393 0.22077796
v -0.071865916 -5.394233E-8 0.22077796
v -0.04487396 0.06516396 -0.22077788
v 0.020290146 0.09215594 0.22077796
v 0.02029007 0.09215596 -0.22077788
v 0.0854541 0.06516395 0.22077805
v 0.0854541 0.06516397 -0.22077793
v 0.09895004 0.032581978 -0.22077793
v 0.09895004 0.032581955 0.22077805
v 0.11244614 -1.3333064E-8 -0.22077793
v 0.0854541 -0.06516402 0.22077796
v 0.11244614 -3.4717075E-8 0.22077805
v 0.0854541 -0.065164 -0.22077793
v 0.020290146 -0.092156015 0.22077796
v 0.020290146 -0.092156 -0.22077788
v -0.044873886 -0.06516404 0.22077796
v -0.044873886 -0.065164015 -0.22077788
v -0.071865916 -5.394233E-8 0.22077796
v -0.071866 -3.255832E-8 -0.22077788
v -0.071865916 -5.394233E-8 0.22077796
v -0.044873886 0.06516393 0.22077796
v 0.020290146 -4.4329706E-8 0.22077796
v 0.020290146 0.09215594 0.22077796
v 0.0854541 0.06516395 0.22077805
v 0.09895004 0.032581955 0.22077805
v 0.11244614 -3.4717075E-8 0.22077805
v 0.0854541 -0.06516402 0.22077796
v 0.020290146 -0.092156015 0.22077796
v -0.044873886 -0.06516404 0.22077796
v -0.04487396 0.06516396 -0.22077788
v -0.071866 -3.255832E-8 -0.22077788
v 0.02029007 -2.2945686E-8 -0.22077788
v -0.044873886 -0.065164015 -0.22077788
v 0.020290146 -0.092156 -0.22077788
v 0.0854541 -0.065164 -0.22077793
v 0.11244614 -1.3333064E-8 -0.22077793
v 0.09895004 0.032581978 -0.22077793
v 0.0854541 0.06516397 -0.22077793
v 0.02029007 0.09215596 -0.22077788
v 0.09895004 0.032581978 -0.22077793
v 0.14844802 0.04304009 -0.22077778
v 0.12819014 0.06577108 -0.22077778
v 0.11244614 -1.3333064E-8 -0.22077793
v 0.24608703 0.034314092 -0.22077778
v 0.24325912 0.06463009 -0.22077778
v 0.11244614 -1.3333064E-8 -0.22077793
v 0.14844802 0.043040086 0.2207782
v 0.14844802 0.04304009 -0.22077778
v 0.11244614 -3.4717075E-8 0.22077805
v 0.24608703 0.03431409 0.2207782
v 0.24608703 0.034314092 -0.22077778
v 0.11244614 -3.4717075E-8 0.22077805
v 0.12819014 0.06577108 0.2207782
v 0.14844802 0.043040086 0.2207782
v 0.09895004 0.032581955 0.22077805
v 0.24325912 0.064630084 0.2207782
v 0.24608703 0.03431409 0.2207782
v 0.09895004 0.032581955 0.22077805
v 0.12819014 0.06577108 -0.22077778
v 0.12819014 0.06577108 0.2207782
v 0.09895004 0.032581978 -0.22077793
v 0.24325912 0.06463009 -0.22077778
v 0.24325912 0.064630084 0.2207782
v 0.24608703 0.03431409 0.2207782
v 0.24325912 0.06463009 -0.22077778
v 0.24608703 0.034314092 -0.22077778
v 0.24325912 0.064630084 0.2207782
v 0.26862898 0.058576684 0.08070503
v 0.2522319 0.059120554 0.10555885
v 0.2522917 0.05844656 0.076156765
v 0.2807457 0.058781676 0.10198387
v 0.27963868 0.058529656 -0.067262955
v 0.31408188 0.058529682 -0.060259018
v 0.23167984 0.0583717 0.08256691
v 0.22170883 0.058556676 0.106935956
v 0.23190673 0.058707654 0.13105483
v 0.25234696 0.058987554 0.13942276
v 0.27799088 0.059074663 0.12288696
v 0.37153974 0.05896468 0.08223602
v 0.37622878 0.059307687 0.11293495
v 0.39219192 0.05918568 0.09402801
v 0.36691085 0.058626678 0.055494994
v 0.36303863 0.05834367 0.02659195
v 0.3830928 0.058465667 0.03487297
v 0.2707849 0.04073905 0.07851219
v 0.2544478 0.04060893 0.073964156
v 0.25438827 0.04128298 0.10336624
v 0.28290176 0.04094405 0.09979126
v 0.28179488 0.040692076 -0.069455564
v 0.31623778 0.04069202 -0.062451553
v 0.2338362 0.04053412 0.080374375
v 0.22386535 0.04071906 0.104743496
v 0.23406295 0.04087005 0.12886223
v 0.2545027 0.04114992 0.13723
v 0.28014725 0.041237053 0.12069435
v 0.37369582 0.04112708 0.08004333
v 0.378385 0.041470107 0.11074226
v 0.3943483 0.04134809 0.09183533
v 0.36906722 0.040789094 0.053302307
v 0.365195 0.040506076 0.024399413
v 0.38524902 0.04062806 0.03268036
vn 0.7763826 1.7538157E-7 0.63026184
vn 0.5489846 -0.54898494 -0.630263
vn 0.7763825 2.072691E-7 -0.630262
vn 0.54898477 -0.54898494 0.63026285
vn 2.0951751E-7 -0.7763825 -0.63026196
vn 1.6853373E-7 -0.7763825 0.630262
vn -0.5489849 -0.54898447 -0.63026315
vn -0.54898506 -0.5489845 0.6302629
vn -0.050214134 -0.30199498 0.9519862
vn -0.05021092 -0.30199456 -0.9519865
vn -0.572628 0.3468754 0.7428153
vn -0.5489846 0.5489853 -0.63026273
vn -0.5726273 0.34687704 -0.7428152
vn -0.5489845 0.5489848 0.6302631
vn -2.7104412E-7 0.77638245 -0.63026214
vn -1.3439767E-7 0.7763825 0.630262
vn 0.5489844 0.5489853 -0.6302629
vn 0.5489843 0.5489852 0.630263
vn 0.7763825 2.072691E-7 -0.630262
vn 0.7763826 1.7538157E-7 0.63026184
vn 0.7763825 2.072691E-7 -0.630262
vn 0.5489846 -0.54898494 -0.630263
vn 3.5331965E-7 1.4634999E-7 -1.0
vn 2.0951751E-7 -0.7763825 -0.63026196
vn -0.5489849 -0.54898447 -0.63026315
vn -0.05021092 -0.30199456 -0.9519865
vn -0.5726273 0.34687704 -0.7428152
vn -0.5489846 0.5489853 -0.63026273
vn -2.7104412E-7 0.77638245 -0.63026214
vn 0.5489844 0.5489853 -0.6302629
vn 0.54898477 -0.54898494 0.63026285
vn 0.7763826 1.7538157E-7 0.63026184
vn 2.4983456E-7 0.0 1.0
vn 0.5489843 0.5489852 0.630263
vn -1.3439767E-7 0.7763825 0.630262
vn -0.5489845 0.5489848 0.6302631
vn -0.572628 0.3468754 0.7428153
vn -0.050214134 -0.30199498 0.9519862
vn -0.54898506 -0.5489845 0.6302629
vn 1.6853373E-7 -0.7763825 0.630262
vn -0.050214134 -0.30199498 0.9519862
vn -0.21472389 0.518623 0.8276013
vn 0.31804454 -0.71348125 0.62433344
vn -0.572628 0.3468754 0.7428153
vn -0.58291465 0.580658 0.568372
vn -0.55016696 -0.5978945 0.5829567
vn -0.572628 0.3468754 0.7428153
vn -0.21472123 0.51862365 -0.82760155
vn -0.21472389 0.518623 0.8276013
vn -0.5726273 0.34687704 -0.7428152
vn -0.5829147 0.5806581 -0.568372
vn -0.58291465 0.580658 0.568372
vn -0.5726273 0.34687704 -0.7428152
vn 0.31804577 -0.7134798 -0.6243344
vn -0.21472123 0.51862365 -0.82760155
vn -0.05021092 -0.30199456 -0.9519865
vn -0.55016696 -0.5978945 -0.5829567
vn -0.5829147 0.5806581 -0.568372
vn -0.05021092 -0.30199456 -0.9519865
vn 0.31804454 -0.71348125 0.62433344
vn 0.31804577 -0.7134798 -0.6243344
vn -0.050214134 -0.30199498 0.9519862
vn -0.55016696 -0.5978945 0.5829567
vn -0.55016696 -0.5978945 -0.5829567
vn -0.5829147 0.5806581 -0.568372
vn -0.55016696 -0.5978945 0.5829567
vn -0.58291465 0.580658 0.568372
vn -0.55016696 -0.5978945 -0.5829567
vn -1.1922216E-4 -0.99994063 0.0108985165
vn 0.005840784 -0.99994004 0.009268704
vn 0.0046779895 -0.999889 0.014144955
vn -0.0021611976 -0.9999256 0.012008289
vn 0.002449188 -0.9999969 5.0004263E-4
vn 0.002449188 -0.9999969 5.0004263E-4
vn 0.0149177965 -0.9997038 0.019225884
vn 0.01877123 -0.9998016 0.006672278
vn 0.01672233 -0.9998561 -0.0028614122
vn 0.0086801965 -0.9999546 -0.003956781
vn -0.0013602357 -0.99997365 0.0071296855
vn 0.0043773777 -0.9999236 0.0115677025
vn 0.0043359576 -0.99992394 0.011551614
vn 0.0046073287 -0.9999299 0.010906197
vn 0.0034270368 -0.99994195 0.0102132745
vn 0.0024867407 -0.99995506 0.009150349
vn 0.0030304578 -0.9999422 0.010317655
vn 1.1996231E-4 0.99994063 -0.010899129
vn -0.0046767867 0.999889 -0.014145962
vn -0.0058403485 0.99994004 -0.009268761
vn 0.0021617298 0.9999256 -0.01200893
vn -0.002447627 0.9999969 -4.9957784E-4
vn -0.0024476266 0.9999969 -4.995777E-4
vn -0.01491778 0.9997038 -0.019226376
vn -0.018772742 0.9998016 -0.0066717896
vn -0.016722765 0.9998561 0.0028622758
vn -0.008679902 0.99995446 0.0039584707
vn 0.0013607024 0.99997365 -0.007129538
vn -0.0043773735 0.9999236 -0.011568041
vn -0.004336225 0.99992394 -0.011552202
vn -0.004607249 0.9999299 -0.010906584
vn -0.0034270077 0.99994195 -0.010213458
vn -0.0024867235 0.99995506 -0.009150669
vn -0.0030299698 0.9999422 -0.010317964
vt 0.0162 0.0151
vt 0.9567 0.0903
vt 0.9567 0.0151
vt 0.0162 0.0903
vt 0.9567 0.1656
vt 0.0162 0.1656
vt 0.9567 0.2408
vt 0.0162 0.2408
vt 0.0162 0.316
vt 0.9567 0.316
vt 0.0162 0.316
vt 0.9567 0.2408
vt 0.9567 0.316
vt 0.0162 0.2408
vt 0.9567 0.1656
vt 0.0162 0.1656
vt 0.9567 0.0903
vt 0.0162 0.0903
vt 0.9567 0.0151
vt 0.0162 0.0151
vt 0.3286 0.9158
vt 0.3286 0.8108
vt 0.5817 0.8633
vt 0.4769 0.7365
vt 0.6866 0.7365
vt 0.759 0.7728
vt 0.8349 0.8108
vt 0.8349 0.9158
vt 0.6866 0.99
vt 0.4769 0.99
vt 0.6866 0.99
vt 0.4769 0.99
vt 0.5817 0.8633
vt 0.3286 0.9158
vt 0.3286 0.8108
vt 0.4769 0.7365
vt 0.6866 0.7365
vt 0.759 0.7728
vt 0.8349 0.8108
vt 0.8349 0.9158
vt 0.984 0.8655
vt 0.8543 0.7457
vt 0.984 0.7457
vt 0.8543 0.8655
vt 0.5733 0.5656
vt 0.703 0.5656
vt 0.02 0.3357
vt 0.9604 0.3955
vt 0.02 0.3955
vt 0.9604 0.3357
vt 0.9604 0.5001
vt 0.02 0.5001
vt 0.8543 0.8655
vt 0.984 0.7457
vt 0.8543 0.7457
vt 0.984 0.8655
vt 0.703 0.5656
vt 0.5733 0.5656
vt 0.9604 0.3357
vt 0.02 0.3955
vt 0.9604 0.3955
vt 0.02 0.3357
vt 0.02 0.5001
vt 0.9604 0.5001
vt 0.9604 0.5189
vt 0.02 0.5513
vt 0.02 0.5189
vt 0.9604 0.5513
vt 0.1397 0.6312
vt 0.0849 0.6041
vt 0.0849 0.6378
vt 0.1584 0.6041
vt 0.2125 0.814
vt 0.2969 0.7994
vt 0.0335 0.6312
vt 0.0081 0.6041
vt 0.0335 0.5723
vt 0.0849 0.558
vt 0.1397 0.5723
vt 0.3931 0.6041
vt 0.3931 0.5723
vt 0.4402 0.5916
vt 0.3931 0.6444
vt 0.3931 0.6815
vt 0.4402 0.6677
vt 0.1397 0.6312
vt 0.0849 0.6378
vt 0.0849 0.6041
vt 0.1584 0.6041
vt 0.2125 0.814
vt 0.2969 0.7994
vt 0.0335 0.6312
vt 0.0081 0.6041
vt 0.0335 0.5723
vt 0.0849 0.558
vt 0.1397 0.5723
vt 0.3931 0.6041
vt 0.3931 0.5723
vt 0.4402 0.5916
vt 0.3931 0.6444
vt 0.3931 0.6815
vt 0.4402 0.6677

o chen_gong_w
s 1
usemtl chen_gong_w
f 1/1/1 2/2/2 3/3/3
f 1/1/1 4/4/4 2/2/2
f 4/4/4 5/5/5 2/2/2
f 4/4/4 6/6/6 5/5/5
f 6/6/6 7/7/7 5/5/5
f 6/6/6 8/8/8 7/7/7
f 9/9/9 7/7/7 8/8/8
f 9/9/9 10/10/10 7/7/7
f 11/11/11 12/12/12 13/13/13
f 11/11/11 14/14/14 12/12/12
f 14/14/14 15/15/15 12/12/12
f 14/14/14 16/16/16 15/15/15
f 16/16/16 17/17/17 15/15/15
f 16/16/16 18/18/18 17/17/17
f 18/18/18 19/19/19 17/17/17
f 18/18/18 20/20/20 19/19/19
f 21/21/21 22/22/22 23/23/23
f 22/22/22 24/24/24 23/23/23
f 24/24/24 25/25/25 23/23/23
f 23/23/23 25/25/25 26/26/26
f 23/23/23 26/26/26 27/27/27
f 27/27/27 28/28/28 23/23/23
f 28/28/28 29/29/29 23/23/23
f 29/29/29 30/30/30 23/23/23
f 30/30/30 21/21/21 23/23/23
f 31/31/31 32/32/32 33/33/33
f 32/32/32 34/34/34 33/33/33
f 34/34/34 35/35/35 33/33/33
f 35/35/35 36/36/36 33/33/33
f 36/36/36 37/37/37 33/33/33
f 33/33/33 37/37/37 38/38/38
f 33/33/33 38/38/38 39/39/39
f 39/39/39 40/40/40 33/33/33
f 40/40/40 31/31/31 33/33/33
f 41/41/41 42/42/42 43/43/43
f 41/41/41 44/44/44 42/42/42
f 43/43/43 42/42/42 45/45/45
f 43/43/43 45/45/45 46/46/46
f 47/47/47 48/48/48 49/49/49
f 47/47/47 50/50/50 48/48/48
f 49/49/49 48/48/48 51/51/51
f 49/49/49 51/51/51 52/52/52
f 53/53/53 54/54/54 55/55/55
f 53/53/53 56/56/56 54/54/54
f 55/55/55 54/54/54 57/57/57
f 55/55/55 57/57/57 58/58/58
f 59/59/59 60/60/60 61/61/61
f 59/59/59 62/62/62 60/60/60
f 61/61/61 60/60/60 63/63/63
f 61/61/61 63/63/63 64/64/64
f 65/65/65 66/66/66 67/67/67
f 65/65/65 68/68/68 66/66/66
f 69/69/69 70/70/70 71/71/71
f 69/69/69 72/72/72 70/70/70
f 73/73/73 69/69/69 71/71/71
f 73/73/73 74/74/74 69/69/69
f 71/71/71 70/70/70 75/75/75
f 75/75/75 70/70/70 76/76/76
f 70/70/70 77/77/77 76/76/76
f 70/70/70 78/78/78 77/77/77
f 79/79/79 78/78/78 70/70/70
f 72/72/72 79/79/79 70/70/70
f 79/79/79 72/72/72 80/80/80
f 79/79/79 80/80/80 81/81/81
f 81/81/81 80/80/80 82/82/82
f 69/69/69 83/83/83 72/72/72
f 69/69/69 84/84/84 83/83/83
f 80/80/80 85/85/85 82/82/82
f 80/80/80 83/83/83 85/85/85
f 83/83/83 84/84/84 85/85/85
f 86/86/86 87/87/87 88/88/88
f 86/86/86 88/88/88 89/89/89
f 90/90/90 87/87/87 86/86/86
f 90/90/90 86/86/86 91/91/91
f 87/87/87 92/92/92 88/88/88
f 92/92/92 93/93/93 88/88/88
f 88/88/88 93/93/93 94/94/94
f 88/88/88 94/94/94 95/95/95
f 96/96/96 88/88/88 95/95/95
f 89/89/89 88/88/88 96/96/96
f 96/96/96 97/97/97 89/89/89
f 96/96/96 98/98/98 97/97/97
f 98/98/98 99/99/99 97/97/97
f 86/86/86 89/89/89 100/100/100
f 86/86/86 100/100/100 101/101/101
f 97/97/97 102/102/102 100/100/100
f 97/97/97 99/99/99 102/102/102
f 100/100/100 102/102/102 101/101/101

