# Created by DisUnity v0.3.1
v 0.0723373 0.033495985 0.47321764
v 0.015977288 0.044510882 0.47321764
v 0.015977236 0.024258584 0.5245695
v 0.06850216 -1.4606893E-8 0.5245695
v -0.04038372 0.033495985 0.47321764
v -0.036547735 -1.4606893E-8 0.5245695
v 0.015977288 0.050539885 0.40911946
v 0.0723373 0.038032882 0.40911946
v 0.09645229 -1.4606893E-8 0.47321764
v 0.09645229 -1.4606893E-8 0.40911946
v -0.04038372 0.038032882 0.40911946
v -0.06449871 -1.4606893E-8 0.40911946
v -0.06449871 -1.4606893E-8 0.47321764
v 0.015615272 0.045810886 0.30565363
v 0.05142017 0.039632984 0.30565363
v -0.020189857 0.039632984 0.30565363
v 0.08439518 -1.4606893E-8 0.31115153
v -0.052440833 -1.4606893E-8 0.31118944
v 0.015253182 0.028048884 0.20308155
v -0.036547735 -1.4606893E-8 0.5245695
v 0.015977236 -0.02425898 0.5245695
v -0.04038372 -0.033496015 0.47321764
v 0.015977288 -0.044510912 0.47321764
v 0.0723373 -0.033497013 0.47321764
v 0.015977288 -0.05053991 0.40911946
v 0.0723373 -0.03803291 0.40911946
v 0.09645229 -1.4606893E-8 0.47321764
v 0.09645229 -1.4606893E-8 0.40911946
v -0.04038372 -0.03803291 0.40911946
v -0.06449871 -1.4606893E-8 0.40911946
v -0.06449871 -1.4606893E-8 0.47321764
v 0.015615272 -0.04581091 0.30565363
v 0.05142017 -0.039633915 0.30565363
v -0.020189857 -0.039633013 0.30565363
v 0.08439518 -1.4606893E-8 0.31115153
v -0.052440833 -1.4606893E-8 0.31118944
v 0.015253182 -0.028048912 0.20308155
v 0.06850216 -1.4606893E-8 0.5245695
v -0.036547735 -1.4606893E-8 0.5245695
v 0.05142017 0.039632984 0.30565363
v 0.015736274 -1.4606893E-8 0.45586962
v 0.015476189 0.016011884 0.3057355
v 0.0723373 0.038032882 0.40911946
v 0.015253182 0.028048884 0.20308155
v -0.020189857 0.039632984 0.30565363
v -0.04038372 0.038032882 0.40911946
v -0.04038372 -0.03803291 0.40911946
v -0.020189857 -0.039633013 0.30565363
v 0.015476189 -0.016011914 0.3057355
v 0.015253182 -0.028048912 0.20308155
v 0.05142017 -0.039633915 0.30565363
v 0.0723373 -0.03803291 0.40911946
v 0.08439518 -1.4606893E-8 0.31115153
v 0.015736274 -1.4606893E-8 0.45586962
v 0.0723373 0.038032882 0.40911946
v -0.04038372 0.038032882 0.40911946
v -0.052440833 -1.4606893E-8 0.31118944
v 0.0723373 -0.03803291 0.40911946
v 0.015736274 -1.4606893E-8 0.45586962
v 0.08439518 -1.4606893E-8 0.31115153
v -0.052440833 -1.4606893E-8 0.31118944
v -0.04038372 -0.03803291 0.40911946
v 0.005812187 -1.4606893E-8 -0.35186046
v 0.010851936 -0.024117013 0.51960665
v -0.008358803 -0.013402714 -0.35184336
v 0.041913107 -1.4606893E-8 0.51960665
v -0.009064063 -0.024751913 -0.37799656
v 0.022348288 -1.4606893E-8 -0.37800434
v -0.009768715 -1.4606893E-8 -0.4158014
v -0.022529792 -1.4606893E-8 -0.35182643
v -0.020209694 -1.4606893E-8 0.51960665
v -0.040474813 -1.4606893E-8 -0.37798738
v 0.010851936 0.024116985 0.51960665
v -0.008358803 0.0134026855 -0.35184336
v -0.009064063 0.024751885 -0.37799656
v 0.08092708 -0.046200912 0.5269045
v 0.015977288 -0.059847016 0.5438466
v 0.015977288 -0.059847016 0.5269045
v 0.08092708 -0.046200912 0.5438466
v 0.11178829 -1.4606893E-8 0.5269045
v 0.11178829 -1.4606893E-8 0.5438466
v 0.015977288 -1.4606893E-8 0.5174465
v 0.11178829 -1.4606893E-8 0.5269045
v -0.048972815 -0.046200912 0.5269045
v -0.048972815 -0.046200912 0.5438466
v -0.079833716 -1.4606893E-8 0.5269045
v -0.079833716 -1.4606893E-8 0.5438466
v -0.079833716 -1.4606893E-8 0.5269045
v 0.11178829 -1.4606893E-8 0.5438466
v 0.015977288 -1.4606893E-8 0.55330455
v 0.08092708 -0.046200912 0.5438466
v -0.079833716 -1.4606893E-8 0.5438466
v -0.048972815 -0.046200912 0.5438466
v -0.048972815 0.046200886 0.5269045
v 0.015977288 0.059846986 0.5438466
v 0.015977288 0.059846986 0.5269045
v -0.048972815 0.046200886 0.5438466
v -0.079833716 -1.4606893E-8 0.5269045
v -0.079833716 -1.4606893E-8 0.5438466
v 0.015977288 -1.4606893E-8 0.5174465
v -0.079833716 -1.4606893E-8 0.5269045
v 0.08092708 0.046200886 0.5269045
v 0.08092708 0.046200886 0.5438466
v 0.11178829 -1.4606893E-8 0.5269045
v 0.11178829 -1.4606893E-8 0.5438466
v 0.11178829 -1.4606893E-8 0.5269045
v -0.079833716 -1.4606893E-8 0.5438466
v 0.015977288 -1.4606893E-8 0.55330455
v -0.048972815 0.046200886 0.5438466
v 0.11178829 -1.4606893E-8 0.5438466
v 0.08092708 0.046200886 0.5438466
v 0.022368202 -0.005144015 0.94172394
v -0.039232824 -0.0042120144 1.0011058
v -0.039232824 -0.007684915 0.74700254
v 0.016716193 -1.4606893E-8 1.0456964
v 0.0566502 -1.4606893E-8 1.0003885
v 0.089237176 -1.4606893E-8 0.9357504
v 0.053430136 -0.006463915 0.87046444
v -0.039232824 -1.4606893E-8 1.0841348
v 0.10490017 -1.4606893E-8 0.8674606
v 0.09812519 -1.4606893E-8 0.7450955
v 0.0561713 -0.007684915 0.7480455
v 0.08118328 -1.4606893E-8 0.54554164
v 0.043381307 -0.008080015 0.54554164
v -0.039232824 -0.008080015 0.54554164
v -0.043358803 -1.4606893E-8 0.54554164
v -0.043358803 -1.4606893E-8 0.74700254
v -0.043358803 -1.4606893E-8 1.0011058
v 0.0561713 0.007684885 0.7480455
v 0.043381307 0.008079985 0.54554164
v 0.022368202 0.005143985 0.94172394
v -0.039232824 0.0042119855 1.0011058
v -0.039232824 0.007684885 0.74700254
v 0.053430136 0.0064638853 0.87046444
v -0.039232824 0.008079985 0.54554164
v -0.043358803 -1.4606893E-8 0.54554164
v -0.043358803 -1.4606893E-8 0.74700254
v -0.043358803 -1.4606893E-8 1.0011058
v -0.039232824 -1.4606893E-8 1.0841348
v 0.06850216 -1.4606893E-8 0.5245695
vn 0.539506 0.80506945 0.2465692
vn 1.6893048E-6 0.9747765 0.22318292
vn 1.3598703E-6 0.88230044 0.47068673
vn 0.7053629 6.7631163E-6 0.7088463
vn -0.53950524 0.80506915 0.246572
vn -0.705358 1.6520553E-6 0.70885116
vn 2.2176471E-4 0.99972934 0.02326435
vn 0.51607525 0.83424616 -0.1941643
vn 0.97145826 4.295139E-6 0.2372109
vn 0.99882454 1.6120822E-6 -0.048472036
vn -0.51765174 0.83361405 -0.19267708
vn -0.99882334 0.0 -0.048497036
vn -0.97145665 0.0 0.23721698
vn -4.5643577E-5 0.99472576 -0.10257007
vn 0.9460314 0.20955081 -0.24721023
vn -0.94698083 0.21147296 -0.241881
vn 0.14785118 1.4333644E-7 -0.98900956
vn -0.14695515 0.0 -0.9891432
vn -0.0029175293 -0.05469921 -0.99849856
vn -0.705358 1.6520553E-6 0.70885116
vn -2.746579E-6 -0.88230014 0.47068727
vn -0.5395059 -0.80506897 0.24657111
vn -4.2729366E-6 -0.97477764 0.22317833
vn 0.53950506 -0.80507046 0.24656819
vn 2.1731264E-4 -0.99972934 0.023263771
vn 0.5160726 -0.8342464 -0.19417004
vn 0.97145826 4.295139E-6 0.2372109
vn 0.99882454 1.6120822E-6 -0.048472036
vn -0.51765174 -0.83361405 -0.19267708
vn -0.99882334 0.0 -0.048497036
vn -0.97145665 0.0 0.23721698
vn -5.393169E-5 -0.9947259 -0.10256881
vn 0.9460283 -0.20956849 -0.24720742
vn -0.94698083 -0.21147296 -0.241881
vn 0.14785118 1.4333644E-7 -0.98900956
vn -0.14695515 0.0 -0.9891432
vn -0.0029165244 0.054700296 -0.99849856
vn 0.7053629 6.7631163E-6 0.7088463
vn -0.705358 1.6520553E-6 0.70885116
vn 0.9460314 0.20955081 -0.24721023
vn 0.0026285367 -1.03433E-6 -0.99999654
vn -0.001767551 -0.993814 -0.11104391
vn 0.51607525 0.83424616 -0.1941643
vn -0.0029175293 -0.05469921 -0.99849856
vn -0.94698083 0.21147296 -0.241881
vn -0.51765174 0.83361405 -0.19267708
vn -0.51765174 -0.83361405 -0.19267708
vn -0.94698083 -0.21147296 -0.241881
vn -0.0017588001 0.993814 -0.111043915
vn -0.0029165244 0.054700296 -0.99849856
vn 0.9460283 -0.20956849 -0.24720742
vn 0.5160726 -0.8342464 -0.19417004
vn 0.14785118 1.4333644E-7 -0.98900956
vn 0.0026285367 -1.03433E-6 -0.99999654
vn 0.51607525 0.83424616 -0.1941643
vn -0.51765174 0.83361405 -0.19267708
vn -0.14695515 0.0 -0.9891432
vn 0.5160726 -0.8342464 -0.19417004
vn 0.0026285367 -1.03433E-6 -0.99999654
vn 0.14785118 1.4333644E-7 -0.98900956
vn -0.14695515 0.0 -0.9891432
vn -0.51765174 -0.83361405 -0.19267708
vn 0.9618793 0.0 0.27347416
vn 0.009107477 -0.99985504 -0.01438441
vn 0.0028310723 -0.97008586 0.2427457
vn 0.9992347 0.0 -0.03911622
vn -0.0019170478 -0.99867743 -0.05137775
vn 0.99703205 0.0 -0.076988235
vn -0.013078541 0.0 -0.9999145
vn -0.9477793 0.0 0.31892687
vn -0.99998784 0.0 0.004942312
vn -0.9986572 0.0 -0.051805846
vn 0.009107527 0.99985504 -0.014384412
vn 0.0028310944 0.97008574 0.2427457
vn -0.0019169818 0.99867743 -0.051377695
vn 0.44983277 -0.6702539 -0.59026283
vn 3.6869173E-7 -0.7792458 0.62671846
vn 3.704144E-7 -0.77924603 -0.62671816
vn 0.4498326 -0.6702537 0.5902631
vn 0.814696 0.0 -0.57988834
vn 0.8146958 0.0 0.5798885
vn 0.0 0.0 -1.0
vn 0.814696 0.0 -0.57988834
vn -0.44983396 -0.67025346 -0.5902625
vn -0.44983384 -0.67025316 0.59026283
vn -0.81469554 0.0 -0.57988894
vn -0.81469536 0.0 0.5798892
vn -0.81469554 0.0 -0.57988894
vn 0.8146958 0.0 0.5798885
vn 0.0 0.0 1.0
vn 0.4498326 -0.6702537 0.5902631
vn -0.81469536 0.0 0.5798892
vn -0.44983384 -0.67025316 0.59026283
vn -0.4498339 0.67025334 -0.59026253
vn 3.755831E-7 0.7792458 0.62671846
vn 3.7213724E-7 0.77924603 -0.62671816
vn -0.44983384 0.67025316 0.5902629
vn -0.81469554 0.0 -0.57988894
vn -0.81469536 0.0 0.5798892
vn 0.0 0.0 -1.0
vn -0.81469554 0.0 -0.57988894
vn 0.4498327 0.6702539 -0.59026283
vn 0.4498326 0.6702537 0.5902631
vn 0.814696 0.0 -0.57988834
vn 0.8146958 0.0 0.5798885
vn 0.814696 0.0 -0.57988834
vn -0.81469536 0.0 0.5798892
vn 0.0 0.0 1.0
vn -0.44983384 0.67025316 0.5902629
vn 0.8146958 0.0 0.5798885
vn 0.4498326 0.6702537 0.5902631
vn 0.03625047 -0.998776 0.033650193
vn -0.4103487 -0.91128856 0.034161687
vn -0.49027783 -0.87155074 0.0051974757
vn 0.6157417 0.0 0.7879481
vn 0.76398283 1.391915E-7 0.6452365
vn 0.90678674 -1.0092612E-7 0.42158964
vn 0.06772189 -0.9975077 0.019803656
vn -0.31133518 -4.8009815E-7 0.9503001
vn 0.9947017 2.974645E-7 0.102803364
vn 0.99949825 2.2299214E-7 -0.031673666
vn 0.08810238 -0.99611133 2.715085E-4
vn 0.99763036 0.0 -0.06880169
vn 0.093296096 -0.99562377 -0.0054125334
vn -0.51752514 -0.8556669 0.0014097333
vn -0.9999999 0.0 5.13277E-4
vn -0.9999968 0.0 0.002547053
vn -0.9996779 0.0 0.025381142
vn 0.08810238 0.99611133 2.7150955E-4
vn 0.093296096 0.99562377 -0.005412532
vn 0.03625047 0.998776 0.033650186
vn -0.4103487 0.91128856 0.034161683
vn -0.4902778 0.87155074 0.0051974743
vn 0.06772188 0.9975077 0.019803656
vn -0.51752514 0.8556669 0.0014097333
vn -0.9999999 0.0 5.13277E-4
vn -0.9999968 0.0 0.002547053
vn -0.9996779 0.0 0.025381142
vn -0.31133518 -4.8009815E-7 0.9503001
vn 0.7053629 6.7631163E-6 0.7088463
vt 0.8936406 0.9334128
vt 0.79558015 0.932249
vt 0.7955673 0.9914331
vt 0.9124796 0.9914331
vt 0.6975165 0.9333968
vt 0.67865235 0.9914331
vt 0.7955953 0.8655691
vt 0.89757967 0.86645615
vt 0.96332777 0.9406625
vt 0.97668886 0.87254715
vt 0.6936057 0.8664391
vt 0.6144932 0.8725183
vt 0.6278259 0.9406357
vt 0.79500306 0.75791925
vt 0.85891145 0.757264
vt 0.7310947 0.75725
vt 0.9870241 0.7692466
vt 0.6042048 0.76925546
vt 0.7944111 0.64902383
vt 0.67865235 0.9914331
vt 0.79556626 0.9914331
vt 0.6975149 0.9333968
vt 0.79558015 0.9322501
vt 0.89363873 0.9334128
vt 0.7955935 0.86557007
vt 0.89757967 0.8664571
vt 0.96332777 0.9406636
vt 0.97668725 0.87254727
vt 0.6936057 0.8664391
vt 0.6144932 0.8725183
vt 0.6278259 0.94063675
vt 0.79500306 0.75791925
vt 0.8589099 0.7572651
vt 0.7310947 0.75725096
vt 0.98702425 0.7692466
vt 0.6042048 0.7692556
vt 0.79440933 0.6490248
vt 0.9124796 0.9914331
vt 0.67865074 0.9914331
vt 0.86531013 0.4668448
vt 0.6782947 0.49841642
vt 0.8617469 0.49841642
vt 0.7380944 0.44970617
vt 0.98934054 0.49841642
vt 0.86484593 0.5299529
vt 0.7373943 0.5459634
vt 0.7373943 0.5459634
vt 0.86484474 0.5299529
vt 0.861747 0.49841642
vt 0.98934054 0.49841642
vt 0.865309 0.46684408
vt 0.7380944 0.44970617
vt 0.6782947 0.3797085
vt 0.6782947 0.49841642
vt 0.7380944 0.44970617
vt 0.7373943 0.5459634
vt 0.6782947 0.61578214
vt 0.7380944 0.44970617
vt 0.6782947 0.49841642
vt 0.6782947 0.3797085
vt 0.6782947 0.61578214
vt 0.7373943 0.5459634
vt 0.11674383 0.9169168
vt 0.073005944 0.004153982
vt 0.07963133 0.9179107
vt 0.14193892 0.004153982
vt 0.079569414 0.9445237
vt 0.14371862 0.9478849
vt 0.0801331 0.98872894
vt 0.042478528 0.9176939
vt 0.0040896954 0.004153982
vt 0.015722973 0.94958603
vt 0.07299766 0.004153982
vt 0.079626344 0.91787064
vt 0.07956782 0.94451267
vt 0.7908091 0.29535666
vt 0.8318465 0.19519027
vt 0.7997379 0.19518587
vt 0.8407033 0.29536405
vt 0.79373986 0.38145888
vt 0.8377056 0.38146466
vt 0.6491443 0.19516665
vt 0.6729797 0.34812373
vt 0.7908807 0.095010675
vt 0.8407751 0.09501656
vt 0.7938807 0.008908597
vt 0.83784664 0.008914497
vt 0.6730886 0.042215638
vt 0.9584957 0.34816062
vt 0.9824401 0.19520943
vt 0.8407033 0.29536405
vt 0.9586069 0.042252526
vt 0.8407751 0.09501656
vt 0.7908881 0.09501648
vt 0.8318465 0.19519027
vt 0.7997425 0.19518587
vt 0.8407777 0.09502388
vt 0.79388577 0.008918899
vt 0.8378517 0.008924707
vt 0.6491516 0.19516507
vt 0.67310095 0.042217046
vt 0.79081404 0.29535225
vt 0.84070593 0.2953581
vt 0.7937472 0.38144985
vt 0.8377106 0.3814543
vt 0.6729897 0.34812075
vt 0.95860475 0.042255513
vt 0.9824401 0.19520943
vt 0.8407777 0.09502388
vt 0.958493 0.3481576
vt 0.84070593 0.2953581
vt 0.38900775 0.75981766
vt 0.1926855 0.86989945
vt 0.20228463 0.39315292
vt 0.36733145 0.9286863
vt 0.4948894 0.85954577
vt 0.600226 0.75034565
vt 0.48951775 0.62650496
vt 0.1896895 0.9843544
vt 0.6526592 0.6220982
vt 0.63615704 0.3916518
vt 0.50202304 0.39651838
vt 0.58550966 0.015750522
vt 0.4640635 0.015750522
vt 0.20423502 0.015750522
vt 0.17553042 0.015750522
vt 0.17510203 0.3931476
vt 0.17421219 0.8701216
vt 0.5020259 0.39651838
vt 0.46406654 0.015750522
vt 0.38901055 0.75981766
vt 0.19268847 0.86989945
vt 0.20228767 0.39315292
vt 0.48952052 0.62650496
vt 0.20423806 0.015750522
vt 0.17553328 0.015750522
vt 0.17510203 0.3931476
vt 0.17421521 0.8701216
vt 0.1896895 0.9843544
vt 0.9124796 0.9914331

o guan_yin_ping_w
s 1
usemtl guan_yin_ping_w
f 1/1/1 2/2/2 3/3/3
f 3/3/3 4/4/4 1/1/1
f 5/5/5 3/3/3 2/2/2
f 3/3/3 5/5/5 6/6/6
f 1/1/1 7/7/7 2/2/2
f 1/1/1 8/8/8 7/7/7
f 9/9/9 8/8/8 1/1/1
f 9/9/9 10/10/10 8/8/8
f 2/2/2 11/11/11 5/5/5
f 2/2/2 7/7/7 11/11/11
f 5/5/5 11/11/11 12/12/12
f 5/5/5 12/12/12 13/13/13
f 8/8/8 14/14/14 7/7/7
f 11/11/11 7/7/7 14/14/14
f 8/8/8 15/15/15 14/14/14
f 11/11/11 14/14/14 16/16/16
f 10/10/10 17/17/17 8/8/8
f 11/11/11 18/18/18 12/12/12
f 14/14/14 15/15/15 19/19/19
f 16/16/16 14/14/14 19/19/19
f 20/20/20 5/5/5 13/13/13
f 21/21/21 6/6/6 22/22/22
f 22/22/22 23/23/23 21/21/21
f 24/24/24 21/21/21 23/23/23
f 21/21/21 24/24/24 4/4/4
f 24/24/24 23/23/23 25/25/25
f 24/24/24 25/25/25 26/26/26
f 27/27/27 24/24/24 26/26/26
f 27/27/27 26/26/26 28/28/28
f 23/23/23 29/29/29 25/25/25
f 23/23/23 22/22/22 29/29/29
f 22/22/22 30/30/30 29/29/29
f 22/22/22 31/31/31 30/30/30
f 26/26/26 25/25/25 32/32/32
f 29/29/29 32/32/32 25/25/25
f 26/26/26 32/32/32 33/33/33
f 29/29/29 34/34/34 32/32/32
f 28/28/28 26/26/26 35/35/35
f 29/29/29 30/30/30 36/36/36
f 32/32/32 37/37/37 33/33/33
f 34/34/34 37/37/37 32/32/32
f 38/38/38 24/24/24 27/27/27
f 22/22/22 39/39/39 31/31/31
f 40/40/40 41/41/41 42/42/42
f 43/43/43 41/41/41 40/40/40
f 40/40/40 42/42/42 44/44/44
f 44/44/44 42/42/42 45/45/45
f 45/45/45 42/42/42 41/41/41
f 45/45/45 41/41/41 46/46/46
f 47/47/47 41/41/41 48/48/48
f 48/48/48 41/41/41 49/49/49
f 48/48/48 49/49/49 50/50/50
f 50/50/50 49/49/49 51/51/51
f 51/51/51 49/49/49 41/41/41
f 51/51/51 41/41/41 52/52/52
f 53/53/53 54/54/54 55/55/55
f 56/56/56 54/54/54 57/57/57
f 58/58/58 59/59/59 60/60/60
f 61/61/61 59/59/59 62/62/62
f 63/63/63 64/64/64 65/65/65
f 63/63/63 66/66/66 64/64/64
f 63/63/63 65/65/65 67/67/67
f 63/63/63 67/67/67 68/68/68
f 68/68/68 67/67/67 69/69/69
f 70/70/70 65/65/65 64/64/64
f 67/67/67 65/65/65 70/70/70
f 70/70/70 64/64/64 71/71/71
f 67/67/67 70/70/70 72/72/72
f 69/69/69 67/67/67 72/72/72
f 63/63/63 73/73/73 66/66/66
f 70/70/70 71/71/71 73/73/73
f 63/63/63 74/74/74 73/73/73
f 70/70/70 73/73/73 74/74/74
f 63/63/63 75/75/75 74/74/74
f 63/63/63 68/68/68 75/75/75
f 68/68/68 69/69/69 75/75/75
f 75/75/75 70/70/70 74/74/74
f 75/75/75 72/72/72 70/70/70
f 69/69/69 72/72/72 75/75/75
f 76/76/76 77/77/77 78/78/78
f 76/76/76 79/79/79 77/77/77
f 79/79/79 76/76/76 80/80/80
f 79/79/79 80/80/80 81/81/81
f 76/76/76 78/78/78 82/82/82
f 76/76/76 82/82/82 83/83/83
f 84/84/84 78/78/78 77/77/77
f 84/84/84 82/82/82 78/78/78
f 84/84/84 77/77/77 85/85/85
f 85/85/85 86/86/86 84/84/84
f 85/85/85 87/87/87 86/86/86
f 84/84/84 88/88/88 82/82/82
f 77/77/77 89/89/89 90/90/90
f 77/77/77 91/91/91 89/89/89
f 77/77/77 90/90/90 92/92/92
f 77/77/77 92/92/92 93/93/93
f 94/94/94 95/95/95 96/96/96
f 94/94/94 97/97/97 95/95/95
f 97/97/97 94/94/94 98/98/98
f 97/97/97 98/98/98 99/99/99
f 94/94/94 96/96/96 100/100/100
f 94/94/94 100/100/100 101/101/101
f 102/102/102 96/96/96 95/95/95
f 102/102/102 100/100/100 96/96/96
f 102/102/102 95/95/95 103/103/103
f 103/103/103 104/104/104 102/102/102
f 103/103/103 105/105/105 104/104/104
f 102/102/102 106/106/106 100/100/100
f 95/95/95 107/107/107 108/108/108
f 95/95/95 109/109/109 107/107/107
f 95/95/95 108/108/108 110/110/110
f 95/95/95 110/110/110 111/111/111
f 112/112/112 113/113/113 114/114/114
f 112/112/112 115/115/115 113/113/113
f 112/112/112 116/116/116 115/115/115
f 112/112/112 117/117/117 116/116/116
f 118/118/118 117/117/117 112/112/112
f 112/112/112 114/114/114 118/118/118
f 113/113/113 115/115/115 119/119/119
f 118/118/118 120/120/120 117/117/117
f 118/118/118 121/121/121 120/120/120
f 118/118/118 122/122/122 121/121/121
f 118/118/118 114/114/114 122/122/122
f 123/123/123 121/121/121 122/122/122
f 123/123/123 122/122/122 124/124/124
f 122/122/122 125/125/125 124/124/124
f 122/122/122 114/114/114 125/125/125
f 114/114/114 126/126/126 125/125/125
f 114/114/114 127/127/127 126/126/126
f 113/113/113 127/127/127 114/114/114
f 113/113/113 119/119/119 128/128/128
f 113/113/113 128/128/128 127/127/127
f 123/123/123 129/129/129 121/121/121
f 123/123/123 130/130/130 129/129/129
f 131/131/131 115/115/115 116/116/116
f 131/131/131 132/132/132 115/115/115
f 132/132/132 119/119/119 115/115/115
f 131/131/131 133/133/133 132/132/132
f 134/134/134 121/121/121 129/129/129
f 131/131/131 134/134/134 133/133/133
f 134/134/134 129/129/129 133/133/133
f 134/134/134 120/120/120 121/121/121
f 134/134/134 131/131/131 117/117/117
f 131/131/131 116/116/116 117/117/117
f 134/134/134 117/117/117 120/120/120
f 129/129/129 135/135/135 133/133/133
f 129/129/129 130/130/130 135/135/135
f 133/133/133 135/135/135 136/136/136
f 133/133/133 136/136/136 137/137/137
f 132/132/132 133/133/133 137/137/137
f 132/132/132 137/137/137 138/138/138
f 132/132/132 138/138/138 139/139/139
f 1/1/1 140/140/140 9/9/9

