# Created by DisUnity v0.3.1
v -0.04447057 -0.120358676 0.15765987
v -0.040816516 -0.16209365 0.15892199
v 0.009673849 -0.11569119 0.045308072
v -0.020775212 -0.097080894 0.09124287
v -0.0074891206 -0.06054923 0.077768564
v 0.018014565 -0.064232804 0.029588547
v -0.033634786 -0.18907337 0.12350909
v -0.024402842 -0.2295095 0.12002149
v -0.008765572 -0.25504318 0.0893078
v 0.024696687 -0.094275594 -0.015558099
v 0.014092922 -0.13361798 -0.009861514
v 6.215942E-4 -0.2557317 0.047460098
v 0.003138789 -0.22760707 0.01687966
v 0.026924348 -0.19517088 -0.04935835
v 0.022254229 -0.22818324 -0.023959298
v -0.07249941 -0.1615643 0.14780411
v -0.06761836 -0.11997192 0.14953707
v -0.039539028 -0.11486893 0.028038753
v -0.043951895 -0.09691984 0.08319166
v -0.044540882 -0.059930164 0.064766705
v -0.034451596 -0.0633562 0.011177612
v -0.056782577 -0.1886866 0.115386285
v -0.0630101 -0.22886443 0.10647379
v -0.056783635 -0.2542409 0.07245776
v -0.012355072 -0.093656525 -0.028559957
v -0.009083771 -0.13345692 -0.01791273
v -0.037985656 -0.25508666 0.0339124
v -0.020009005 -0.22722033 0.008756852
v 0.0037765573 -0.19478412 -0.057481155
v -0.0094286725 -0.22765388 -0.035077166
v -0.04447057 -0.120358676 0.15765987
v -0.07249941 -0.1615643 0.14780411
v -0.040816516 -0.16209365 0.15892199
v -0.06761836 -0.11997192 0.14953707
v -0.020775212 -0.097080894 0.09124287
v -0.043951895 -0.09691984 0.08319166
v -0.0074891206 -0.06054923 0.077768564
v -0.044540882 -0.059930164 0.064766705
v 0.018014565 -0.064232804 0.029588547
v -0.034451596 -0.0633562 0.011177612
v -0.056782577 -0.1886866 0.115386285
v -0.033634786 -0.18907337 0.12350909
v -0.0630101 -0.22886443 0.10647379
v -0.024402842 -0.2295095 0.12002149
v -0.056783635 -0.2542409 0.07245776
v -0.008765572 -0.25504318 0.0893078
v -0.012355072 -0.093656525 -0.028559957
v 0.024696687 -0.094275594 -0.015558099
v -0.009083771 -0.13345692 -0.01791273
v 0.014092922 -0.13361798 -0.009861514
v 6.215942E-4 -0.2557317 0.047460098
v -0.037985656 -0.25508666 0.0339124
v 0.003138789 -0.22760707 0.01687966
v -0.020009005 -0.22722033 0.008756852
v 0.0037765573 -0.19478412 -0.057481155
v 0.026924348 -0.19517088 -0.04935835
v -0.0094286725 -0.22765388 -0.035077166
v 0.022254229 -0.22818324 -0.023959298
v 0.021595899 0.0062949704 0.0053357063
v 0.016388176 0.09759983 1.9538878E-4
v 0.004992039 0.0129753845 0.019693514
v 0.03767842 0.08879936 -0.018954184
v -0.009813187 0.0980376 -0.008998948
v -0.015796535 0.013322722 0.012398583
v -0.014724265 0.08967491 -0.037342843
v -0.019981299 0.0069896462 -0.009254174
v -0.0072544394 -0.06479193 0.05222
v 0.012635554 -0.07019533 0.029888205
v -0.028873911 -0.06443071 0.044633493
v -0.030603342 -0.069472894 0.014715217
v 0.032770865 0.080432996 -0.0473082
v 0.01741145 -3.847241E-5 -0.016318073
v 0.0065695103 0.08087077 -0.056502532
v -0.0033771174 3.088647E-4 -0.023613004
v 0.009941318 -0.08281076 0.0023588133
v -0.011678147 -0.08244954 -0.005227685
v 0.016388176 0.09759983 1.9538878E-4
v -0.014724265 0.08967491 -0.037342843
v -0.009813187 0.0980376 -0.008998948
v 0.03767842 0.08879936 -0.018954184
v 0.032770865 0.080432996 -0.0473082
v 0.0065695103 0.08087077 -0.056502532
v 0.022884594 0.16787891 -0.052756775
v 0.047590993 0.12176791 -0.027464973
v 0.02775335 0.1101566 -0.07117486
v 0.0048417435 0.13416581 -0.0047398326
v 0.010677833 0.072533235 -0.022510549
v -0.01677069 0.12255734 -0.05005449
v -0.14118825 -0.49024943 0.35465676
v -0.13172401 -0.56381524 0.32418358
v -0.063063584 -0.5557684 0.17923698
v -0.03297314 -0.3798387 0.12605911
v -0.14332002 -0.40241194 0.36491397
v -0.047140114 -0.66197234 0.051272973
v -0.012066988 -0.5755107 -0.04455918
v -0.12634815 -0.6357998 0.30543634
v -0.13026844 -0.30172628 0.3325145
v 0.0047976207 -0.45202777 -0.08673934
v -0.088804625 -0.6861265 0.16885552
v -0.105071574 -0.66324586 0.27582678
v -0.09651215 -0.20439859 0.24095228
v -0.01667716 -0.19344895 0.06429951
v 0.0036474846 -0.32685116 -0.06810159
v -0.0014215827 -0.22385475 -0.025392441
v -0.057010185 -0.16262701 0.14518242
v -0.03366692 -0.19316506 0.05833762
v -0.04996292 -0.37955487 0.12009723
v -0.08005334 -0.5554845 0.17327508
v -0.11681702 -0.7204923 0.24704696
v -0.13900328 -0.71593475 0.33768457
vn 0.2814239 0.4962977 0.8212729
vn 0.3495415 -0.3535394 0.8676582
vn 0.94180024 -0.028173575 0.33499044
vn 0.4681292 0.5396196 0.6997612
vn 0.3956576 0.66268414 0.63584965
vn 0.7444695 0.6674757 0.015538027
vn 0.4535335 -0.31796265 0.8325906
vn 0.32681248 -0.36667916 0.8710569
vn 0.54167444 -0.71338004 0.44460964
vn 0.8035278 0.23536912 -0.54675823
vn 0.8729181 0.1154841 -0.4740015
vn 0.67227644 -0.72867954 -0.1306537
vn 0.76335603 -0.64262027 -0.06577813
vn 0.7802009 -0.026373632 -0.62497276
vn 0.6914246 -0.711784 -0.123675376
vn -0.8253004 -0.33391047 0.45539343
vn -0.7178944 0.5131732 0.47040492
vn -0.9446869 0.005898781 -0.32792044
vn -0.7872566 0.56235725 0.25294554
vn -0.6842995 0.6826692 0.25631416
vn -0.5691848 0.69078034 -0.44592723
vn -0.88347805 -0.29562378 0.36341855
vn -0.81007963 -0.34768364 0.47210917
vn -0.7216349 -0.6922725 0.0013011066
vn -0.27639094 0.2552774 -0.9265212
vn -0.38556927 0.14148754 -0.9117663
vn -0.4646179 -0.70968443 -0.52960193
vn -0.573655 -0.6202813 -0.5349495
vn -0.21920225 -0.009421405 -0.9756339
vn -0.48341593 -0.6921546 -0.53593934
vn 0.2814239 0.4962977 0.8212729
vn -0.8253004 -0.33391047 0.45539343
vn 0.3495415 -0.3535394 0.8676582
vn -0.7178944 0.5131732 0.47040492
vn 0.4681292 0.5396196 0.6997612
vn -0.7872566 0.56235725 0.25294554
vn 0.3956576 0.66268414 0.63584965
vn -0.6842995 0.6826692 0.25631416
vn 0.7444695 0.6674757 0.015538027
vn -0.5691848 0.69078034 -0.44592723
vn -0.88347805 -0.29562378 0.36341855
vn 0.4535335 -0.31796265 0.8325906
vn -0.81007963 -0.34768364 0.47210917
vn 0.32681248 -0.36667916 0.8710569
vn -0.7216349 -0.6922725 0.0013011066
vn 0.54167444 -0.71338004 0.44460964
vn -0.27639094 0.2552774 -0.9265212
vn 0.8035278 0.23536912 -0.54675823
vn -0.38556927 0.14148754 -0.9117663
vn 0.8729181 0.1154841 -0.4740015
vn 0.67227644 -0.72867954 -0.1306537
vn -0.4646179 -0.70968443 -0.52960193
vn 0.76335603 -0.64262027 -0.06577813
vn -0.573655 -0.6202813 -0.5349495
vn -0.21920225 -0.009421405 -0.9756339
vn 0.7802009 -0.026373632 -0.62497276
vn -0.48341593 -0.6921546 -0.53593934
vn 0.6914246 -0.711784 -0.123675376
vn 0.94167864 -0.028891228 0.3352711
vn 0.25001198 0.76626384 0.59189
vn 0.2237718 0.2686421 0.9368872
vn 0.8326657 0.54646194 0.08970555
vn -0.542808 0.7790668 0.3137105
vn -0.7575925 0.2767233 0.5911666
vn -0.6901996 0.5710827 -0.44439742
vn -0.9464265 -0.009904729 -0.32276732
vn 0.22228739 0.33367914 0.916104
vn 0.9447075 -0.005424151 0.32786933
vn -0.7382822 0.36050832 0.57006425
vn -0.9381813 0.051924586 -0.34222776
vn 0.68206435 0.31339067 -0.6607379
vn 0.7519499 -0.2849522 -0.5944523
vn -0.1109433 0.32626542 -0.93874514
vn -0.23195155 -0.2743496 -0.9332367
vn 0.7522654 -0.22152619 -0.6205021
vn -0.2111863 -0.19174393 -0.95845425
vn 0.25001198 0.76626384 0.59189
vn -0.6901996 0.5710827 -0.44439742
vn -0.542808 0.7790668 0.3137105
vn 0.8326657 0.54646194 0.08970555
vn 0.68206435 0.31339067 -0.6607379
vn -0.1109433 0.32626542 -0.93874514
vn 0.14111692 0.944052 -0.2980803
vn 0.94664 -4.0650833E-4 0.32229272
vn 0.3198348 -0.31050378 -0.89514977
vn -0.29815692 0.33604926 0.89340544
vn -0.10021959 -0.94784033 0.3025802
vn -0.9399528 0.027665125 -0.34018117
vn -0.37686872 -0.1168683 0.91886437
vn -0.36509192 -0.34204125 0.86586124
vn 0.9446065 -0.09566182 0.31395447
vn 0.9510558 -0.01862615 0.30845723
vn -0.37838703 0.08560889 0.9216802
vn 0.091496795 -0.813904 -0.57374966
vn 0.17542717 -0.5959277 -0.78364235
vn -0.36821738 0.42449874 0.827174
vn -0.3324106 0.5080928 0.7945721
vn 0.2291447 -0.12943198 -0.96474874
vn -0.016449261 -0.8838877 -0.46740973
vn 0.92408735 -0.096356556 0.36983505
vn -0.2939115 0.6901389 0.66130495
vn 0.95419264 0.020574784 0.29848453
vn 0.22951311 0.06104172 -0.97138953
vn 0.3048807 0.377569 -0.8743508
vn -0.09626432 0.9262891 0.3643101
vn -0.9476888 0.026661525 -0.31808025
vn -0.94984144 0.02040476 -0.31206575
vn -0.9459484 0.060987685 -0.31853127
vn -0.13431975 -0.9633403 -0.23223642
vn -0.2883588 -0.5515789 0.78269404
vt 0.262974 0.805239
vt 0.299669 0.872215
vt 0.667215 0.748306
vt 0.489621 0.735812
vt 0.514058 0.655263
vt 0.667448 0.636844
vt 0.428126 0.897671
vt 0.506481 0.959619
vt 0.666497 0.987312
vt 0.514058 0.655263
vt 0.489621 0.735812
vt 0.506481 0.959619
vt 0.428126 0.897671
vt 0.262974 0.805239
vt 0.299669 0.872215
vt 0.299669 0.872215
vt 0.262974 0.805239
vt 0.667215 0.748306
vt 0.489621 0.735812
vt 0.514058 0.655263
vt 0.667448 0.636844
vt 0.428126 0.897671
vt 0.506481 0.959619
vt 0.666497 0.987312
vt 0.514058 0.655263
vt 0.489621 0.735812
vt 0.506481 0.959619
vt 0.428126 0.897671
vt 0.262974 0.805239
vt 0.299669 0.872215
vt 0.86298 0.767457
vt 0.939668 0.824121
vt 0.86298 0.824121
vt 0.939668 0.767457
vt 0.86298 0.675237
vt 0.939668 0.675237
vt 0.851607 0.59947
vt 0.951041 0.59947
vt 0.851607 0.547432
vt 0.951041 0.547432
vt 0.939668 0.871392
vt 0.86298 0.871392
vt 0.939668 0.928656
vt 0.86298 0.928656
vt 0.939668 0.978307
vt 0.86298 0.978307
vt 0.951041 0.59947
vt 0.851607 0.59947
vt 0.939668 0.675237
vt 0.86298 0.675237
vt 0.86298 0.928656
vt 0.939668 0.928656
vt 0.86298 0.871392
vt 0.939668 0.871392
vt 0.939668 0.767457
vt 0.86298 0.767457
vt 0.939668 0.824121
vt 0.86298 0.824121
vt 0.0307421 0.829021
vt 0.0942676 0.662651
vt 0.0946235 0.829057
vt 0.0317584 0.667709
vt 0.157435 0.662651
vt 0.157079 0.829057
vt 0.218954 0.667709
vt 0.221951 0.829021
vt 0.0942676 0.989273
vt 0.0317568 0.984288
vt 0.157435 0.989273
vt 0.218958 0.984288
vt 0.0942676 0.662651
vt 0.0946235 0.829057
vt 0.157435 0.662651
vt 0.157079 0.829057
vt 0.0942676 0.989273
vt 0.157435 0.989273
vt 0.861897 0.0823287
vt 0.981957 0.0130121
vt 0.941937 0.0823287
vt 0.821877 0.0130121
vt 0.861897 0.0823287
vt 0.941937 0.0823287
vt 0.0156761 0.436516
vt 0.1423991 0.5552088
vt 0.225373 0.512117
vt 0.0522701 0.604897
vt 0.243755 0.650142
vt 0.13767582 0.5507848
vt 0.142097 0.44941
vt 0.274813 0.513846
vt 0.498711 0.440707
vt 0.498456 0.230502
vt 0.0527205 0.361062
vt 0.810153 0.485489
vt 0.950445 0.341594
vt 0.327092 0.586473
vt 0.0236913 0.240806
vt 0.97633 0.22003
vt 0.585559 0.551257
vt 0.378965 0.613142
vt 0.148334 0.111487
vt 0.498207 0.0112282
vt 0.848293 0.0962114
vt 0.699328 0.0106377
vt 0.297084 0.0116484
vt 0.498207 0.0112282
vt 0.498456 0.230502
vt 0.498711 0.440707
vt 0.448984 0.64914
vt 0.298377 0.681664

o guo_jia_5_w_0
s 1
usemtl guo_jia_5_w_0
f 1/1/1 2/2/2 3/3/3
f 1/1/1 3/3/3 4/4/4
f 3/3/3 5/5/5 4/4/4
f 5/5/5 3/3/3 6/6/6
f 3/3/3 2/2/2 7/7/7
f 3/3/3 7/7/7 8/8/8
f 3/3/3 8/8/8 9/9/9
f 3/3/3 10/10/10 6/6/6
f 10/10/10 3/3/3 11/11/11
f 3/3/3 9/9/9 12/12/12
f 3/3/3 12/12/12 13/13/13
f 14/14/14 11/11/11 3/3/3
f 14/14/14 3/3/3 15/15/15
f 3/3/3 13/13/13 15/15/15
f 16/16/16 17/17/17 18/18/18
f 18/18/18 17/17/17 19/19/19
f 20/20/20 18/18/18 19/19/19
f 18/18/18 20/20/20 21/21/21
f 16/16/16 18/18/18 22/22/22
f 22/22/22 18/18/18 23/23/23
f 23/23/23 18/18/18 24/24/24
f 25/25/25 18/18/18 21/21/21
f 18/18/18 25/25/25 26/26/26
f 27/27/27 24/24/24 18/18/18
f 28/28/28 27/27/27 18/18/18
f 18/18/18 26/26/26 29/29/29
f 30/30/30 18/18/18 29/29/29
f 30/30/30 28/28/28 18/18/18
f 31/31/31 32/32/32 33/33/33
f 32/32/32 31/31/31 34/34/34
f 35/35/35 34/34/34 31/31/31
f 34/34/34 35/35/35 36/36/36
f 37/37/37 36/36/36 35/35/35
f 36/36/36 37/37/37 38/38/38
f 39/39/39 38/38/38 37/37/37
f 38/38/38 39/39/39 40/40/40
f 41/41/41 33/33/33 32/32/32
f 33/33/33 41/41/41 42/42/42
f 43/43/43 42/42/42 41/41/41
f 42/42/42 43/43/43 44/44/44
f 45/45/45 44/44/44 43/43/43
f 44/44/44 45/45/45 46/46/46
f 39/39/39 47/47/47 40/40/40
f 47/47/47 39/39/39 48/48/48
f 48/48/48 49/49/49 47/47/47
f 49/49/49 48/48/48 50/50/50
f 45/45/45 51/51/51 46/46/46
f 51/51/51 45/45/45 52/52/52
f 52/52/52 53/53/53 51/51/51
f 53/53/53 52/52/52 54/54/54
f 50/50/50 55/55/55 49/49/49
f 55/55/55 50/50/50 56/56/56
f 56/56/56 57/57/57 55/55/55
f 57/57/57 56/56/56 58/58/58
f 58/58/58 54/54/54 57/57/57
f 54/54/54 58/58/58 53/53/53
f 59/59/59 60/60/60 61/61/61
f 60/60/60 59/59/59 62/62/62
f 63/63/63 61/61/61 60/60/60
f 61/61/61 63/63/63 64/64/64
f 65/65/65 64/64/64 63/63/63
f 64/64/64 65/65/65 66/66/66
f 67/67/67 59/59/59 61/61/61
f 59/59/59 67/67/67 68/68/68
f 61/61/61 69/69/69 67/67/67
f 69/69/69 61/61/61 64/64/64
f 64/64/64 70/70/70 69/69/69
f 70/70/70 64/64/64 66/66/66
f 59/59/59 71/71/71 62/62/62
f 71/71/71 59/59/59 72/72/72
f 72/72/72 73/73/73 71/71/71
f 73/73/73 72/72/72 74/74/74
f 74/74/74 65/65/65 73/73/73
f 65/65/65 74/74/74 66/66/66
f 74/74/74 70/70/70 66/66/66
f 59/59/59 75/75/75 72/72/72
f 75/75/75 59/59/59 68/68/68
f 72/72/72 76/76/76 74/74/74
f 76/76/76 72/72/72 75/75/75
f 70/70/70 74/74/74 76/76/76
f 77/77/77 78/78/78 79/79/79
f 78/78/78 77/77/77 80/80/80
f 81/81/81 78/78/78 80/80/80
f 78/78/78 81/81/81 82/82/82
f 83/83/83 84/84/84 85/85/85
f 83/83/83 86/86/86 84/84/84
f 85/85/85 84/84/84 87/87/87
f 84/84/84 86/86/86 87/87/87
f 88/88/88 85/85/85 87/87/87
f 86/86/86 88/88/88 87/87/87
f 85/85/85 88/88/88 83/83/83
f 88/88/88 86/86/86 83/83/83
f 89/89/89 90/90/90 91/91/91
f 92/92/92 89/89/89 91/91/91
f 89/89/89 92/92/92 93/93/93
f 94/94/94 92/92/92 91/91/91
f 92/92/92 94/94/94 95/95/95
f 91/91/91 90/90/90 96/96/96
f 93/93/93 92/92/92 97/97/97
f 92/92/92 95/95/95 98/98/98
f 94/94/94 91/91/91 99/99/99
f 99/99/99 91/91/91 100/100/100
f 91/91/91 96/96/96 100/100/100
f 97/97/97 92/92/92 101/101/101
f 102/102/102 101/101/101 92/92/92
f 103/103/103 102/102/102 92/92/92
f 92/92/92 98/98/98 103/103/103
f 102/102/102 103/103/103 104/104/104
f 101/101/101 102/102/102 105/105/105
f 103/103/103 106/106/106 104/104/104
f 106/106/106 101/101/101 105/105/105
f 106/106/106 103/103/103 107/107/107
f 101/101/101 106/106/106 107/107/107
f 94/94/94 107/107/107 95/95/95
f 93/93/93 97/97/97 107/107/107
f 107/107/107 98/98/98 95/95/95
f 97/97/97 101/101/101 107/107/107
f 107/107/107 103/103/103 98/98/98
f 107/107/107 89/89/89 93/93/93
f 89/89/89 107/107/107 108/108/108
f 107/107/107 94/94/94 108/108/108
f 94/94/94 99/99/99 108/108/108
f 89/89/89 108/108/108 90/90/90
f 108/108/108 96/96/96 90/90/90
f 99/99/99 109/109/109 108/108/108
f 108/108/108 109/109/109 96/96/96
f 99/99/99 100/100/100 109/109/109
f 109/109/109 100/100/100 110/110/110
f 109/109/109 110/110/110 96/96/96
f 110/110/110 100/100/100 96/96/96

