# Created by DisUnity v0.3.1
v -0.017450029 0.0367832 -0.2521496
v -0.011304666 -0.016879268 -0.29019535
v -0.017450029 -0.016879272 -0.2521496
v -0.011304666 0.036783207 -0.29019535
v 0.09061069 -0.030391388 -0.27459037
v 0.09061069 -0.030390495 -0.31267512
v 0.09061069 0.01852947 -0.31267512
v -0.011304666 -0.016879268 -0.29019535
v -0.011304666 0.036783207 -0.29019535
v -0.020034144 0.036783177 0.31191587
v -0.02359543 -0.016879296 0.26364422
v -0.015907366 -0.034333747 0.31195992
v -0.02359543 0.03678318 0.26364422
v -0.008471797 0.036783177 0.37167922
v -0.004775737 -0.034333754 0.3692138
v -0.019335939 -0.034333747 0.2663232
v 0.09061069 -0.047934342 0.31625882
v 0.09061069 -0.047932252 0.376174
v 0.09061069 0.01853005 0.3791555
v -0.008471797 0.036783177 0.37167922
v 0.09061069 -0.047934473 0.2663232
v 0.09061069 -0.030392217 0.26364422
v -0.02359543 -0.016879296 0.26364422
v -0.017450029 -0.016879272 -0.2521496
v 0.09061069 -0.030391807 -0.0054730563
v -0.029422762 -0.016879281 0.0057473034
v 0.09061069 -0.030391388 -0.27459037
v -0.029422762 0.03678319 0.0057473416
v -0.017450029 0.0367832 -0.2521496
v 0.09061069 -0.030392217 0.26364422
v -0.02359543 -0.016879296 0.26364422
v -0.02359543 0.03678318 0.26364422
v 0.09061069 0.018528264 -0.27459034
v -0.011304666 0.036783207 -0.29019535
v -0.017450029 0.0367832 -0.2521496
v 0.09061069 0.01852947 -0.31267512
v 0.09061069 0.018527709 -0.0054730563
v -0.029422762 0.03678319 0.0057473416
v 0.09061069 0.01852716 0.26364422
v -0.02359543 0.03678318 0.26364422
v -0.020034144 0.036783177 0.31191587
v 0.09061069 0.01852716 0.26364422
v -0.02359543 0.03678318 0.26364422
v 0.09061069 0.018527485 0.37909424
v -0.008471797 0.036783177 0.37167922
v 0.09061069 0.01853005 0.3791555
v -0.020034144 0.036783177 0.31191587
v 0.09061069 0.01853005 0.3791555
v 0.09061069 0.018527485 0.37909424
v 0.20125553 0.036783177 0.31191587
v 0.19867145 0.0367832 -0.2521496
v 0.19252606 -0.016879268 -0.29019535
v 0.19252606 0.036783207 -0.29019535
v 0.19867145 -0.016879272 -0.2521496
v 0.09061069 -0.030391388 -0.27459037
v 0.09061069 -0.030390495 -0.31267512
v 0.09061069 0.01852947 -0.31267512
v 0.19252606 -0.016879268 -0.29019535
v 0.19252606 0.036783207 -0.29019535
v 0.20125553 0.036783177 0.31191587
v 0.20481682 -0.016879296 0.26364422
v 0.20481682 0.03678318 0.26364422
v 0.19712879 -0.034333747 0.31195992
v 0.18969321 0.036783177 0.37167922
v 0.18599716 -0.034333754 0.3692138
v 0.20055729 -0.034333747 0.2663232
v 0.09061069 -0.047934342 0.31625882
v 0.09061069 -0.047932252 0.376174
v 0.09061069 0.01853005 0.3791555
v 0.18969321 0.036783177 0.37167922
v 0.09061069 -0.047934473 0.2663232
v 0.09061069 -0.030392217 0.26364422
v 0.20481682 -0.016879296 0.26364422
v 0.19867145 -0.016879272 -0.2521496
v 0.09061069 -0.030391807 -0.0054730563
v 0.09061069 -0.030391388 -0.27459037
v 0.21064411 -0.016879281 0.0057473416
v 0.21064411 0.03678319 0.0057473034
v 0.19867145 0.0367832 -0.2521496
v 0.09061069 -0.030392217 0.26364422
v 0.20481682 -0.016879296 0.26364422
v 0.20481682 0.03678318 0.26364422
v 0.09061069 0.018528264 -0.27459034
v 0.19252606 0.036783207 -0.29019535
v 0.09061069 0.01852947 -0.31267512
v 0.19867145 0.0367832 -0.2521496
v 0.09061069 0.018527709 -0.0054730563
v 0.21064411 0.03678319 0.0057473034
v 0.09061069 0.01852716 0.26364422
v 0.20481682 0.03678318 0.26364422
v 0.20125553 0.036783177 0.31191587
v 0.09061069 0.01852716 0.26364422
v 0.09061069 0.018527485 0.37909424
v 0.20481682 0.03678318 0.26364422
v 0.09061069 0.01853005 0.3791555
v 0.18969321 0.036783177 0.37167922
v 0.17465636 -0.03457497 -0.26348507
v 0.18144813 -0.023307303 0.2720381
v 0.17465636 -0.025919117 0.2720381
v 0.18144813 -0.03196316 -0.26348507
v 0.17465636 -0.020695485 0.2720381
v 0.17465636 -0.029351344 -0.26348507
v 0.17465636 -0.008381939 -0.28613445
v 0.18144813 -0.0072781323 -0.28376734
v 0.17465636 -0.00617434 -0.28140026
v 0.17465636 -0.029351344 -0.26348507
v 0.17465636 -0.025919117 0.2720381
v 0.17465636 -0.020695485 0.2720381
v 0.17465636 -0.03457497 -0.26348507
v 0.17465636 -0.00617434 -0.28140026
v 0.17465636 -0.008381939 -0.28613445
v 0.12469513 -0.044070225 -0.274462
v 0.13258697 -0.035794854 0.2720381
v 0.12469513 -0.038406666 0.2720381
v 0.13258697 -0.041458417 -0.274462
v 0.12469513 -0.03318304 0.2720381
v 0.12469513 -0.038846597 -0.274462
v 0.12469513 -0.017877188 -0.29711142
v 0.13258697 -0.0167734 -0.2947443
v 0.12469513 -0.015669603 -0.2923772
v 0.12469513 -0.038846597 -0.274462
v 0.12469513 -0.038406666 0.2720381
v 0.12469513 -0.03318304 0.2720381
v 0.12469513 -0.044070225 -0.274462
v 0.12469513 -0.015669603 -0.2923772
v 0.12469513 -0.017877188 -0.29711142
v 0.08187897 -0.044070225 -0.28078002
v 0.08918975 -0.037944827 0.2720381
v 0.08187897 -0.040556654 0.2720381
v 0.08918975 -0.041458417 -0.28078002
v 0.08187897 -0.035333022 0.2720381
v 0.08187897 -0.038846593 -0.28078002
v 0.08187897 -0.017877182 -0.30342942
v 0.08918975 -0.01677339 -0.30106232
v 0.08187897 -0.015669603 -0.29869524
v 0.08187897 -0.038846593 -0.28078002
v 0.08187897 -0.040556654 0.2720381
v 0.08187897 -0.035333022 0.2720381
v 0.08187897 -0.044070225 -0.28078002
v 0.08187897 -0.015669603 -0.29869524
v 0.08187897 -0.017877182 -0.30342942
v 0.03624187 -0.044070225 -0.27072287
v 0.04443496 -0.034994867 0.27203816
v 0.03624187 -0.037606686 0.27203816
v 0.04443496 -0.041458417 -0.27072287
v 0.03624187 -0.032383054 0.27203816
v 0.03624187 -0.038846597 -0.27072287
v 0.03624187 -0.017877188 -0.29337233
v 0.04443496 -0.0167734 -0.2910052
v 0.03624187 -0.015669603 -0.2886381
v 0.03624187 -0.038846597 -0.27072287
v 0.03624187 -0.037606686 0.27203816
v 0.03624187 -0.032383054 0.27203816
v 0.03624187 -0.044070225 -0.27072287
v 0.03624187 -0.015669603 -0.2886381
v 0.03624187 -0.017877188 -0.29337233
v -0.00283459 -0.03148842 -0.261691
v 0.00455959 -0.030524459 0.27203813
v -0.00283459 -0.033136267 0.27203813
v 0.00455959 -0.028876608 -0.261691
v -0.00283459 -0.027912635 0.27203813
v -0.00283459 -0.026264796 -0.261691
v -0.00283459 -0.013809895 -0.28434038
v 0.00455959 -0.0127060935 -0.28197327
v -0.00283459 -0.0116022965 -0.2796062
v -0.00283459 -0.026264796 -0.261691
v -0.00283459 -0.033136267 0.27203813
v -0.00283459 -0.027912635 0.27203813
v -0.00283459 -0.03148842 -0.261691
v -0.00283459 -0.0116022965 -0.2796062
v -0.00283459 -0.013809895 -0.28434038
v -6.40071E-4 -0.024595989 0.07643912
v 0.019728506 -0.024595989 0.096505605
v -5.949813E-4 -0.024595989 0.0842444
v 0.01967159 -0.024595989 0.06552493
v -6.40071E-4 -0.024595989 0.07643912
v -0.020738374 -0.024595989 0.09670961
v -0.020705188 -0.024595989 0.06576834
v -5.949813E-4 -0.024595989 0.0842444
v 0.038788106 -0.030018343 0.06358187
v 0.059982102 -0.03187258 0.0845413
v 0.03883499 -0.030022444 0.07173449
v 0.059922937 -0.0318674 0.052181974
v 0.038788106 -0.030018343 0.06358187
v 0.017875325 -0.028188715 0.08475439
v 0.017909886 -0.028191732 0.05243622
v 0.03883499 -0.030022444 0.07173449
v 0.084186666 -0.03620628 0.05087752
v 0.105643004 -0.03620628 0.07201555
v 0.0842342 -0.03620628 0.0590996
v 0.105583034 -0.036206294 0.03938048
v 0.084186666 -0.03620628 0.05087752
v 0.06301513 -0.03620628 0.072230436
v 0.06305011 -0.036206294 0.039636884
v 0.0842342 -0.03620628 0.0590996
v 0.13009167 -0.030627884 0.038062178
v 0.15225543 -0.030627884 0.059897218
v 0.13014072 -0.030627884 0.04655539
v 0.15219352 -0.030627884 0.02618607
v 0.13009167 -0.030627884 0.038062178
v 0.10822201 -0.030627884 0.060119193
v 0.10825813 -0.030627884 0.026450962
v 0.13014072 -0.030627884 0.04655539
v 0.17753658 -0.023822818 0.025468811
v 0.19935542 -0.023822818 0.04696402
v 0.17758487 -0.023822818 0.033829827
v 0.19929446 -0.023822818 0.0137775075
v 0.17753658 -0.023822818 0.025468811
v 0.15600726 -0.023822818 0.047182545
v 0.15604281 -0.023822818 0.0140382415
v 0.17758487 -0.023822818 0.033829827
vn -0.6575056 0.74968714 -0.075203314
vn -0.62232506 -0.5531577 -0.5538304
vn -0.7558014 -0.6506299 -0.07378951
vn -0.5200554 0.6570991 -0.5456766
vn 0.0 -0.9999745 -0.007149022
vn 0.0 -0.68677884 -0.7268664
vn 0.0 0.6215668 -0.7833612
vn -0.62232506 -0.5531577 -0.5538304
vn -0.5200554 0.6570991 -0.5456766
vn -0.6689098 0.7349113 0.11164713
vn -0.9020223 -0.39738154 -0.16865274
vn -0.73259234 -0.6730305 0.10167751
vn -0.66023654 0.7493963 0.049928498
vn -0.49210733 0.6330423 0.5975682
vn -0.56192124 -0.57036483 0.5991064
vn -0.5627629 -0.64054585 -0.52249306
vn 0.0 -0.99996126 0.0088020135
vn 0.0 -0.7299861 0.68346196
vn 0.0 0.63970244 0.7686227
vn -0.49210733 0.6330423 0.5975682
vn 0.0 -0.7808918 -0.6246664
vn 0.0 -0.7377433 -0.67508125
vn -0.9020223 -0.39738154 -0.16865274
vn -0.7558014 -0.6506299 -0.07378951
vn 0.0 -0.99999964 -8.304331E-4
vn -0.75332326 -0.6575964 -0.008429519
vn 0.0 -0.9999745 -0.007149022
vn -0.6589734 0.7521164 -0.008668666
vn -0.6575056 0.74968714 -0.075203314
vn 0.0 -0.7377433 -0.67508125
vn -0.9020223 -0.39738154 -0.16865274
vn -0.66023654 0.7493963 0.049928498
vn 0.0 0.9999535 0.009650714
vn -0.5200554 0.6570991 -0.5456766
vn -0.6575056 0.74968714 -0.075203314
vn 0.0 0.6215668 -0.7833612
vn 0.0 0.9999994 0.0011206366
vn -0.6589734 0.7521164 -0.008668666
vn 0.0 0.99999654 -0.002638829
vn -0.66023654 0.7493963 0.049928498
vn -0.6689098 0.7349113 0.11164713
vn 0.0 0.99999654 -0.002638829
vn -0.66023654 0.7493963 0.049928498
vn 0.0 0.9996773 -0.025403775
vn -0.49210733 0.6330423 0.5975682
vn 0.0 0.63970244 0.7686227
vn -0.6689098 0.7349113 0.11164713
vn 0.0 0.63970244 0.7686227
vn 0.0 0.9996773 -0.025403775
vn 0.66890967 0.73491156 0.11164689
vn 0.6575057 0.749687 -0.075203575
vn 0.6223247 -0.55315775 -0.5538306
vn 0.5200551 0.65709925 -0.5456769
vn 0.75580156 -0.6506298 -0.073789775
vn 0.0 -0.9999745 -0.007149022
vn 0.0 -0.68677884 -0.7268664
vn 0.0 0.6215668 -0.7833612
vn 0.6223247 -0.55315775 -0.5538306
vn 0.5200551 0.65709925 -0.5456769
vn 0.66890967 0.73491156 0.11164689
vn 0.9020221 -0.39738178 -0.16865289
vn 0.66023654 0.7493963 0.049928308
vn 0.7325926 -0.6730303 0.10167719
vn 0.49210745 0.6330422 0.59756815
vn 0.56192136 -0.5703648 0.5991063
vn 0.56276166 -0.64054644 -0.5224937
vn 0.0 -0.99996126 0.0088020135
vn 0.0 -0.7299861 0.68346196
vn 0.0 0.63970244 0.7686227
vn 0.49210745 0.6330422 0.59756815
vn 0.0 -0.7808918 -0.6246664
vn 0.0 -0.7377433 -0.67508125
vn 0.9020221 -0.39738178 -0.16865289
vn 0.75580156 -0.6506298 -0.073789775
vn 0.0 -0.99999964 -8.304331E-4
vn 0.0 -0.9999745 -0.007149022
vn 0.75332314 -0.6575965 -0.008429443
vn 0.65897334 0.7521164 -0.008668636
vn 0.6575057 0.749687 -0.075203575
vn 0.0 -0.7377433 -0.67508125
vn 0.9020221 -0.39738178 -0.16865289
vn 0.66023654 0.7493963 0.049928308
vn 0.0 0.9999535 0.009650714
vn 0.5200551 0.65709925 -0.5456769
vn 0.0 0.6215668 -0.7833612
vn 0.6575057 0.749687 -0.075203575
vn 0.0 0.9999994 0.0011206366
vn 0.65897334 0.7521164 -0.008668636
vn 0.0 0.99999654 -0.002638829
vn 0.66023654 0.7493963 0.049928308
vn 0.66890967 0.73491156 0.11164689
vn 0.0 0.99999654 -0.002638829
vn 0.0 0.9996773 -0.025403775
vn 0.66023654 0.7493963 0.049928308
vn 0.0 0.63970244 0.7686227
vn 0.49210745 0.6330422 0.59756815
vn -0.47658262 -0.8138795 -0.3323691
vn 0.99995387 0.009602284 -1.5521458E-4
vn -0.5700996 -0.82146823 0.013277685
vn 0.9665545 -0.1800349 -0.18264638
vn -0.56218326 0.82690465 -0.013365562
vn -0.7119895 0.6206542 0.3284193
vn -0.52099824 -0.5504594 -0.652346
vn 0.9826614 -0.14799683 -0.11168465
vn -0.6385132 0.48006567 0.60152966
vn -0.7119895 0.6206542 0.3284193
vn -0.5700996 -0.82146823 0.013277685
vn -0.56218326 0.82690465 -0.013365562
vn -0.47658262 -0.8138795 -0.3323691
vn -0.6385132 0.48006567 0.60152966
vn -0.52099824 -0.5504594 -0.652346
vn -0.49699977 -0.80077726 -0.3342858
vn 0.99998045 0.0062626866 -6.490356E-5
vn -0.5881115 -0.80873644 0.0083812
vn 0.96609056 -0.18232377 -0.1828303
vn -0.5830343 0.812404 -0.008419209
vn -0.7274473 0.6075264 0.31895456
vn -0.53637403 -0.54428333 -0.6450261
vn 0.9817632 -0.15534319 -0.10958767
vn -0.65483135 0.47143555 0.59071505
vn -0.7274473 0.6075264 0.31895456
vn -0.5881115 -0.80873644 0.0083812
vn -0.5830343 0.812404 -0.008419209
vn -0.49699977 -0.80077726 -0.3342858
vn -0.65483135 0.47143555 0.59071505
vn -0.53637403 -0.54428333 -0.6450261
vn -0.4876538 -0.8057974 -0.33598256
vn 0.9999927 0.0038106064 -2.4218987E-5
vn -0.57756245 -0.81633 0.005188398
vn 0.9666841 -0.17902583 -0.18295226
vn -0.57444793 0.81852454 -0.0052023456
vn -0.7188296 0.61388505 0.32623488
vn -0.5287893 -0.54736114 -0.64867383
vn 0.98221636 -0.15156172 -0.1108152
vn -0.64682233 0.47571814 0.59608144
vn -0.7188296 0.61388505 0.32623488
vn -0.57756245 -0.81633 0.005188398
vn -0.57444793 0.81852454 -0.0052023456
vn -0.4876538 -0.8057974 -0.33598256
vn -0.64682233 0.47571814 0.59608144
vn -0.5287893 -0.54736114 -0.64867383
vn -0.501397 -0.7983172 -0.33360243
vn 0.9999739 0.007222234 -8.601476E-5
vn -0.59293836 -0.8051908 0.009588721
vn 0.96583384 -0.18381195 -0.18269686
vn -0.58710665 0.8094522 -0.009639472
vn -0.7313719 0.6045123 0.3156898
vn -0.53990567 -0.54282933 -0.64330256
vn 0.98154205 -0.15723528 -0.10886801
vn -0.6585362 0.46942317 0.5881938
vn -0.7313719 0.6045123 0.3156898
vn -0.59293836 -0.8051908 0.009588721
vn -0.58710665 0.8094522 -0.009639472
vn -0.501397 -0.7983172 -0.33360243
vn -0.6585362 0.46942317 0.5881938
vn -0.53990567 -0.54282933 -0.64330256
vn -0.5115571 -0.81727344 -0.26527995
vn 0.99999833 -0.001853994 -5.7361426E-6
vn -0.57671225 -0.8169434 -0.0025222518
vn 0.97939956 -0.16278599 -0.119487435
vn -0.5782249 0.81587356 0.0025189416
vn -0.6804253 0.6841698 0.26255083
vn -0.45540625 -0.69911975 -0.55121386
vn 0.9523599 -0.2494609 -0.17544213
vn -0.6815677 0.56939936 0.4596193
vn -0.6804253 0.6841698 0.26255083
vn -0.57671225 -0.8169434 -0.0025222518
vn -0.5782249 0.81587356 0.0025189416
vn -0.5115571 -0.81727344 -0.26527995
vn -0.6815677 0.56939936 0.4596193
vn -0.45540625 -0.69911975 -0.55121386
vn 0.0 -1.0 0.0
vn 0.0 -1.0 0.0
vn 0.0 -1.0 0.0
vn 0.0 -1.0 0.0
vn 0.0 -1.0 0.0
vn 0.0 -1.0 0.0
vn 0.0 -1.0 0.0
vn 0.0 -1.0 0.0
vn -0.08715576 -0.9961947 -1.2712448E-7
vn -0.087155774 -0.9961947 -1.4560399E-7
vn -0.08715576 -0.9961947 -1.2715796E-7
vn -0.087155774 -0.9961947 -1.4560398E-7
vn -0.08715576 -0.9961947 -1.2712448E-7
vn -0.08715573 -0.9961947 -1.08709806E-7
vn -0.08715573 -0.9961947 -1.08709806E-7
vn -0.08715576 -0.9961947 -1.2715796E-7
vn 0.0 -1.0 3.507032E-7
vn -3.4582743E-7 -1.0 3.5103494E-7
vn 0.0 -1.0 3.507038E-7
vn -3.4582743E-7 -1.0 3.5103494E-7
vn 0.0 -1.0 3.507032E-7
vn 3.5337442E-7 -1.0 3.5037257E-7
vn 3.5337442E-7 -1.0 3.5037257E-7
vn 0.0 -1.0 3.507038E-7
vn 0.0 -1.0 0.0
vn 0.0 -1.0 0.0
vn 0.0 -1.0 0.0
vn 0.0 -1.0 0.0
vn 0.0 -1.0 0.0
vn 0.0 -1.0 0.0
vn 0.0 -1.0 0.0
vn 0.0 -1.0 0.0
vn 0.0 -1.0 0.0
vn 0.0 -1.0 0.0
vn 0.0 -1.0 0.0
vn 0.0 -1.0 0.0
vn 0.0 -1.0 0.0
vn 0.0 -1.0 0.0
vn 0.0 -1.0 0.0
vn 0.0 -1.0 0.0
vt 0.559848 0.602811
vt 0.780076 0.538742
vt 0.560373 0.538742
vt 0.780076 0.603272
vt 0.559884 0.25546
vt 0.780076 0.255479
vt 0.913545 0.255479
vt 0.780076 0.538742
vt 0.913545 0.538742
vt 0.967649 0.804033
vt 0.92166 0.683508
vt 0.79842 0.804033
vt 0.967649 0.683508
vt 0.967649 0.938288
vt 0.79842 0.938288
vt 0.79842 0.683508
vt 0.03047 0.806738
vt 0.03059 0.938288
vt 0.030554 0.98328
vt 0.79842 0.98328
vt 0.030463 0.683508
vt 0.030432 0.642034
vt 0.79842 0.642034
vt 0.434042 0.014755
vt 0.029739 0.320657
vt 0.434042 0.320574
vt 0.029751 0.014921
vt 0.524664 0.320664
vt 0.525479 0.014933
vt 0.029727 0.626394
vt 0.434042 0.626394
vt 0.52385 0.626394
vt 0.889127 0.050688
vt 0.734648 0.012186
vt 0.734648 0.050688
vt 0.889117 0.012186
vt 0.889132 0.147285
vt 0.734648 0.147285
vt 0.889136 0.243882
vt 0.734648 0.243882
vt 0.704615 0.09832
vt 0.565108 0.012186
vt 0.704615 0.012186
vt 0.565111 0.243882
vt 0.704615 0.243882
vt 0.56513 0.243882
vt 0.704615 0.09832
vt 0.56513 0.243882
vt 0.565111 0.243882
vt 0.704615 0.09832
vt 0.559848 0.602811
vt 0.780076 0.538742
vt 0.780076 0.603272
vt 0.560373 0.538742
vt 0.559884 0.25546
vt 0.780076 0.255479
vt 0.913545 0.255479
vt 0.780076 0.538742
vt 0.913545 0.538742
vt 0.967649 0.804033
vt 0.92166 0.683508
vt 0.967649 0.683508
vt 0.79842 0.804033
vt 0.967649 0.938288
vt 0.79842 0.938288
vt 0.79842 0.683508
vt 0.03047 0.806738
vt 0.03059 0.938288
vt 0.030554 0.98328
vt 0.79842 0.98328
vt 0.030463 0.683508
vt 0.030432 0.642034
vt 0.79842 0.642034
vt 0.434042 0.014755
vt 0.029739 0.320657
vt 0.029751 0.014921
vt 0.434042 0.320574
vt 0.524664 0.320664
vt 0.525479 0.014933
vt 0.029727 0.626394
vt 0.434042 0.626394
vt 0.52385 0.626394
vt 0.889127 0.050688
vt 0.734648 0.012186
vt 0.889117 0.012186
vt 0.734648 0.050688
vt 0.889132 0.147285
vt 0.734648 0.147285
vt 0.889136 0.243882
vt 0.734648 0.243882
vt 0.704615 0.09832
vt 0.565108 0.012186
vt 0.565111 0.243882
vt 0.704615 0.012186
vt 0.56513 0.243882
vt 0.704615 0.243882
vt 0.980281 0.035412
vt 0.92317 0.217443
vt 0.980281 0.217443
vt 0.92317 0.035412
vt 0.980281 0.217443
vt 0.980281 0.035412
vt 0.980281 0.027713
vt 0.92317 0.028518
vt 0.980281 0.029323
vt 0.980281 0.035412
vt 0.980281 0.217443
vt 0.980281 0.217443
vt 0.980281 0.035412
vt 0.980281 0.029323
vt 0.980281 0.027713
vt 0.978995 0.031681
vt 0.921884 0.217443
vt 0.978995 0.217443
vt 0.921884 0.031681
vt 0.978995 0.217443
vt 0.978995 0.031681
vt 0.978995 0.023982
vt 0.921884 0.024787
vt 0.978995 0.025591
vt 0.978995 0.031681
vt 0.978995 0.217443
vt 0.978995 0.217443
vt 0.978995 0.031681
vt 0.978995 0.025591
vt 0.978995 0.023982
vt 0.973004 0.029533
vt 0.915893 0.217443
vt 0.973004 0.217443
vt 0.915893 0.029533
vt 0.973004 0.217443
vt 0.973004 0.029533
vt 0.973004 0.021835
vt 0.915893 0.022639
vt 0.973004 0.023444
vt 0.973004 0.029533
vt 0.973004 0.217443
vt 0.973004 0.217443
vt 0.973004 0.029533
vt 0.973004 0.023444
vt 0.973004 0.021835
vt 0.976204 0.032952
vt 0.919093 0.217443
vt 0.976204 0.217443
vt 0.919093 0.032952
vt 0.976204 0.217443
vt 0.976204 0.032952
vt 0.976204 0.025253
vt 0.919093 0.026058
vt 0.976204 0.026862
vt 0.976204 0.032952
vt 0.976204 0.217443
vt 0.976204 0.217443
vt 0.976204 0.032952
vt 0.976204 0.026862
vt 0.976204 0.025253
vt 0.979694 0.036022
vt 0.922583 0.217443
vt 0.979694 0.217443
vt 0.922583 0.036022
vt 0.979694 0.217443
vt 0.979694 0.036022
vt 0.979694 0.028323
vt 0.922583 0.029128
vt 0.979694 0.029932
vt 0.979694 0.036022
vt 0.979694 0.217443
vt 0.979694 0.217443
vt 0.979694 0.036022
vt 0.979694 0.029932
vt 0.979694 0.028323
vt 0.859856 0.576396
vt 0.983876 0.676309
vt 0.859649 0.623037
vt 0.983876 0.534383
vt 0.859856 0.576396
vt 0.983876 0.676309
vt 0.983876 0.534383
vt 0.859649 0.623037
vt 0.859856 0.576396
vt 0.983876 0.676309
vt 0.859649 0.623037
vt 0.983876 0.534383
vt 0.859856 0.576396
vt 0.983876 0.676309
vt 0.983876 0.534383
vt 0.859649 0.623037
vt 0.859856 0.576396
vt 0.983876 0.676309
vt 0.859649 0.623037
vt 0.983876 0.534383
vt 0.859856 0.576396
vt 0.983876 0.676309
vt 0.983876 0.534383
vt 0.859649 0.623037
vt 0.859856 0.576396
vt 0.983876 0.676309
vt 0.859649 0.623037
vt 0.983876 0.534383
vt 0.859856 0.576396
vt 0.983876 0.676309
vt 0.983876 0.534383
vt 0.859649 0.623037
vt 0.859856 0.576396
vt 0.983876 0.676309
vt 0.859649 0.623037
vt 0.983876 0.534383
vt 0.859856 0.576396
vt 0.983876 0.676309
vt 0.983876 0.534383
vt 0.859649 0.623037

o huang_zhen_yi_w
s 1
usemtl huang_zhen_yi_w
f 1/1/1 2/2/2 3/3/3
f 1/1/1 4/4/4 2/2/2
f 2/2/2 5/5/5 3/3/3
f 2/2/2 6/6/6 5/5/5
f 7/7/7 6/6/6 8/8/8
f 7/7/7 8/8/8 9/9/9
f 10/10/10 11/11/11 12/12/12
f 10/10/10 13/13/13 11/11/11
f 14/14/14 10/10/10 12/12/12
f 14/14/14 12/12/12 15/15/15
f 11/11/11 16/16/16 12/12/12
f 15/15/15 12/12/12 17/17/17
f 15/15/15 17/17/17 18/18/18
f 19/19/19 15/15/15 18/18/18
f 19/19/19 20/20/20 15/15/15
f 21/21/21 12/12/12 16/16/16
f 21/21/21 17/17/17 12/12/12
f 22/22/22 21/21/21 16/16/16
f 22/22/22 16/16/16 23/23/23
f 24/24/24 25/25/25 26/26/26
f 24/24/24 27/27/27 25/25/25
f 28/28/28 24/24/24 26/26/26
f 28/28/28 29/29/29 24/24/24
f 26/26/26 25/25/25 30/30/30
f 26/26/26 30/30/30 31/31/31
f 32/32/32 26/26/26 31/31/31
f 32/32/32 28/28/28 26/26/26
f 33/33/33 34/34/34 35/35/35
f 33/33/33 36/36/36 34/34/34
f 35/35/35 37/37/37 33/33/33
f 35/35/35 38/38/38 37/37/37
f 39/39/39 37/37/37 38/38/38
f 39/39/39 38/38/38 40/40/40
f 41/41/41 42/42/42 43/43/43
f 41/41/41 44/44/44 42/42/42
f 41/41/41 45/45/45 46/46/46
f 47/47/47 48/48/48 49/49/49
f 50/50/50 49/49/49 48/48/48
f 51/51/51 52/52/52 53/53/53
f 51/51/51 54/54/54 52/52/52
f 52/52/52 54/54/54 55/55/55
f 52/52/52 55/55/55 56/56/56
f 57/57/57 58/58/58 56/56/56
f 57/57/57 59/59/59 58/58/58
f 60/60/60 61/61/61 62/62/62
f 60/60/60 63/63/63 61/61/61
f 64/64/64 63/63/63 60/60/60
f 64/64/64 65/65/65 63/63/63
f 61/61/61 63/63/63 66/66/66
f 67/67/67 63/63/63 65/65/65
f 67/67/67 65/65/65 68/68/68
f 69/69/69 68/68/68 65/65/65
f 69/69/69 65/65/65 70/70/70
f 63/63/63 71/71/71 66/66/66
f 63/63/63 67/67/67 71/71/71
f 72/72/72 66/66/66 71/71/71
f 72/72/72 73/73/73 66/66/66
f 74/74/74 75/75/75 76/76/76
f 74/74/74 77/77/77 75/75/75
f 74/74/74 78/78/78 77/77/77
f 74/74/74 79/79/79 78/78/78
f 80/80/80 75/75/75 77/77/77
f 80/80/80 77/77/77 81/81/81
f 81/81/81 77/77/77 78/78/78
f 81/81/81 78/78/78 82/82/82
f 83/83/83 84/84/84 85/85/85
f 83/83/83 86/86/86 84/84/84
f 87/87/87 86/86/86 83/83/83
f 87/87/87 88/88/88 86/86/86
f 89/89/89 88/88/88 87/87/87
f 89/89/89 90/90/90 88/88/88
f 91/91/91 92/92/92 93/93/93
f 91/91/91 94/94/94 92/92/92
f 91/91/91 95/95/95 96/96/96
f 97/97/97 98/98/98 99/99/99
f 97/97/97 100/100/100 98/98/98
f 100/100/100 101/101/101 98/98/98
f 100/100/100 102/102/102 101/101/101
f 103/103/103 100/100/100 97/97/97
f 103/103/103 104/104/104 100/100/100
f 104/104/104 102/102/102 100/100/100
f 104/104/104 105/105/105 102/102/102
f 106/106/106 107/107/107 108/108/108
f 106/106/106 109/109/109 107/107/107
f 110/110/110 109/109/109 106/106/106
f 110/110/110 111/111/111 109/109/109
f 112/112/112 113/113/113 114/114/114
f 112/112/112 115/115/115 113/113/113
f 115/115/115 116/116/116 113/113/113
f 115/115/115 117/117/117 116/116/116
f 118/118/118 115/115/115 112/112/112
f 118/118/118 119/119/119 115/115/115
f 119/119/119 117/117/117 115/115/115
f 119/119/119 120/120/120 117/117/117
f 121/121/121 122/122/122 123/123/123
f 121/121/121 124/124/124 122/122/122
f 125/125/125 124/124/124 121/121/121
f 125/125/125 126/126/126 124/124/124
f 127/127/127 128/128/128 129/129/129
f 127/127/127 130/130/130 128/128/128
f 130/130/130 131/131/131 128/128/128
f 130/130/130 132/132/132 131/131/131
f 133/133/133 130/130/130 127/127/127
f 133/133/133 134/134/134 130/130/130
f 134/134/134 132/132/132 130/130/130
f 134/134/134 135/135/135 132/132/132
f 136/136/136 137/137/137 138/138/138
f 136/136/136 139/139/139 137/137/137
f 140/140/140 139/139/139 136/136/136
f 140/140/140 141/141/141 139/139/139
f 142/142/142 143/143/143 144/144/144
f 142/142/142 145/145/145 143/143/143
f 145/145/145 146/146/146 143/143/143
f 145/145/145 147/147/147 146/146/146
f 148/148/148 145/145/145 142/142/142
f 148/148/148 149/149/149 145/145/145
f 149/149/149 147/147/147 145/145/145
f 149/149/149 150/150/150 147/147/147
f 151/151/151 152/152/152 153/153/153
f 151/151/151 154/154/154 152/152/152
f 155/155/155 154/154/154 151/151/151
f 155/155/155 156/156/156 154/154/154
f 157/157/157 158/158/158 159/159/159
f 157/157/157 160/160/160 158/158/158
f 160/160/160 161/161/161 158/158/158
f 160/160/160 162/162/162 161/161/161
f 163/163/163 160/160/160 157/157/157
f 163/163/163 164/164/164 160/160/160
f 164/164/164 162/162/162 160/160/160
f 164/164/164 165/165/165 162/162/162
f 166/166/166 167/167/167 168/168/168
f 166/166/166 169/169/169 167/167/167
f 170/170/170 169/169/169 166/166/166
f 170/170/170 171/171/171 169/169/169
f 172/172/172 173/173/173 174/174/174
f 172/172/172 175/175/175 173/173/173
f 176/176/176 177/177/177 178/178/178
f 176/176/176 179/179/179 177/177/177
f 180/180/180 181/181/181 182/182/182
f 180/180/180 183/183/183 181/181/181
f 184/184/184 185/185/185 186/186/186
f 184/184/184 187/187/187 185/185/185
f 188/188/188 189/189/189 190/190/190
f 188/188/188 191/191/191 189/189/189
f 192/192/192 193/193/193 194/194/194
f 192/192/192 195/195/195 193/193/193
f 196/196/196 197/197/197 198/198/198
f 196/196/196 199/199/199 197/197/197
f 200/200/200 201/201/201 202/202/202
f 200/200/200 203/203/203 201/201/201
f 204/204/204 205/205/205 206/206/206
f 204/204/204 207/207/207 205/205/205
f 208/208/208 209/209/209 210/210/210
f 208/208/208 211/211/211 209/209/209

