# Created by DisUnity v0.3.1
v 0.023538787 -0.17912875 0.0046544936
v 0.036460325 -0.123788506 0.009476057
v 0.028563628 -0.16051833 0.06786128
v 0.023253918 -0.22372524 0.040256366
v 0.023538787 -0.17912875 0.0046544936
v 0.028563628 -0.16051833 0.06786128
v 0.019490791 -0.2311832 0.08971399
v 0.023253918 -0.22372524 0.040256366
v 0.028563628 -0.16051833 0.06786128
v 0.036460325 -0.123788506 0.009476057
v 0.037633684 -0.08984806 0.04600026
v -0.0023575344 -0.1968597 0.11815882
v 0.019490791 -0.2311832 0.08971399
v 0.028563628 -0.16051833 0.06786128
v 0.037633684 -0.08984806 0.04600026
v 0.010093091 -0.096908 0.0871124
v -0.013217599 -0.14112209 0.11463933
v -0.0023575344 -0.1968597 0.11815882
v 0.028563628 -0.16051833 0.06786128
v 0.010093091 -0.096908 0.0871124
v -0.013217599 -0.14112209 0.11463933
v 0.028563628 -0.16051833 0.06786128
v 0.02542705 -0.1695413 0.038754307
v -0.020629086 -0.16001312 0.051170688
v -0.00665326 -0.17434782 0.010668135
v 0.018418355 -0.12713695 0.032768443
v -0.004586369 -0.13244383 0.0067676967
v 0.021904336 0.07824901 -0.058693755
v 0.04399266 0.083350964 -0.033704508
v 0.05888093 0.093975574 -0.040018205
v 0.027769301 0.08685973 -0.07499737
v 0.03627171 0.15763131 -0.095857285
v 0.06632613 0.16451126 -0.062048372
v 0.021958202 0.17263003 -0.054353442
v 0.0073855286 -0.11557597 0.06475957
v 0.007906722 -0.1511822 0.08955685
v -0.020629086 -0.16001312 0.051170688
v 0.033386517 0.09446489 -0.0029506432
v 0.04407521 0.10949014 0.0029129314
v 0.05201302 0.17950961 -0.02054568
v 0.021958202 0.17263003 -0.054353442
v -0.03453039 -0.14513607 0.091501586
v -0.020629086 -0.16001312 0.051170688
v -0.026650151 -0.10932378 0.07074452
v 6.9245114E-4 0.100476354 0.002812831
v -0.0018417622 0.11788839 0.010863832
v 0.0076451036 0.18762837 -0.012850673
v 0.021958202 0.17263003 -0.054353442
v -0.14388286 -1.0368375 0.36066237
v -0.079734445 -0.77542603 0.24352653
v -0.10743659 -0.76372796 0.2698039
v -0.12718435 -1.0159065 0.3140745
v -0.11107659 -0.9629348 0.27069205
v -0.08712424 -0.7846454 0.21092506
v -0.030636957 -0.13749044 0.08076291
v -0.004223633 -0.14582825 0.05313777
v -0.008691372 -0.16043481 0.017129397
v -0.11298728 -0.77487206 0.23185691
v -0.03423902 -0.14532828 0.042604327
v -0.026602127 -0.1782937 -0.012940796
v -0.06945681 -0.15888217 0.033464234
v -0.038051613 -0.12254512 -0.016671708
v -0.049947813 -0.22250721 0.014569645
v -0.06945681 -0.15888217 0.033464234
v -0.026602127 -0.1782937 -0.012940796
v -0.078132436 -0.22955483 0.05545664
v -0.06945681 -0.15888217 0.033464234
v -0.049947813 -0.22250721 0.014569645
v -0.038051613 -0.12254512 -0.016671708
v -0.06077401 -0.088203035 0.011466424
v -0.077832446 -0.1956013 0.0916736
v -0.06945681 -0.15888217 0.033464234
v -0.078132436 -0.22955483 0.05545664
v -0.06077401 -0.088203035 0.011466424
v -0.06517827 -0.09565536 0.060699508
v -0.06550158 -0.14024888 0.09629117
v -0.06945681 -0.15888217 0.033464234
v -0.077832446 -0.1956013 0.0916736
v -0.06517827 -0.09565536 0.060699508
v -0.06945681 -0.15888217 0.033464234
v -0.06550158 -0.14024888 0.09629117
v -0.049093653 -0.16829893 0.012603869
v -0.00665326 -0.17434782 0.010668135
v -0.020629086 -0.16001312 0.051170688
v -0.038626 -0.12618773 0.012751128
v -0.004586369 -0.13244383 0.0067676967
v 0.021904336 0.07824901 -0.058693755
v -0.010792959 0.08426479 -0.052930117
v -0.018150056 0.095258795 -0.067049
v 0.027769301 0.08685973 -0.07499737
v 0.03627171 0.15763131 -0.095857285
v -0.008097987 0.16575086 -0.08816454
v 0.021958202 0.17263003 -0.054353442
v -0.049658824 -0.11462669 0.04474225
v -0.066614024 -0.14993982 0.063406326
v -0.020629086 -0.16001312 0.051170688
v -0.021399075 0.09537868 -0.022176262
v -0.03295577 0.110773295 -0.024117861
v -0.022411104 0.18074921 -0.04666179
v 0.021958202 0.17263003 -0.054353442
v -0.03453039 -0.14513607 0.091501586
v -0.020629086 -0.16001312 0.051170688
v -0.026650151 -0.10932378 0.07074452
v 6.9245114E-4 0.100476354 0.002812831
v -0.0018417622 0.11788839 0.010863832
v 0.0076451036 0.18762837 -0.012850673
v 0.021958202 0.17263003 -0.054353442
vn 0.9739576 -0.22647569 -0.010745277
vn 0.9739576 -0.22647569 -0.010745277
vn 0.9739576 -0.2264757 -0.010745277
vn 0.9964449 -0.056357026 -0.06262222
vn 0.9964449 -0.056357022 -0.06262221
vn 0.9964449 -0.056357026 -0.06262221
vn 0.9922712 -0.10914183 0.059041783
vn 0.9922712 -0.10914184 0.059041776
vn 0.9922712 -0.10914183 0.059041787
vn 0.99203753 -0.10655114 0.06714394
vn 0.99203753 -0.106551155 0.06714394
vn 0.82812876 0.065818526 0.55666035
vn 0.82812876 0.065818526 0.55666035
vn 0.82812876 0.06581853 0.55666035
vn 0.8233695 0.068590336 0.5633453
vn 0.8233695 0.06859033 0.5633453
vn 0.76998943 0.18851748 0.6095716
vn 0.7699893 0.18851745 0.6095716
vn 0.76998943 0.18851748 0.6095716
vn 0.74923724 0.017183684 0.66207874
vn 0.74923724 0.017183684 0.66207874
vn 0.7492372 0.017183684 0.66207874
vn 0.7755992 -0.6298328 -0.04191137
vn -0.1211058 -0.94616896 0.3001627
vn 0.2005818 -0.76816326 -0.6080231
vn 0.97958004 -0.031212104 -0.19861756
vn 0.32368472 -0.17150903 -0.9304907
vn 0.22622088 -0.699563 -0.6778168
vn 0.8275895 -0.56119806 -0.012340431
vn 0.87622416 -0.47949436 -0.048129443
vn 0.25036263 -0.6207865 -0.74292845
vn 0.31754875 0.32926145 -0.8892411
vn 0.83871657 0.44847402 -0.3089102
vn 0.12109095 0.94616926 -0.30016765
vn 0.6772142 0.28560972 0.67809135
vn 0.47919324 -0.3192434 0.81759244
vn -0.1211058 -0.94616896 0.3001627
vn 0.5512475 -0.27166593 0.78887504
vn 0.58720034 -0.1766419 0.78993255
vn 0.597995 0.7007201 0.3890931
vn 0.12109095 0.94616926 -0.30016765
vn -0.3264898 -0.2158595 0.92022234
vn -0.1211058 -0.94616896 0.3001627
vn -0.28580973 0.46712026 0.83672667
vn -0.3305767 -0.11614431 0.9366054
vn -0.33124992 -0.011352851 0.94347477
vn -0.1681002 0.8381396 0.51890683
vn 0.12109095 0.94616926 -0.30016765
vn -0.32239258 0.18811089 0.9277269
vn 0.95369405 -0.04722472 0.29704797
vn -0.31470248 0.27066866 0.9097807
vn -0.32816005 0.095232524 0.9398094
vn 0.292341 -0.43133402 -0.85351497
vn 0.3032053 -0.36272192 -0.8811919
vn -0.30990872 0.31186232 0.898164
vn 0.9475184 -0.019590676 0.31910053
vn 0.31015706 -0.3107187 -0.8984745
vn -0.9311202 -0.01574496 -0.36437237
vn -0.9392588 0.011929339 -0.3430024
vn -0.7599776 -0.19752194 -0.6192086
vn -0.7599776 -0.19752194 -0.6192086
vn -0.7599776 -0.19752194 -0.6192086
vn -0.7400546 -0.027359461 -0.67199
vn -0.7400546 -0.027359458 -0.67199
vn -0.7400546 -0.027359458 -0.67199
vn -0.8143564 -0.0789542 -0.57496935
vn -0.8143564 -0.078954205 -0.57496935
vn -0.8143565 -0.078954205 -0.5749694
vn -0.819191 -0.07627789 -0.56842583
vn -0.819191 -0.07627789 -0.56842583
vn -0.9919723 0.09624957 -0.08201775
vn -0.9919723 0.09624959 -0.08201774
vn -0.9919723 0.09624958 -0.08201774
vn -0.99235326 0.0989406 -0.07379678
vn -0.99235326 0.0989406 -0.07379677
vn -0.97601366 0.21768686 -0.0031174566
vn -0.97601366 0.21768685 -0.0031174566
vn -0.97601366 0.21768688 -0.0031174568
vn -0.99771845 0.046385158 0.049053777
vn -0.99771845 0.04638516 0.049053777
vn -0.99771845 0.046385158 0.04905378
vn -0.59769285 -0.60692817 -0.5238334
vn 0.2005818 -0.76816326 -0.6080231
vn -0.1211058 -0.94616896 0.3001627
vn -0.6411756 -0.0041517504 -0.7673829
vn 0.32368472 -0.17150903 -0.9304907
vn 0.22622088 -0.699563 -0.6778168
vn -0.6546881 -0.53648996 -0.5325054
vn -0.6678717 -0.45373487 -0.5899762
vn 0.25036263 -0.6207865 -0.74292845
vn 0.31754875 0.32926145 -0.8892411
vn -0.44813308 0.4699367 -0.7604842
vn 0.12109095 0.94616926 -0.30016765
vn -0.9435423 0.31267807 0.10936336
vn -0.89414525 -0.29633006 0.33569747
vn -0.1211058 -0.94616896 0.3001627
vn -0.93101543 -0.24693616 0.26876155
vn -0.9569123 -0.15087293 0.24810556
vn -0.6888662 0.72219193 -0.062467076
vn 0.12109095 0.94616926 -0.30016765
vn -0.3264898 -0.2158595 0.92022234
vn -0.1211058 -0.94616896 0.3001627
vn -0.28580973 0.46712026 0.83672667
vn -0.3305767 -0.11614431 0.9366054
vn -0.33124992 -0.011352851 0.94347477
vn -0.1681002 0.8381396 0.51890683
vn 0.12109095 0.94616926 -0.30016765
vt 0.96712196 0.27207065
vt 0.87683856 0.44194704
vt 0.718345 0.26721597
vt 0.8993436 0.08622603
vt 0.96712196 0.27207065
vt 0.718345 0.26721597
vt 0.718345 0.03385512
vt 0.8993436 0.08622603
vt 0.718345 0.26721597
vt 0.87683856 0.44194704
vt 0.718345 0.5006148
vt 0.8993436 0.08622603
vt 0.718345 0.03385512
vt 0.718345 0.26721597
vt 0.718345 0.5006148
vt 0.87683856 0.44194704
vt 0.96712196 0.27207065
vt 0.8993436 0.08622603
vt 0.718345 0.26721597
vt 0.87683856 0.44194704
vt 0.96712196 0.27207065
vt 0.718345 0.26721597
vt 0.2701 0.4735307
vt 0.17979564 0.4261665
vt 0.3488 0.4735307
vt 0.2701 0.5276
vt 0.3488 0.5276
vt 0.3488 0.7476
vt 0.2701 0.7476
vt 0.2701 0.7723
vt 0.3488 0.7723
vt 0.3488 0.9583
vt 0.2701 0.9583
vt 0.1916 0.9879
vt 0.1125 0.5276
vt 0.1125 0.4735307
vt 0.17979564 0.4261665
vt 0.1125 0.7476
vt 0.1125 0.7723
vt 0.1125 0.9583
vt 0.1916 0.9879
vt 0.0314 0.4735307
vt 0.17979564 0.4261665
vt 0.0314 0.5276
vt 0.0314 0.7476
vt 0.0314 0.7723
vt 0.0314 0.9583
vt 0.1916 0.9879
vt 0.3802 0.0147
vt 0.5083 0.3341
vt 0.3802 0.3325
vt 0.5083 0.0541
vt 0.652 0.1048
vt 0.652 0.3359
vt 0.3802 0.9876
vt 0.5083 0.9876
vt 0.652 0.9876
vt 0.5083 0.3341
vt 0.5083 0.9876
vt 0.96712196 0.27207065
vt 0.718345 0.26721597
vt 0.87683856 0.44194704
vt 0.8993436 0.08622603
vt 0.718345 0.26721597
vt 0.96712196 0.27207065
vt 0.718345 0.03385512
vt 0.718345 0.26721597
vt 0.8993436 0.08622603
vt 0.87683856 0.44194704
vt 0.718345 0.5006148
vt 0.8993436 0.08622603
vt 0.718345 0.26721597
vt 0.718345 0.03385512
vt 0.718345 0.5006148
vt 0.87683856 0.44194704
vt 0.96712196 0.27207065
vt 0.718345 0.26721597
vt 0.8993436 0.08622603
vt 0.87683856 0.44194704
vt 0.718345 0.26721597
vt 0.96712196 0.27207065
vt 0.2701 0.4735307
vt 0.3488 0.4735307
vt 0.17979564 0.4261665
vt 0.2701 0.5276
vt 0.3488 0.5276
vt 0.3488 0.7476
vt 0.2701 0.7476
vt 0.2701 0.7723
vt 0.3488 0.7723
vt 0.3488 0.9583
vt 0.2701 0.9583
vt 0.1916 0.9879
vt 0.1125 0.5276
vt 0.1125 0.4735307
vt 0.17979564 0.4261665
vt 0.1125 0.7476
vt 0.1125 0.7723
vt 0.1125 0.9583
vt 0.1916 0.9879
vt 0.0314 0.4735307
vt 0.17979564 0.4261665
vt 0.0314 0.5276
vt 0.0314 0.7476
vt 0.0314 0.7723
vt 0.0314 0.9583
vt 0.1916 0.9879

o li_dian_w
s 1
usemtl li_dian_w
f 1/1/1 2/2/2 3/3/3
f 4/4/4 5/5/5 6/6/6
f 7/7/7 8/8/8 9/9/9
f 10/10/10 11/11/11 9/9/9
f 12/12/12 13/13/13 14/14/14
f 15/15/15 16/16/16 14/14/14
f 17/17/17 18/18/18 19/19/19
f 20/20/20 21/21/21 22/22/22
f 23/23/23 24/24/24 25/25/25
f 25/25/25 26/26/26 23/23/23
f 25/25/25 27/27/27 26/26/26
f 26/26/26 27/27/27 28/28/28
f 26/26/26 28/28/28 29/29/29
f 28/28/28 30/30/30 29/29/29
f 28/28/28 31/31/31 30/30/30
f 32/32/32 30/30/30 31/31/31
f 32/32/32 33/33/33 30/30/30
f 33/33/33 32/32/32 34/34/34
f 23/23/23 26/26/26 35/35/35
f 35/35/35 26/26/26 29/29/29
f 23/23/23 35/35/35 36/36/36
f 36/36/36 37/37/37 23/23/23
f 35/35/35 29/29/29 38/38/38
f 38/38/38 29/29/29 30/30/30
f 38/38/38 30/30/30 39/39/39
f 39/39/39 30/30/30 33/33/33
f 39/39/39 33/33/33 40/40/40
f 40/40/40 33/33/33 41/41/41
f 42/42/42 36/36/36 35/35/35
f 42/42/42 43/43/43 36/36/36
f 42/42/42 35/35/35 44/44/44
f 44/44/44 35/35/35 38/38/38
f 44/44/44 38/38/38 45/45/45
f 45/45/45 38/38/38 39/39/39
f 45/45/45 39/39/39 46/46/46
f 46/46/46 39/39/39 40/40/40
f 46/46/46 40/40/40 47/47/47
f 47/47/47 40/40/40 48/48/48
f 49/49/49 50/50/50 51/51/51
f 49/49/49 52/52/52 50/50/50
f 53/53/53 50/50/50 52/52/52
f 53/53/53 54/54/54 50/50/50
f 55/55/55 51/51/51 50/50/50
f 55/55/55 50/50/50 56/56/56
f 56/56/56 50/50/50 54/54/54
f 56/56/56 54/54/54 57/57/57
f 49/49/49 58/58/58 52/52/52
f 49/49/49 51/51/51 58/58/58
f 53/53/53 58/58/58 54/54/54
f 53/53/53 52/52/52 58/58/58
f 55/55/55 58/58/58 51/51/51
f 55/55/55 59/59/59 58/58/58
f 59/59/59 54/54/54 58/58/58
f 59/59/59 57/57/57 54/54/54
f 60/60/60 61/61/61 62/62/62
f 63/63/63 64/64/64 65/65/65
f 66/66/66 67/67/67 68/68/68
f 69/69/69 67/67/67 70/70/70
f 71/71/71 72/72/72 73/73/73
f 74/74/74 72/72/72 75/75/75
f 76/76/76 77/77/77 78/78/78
f 79/79/79 80/80/80 81/81/81
f 82/82/82 83/83/83 84/84/84
f 83/83/83 82/82/82 85/85/85
f 83/83/83 85/85/85 86/86/86
f 85/85/85 87/87/87 86/86/86
f 85/85/85 88/88/88 87/87/87
f 87/87/87 88/88/88 89/89/89
f 87/87/87 89/89/89 90/90/90
f 91/91/91 90/90/90 89/89/89
f 91/91/91 89/89/89 92/92/92
f 92/92/92 93/93/93 91/91/91
f 82/82/82 94/94/94 85/85/85
f 94/94/94 88/88/88 85/85/85
f 82/82/82 95/95/95 94/94/94
f 95/95/95 82/82/82 96/96/96
f 94/94/94 97/97/97 88/88/88
f 97/97/97 89/89/89 88/88/88
f 97/97/97 98/98/98 89/89/89
f 98/98/98 92/92/92 89/89/89
f 98/98/98 99/99/99 92/92/92
f 99/99/99 100/100/100 92/92/92
f 101/101/101 94/94/94 95/95/95
f 101/101/101 95/95/95 102/102/102
f 101/101/101 103/103/103 94/94/94
f 103/103/103 97/97/97 94/94/94
f 103/103/103 104/104/104 97/97/97
f 104/104/104 98/98/98 97/97/97
f 104/104/104 105/105/105 98/98/98
f 105/105/105 99/99/99 98/98/98
f 105/105/105 106/106/106 99/99/99
f 106/106/106 107/107/107 99/99/99

