# Created by DisUnity v0.3.1
v 0.6344182 1.2169603 -1.6845976E-7
v 0.5532756 1.1860623 -0.13973342
v 0.4726086 1.1871431 -3.4580335E-8
v 0.7146099 1.1839011 -0.13973361
v 0.79527724 1.1828202 -2.7573347E-7
v 0.7146101 1.1839011 0.13973321
v 0.5532759 1.1860623 0.1397334
v 0.4726086 1.1871431 -3.4580335E-8
v 0.59097594 0.69104004 -0.094075575
v 0.52218306 0.69103974 1.1061865E-8
v 0.5532756 1.1860623 -0.13973342
v 0.6841272 0.69104004 -0.09407565
v 0.7146099 1.1839011 -0.13973361
v 0.7365213 0.69104004 -1.6737921E-7
v 0.79527724 1.1828202 -2.7573347E-7
v 0.5532759 1.1860623 0.1397334
v 0.59097594 0.69104004 0.094075486
v 0.7146101 1.1839011 0.13973321
v 0.6841272 0.69104004 0.09407541
v 0.79527724 1.1828202 -2.7573347E-7
v 0.7365213 0.69104004 -1.6737921E-7
v 0.52218306 0.69103974 1.1061865E-8
v 0.58805317 0.055792086 -0.09225661
v 0.5221564 0.055792086 1.5424138E-8
v 0.59097594 0.69104004 -0.094075575
v 0.67940366 0.055792086 -0.09225665
v 0.6841272 0.69104004 -0.09407565
v 0.73644257 0.055792086 2.3233257E-8
v 0.7365213 0.69104004 -1.6737921E-7
v 0.6794036 0.055792086 0.09225669
v 0.6841272 0.69104004 0.09407541
v 0.588053 0.055792086 0.092256755
v 0.59097594 0.69104004 0.094075486
v 0.5221564 0.055792086 1.5424138E-8
v 0.58805317 0.055792086 -0.09225661
v 0.5057484 0.040541347 1.592159E-8
v 0.50567216 -0.08688126 2.0608253E-8
v 0.588053 0.055792086 0.092256755
v 0.5815206 -0.10911296 0.10461317
v 0.6794036 0.055792086 0.09225669
v 0.6851063 -0.10911296 0.10461322
v 0.6814219 -0.19762483 0.102806374
v 0.736544 -0.19762498 1.1612218E-7
v 0.736608 -0.10911296 8.6433865E-8
v 0.747335 -0.09164123 7.96464E-8
v 0.68142205 -0.19762498 -0.10280626
v 0.6851064 -0.10911296 -0.10461305
v 0.58152074 -0.10911296 -0.104613096
v 0.67940366 0.055792086 -0.09225665
v 0.74730957 0.03870144 2.9696626E-8
v 0.57962567 -0.1976249 -0.10280625
v 0.52197784 -0.1976249 2.873299E-8
v 0.52199095 -0.10911296 2.1525688E-8
v 0.5796255 -0.19762483 0.10280641
v 0.73644257 0.055792086 2.3233257E-8
v 0.44428766 -0.6249363 6.372189E-8
v 0.5498754 -0.67130184 -0.14709571
v 0.46494952 -0.67130184 6.361387E-8
v 0.5395445 -0.62493646 -0.16498935
v 0.719727 -0.67130184 -0.14709567
v 0.73005795 -0.6249365 -0.16498932
v 0.8046529 -0.67130184 2.5870978E-7
v 0.82531464 -0.6249365 2.4471098E-7
v 0.71972686 -0.67130184 0.14709605
v 0.7300576 -0.6249365 0.16498964
v 0.54987526 -0.67130184 0.147096
v 0.5395442 -0.62493646 0.16498962
v 0.46494952 -0.67130184 6.361387E-8
v 0.5498754 -0.67130184 -0.14709571
v 0.63480115 -0.7323505 1.6069116E-7
v 0.719727 -0.67130184 -0.14709567
v 0.8046529 -0.67130184 2.5870978E-7
v 0.71972686 -0.67130184 0.14709605
v 0.54987526 -0.67130184 0.147096
v 0.57962567 -0.1976249 -0.10280625
v 0.44428766 -0.6249363 6.372189E-8
v 0.52197784 -0.1976249 2.873299E-8
v 0.5395445 -0.62493646 -0.16498935
v 0.68142205 -0.19762498 -0.10280626
v 0.73005795 -0.6249365 -0.16498932
v 0.736544 -0.19762498 1.1612218E-7
v 0.82531464 -0.6249365 2.4471098E-7
v 0.5395442 -0.62493646 0.16498962
v 0.5796255 -0.19762483 0.10280641
v 0.7300576 -0.6249365 0.16498964
v 0.6814219 -0.19762483 0.102806374
v 0.82531464 -0.6249365 2.4471098E-7
v 0.736544 -0.19762498 1.1612218E-7
v 0.73011625 -1.1971803 7.620646E-8
v 0.691333 -1.123952 0.06391381
v 0.69322646 -1.1980302 0.0639138
v 0.7282227 -1.1231023 7.629731E-8
v 0.6175535 -1.1256517 0.06391381
v 0.61944693 -1.1997299 0.0639138
v 0.58066374 -1.1265016 3.3672105E-8
v 0.5825572 -1.2005799 2.8868016E-8
v 0.61755353 -1.1256517 -0.0639137
v 0.61944693 -1.1997299 -0.06391372
v 0.6913332 -1.123952 -0.063913696
v 0.6932265 -1.1980302 -0.063913696
v 0.7282227 -1.1231023 7.629731E-8
v 0.6815532 -1.1168864 0.047292113
v 0.691333 -1.123952 0.06391381
v 0.7088492 -1.1162575 7.46479E-8
v 0.626961 -1.1181442 0.0472921
v 0.6175535 -1.1256517 0.06391381
v 0.5996649 -1.118773 3.7837008E-8
v 0.58066374 -1.1265016 3.3672105E-8
v 0.62696105 -1.1181442 -0.047292013
v 0.61755353 -1.1256517 -0.0639137
v 0.6815532 -1.1168864 -0.047292
v 0.6913332 -1.123952 -0.063913696
v 0.7088492 -1.1162575 7.46479E-8
v 0.67428267 -0.80355185 0.049122334
v 0.6815532 -1.1168864 0.047292113
v 0.70263505 -0.80289865 7.511055E-8
v 0.6175778 -0.8048581 0.049122337
v 0.626961 -1.1181442 0.0472921
v 0.58922553 -0.8055113 7.178328E-8
v 0.5996649 -1.118773 3.7837008E-8
v 0.6175778 -0.8048582 -0.04912219
v 0.62696105 -1.1181442 -0.047292013
v 0.67428267 -0.80355185 -0.049122196
v 0.6815532 -1.1168864 -0.047292
v 0.70263505 -0.80289865 7.511055E-8
v 0.6865213 -0.79475045 0.07070356
v 0.67428267 -0.80355185 0.049122334
v 0.72733 -0.79381025 7.727413E-8
v 0.60490394 -0.7966307 0.07070356
v 0.6175778 -0.8048581 0.049122337
v 0.5640954 -0.79757077 6.841985E-8
v 0.58922553 -0.8055113 7.178328E-8
v 0.60490394 -0.7966307 -0.070703395
v 0.6175778 -0.8048582 -0.04912219
v 0.6865213 -0.79475045 -0.0707034
v 0.67428267 -0.80355185 -0.049122196
v 0.72733 -0.79381025 7.727413E-8
v 0.68337774 -0.6717615 0.07070355
v 0.6865213 -0.79475045 0.07070356
v 0.72418636 -0.6708213 7.742494E-8
v 0.6017604 -0.6736418 0.07070356
v 0.60490394 -0.7966307 0.07070356
v 0.56095165 -0.67458177 8.240627E-8
v 0.5640954 -0.79757077 6.841985E-8
v 0.6017604 -0.6736418 -0.070703365
v 0.60490394 -0.7966307 -0.070703395
v 0.68337774 -0.6717615 -0.0707034
v 0.6865213 -0.79475045 -0.0707034
v 0.72418636 -0.6708213 7.742494E-8
v 0.6423997 -0.66607916 8.444254E-8
v 0.68337774 -0.6717615 0.07070355
v 0.6017604 -0.6736418 0.07070356
v 0.56095165 -0.67458177 8.240627E-8
v 0.6017604 -0.6736418 -0.070703365
v 0.68337774 -0.6717615 -0.0707034
vn 0.01346272 0.9999094 0.0
vn -0.08406383 0.9821353 -0.16835533
vn -0.18122225 0.9834421 1.3107517E-7
vn 0.11035239 0.9795201 -0.16841231
vn 0.20761213 0.97821116 -1.7004274E-7
vn 0.11035269 0.9795202 0.16841207
vn -0.08406341 0.9821353 0.16835538
vn -0.99317 -0.116676375 5.360104E-7
vn -0.47101027 -0.10842486 -0.875439
vn -0.99317 -0.11667636 6.0643123E-7
vn -0.4863788 -0.10854183 -0.86698
vn 0.49712533 -0.11158089 -0.86047435
vn 0.49757156 -0.111585684 -0.8602157
vn 0.9932198 -0.11625159 -5.676981E-7
vn 0.9932198 -0.11625159 -6.7666235E-7
vn -0.48637736 -0.108541645 0.8669809
vn -0.47100905 -0.10842468 0.87543964
vn 0.4975731 -0.111585625 0.86021495
vn 0.49712667 -0.11158082 0.8604736
vn 0.9932198 -0.11625159 -6.7666235E-7
vn 0.9932198 -0.11625159 -5.676981E-7
vn -0.99999917 0.0012866928 -4.2138072E-7
vn -0.45646113 -0.0010156631 -0.8897428
vn -0.99999917 0.0012866928 -3.9798377E-7
vn -0.45367476 -0.0010290925 -0.8911667
vn 0.49536705 -0.003943299 -0.8686749
vn 0.49812835 -0.003946889 -0.86709434
vn 0.9999894 -0.00462059 1.1000935E-7
vn 0.9999894 -0.0046205902 0.0
vn 0.4953675 -0.003942952 0.8686746
vn 0.49812898 -0.003946542 0.867094
vn -0.45646092 -0.0010153002 0.8897429
vn -0.45367447 -0.0010287297 0.89116687
vn -0.6808035 0.73246616 -1.0878445E-6
vn -0.43062496 0.10098311 -0.89686364
vn -0.93703395 0.3492384 -7.747379E-7
vn -0.97381634 -0.22733596 -6.646937E-7
vn -0.43062568 0.10098297 0.8968634
vn -0.46822616 0.0073099528 0.8835784
vn 0.47416928 0.09076027 0.87574315
vn 0.50264937 0.0041869585 0.86448026
vn 0.50408834 0.082117826 0.8597393
vn 0.99606234 0.08865554 8.2908764E-7
vn 0.9517544 -0.30686098 6.854221E-7
vn 0.97816694 -0.20782092 4.8355275E-7
vn 0.5040889 0.08211781 -0.85973895
vn 0.50265 0.0041867886 -0.8644799
vn -0.46822557 0.0073097604 -0.88357884
vn 0.47416922 0.09075991 -0.87574327
vn 0.9669065 0.25513116 3.0493786E-7
vn -0.5039992 0.08414573 -0.8595954
vn -0.995619 0.093502186 -9.569521E-7
vn -0.9394937 -0.3425662 -7.776757E-7
vn -0.50400007 0.08414618 0.8595948
vn 0.84385955 0.53656405 1.9913362E-7
vn -0.993885 -0.11042068 -8.232895E-7
vn -0.45670453 -0.40704203 -0.7910359
vn -0.91340923 -0.4070423 -8.53816E-7
vn -0.49899223 -0.11320188 -0.85918105
vn 0.45670453 -0.40704235 -0.7910357
vn 0.50318027 -0.10787615 -0.85742193
vn 0.91340977 -0.4070414 1.1194485E-6
vn 0.9949993 -0.09988213 8.6515695E-7
vn 0.45670488 -0.40704077 0.7910363
vn 0.503179 -0.107875414 0.8574228
vn -0.4567045 -0.4070424 0.79103565
vn -0.49899337 -0.113201894 0.8591804
vn -0.3382391 -0.94106025 -2.0367023E-7
vn -0.1691194 -0.94106025 -0.2929237
vn 0.0 -1.0 0.0
vn 0.16911957 -0.94106025 -0.29292366
vn 0.33823887 -0.94106025 2.0367042E-7
vn 0.16911931 -0.94106025 0.2929238
vn -0.16911966 -0.94106025 0.2929235
vn -0.5039992 0.08414573 -0.8595954
vn -0.993885 -0.11042068 -8.232895E-7
vn -0.995619 0.093502186 -9.569521E-7
vn -0.49899223 -0.11320188 -0.85918105
vn 0.5040889 0.08211781 -0.85973895
vn 0.50318027 -0.10787615 -0.85742193
vn 0.99606234 0.08865554 8.2908764E-7
vn 0.9949993 -0.09988213 8.6515695E-7
vn -0.49899337 -0.113201894 0.8591804
vn -0.50400007 0.08414618 0.8595948
vn 0.503179 -0.107875414 0.8574228
vn 0.50408834 0.082117826 0.8597393
vn 0.9949993 -0.09988213 8.6515695E-7
vn 0.99606234 0.08865554 8.2908764E-7
vn 0.9996735 0.025552267 7.89309E-7
vn 0.4992408 0.012760948 0.8663693
vn 0.5004443 0.012791711 0.8656742
vn 0.9996735 0.025552267 8.3182255E-7
vn -0.50044495 -0.012791625 0.86567384
vn -0.49924165 -0.012760869 0.8663688
vn -0.9996735 -0.025551694 -2.8502836E-7
vn -0.9996735 -0.025551694 -3.283516E-7
vn -0.5004444 -0.012791165 -0.8656742
vn -0.49924153 -0.01276042 -0.8663689
vn 0.49924192 0.012760864 -0.8663686
vn 0.5004448 0.012791611 -0.8656739
vn 0.33312252 0.9428836 3.6470223E-7
vn 0.15573536 0.9387447 0.30741632
vn 0.15591903 0.9387491 0.3073101
vn 0.33312252 0.9428836 5.397401E-7
vn -0.19921461 0.93045634 0.30751377
vn -0.19902042 0.93046075 0.30762568
vn -0.376769 0.92630726 -2.5881238E-7
vn -0.376769 0.92630726 -1.6831595E-7
vn -0.19921431 0.9304562 -0.3075142
vn -0.19902043 0.93046063 -0.30762592
vn 0.15573451 0.93874496 -0.30741626
vn 0.15591954 0.93874925 -0.3073092
vn 0.9998035 0.019826867 1.3131184E-7
vn 0.49913883 0.006520523 0.86649746
vn 0.5008269 0.0065653883 0.8655225
vn 0.9998035 0.019826867 1.3158022E-7
vn -0.50049967 -0.020046564 0.86550456
vn -0.49881157 -0.020001704 0.8664797
vn -0.99944514 -0.033306584 2.1979298E-7
vn -0.99944514 -0.033306584 -3.493747E-7
vn -0.5004995 -0.020046484 -0.86550474
vn -0.49881113 -0.02000161 -0.8664799
vn 0.49913937 0.0065206373 -0.8664972
vn 0.500827 0.0065654907 -0.86552244
vn 0.3453792 -0.9384632 0.0
vn 0.18347725 -0.9422384 0.28021953
vn 0.18363997 -0.9422346 0.2801257
vn 0.3453792 -0.9384632 0.0
vn -0.13985276 -0.9497725 0.27995256
vn -0.13969865 -0.94976884 0.2800417
vn -0.30129308 -0.95353156 -2.953126E-7
vn -0.3012931 -0.95353156 -3.231942E-7
vn -0.13985392 -0.9497717 -0.2799546
vn -0.13969979 -0.94976807 -0.2800437
vn 0.18347785 -0.94223773 -0.28022113
vn 0.18364048 -0.9422339 -0.28012738
vn 0.9996735 0.025551502 0.0
vn 0.49924153 0.0127605535 0.8663689
vn 0.5004442 0.012791295 0.86567426
vn 0.9996735 0.0255515 0.0
vn -0.50044495 -0.01279145 0.86567384
vn -0.49924144 -0.0127606895 0.86636895
vn -0.9996735 -0.025551764 0.0
vn -0.9996735 -0.025551768 -1.3134051E-7
vn -0.50044507 -0.012791341 -0.86567384
vn -0.49924147 -0.012760578 -0.8663689
vn 0.49924135 0.012760583 -0.86636895
vn 0.5004441 0.012791327 -0.86567426
vn 0.057884444 0.99832326 0.0
vn -0.02305124 0.9997342 0.0
vn 0.017470341 0.9973916 0.070034064
vn -0.06338467 0.99552757 0.07005176
vn -0.10382844 0.9945952 0.0
vn -0.06338468 0.99552757 -0.07005176
vn 0.017470313 0.9973916 -0.07003406
vt 0.26319993 0.18233411
vt 0.37092125 0.11290567
vt 0.48248813 0.11290567
vt 0.14778703 0.11290567
vt 0.03621985 0.11290567
vt 0.14778677 0.11290567
vt 0.3709209 0.11290567
vt 0.703125 0.6953125
vt 0.027549213 0.79246897
vt 0.027550044 0.69360644
vt 0.703125 0.79296875
vt 0.027548382 0.9029753
vt 0.703125 0.90234375
vt 0.027547756 0.98779756
vt 0.703125 0.98828125
vt 0.703125 0.59765625
vt 0.02755067 0.59708667
vt 0.703125 0.48828125
vt 0.027551709 0.48658043
vt 0.703125 0.39453125
vt 0.02755233 0.39472964
vt 0.9726171 0.71254003
vt 0.91400295 0.47997648
vt 0.9726171 0.47997648
vt 0.91400295 0.71254003
vt 0.8055971 0.47997648
vt 0.8055971 0.71254003
vt 0.73931485 0.47997648
vt 0.73820615 0.7124854
vt 0.8055971 0.47997648
vt 0.8055971 0.71254003
vt 0.91400295 0.47997648
vt 0.91400295 0.71254003
vt 0.4418743 0.36857265
vt 0.3579128 0.36857265
vt 0.5040735 0.3587442
vt 0.5040735 0.27662587
vt 0.3579128 0.36857265
vt 0.3579128 0.26229846
vt 0.17984068 0.36857265
vt 0.17984068 0.26229846
vt 0.17984068 0.20916136
vt 0.07253176 0.20916136
vt 0.07306413 0.26229846
vt 0.051654585 0.27355826
vt 0.17984068 0.20916131
vt 0.17984068 0.2622984
vt 0.3579128 0.2622984
vt 0.17984068 0.36857265
vt 0.051654585 0.35755855
vt 0.3579128 0.20916131
vt 0.48617518 0.20916136
vt 0.48379552 0.26229846
vt 0.3579128 0.20916136
vt 0.09296345 0.36857265
vt 0.604701 0.09652561
vt 0.43176174 0.012789639
vt 0.604701 0.012789639
vt 0.43176174 0.09652561
vt 0.20405081 0.012789639
vt 0.20405081 0.09652561
vt 0.031111507 0.012789639
vt 0.031111507 0.09652561
vt 0.20405081 0.012789639
vt 0.20405081 0.09652561
vt 0.43176174 0.012789639
vt 0.43176174 0.09652561
vt 0.9781729 0.45420337
vt 0.57897913 0.34725815
vt 0.9781729 0.24031308
vt 0.57897913 0.13336785
vt 0.9781729 0.026422644
vt 0.57897913 0.13336785
vt 0.57897913 0.34725815
vt 0.02755067 0.78572583
vt 0.625 0.6875
vt 0.027550044 0.68920606
vt 0.625 0.78515625
vt 0.027551709 0.89623207
vt 0.625 0.89453125
vt 0.02755233 0.9880829
vt 0.625 0.98828125
vt 0.625 0.58984375
vt 0.027549213 0.59034353
vt 0.625 0.48046875
vt 0.027548382 0.47983718
vt 0.625 0.39453125
vt 0.027547756 0.39501494
vt 0.9735326 0.9912016
vt 0.9135288 0.94186294
vt 0.91352916 0.9912016
vt 0.9735321 0.9418628
vt 0.7935221 0.94186306
vt 0.7935226 0.9912016
vt 0.7265625 0.94140625
vt 0.7265625 0.9912016
vt 0.7935225 0.94186306
vt 0.79352283 0.9912016
vt 0.91352904 0.94186294
vt 0.9135293 0.9912016
vt 0.9735321 0.9418628
vt 0.89792407 0.92499954
vt 0.9135288 0.94186294
vt 0.9423226 0.92499954
vt 0.80912715 0.92499965
vt 0.7935221 0.94186306
vt 0.75 0.9250439
vt 0.7265625 0.94140625
vt 0.80912715 0.92499965
vt 0.7935225 0.94186306
vt 0.8979242 0.92499954
vt 0.91352904 0.94186294
vt 0.9423226 0.92499954
vt 0.89792186 0.8351182
vt 0.89792407 0.92499954
vt 0.9423204 0.8351182
vt 0.80912495 0.8351182
vt 0.80912715 0.92499965
vt 0.75 0.8351182
vt 0.75 0.9250439
vt 0.80912495 0.8351182
vt 0.80912715 0.92499965
vt 0.89792186 0.8351182
vt 0.8979242 0.92499954
vt 0.9423204 0.8351182
vt 0.9140625 0.8125
vt 0.89792186 0.8351182
vt 0.984375 0.8125
vt 0.7890625 0.8125
vt 0.80912495 0.8351182
vt 0.734375 0.8125
vt 0.75 0.8351182
vt 0.7890625 0.8125
vt 0.80912495 0.8351182
vt 0.9140625 0.8125
vt 0.89792186 0.8351182
vt 0.984375 0.8125
vt 0.9140625 0.750068
vt 0.9140625 0.8125
vt 0.984375 0.750068
vt 0.7890625 0.750068
vt 0.7890625 0.8125
vt 0.734375 0.750068
vt 0.734375 0.8125
vt 0.7890625 0.750068
vt 0.7890625 0.8125
vt 0.9140625 0.750068
vt 0.9140625 0.8125
vt 0.984375 0.750068
vt 0.8515625 0.734375
vt 0.9140625 0.750068
vt 0.7890625 0.750068
vt 0.734375 0.750068
vt 0.7890625 0.750068
vt 0.9140625 0.750068

o sun_ce_w_1
s 1
usemtl sun_ce_w_1
f 1/1/1 2/2/2 3/3/3
f 1/1/1 4/4/4 2/2/2
f 1/1/1 5/5/5 4/4/4
f 1/1/1 6/6/6 5/5/5
f 1/1/1 7/7/7 6/6/6
f 1/1/1 3/3/3 7/7/7
f 8/8/8 9/9/9 10/10/10
f 8/8/8 11/11/11 9/9/9
f 11/11/11 12/12/12 9/9/9
f 11/11/11 13/13/13 12/12/12
f 13/13/13 14/14/14 12/12/12
f 13/13/13 15/15/15 14/14/14
f 16/16/16 8/8/8 10/10/10
f 16/16/16 10/10/10 17/17/17
f 18/18/18 16/16/16 17/17/17
f 18/18/18 17/17/17 19/19/19
f 20/20/20 18/18/18 19/19/19
f 20/20/20 19/19/19 21/21/21
f 22/22/22 23/23/23 24/24/24
f 22/22/22 25/25/25 23/23/23
f 25/25/25 26/26/26 23/23/23
f 25/25/25 27/27/27 26/26/26
f 27/27/27 28/28/28 26/26/26
f 27/27/27 29/29/29 28/28/28
f 29/29/29 30/30/30 28/28/28
f 29/29/29 31/31/31 30/30/30
f 31/31/31 32/32/32 30/30/30
f 31/31/31 33/33/33 32/32/32
f 33/33/33 24/24/24 32/32/32
f 33/33/33 22/22/22 24/24/24
f 34/34/34 35/35/35 36/36/36
f 35/35/35 37/37/37 36/36/36
f 38/38/38 36/36/36 37/37/37
f 38/38/38 34/34/34 36/36/36
f 38/38/38 37/37/37 39/39/39
f 40/40/40 38/38/38 39/39/39
f 40/40/40 39/39/39 41/41/41
f 39/39/39 42/42/42 41/41/41
f 41/41/41 42/42/42 43/43/43
f 41/41/41 43/43/43 44/44/44
f 41/41/41 44/44/44 45/45/45
f 45/45/45 40/40/40 41/41/41
f 44/44/44 43/43/43 46/46/46
f 44/44/44 46/46/46 47/47/47
f 45/45/45 44/44/44 47/47/47
f 35/35/35 47/47/47 48/48/48
f 35/35/35 48/48/48 37/37/37
f 35/35/35 49/49/49 47/47/47
f 49/49/49 45/45/45 47/47/47
f 49/49/49 50/50/50 45/45/45
f 45/45/45 50/50/50 40/40/40
f 47/47/47 51/51/51 48/48/48
f 47/47/47 46/46/46 51/51/51
f 48/48/48 51/51/51 52/52/52
f 48/48/48 52/52/52 53/53/53
f 39/39/39 54/54/54 42/42/42
f 53/53/53 54/54/54 39/39/39
f 53/53/53 52/52/52 54/54/54
f 49/49/49 55/55/55 50/50/50
f 50/50/50 55/55/55 40/40/40
f 48/48/48 53/53/53 37/37/37
f 37/37/37 53/53/53 39/39/39
f 56/56/56 57/57/57 58/58/58
f 56/56/56 59/59/59 57/57/57
f 59/59/59 60/60/60 57/57/57
f 59/59/59 61/61/61 60/60/60
f 61/61/61 62/62/62 60/60/60
f 61/61/61 63/63/63 62/62/62
f 63/63/63 64/64/64 62/62/62
f 63/63/63 65/65/65 64/64/64
f 65/65/65 66/66/66 64/64/64
f 65/65/65 67/67/67 66/66/66
f 67/67/67 58/58/58 66/66/66
f 67/67/67 56/56/56 58/58/58
f 68/68/68 69/69/69 70/70/70
f 69/69/69 71/71/71 70/70/70
f 71/71/71 72/72/72 70/70/70
f 72/72/72 73/73/73 70/70/70
f 73/73/73 74/74/74 70/70/70
f 74/74/74 68/68/68 70/70/70
f 75/75/75 76/76/76 77/77/77
f 75/75/75 78/78/78 76/76/76
f 79/79/79 78/78/78 75/75/75
f 79/79/79 80/80/80 78/78/78
f 81/81/81 80/80/80 79/79/79
f 81/81/81 82/82/82 80/80/80
f 77/77/77 76/76/76 83/83/83
f 77/77/77 83/83/83 84/84/84
f 84/84/84 83/83/83 85/85/85
f 84/84/84 85/85/85 86/86/86
f 86/86/86 85/85/85 87/87/87
f 86/86/86 87/87/87 88/88/88
f 89/89/89 90/90/90 91/91/91
f 89/89/89 92/92/92 90/90/90
f 91/91/91 90/90/90 93/93/93
f 91/91/91 93/93/93 94/94/94
f 94/94/94 93/93/93 95/95/95
f 94/94/94 95/95/95 96/96/96
f 96/96/96 95/95/95 97/97/97
f 96/96/96 97/97/97 98/98/98
f 98/98/98 97/97/97 99/99/99
f 98/98/98 99/99/99 100/100/100
f 100/100/100 92/92/92 89/89/89
f 100/100/100 99/99/99 92/92/92
f 101/101/101 102/102/102 103/103/103
f 101/101/101 104/104/104 102/102/102
f 103/103/103 102/102/102 105/105/105
f 103/103/103 105/105/105 106/106/106
f 106/106/106 105/105/105 107/107/107
f 106/106/106 107/107/107 108/108/108
f 108/108/108 107/107/107 109/109/109
f 108/108/108 109/109/109 110/110/110
f 110/110/110 109/109/109 111/111/111
f 110/110/110 111/111/111 112/112/112
f 112/112/112 104/104/104 101/101/101
f 112/112/112 111/111/111 104/104/104
f 113/113/113 114/114/114 115/115/115
f 113/113/113 116/116/116 114/114/114
f 115/115/115 114/114/114 117/117/117
f 115/115/115 117/117/117 118/118/118
f 118/118/118 117/117/117 119/119/119
f 118/118/118 119/119/119 120/120/120
f 120/120/120 119/119/119 121/121/121
f 120/120/120 121/121/121 122/122/122
f 122/122/122 121/121/121 123/123/123
f 122/122/122 123/123/123 124/124/124
f 124/124/124 116/116/116 113/113/113
f 124/124/124 123/123/123 116/116/116
f 125/125/125 126/126/126 127/127/127
f 125/125/125 128/128/128 126/126/126
f 127/127/127 126/126/126 129/129/129
f 127/127/127 129/129/129 130/130/130
f 130/130/130 129/129/129 131/131/131
f 130/130/130 131/131/131 132/132/132
f 132/132/132 131/131/131 133/133/133
f 132/132/132 133/133/133 134/134/134
f 134/134/134 133/133/133 135/135/135
f 134/134/134 135/135/135 136/136/136
f 136/136/136 128/128/128 125/125/125
f 136/136/136 135/135/135 128/128/128
f 137/137/137 138/138/138 139/139/139
f 137/137/137 140/140/140 138/138/138
f 139/139/139 138/138/138 141/141/141
f 139/139/139 141/141/141 142/142/142
f 142/142/142 141/141/141 143/143/143
f 142/142/142 143/143/143 144/144/144
f 144/144/144 143/143/143 145/145/145
f 144/144/144 145/145/145 146/146/146
f 146/146/146 145/145/145 147/147/147
f 146/146/146 147/147/147 148/148/148
f 148/148/148 140/140/140 137/137/137
f 148/148/148 147/147/147 140/140/140
f 149/149/149 150/150/150 151/151/151
f 151/151/151 150/150/150 152/152/152
f 152/152/152 150/150/150 153/153/153
f 153/153/153 150/150/150 154/154/154
f 154/154/154 150/150/150 155/155/155
f 155/155/155 150/150/150 149/149/149

