# Created by DisUnity v0.3.1
v -0.13085535 -1.2958583 0.31120214
v -0.117443286 -1.263865 0.41623282
v -0.13688485 -1.3824661 0.3242609
v -0.17249627 -1.3473486 0.42741588
v -0.107687205 -1.0392507 0.25739715
v -0.09525237 -1.0176312 0.3349018
v -0.08367733 -0.8227016 0.19928612
v -0.07424922 -0.8027709 0.264499
v -0.04645602 -0.56392 0.10553694
v -0.031456128 -0.5423516 0.18514678
v -0.0040869997 -0.42329848 0.1515622
v -0.015097508 -0.43028784 0.022536324
v -0.013431346 -0.3948295 0.0194765
v -0.12185598 -0.7826955 0.3099898
v -0.15241548 -0.9923815 0.3870922
v -0.20761132 -1.3083541 0.529341
v -0.19266137 -1.2310938 0.49041626
v -0.09184783 -0.51635545 0.23715605
v -0.085618265 -0.35639152 0.22701992
v -0.078885004 -0.32624286 0.20926742
v -0.10408591 -0.42162773 0.11647153
v -0.10725244 -0.5410852 0.15854904
v -0.13118084 -0.8018197 0.2445211
v -0.08367733 -0.8227016 0.19928612
v -0.1651655 -1.016463 0.31036857
v -0.107687205 -1.0392507 0.25739715
v -0.20598364 -1.2623856 0.3851631
v -0.13085535 -1.2958583 0.31120214
v -0.13688485 -1.3824661 0.3242609
v -0.17249627 -1.3473486 0.42741588
v -0.12185598 -0.7826955 0.3099898
v -0.15241548 -0.9923815 0.3870922
v -0.20761132 -1.3083541 0.529341
v -0.19266137 -1.2310938 0.49041626
v -8.112812E-4 -0.20853768 -0.007617259
v 0.019073218 -0.21180084 0.08311845
v -0.005440845 -0.27328995 0.0024926662
v -0.0049003065 -0.14340709 0.007136445
v 0.017315352 -0.13259599 0.05388916
v 0.019958777 -0.11289934 0.04768282
v -0.0027619994 -0.12475664 0.001930859
v -0.0037836772 -0.11697582 0.0052128388
v 0.019936979 -0.2895556 0.11151537
v 7.60777E-4 -0.33461046 -0.018099966
v 0.019796882 -0.34614557 0.13191757
v -0.011485293 -0.38113245 0.014582949
v -0.015326199 -0.37628058 0.025759505
v 0.012793185 -0.108042985 0.043456614
v 0.044694185 0.11150907 -0.024883375
v 0.023801584 0.10210283 -0.062966615
v 0.037804004 0.12724127 -0.1016728
v 0.05016209 0.14659481 -0.035676934
v 0.03765396 0.21320249 -0.09715231
v 0.04595291 0.22248155 -0.06455253
v 0.028945882 0.22609292 -0.07172287
v -0.023520531 -0.09629423 0.06244226
v 0.019387674 0.23234312 -0.04418697
v -1.3395071E-4 0.16699518 0.008332944
v 0.004880497 0.121929586 -0.008102608
v -0.026057152 -0.100346446 0.069478005
v -0.028635334 -0.11853594 0.075959064
v -0.046461247 -0.16070265 0.1247504
v -0.057545733 -0.218691 0.15357718
v -0.07612427 -0.25404522 0.20483768
v -0.077278346 -0.31219015 0.20535797
v -0.0732507 -0.31558344 0.19371872
v -0.0040869997 -0.42329848 0.1515622
v -0.013431346 -0.3948295 0.0194765
v -0.078885004 -0.32624286 0.20926742
v -0.07310826 -0.21026069 0.050771013
v -0.048720073 -0.11175186 0.023582691
v -0.051120553 -0.13145256 0.029874278
v -0.09383517 -0.2876547 0.07159153
v -0.10815477 -0.34400776 0.08701798
v -0.040344242 -0.10715517 0.024810132
v -0.0160121 0.11252335 -0.04618585
v -0.012492033 0.14764163 -0.057662923
v 0.011088722 0.22306405 -0.07678674
v -0.10408591 -0.42162773 0.11647153
vn 0.9896924 -0.099518664 -0.102979936
vn 0.9248416 -0.117985584 0.3615902
vn 0.9475959 -0.2777471 0.1578565
vn 0.77812946 -0.45515373 0.43283904
vn 0.98606837 -0.12633035 -0.108211525
vn 0.9472225 0.018311996 0.32005343
vn 0.9805876 -0.16154839 -0.1111311
vn 0.9433416 -0.0167847 0.33139825
vn 0.28785113 -0.45622694 -0.8420206
vn 0.9335505 -0.07750825 0.34996584
vn 0.9298052 -0.09592844 0.35533085
vn 0.3108896 -0.30423763 -0.9004371
vn 0.31120077 -0.3016462 -0.9012012
vn 0.70034194 0.13211147 0.70147544
vn 0.71341634 0.15937245 0.68237644
vn 0.798933 -0.12196815 0.5889226
vn 0.7245866 0.17827688 0.66572636
vn -0.32275414 0.18360549 0.9285036
vn -0.3060283 0.34220958 0.8883914
vn -0.30568075 0.34476325 0.88752323
vn -0.9503462 -0.064514786 -0.30443394
vn -0.94936895 -0.046048384 -0.3107703
vn -0.9436031 0.01474247 -0.33075038
vn -0.7005147 -0.13346039 -0.70104736
vn -0.93850005 0.049818706 -0.3416663
vn -0.7055677 -0.09806645 -0.7018242
vn -0.9510396 -0.08664327 -0.29667607
vn -0.7108662 -0.07110557 -0.69972366
vn -0.8462701 -0.24777485 -0.47162983
vn -0.8911025 -0.4272638 -0.15291184
vn -0.98076034 0.16019942 0.11155889
vn -0.9782196 0.18763633 0.088763505
vn -0.99493283 -0.09199627 -0.04056363
vn -0.97597176 0.20668957 0.068982445
vn 0.3296096 -0.060480103 -0.9421782
vn 0.95014924 0.14930026 0.27372614
vn 0.33116168 0.086453184 -0.93960506
vn 0.32622844 -0.13243094 -0.93596846
vn 0.9509844 0.12564985 0.2825611
vn 0.90994376 0.37433505 0.1785374
vn 0.33109814 -0.0011576028 -0.9435956
vn 0.32986093 0.14233112 -0.93323827
vn 0.95072013 0.0743918 0.3009935
vn 0.3296449 -0.059465073 -0.94223046
vn 0.9327859 -0.08141744 0.35111487
vn 0.18199295 -0.8101849 -0.5572065
vn -0.007548459 -0.9996313 -0.026085047
vn 0.8221311 0.5636734 0.07983003
vn 0.91138506 -0.16883956 0.37532696
vn 0.27626994 -0.51446265 -0.81179005
vn 0.30636585 -0.33970797 -0.8892347
vn 0.9366347 -0.060798727 0.34499106
vn 0.3102481 0.39351183 -0.86538696
vn 0.81271243 0.57828593 0.0713011
vn 0.121134505 0.9461691 -0.30015078
vn -0.21969204 0.7181881 0.6602584
vn -0.1480108 0.87370586 0.46339077
vn -0.31058273 0.30677155 0.89968306
vn -0.3270602 0.117746405 0.9376393
vn -0.2530312 0.6109311 0.75015885
vn -0.27895033 0.50171536 0.8188214
vn -0.2652876 0.56289244 0.7827991
vn -0.23329996 0.6779335 0.6971206
vn -0.2650852 0.5637326 0.782263
vn -0.3218503 -0.28222495 0.9037486
vn -0.21991934 -0.77709556 0.5897102
vn 0.9298052 -0.09592844 0.35533085
vn 0.31120077 -0.3016462 -0.9012012
vn -0.30568075 0.34476325 0.88752323
vn -0.90794575 0.18034536 -0.37829888
vn -0.8104143 0.40307882 -0.4251544
vn -0.9148204 0.15682378 -0.37216944
vn -0.9276539 0.10577578 -0.35814765
vn -0.9496065 -0.049966276 -0.30943626
vn -0.6745993 0.5886806 -0.4453885
vn -0.95063394 -0.1377288 -0.27807522
vn -0.94817066 -0.02930722 -0.31640697
vn -0.6614874 0.60291684 -0.446011
vn -0.9503462 -0.064514786 -0.30443394
vt 0.4734277 0.8943837
vt 0.25452092 0.8940622
vt 0.4734277 0.9701007
vt 0.25452092 0.9701007
vt 0.4734277 0.6673068
vt 0.25452092 0.6684354
vt 0.4734277 0.47190133
vt 0.25452092 0.4715315
vt 0.4734277 0.24202672
vt 0.25452092 0.24391575
vt 0.25452092 0.101396576
vt 0.4734277 0.07979922
vt 0.4734277 0.02738925
vt 0.035614133 0.47190133
vt 0.035614133 0.6673068
vt 0.035614133 0.9701007
vt 0.035614133 0.8943837
vt 0.035614133 0.24202672
vt 0.035614133 0.07979922
vt 0.035614133 0.02738925
vt 0.25452092 0.101396576
vt 0.25452092 0.24391575
vt 0.25452092 0.4715315
vt 0.4734277 0.47190133
vt 0.25452092 0.6684354
vt 0.4734277 0.6673068
vt 0.25452092 0.8940622
vt 0.4734277 0.8943837
vt 0.4734277 0.9701007
vt 0.25452092 0.9701007
vt 0.035614133 0.47190133
vt 0.035614133 0.6673068
vt 0.035614133 0.9701007
vt 0.035614133 0.8943837
vt 0.808161 0.6226229
vt 0.58160335 0.66076887
vt 0.84019625 0.711692
vt 0.69939876 0.54589605
vt 0.58160335 0.54589605
vt 0.58160335 0.5180105
vt 0.6972155 0.5185311
vt 0.679556 0.5049042
vt 0.58160335 0.77281266
vt 0.9631787 0.7810784
vt 0.58160335 0.8543771
vt 0.9081298 0.8566657
vt 0.869079 0.86449856
vt 0.58160335 0.50712425
vt 0.5816037 0.19417846
vt 0.6755075 0.19417846
vt 0.7558634 0.14347911
vt 0.5816037 0.14347911
vt 0.67849463 0.045730695
vt 0.5816037 0.045730695
vt 0.5816037 0.028017722
vt 0.679556 0.5049042
vt 0.67849463 0.045730695
vt 0.7558634 0.14347911
vt 0.6755075 0.19417846
vt 0.6972155 0.5185311
vt 0.69939876 0.54589605
vt 0.808161 0.6226229
vt 0.84019625 0.711692
vt 0.9631787 0.7810784
vt 0.9081298 0.8566657
vt 0.869079 0.86449856
vt 0.58160335 0.9661494
vt 0.90644556 0.87670577
vt 0.90644556 0.87670577
vt 0.58160335 0.66076887
vt 0.58160335 0.5180105
vt 0.58160335 0.54589605
vt 0.58160335 0.77281266
vt 0.58160335 0.8543771
vt 0.58160335 0.50712425
vt 0.5816037 0.19417846
vt 0.5816037 0.14347911
vt 0.5816037 0.045730695
vt 0.58160335 0.9661494

o w_001
s 1
usemtl w_001
f 1/1/1 2/2/2 3/3/3
f 3/3/3 2/2/2 4/4/4
f 5/5/5 2/2/2 1/1/1
f 5/5/5 6/6/6 2/2/2
f 7/7/7 6/6/6 5/5/5
f 7/7/7 8/8/8 6/6/6
f 8/8/8 7/7/7 9/9/9
f 8/8/8 9/9/9 10/10/10
f 10/10/10 9/9/9 11/11/11
f 12/12/12 11/11/11 9/9/9
f 13/13/13 11/11/11 12/12/12
f 14/14/14 6/6/6 8/8/8
f 14/14/14 15/15/15 6/6/6
f 15/15/15 2/2/2 6/6/6
f 16/16/16 4/4/4 2/2/2
f 17/17/17 16/16/16 2/2/2
f 15/15/15 17/17/17 2/2/2
f 8/8/8 18/18/18 14/14/14
f 8/8/8 10/10/10 18/18/18
f 10/10/10 11/11/11 18/18/18
f 19/19/19 18/18/18 11/11/11
f 20/20/20 19/19/19 11/11/11
f 12/12/12 9/9/9 21/21/21
f 13/13/13 12/12/12 21/21/21
f 19/19/19 21/21/21 18/18/18
f 20/20/20 21/21/21 19/19/19
f 22/22/22 21/21/21 9/9/9
f 22/22/22 18/18/18 21/21/21
f 23/23/23 22/22/22 9/9/9
f 23/23/23 18/18/18 22/22/22
f 23/23/23 9/9/9 24/24/24
f 24/24/24 25/25/25 23/23/23
f 24/24/24 26/26/26 25/25/25
f 26/26/26 27/27/27 25/25/25
f 26/26/26 28/28/28 27/27/27
f 28/28/28 29/29/29 27/27/27
f 29/29/29 30/30/30 27/27/27
f 31/31/31 23/23/23 25/25/25
f 23/23/23 31/31/31 18/18/18
f 31/31/31 25/25/25 32/32/32
f 32/32/32 25/25/25 27/27/27
f 33/33/33 27/27/27 30/30/30
f 34/34/34 27/27/27 33/33/33
f 32/32/32 27/27/27 34/34/34
f 35/35/35 36/36/36 37/37/37
f 36/36/36 35/35/35 38/38/38
f 36/36/36 38/38/38 39/39/39
f 38/38/38 40/40/40 39/39/39
f 38/38/38 41/41/41 40/40/40
f 41/41/41 42/42/42 40/40/40
f 43/43/43 37/37/37 36/36/36
f 44/44/44 37/37/37 43/43/43
f 44/44/44 43/43/43 45/45/45
f 44/44/44 45/45/45 46/46/46
f 46/46/46 45/45/45 47/47/47
f 42/42/42 48/48/48 40/40/40
f 42/42/42 49/49/49 48/48/48
f 42/42/42 50/50/50 49/49/49
f 51/51/51 49/49/49 50/50/50
f 51/51/51 52/52/52 49/49/49
f 53/53/53 52/52/52 51/51/51
f 53/53/53 54/54/54 52/52/52
f 54/54/54 53/53/53 55/55/55
f 56/56/56 48/48/48 49/49/49
f 54/54/54 55/55/55 57/57/57
f 57/57/57 52/52/52 54/54/54
f 57/57/57 58/58/58 52/52/52
f 58/58/58 49/49/49 52/52/52
f 58/58/58 59/59/59 49/49/49
f 56/56/56 49/49/49 59/59/59
f 56/56/56 40/40/40 48/48/48
f 60/60/60 40/40/40 56/56/56
f 61/61/61 40/40/40 60/60/60
f 61/61/61 39/39/39 40/40/40
f 36/36/36 39/39/39 61/61/61
f 36/36/36 61/61/61 62/62/62
f 62/62/62 63/63/63 36/36/36
f 43/43/43 36/36/36 63/63/63
f 64/64/64 43/43/43 63/63/63
f 64/64/64 45/45/45 43/43/43
f 64/64/64 65/65/65 45/45/45
f 65/65/65 66/66/66 45/45/45
f 66/66/66 67/67/67 45/45/45
f 68/68/68 45/45/45 67/67/67
f 68/68/68 47/47/47 45/45/45
f 66/66/66 69/69/69 67/67/67
f 62/62/62 70/70/70 63/63/63
f 70/70/70 62/62/62 61/61/61
f 61/61/61 60/60/60 71/71/71
f 61/61/61 71/71/71 72/72/72
f 38/38/38 72/72/72 71/71/71
f 70/70/70 72/72/72 38/38/38
f 38/38/38 71/71/71 41/41/41
f 41/41/41 71/71/71 42/42/42
f 70/70/70 38/38/38 35/35/35
f 35/35/35 37/37/37 70/70/70
f 73/73/73 70/70/70 37/37/37
f 44/44/44 73/73/73 37/37/37
f 44/44/44 74/74/74 73/73/73
f 68/68/68 74/74/74 47/47/47
f 46/46/46 47/47/47 74/74/74
f 44/44/44 46/46/46 74/74/74
f 42/42/42 71/71/71 75/75/75
f 42/42/42 75/75/75 76/76/76
f 42/42/42 76/76/76 50/50/50
f 51/51/51 50/50/50 76/76/76
f 51/51/51 76/76/76 77/77/77
f 53/53/53 51/51/51 77/77/77
f 53/53/53 77/77/77 78/78/78
f 78/78/78 55/55/55 53/53/53
f 56/56/56 76/76/76 75/75/75
f 78/78/78 57/57/57 55/55/55
f 57/57/57 78/78/78 77/77/77
f 57/57/57 77/77/77 58/58/58
f 58/58/58 77/77/77 76/76/76
f 58/58/58 76/76/76 59/59/59
f 56/56/56 59/59/59 76/76/76
f 64/64/64 73/73/73 74/74/74
f 64/64/64 63/63/63 73/73/73
f 73/73/73 63/63/63 70/70/70
f 56/56/56 75/75/75 71/71/71
f 60/60/60 56/56/56 71/71/71
f 70/70/70 61/61/61 72/72/72
f 64/64/64 74/74/74 65/65/65
f 65/65/65 74/74/74 66/66/66
f 66/66/66 74/74/74 79/79/79
f 68/68/68 79/79/79 74/74/74
f 66/66/66 79/79/79 69/69/69

