# Created by DisUnity v0.3.1
v 0.5670615 0.035909012 -0.010487855
v -1.1351476 -0.0028069927 0.006500943
v 0.5667854 -0.0030019395 0.021124458
v -1.1348715 0.036103956 -0.02511137
v 0.5673922 0.0042953286 -0.049397286
v -1.1345408 0.0044902777 -0.0640208
v 0.56711614 -0.034615636 -0.017784974
v -1.1348169 -0.034420688 -0.032408487
v 0.6036724 -0.004983026 0.040547255
v 0.604098 0.05500992 -0.008192707
v 0.60418224 -0.053724986 -0.019443406
v 0.60460794 0.0062679723 -0.06818383
v 0.6300838 -0.0031768414 0.023288619
v 0.6303726 0.03752186 -0.009776226
v 0.6304297 -0.036242988 -0.017408608
v 0.63071847 0.004455754 -0.050473757
v -0.74269634 0.04112007 -0.021217989
v -0.8505121 -0.0033632924 0.014007977
v -0.7430121 -0.0033756052 0.01493165
v -0.85019636 0.041132383 -0.022141661
v -0.74231815 0.0049690525 -0.06571221
v -0.84981817 0.0049813655 -0.06663589
v -0.7426339 -0.03952663 -0.029562427
v -0.8501339 -0.039514333 -0.030486101
v -1.1355357 8.417184E-4 -0.028765868
v -1.2532613 0.0136533845 -0.15346853
v -1.334889 0.051655695 -0.025223121
v -1.2999916 0.0068364004 -0.08793393
v -1.33955 0.010312127 -0.121822014
v -1.3827744 0.039747916 -0.09536085
v -1.3015753 0.017741483 -0.1933406
v -1.4221272 0.014914395 -0.16691992
v -1.3996694 0.096445896 -0.021145806
v -1.4878968 0.044909038 -0.02723774
v -1.2553898 -0.01194272 0.09389544
v -1.3839405 0.025724312 0.040164962
v -1.3411212 -0.008581763 0.06077087
v -1.3043824 -0.016019657 0.13293126
v -1.4204403 -0.013303171 0.10580839
v -1.3009853 -0.0051151696 0.027567549
v -1.3348103 -0.04992659 -0.035733745
v -1.3827249 -0.023984095 -0.101955146
v -1.3995215 -0.09470191 -0.04092369
v -1.4878286 -0.04314487 -0.036348596
v -1.383891 -0.03800769 0.033570673
v -1.54519 0.008197576 -0.102924705
v -1.7886168 9.165284E-4 -0.034377337
v -1.5464054 -0.006420156 0.03834294
v -1.1315217 0.045459058 -0.02411452
v -1.2008327 0.011205746 -0.12942033
v -1.3348951 0.059626352 -0.024398405
v -1.3348497 8.6455286E-4 -0.030478435
v -1.202555 -0.009507135 0.07075153
v -1.3348042 -0.057897244 -0.03655846
v -1.1314526 -0.04377654 -0.033347644
v 0.7847084 -0.006274047 0.054379754
v 0.9710724 6.0041883E-4 -0.010665269
v 0.78523016 0.067265555 -0.005366059
v 0.7858552 0.0075174463 -0.07890303
v 0.7853334 -0.06602217 -0.019157214
v 0.7124408 6.300446E-4 -0.012887508
v 0.62121236 6.404926E-4 -0.013671369
v 0.6404792 -0.045545116 -0.018284682
v 0.64012367 -0.0032072773 0.023657963
v 0.6404077 0.046821706 -0.008727576
v 0.6407632 0.004483893 -0.05067037
v 0.6865104 -0.050329093 0.02829602
v 0.68631005 -0.0061250865 0.052203603
v 0.6864388 0.04203771 0.037853125
v 0.68723357 0.051595073 -0.054510422
v 0.6874339 0.007391078 -0.07841816
v 0.68730503 -0.040771715 -0.06406753
v 0.7329803 -0.0032179116 0.024455814
v 0.7336198 0.004473258 -0.04987252
v 0.68682134 0.065946154 -0.0063493084
v 0.73326427 0.046811063 -0.007929724
v 0.75253135 6.254565E-4 -0.012543037
v 0.73333585 -0.04555573 -0.01748683
v 0.6869225 -0.06468023 -0.0198651
v 0.56367177 0.040970437 -0.009993286
v 0.45585608 -0.0035129248 0.02523268
v 0.5633561 -0.0035252403 0.026156353
v 0.45617175 0.040982746 -0.010916959
v 0.56404996 0.0048194206 -0.05448751
v 0.45654994 0.004831735 -0.05541119
v 0.5637343 -0.039676256 -0.018337723
v 0.45623425 -0.039663948 -0.019261397
v -1.1743134 -0.01937371 -0.020440323
v -1.1250895 0.077688195 -0.101405926
v -1.1265329 0.017603876 -0.1341105
v -1.1066905 0.09623704 -0.027222408
v -1.0833493 0.06426485 0.029155804
v -0.9713359 0.11692652 -0.18297781
v -0.9741835 0.03914618 -0.22831184
v -0.94550884 0.1434523 -0.080540754
v -0.99962395 0.09011034 0.04931042
v -0.8248783 0.090346366 -0.20867266
v -0.82815486 0.04660492 -0.23929292
v -0.78706 0.11204391 -0.14954217
v -0.76908046 0.08242239 -0.11499013
v -0.9125817 0.09725854 0.008644576
v -0.75542927 0.033671465 -0.096165776
v -0.8914902 0.012393616 0.033235535
v -0.65746534 0.042306542 -0.16862664
v -0.7576734 0.0496423 -0.22622424
v -0.82815486 0.04660492 -0.23929292
v -1.0810031 -0.011676143 0.049846042
v -0.98788464 -0.0032516508 0.077585034
v -0.8933449 0.072905175 0.03620748
v -0.88798946 0.007069179 0.078062944
v -0.82302266 0.015522836 0.044489224
v -0.7584679 0.029929362 -0.03733565
v -0.8905419 -0.05054292 -0.010631742
v -0.7549101 0.004773881 -0.12531973
v -0.91524464 -0.07767669 -0.109169155
v -0.7670738 -0.017455082 -0.16648452
v -0.949297 -0.030874725 -0.2022541
v -1.1072528 -0.032646466 -0.11590434
v -1.0830375 -0.06594818 -0.04833327
v -1.0655124 -0.046069928 0.014657847
v -0.9767861 -0.06481207 0.029125862
v -0.8107082 0.012697915 -0.21900226
v -1.0810031 -0.011676143 0.049846042
v -1.0833493 0.06426485 0.029155804
v -0.87997055 -0.046331067 0.021000708
v -1.0655124 -0.046069928 0.014657847
vn -0.26661265 0.95891726 0.09693039
vn -0.58431685 -0.083969444 0.8071698
vn -0.27411947 -0.09918751 0.95656693
vn -0.57795775 0.8122268 0.0790727
vn -0.25762445 0.099249355 -0.9611343
vn -0.57034147 0.084101774 -0.817091
vn -0.26512778 -0.9588563 -0.1014981
vn -0.5766996 -0.81209457 -0.08899391
vn 0.037644662 -0.10281788 0.99398756
vn 0.04542455 0.9936221 0.10320753
vn 0.04696418 -0.9936329 -0.10241075
vn 0.054740835 0.1028076 -0.9931938
vn 0.54910743 -0.08559487 0.83135706
vn 0.55558145 0.82654315 0.09030927
vn 0.5568609 -0.8266716 -0.08074625
vn 0.56333464 0.08546711 -0.82179654
vn -7.703968E-4 0.99468935 0.10292038
vn -0.008558143 -0.102922186 0.9946526
vn -0.008558076 -0.102922365 0.9946525
vn -7.703961E-4 0.99468935 0.1029203
vn 0.008558136 0.10292212 -0.9946526
vn 0.008558203 0.102922246 -0.9946526
vn 7.704971E-4 -0.9946896 -0.10291852
vn 7.704971E-4 -0.9946896 -0.10291852
vn 0.99996316 -1.14437185E-4 0.008591972
vn 0.11486383 0.10232638 -0.98809695
vn 0.34032238 0.93501055 0.099679075
vn -0.51792526 0.08764303 -0.8509244
vn 0.9998357 0.0026298244 -0.017930627
vn 0.10917511 0.92841417 -0.35514513
vn 0.75351727 0.06824025 -0.65387684
vn -0.31500933 0.09743822 -0.94407356
vn -0.013244619 0.99461335 0.10280471
vn -0.24964046 0.9633757 0.09791265
vn 0.09784451 -0.10235056 0.98992455
vn 0.101411656 0.8360201 0.53924584
vn 0.9993795 -0.0028583906 0.035106525
vn 0.74295247 -0.06831975 0.6658483
vn -0.32632554 -0.09753533 0.9402119
vn -0.5324905 -0.087523006 0.8418988
vn 0.34177074 -0.9350887 -0.09381803
vn 0.11054154 -0.83586305 -0.5376928
vn -0.0117039075 -0.99461067 -0.10301821
vn -0.24814814 -0.9633955 -0.10144811
vn 0.102778316 -0.928561 0.3566666
vn -0.35209495 0.09605903 -0.9310219
vn -0.99996316 1.145159E-4 -0.008590992
vn -0.3660507 -0.09605668 0.9256241
vn 0.06897806 0.99225885 0.10326815
vn -0.11940297 0.10209141 -0.9875831
vn -0.75176036 0.6565652 0.061470468
vn -0.99996316 1.14406685E-4 -0.008591678
vn -0.13637829 -0.102062404 0.98538536
vn -0.7507433 -0.6563932 -0.07437989
vn 0.07051506 -0.99227494 -0.102069266
vn -0.17185122 -0.10151993 0.979878
vn 0.99996316 -1.1462482E-4 0.00859197
vn -0.16416818 0.981337 0.10013194
vn -0.154965 0.10155746 -0.98268616
vn -0.16264804 -0.9812997 -0.10293997
vn -0.99996316 1.1457242E-4 -0.008591949
vn -0.99996316 1.1427852E-4 -0.008591247
vn -0.7228388 -0.68668246 -0.0772739
vn -0.73813075 -0.07000111 0.6710163
vn -0.72390264 0.68684804 0.064843856
vn -0.72647566 0.07016874 -0.68360037
vn -0.005749289 -0.7518394 0.65932125
vn -0.008556451 -0.10292237 0.9946526
vn -0.006797104 0.6009091 0.79928845
vn 0.00575298 0.7518406 -0.6593199
vn 0.008559841 0.10292234 -0.9946525
vn 0.0068008 -0.60090995 -0.7992878
vn 0.7264761 -0.07016875 0.68359995
vn 0.7381315 0.07000098 -0.67101544
vn -7.689635E-4 0.99468946 0.102919415
vn 0.72283924 0.6866819 0.07727466
vn 0.99996305 -1.1462882E-4 0.008592704
vn 0.7239033 -0.6868475 -0.064843036
vn 7.7194814E-4 -0.99468946 -0.10291951
vn -7.704168E-4 0.99468935 0.10292038
vn -0.008558165 -0.10292212 0.9946526
vn -0.008558112 -0.10292243 0.9946525
vn -7.704195E-4 0.99468935 0.102920346
vn 0.008558116 0.10292212 -0.9946526
vn 0.0085581625 0.10292228 -0.9946525
vn 7.704037E-4 -0.9946896 -0.10291852
vn 7.704009E-4 -0.9946896 -0.10291855
vn -0.8735489 -0.29314628 0.38855833
vn -0.7016877 0.6251514 -0.3417896
vn -0.7268539 -0.04240689 -0.6854816
vn -0.5649502 0.7879577 0.24485503
vn -0.48676878 0.46057633 0.7422435
vn -0.23143478 0.7863438 -0.5728013
vn -0.30068555 0.046971336 -0.9525659
vn 0.01885624 0.9962496 0.08444572
vn -0.047392983 0.6142133 0.7877156
vn 0.14918743 0.70487976 -0.6934605
vn 0.031312138 0.044820916 -0.99850416
vn 0.35491052 0.93449473 -0.02753403
vn 0.50550985 0.653388 0.56351024
vn 0.3923153 0.66811985 0.63222194
vn 0.67345333 -0.066799305 0.73620534
vn 0.60210204 -0.059873894 0.796171
vn 0.9930599 0.0072019477 -0.117389485
vn 0.17689127 0.10560557 -0.9785484
vn 0.3804156 0.17411955 -0.90827656
vn -0.47791943 -0.088048756 0.87397957
vn -0.069572076 -0.17643207 0.981851
vn 0.22856815 0.5266552 0.818774
vn 0.22075549 -0.09378025 0.9708101
vn 0.6795512 -0.030868461 0.73297834
vn 0.78554076 -0.0054330775 0.61878616
vn 0.48464417 -0.74275583 0.46198893
vn 0.52792996 -0.73299927 0.4289546
vn 0.14249098 -0.97846985 -0.14930889
vn 0.40721703 -0.8865782 -0.21943869
vn -0.121156864 -0.6843331 -0.7190335
vn -0.4903382 -0.695878 -0.52471143
vn -0.2954665 -0.955285 -0.01141056
vn -0.29389688 -0.82325846 0.48566467
vn 0.056926824 -0.8268261 0.5595694
vn 0.20817757 -0.54821855 -0.8100115
vn -0.44205925 -0.46597406 0.76645404
vn -0.60046625 0.19288108 0.7760395
vn 0.32649168 -0.6886238 0.6474569
vn -0.36385882 -0.741126 0.5642154
vt 0.19249728 0.89536583
vt 0.39719298 0.9736279
vt 0.39719298 0.89536583
vt 0.19249728 0.9736279
vt 0.3970599 0.89536583
vt 0.3970599 0.9736279
vt 0.19237027 0.89536583
vt 0.19237027 0.9736279
vt 0.5080887 0.812492
vt 0.19249728 0.812492
vt 0.19249728 0.812492
vt 0.5079657 0.812492
vt 0.40659174 0.7537521
vt 0.19249728 0.7537521
vt 0.19249728 0.7537521
vt 0.40646306 0.7537521
vt 0.8118589 0.7719325
vt 0.968935 0.98293173
vt 0.968935 0.7719325
vt 0.8118589 0.98293173
vt 0.968935 0.7719325
vt 0.968935 0.98293173
vt 0.8118589 0.7719325
vt 0.8118589 0.98293173
vt 0.647701 0.33826587
vt 0.3998337 0.4565945
vt 0.647701 0.53680575
vt 0.5319648 0.50257796
vt 0.46473655 0.5422704
vt 0.5118995 0.5851005
vt 0.32076523 0.5050588
vt 0.37578562 0.62490714
vt 0.647701 0.60129994
vt 0.647701 0.68922466
vt 0.89556897 0.4565945
vt 0.7835032 0.5851005
vt 0.83066595 0.5422704
vt 0.9746374 0.5050588
vt 0.9222834 0.6208899
vt 0.7634382 0.50257796
vt 0.647701 0.53680575
vt 0.5118995 0.5851005
vt 0.647701 0.60129994
vt 0.647701 0.68922466
vt 0.7835032 0.5851005
vt 0.5061461 0.7469345
vt 0.647701 0.9888105
vt 0.7892568 0.7469345
vt 0.041362733 0.77255756
vt 0.35103425 0.64236367
vt 0.041362733 0.39543414
vt 0.041362733 0.39543414
vt 0.35103425 0.64236367
vt 0.041362733 0.39543414
vt 0.041362733 0.77255756
vt 0.59989095 0.17034711
vt 0.98350465 0.02512557
vt 0.59989095 0.02512557
vt 0.59989095 0.17045902
vt 0.59989095 0.025238011
vt 0.44949344 0.02512557
vt 0.97026503 0.44943532
vt 0.97026503 0.39533556
vt 0.8169095 0.39533556
vt 0.97026503 0.39533556
vt 0.8167259 0.39533556
vt 0.80745 0.26472795
vt 0.6730115 0.26472795
vt 0.80745 0.26472795
vt 0.80726373 0.26472795
vt 0.672829 0.26472795
vt 0.80726373 0.26472795
vt 0.8169095 0.13411914
vt 0.8167259 0.13411914
vt 0.97026503 0.26472795
vt 0.97026503 0.13411914
vt 0.97026503 0.08002035
vt 0.97026503 0.13411914
vt 0.97026503 0.26472795
vt 0.8118589 0.7719325
vt 0.968935 0.98293173
vt 0.968935 0.7719325
vt 0.8118589 0.98293173
vt 0.968935 0.7719325
vt 0.968935 0.98293173
vt 0.8118589 0.7719325
vt 0.8118589 0.98293173
vt 0.20703392 0.41370213
vt 0.12190786 0.3209772
vt 0.035023987 0.29784957
vt 0.23261705 0.3545226
vt 0.32774043 0.38109353
vt 0.14125875 0.16575187
vt 0.038055874 0.13806605
vt 0.29437953 0.2116511
vt 0.41650242 0.33473608
vt 0.21238586 0.06620194
vt 0.12078118 0.040650096
vt 0.31782275 0.07650177
vt 0.3797685 0.09193459
vt 0.42890498 0.24922858
vt 0.4191702 0.102940634
vt 0.48462608 0.2647934
vt 0.38172573 0.009600364
vt 0.24409613 0.016571425
vt 0.24824813 0.03220094
vt 0.3976939 0.42622975
vt 0.50471216 0.38182828
vt 0.5004177 0.26724377
vt 0.60056853 0.32189128
vt 0.6053071 0.2554645
vt 0.5101754 0.13637896
vt 0.42890498 0.24922858
vt 0.3797685 0.09193459
vt 0.29437953 0.2116511
vt 0.31782275 0.07650177
vt 0.14125875 0.16575187
vt 0.12190786 0.3209772
vt 0.23261705 0.3545226
vt 0.32774043 0.38109353
vt 0.41650242 0.33473608
vt 0.21238586 0.06620194
vt 0.3976939 0.42622975
vt 0.32774043 0.38109353
vt 0.5004177 0.26724377
vt 0.32774043 0.38109353

o w_0
s 1
usemtl w_0
f 1/1/1 2/2/2 3/3/3
f 2/2/2 1/1/1 4/4/4
f 5/5/5 4/4/4 1/1/1
f 4/4/4 5/5/5 6/6/6
f 6/6/6 2/2/2 4/4/4
f 7/7/7 6/6/6 5/5/5
f 6/6/6 7/7/7 8/8/8
f 3/3/3 8/8/8 7/7/7
f 8/8/8 3/3/3 2/2/2
f 2/2/2 6/6/6 8/8/8
f 9/9/9 1/1/1 3/3/3
f 1/1/1 9/9/9 10/10/10
f 10/10/10 5/5/5 1/1/1
f 3/3/3 11/11/11 9/9/9
f 11/11/11 3/3/3 7/7/7
f 7/7/7 12/12/12 11/11/11
f 12/12/12 7/7/7 5/5/5
f 5/5/5 10/10/10 12/12/12
f 13/13/13 10/10/10 9/9/9
f 10/10/10 13/13/13 14/14/14
f 14/14/14 12/12/12 10/10/10
f 9/9/9 15/15/15 13/13/13
f 15/15/15 9/9/9 11/11/11
f 11/11/11 16/16/16 15/15/15
f 16/16/16 11/11/11 12/12/12
f 12/12/12 14/14/14 16/16/16
f 17/17/17 18/18/18 19/19/19
f 18/18/18 17/17/17 20/20/20
f 21/21/21 20/20/20 17/17/17
f 20/20/20 21/21/21 22/22/22
f 23/23/23 22/22/22 21/21/21
f 22/22/22 23/23/23 24/24/24
f 19/19/19 24/24/24 23/23/23
f 24/24/24 19/19/19 18/18/18
f 25/25/25 26/26/26 27/27/27
f 26/26/26 28/28/28 27/27/27
f 28/28/28 29/29/29 27/27/27
f 27/27/27 29/29/29 30/30/30
f 29/29/29 31/31/31 30/30/30
f 31/31/31 32/32/32 30/30/30
f 33/33/33 27/27/27 30/30/30
f 34/34/34 33/33/33 30/30/30
f 32/32/32 34/34/34 30/30/30
f 25/25/25 27/27/27 35/35/35
f 34/34/34 36/36/36 33/33/33
f 33/33/33 36/36/36 27/27/27
f 27/27/27 36/36/36 37/37/37
f 37/37/37 36/36/36 38/38/38
f 38/38/38 36/36/36 39/39/39
f 34/34/34 39/39/39 36/36/36
f 40/40/40 27/27/27 37/37/37
f 35/35/35 27/27/27 40/40/40
f 25/25/25 41/41/41 26/26/26
f 28/28/28 41/41/41 29/29/29
f 26/26/26 41/41/41 28/28/28
f 40/40/40 37/37/37 41/41/41
f 35/35/35 40/40/40 41/41/41
f 29/29/29 42/42/42 31/31/31
f 31/31/31 42/42/42 32/32/32
f 41/41/41 42/42/42 29/29/29
f 43/43/43 42/42/42 41/41/41
f 44/44/44 42/42/42 43/43/43
f 44/44/44 32/32/32 42/42/42
f 25/25/25 35/35/35 41/41/41
f 37/37/37 38/38/38 45/45/45
f 38/38/38 39/39/39 45/45/45
f 44/44/44 43/43/43 45/45/45
f 43/43/43 41/41/41 45/45/45
f 41/41/41 37/37/37 45/45/45
f 39/39/39 44/44/44 45/45/45
f 34/34/34 32/32/32 46/46/46
f 32/32/32 44/44/44 46/46/46
f 34/34/34 46/46/46 47/47/47
f 46/46/46 44/44/44 47/47/47
f 48/48/48 34/34/34 47/47/47
f 44/44/44 48/48/48 47/47/47
f 39/39/39 34/34/34 48/48/48
f 44/44/44 39/39/39 48/48/48
f 49/49/49 50/50/50 51/51/51
f 51/51/51 50/50/50 52/52/52
f 49/49/49 51/51/51 53/53/53
f 51/51/51 52/52/52 53/53/53
f 54/54/54 52/52/52 50/50/50
f 54/54/54 53/53/53 52/52/52
f 55/55/55 54/54/54 50/50/50
f 55/55/55 53/53/53 54/54/54
f 56/56/56 57/57/57 58/58/58
f 58/58/58 57/57/57 59/59/59
f 59/59/59 57/57/57 60/60/60
f 60/60/60 57/57/57 56/56/56
f 56/56/56 58/58/58 61/61/61
f 58/58/58 59/59/59 61/61/61
f 59/59/59 60/60/60 61/61/61
f 60/60/60 56/56/56 61/61/61
f 62/62/62 63/63/63 64/64/64
f 62/62/62 64/64/64 65/65/65
f 62/62/62 65/65/65 66/66/66
f 62/62/62 66/66/66 63/63/63
f 63/63/63 67/67/67 64/64/64
f 64/64/64 67/67/67 68/68/68
f 64/64/64 68/68/68 69/69/69
f 64/64/64 69/69/69 65/65/65
f 65/65/65 70/70/70 66/66/66
f 66/66/66 70/70/70 71/71/71
f 66/66/66 71/71/71 72/72/72
f 66/66/66 72/72/72 63/63/63
f 67/67/67 73/73/73 68/68/68
f 68/68/68 73/73/73 69/69/69
f 70/70/70 74/74/74 71/71/71
f 71/71/71 74/74/74 72/72/72
f 65/65/65 75/75/75 70/70/70
f 69/69/69 75/75/75 65/65/65
f 69/69/69 76/76/76 75/75/75
f 75/75/75 76/76/76 70/70/70
f 76/76/76 74/74/74 70/70/70
f 69/69/69 73/73/73 76/76/76
f 77/77/77 76/76/76 73/73/73
f 77/77/77 74/74/74 76/76/76
f 77/77/77 73/73/73 78/78/78
f 77/77/77 78/78/78 74/74/74
f 72/72/72 74/74/74 78/78/78
f 78/78/78 73/73/73 67/67/67
f 79/79/79 78/78/78 67/67/67
f 72/72/72 78/78/78 79/79/79
f 72/72/72 79/79/79 63/63/63
f 63/63/63 79/79/79 67/67/67
f 80/80/80 81/81/81 82/82/82
f 81/81/81 80/80/80 83/83/83
f 84/84/84 83/83/83 80/80/80
f 83/83/83 84/84/84 85/85/85
f 86/86/86 85/85/85 84/84/84
f 85/85/85 86/86/86 87/87/87
f 82/82/82 87/87/87 86/86/86
f 87/87/87 82/82/82 81/81/81
f 88/88/88 89/89/89 90/90/90
f 88/88/88 91/91/91 89/89/89
f 88/88/88 92/92/92 91/91/91
f 93/93/93 90/90/90 89/89/89
f 90/90/90 93/93/93 94/94/94
f 95/95/95 89/89/89 91/91/91
f 89/89/89 95/95/95 93/93/93
f 91/91/91 92/92/92 96/96/96
f 91/91/91 96/96/96 95/95/95
f 97/97/97 94/94/94 93/93/93
f 94/94/94 97/97/97 98/98/98
f 99/99/99 93/93/93 95/95/95
f 93/93/93 99/99/99 97/97/97
f 95/95/95 100/100/100 99/99/99
f 100/100/100 95/95/95 101/101/101
f 95/95/95 96/96/96 101/101/101
f 101/101/101 102/102/102 100/100/100
f 102/102/102 101/101/101 103/103/103
f 96/96/96 103/103/103 101/101/101
f 104/104/104 97/97/97 99/99/99
f 104/104/104 99/99/99 100/100/100
f 104/104/104 100/100/100 102/102/102
f 105/105/105 98/98/98 97/97/97
f 104/104/104 106/106/106 97/97/97
f 107/107/107 96/96/96 92/92/92
f 88/88/88 107/107/107 92/92/92
f 96/96/96 107/107/107 108/108/108
f 108/108/108 109/109/109 96/96/96
f 109/109/109 108/108/108 110/110/110
f 109/109/109 110/110/110 111/111/111
f 109/109/109 111/111/111 112/112/112
f 113/113/113 102/102/102 103/103/103
f 102/102/102 113/113/113 114/114/114
f 104/104/104 102/102/102 114/114/114
f 115/115/115 114/114/114 113/113/113
f 114/114/114 115/115/115 116/116/116
f 104/104/104 114/114/114 116/116/116
f 117/117/117 116/116/116 115/115/115
f 115/115/115 118/118/118 117/117/117
f 88/88/88 90/90/90 118/118/118
f 90/90/90 117/117/117 118/118/118
f 88/88/88 118/118/118 119/119/119
f 118/118/118 115/115/115 119/119/119
f 88/88/88 119/119/119 120/120/120
f 117/117/117 90/90/90 94/94/94
f 119/119/119 121/121/121 120/120/120
f 119/119/119 115/115/115 121/121/121
f 115/115/115 113/113/113 121/121/121
f 94/94/94 122/122/122 117/117/117
f 116/116/116 117/117/117 122/122/122
f 122/122/122 94/94/94 98/98/98
f 104/104/104 116/116/116 122/122/122
f 105/105/105 122/122/122 98/98/98
f 121/121/121 113/113/113 103/103/103
f 104/104/104 122/122/122 106/106/106
f 121/121/121 123/123/123 120/120/120
f 88/88/88 120/120/120 123/123/123
f 88/88/88 123/123/123 124/124/124
f 123/123/123 121/121/121 108/108/108
f 125/125/125 108/108/108 121/121/121
f 108/108/108 125/125/125 110/110/110
f 125/125/125 111/111/111 110/110/110
f 125/125/125 112/112/112 111/111/111
f 88/88/88 126/126/126 107/107/107

