# Created by DisUnity v0.3.1
v 0.024697602 0.024678938 -0.36484733
v 0.034871943 -1.0661679E-8 0.19682007
v 0.034927707 7.4147735E-8 -0.36484733
v 0.024658173 0.024676912 0.19682007
v -5.3117757E-11 0.034901254 -0.36484733
v 2.7908129E-11 0.034898397 0.19682007
v -0.024697602 0.024678938 -0.36484733
v -0.024658173 0.024676912 0.19682007
v -0.034927707 7.4147735E-8 -0.36484733
v -0.034871943 -1.0661679E-8 0.19682007
v 0.036629155 0.036629222 -0.3949639
v 0.034927707 7.4147735E-8 -0.36484733
v 0.05180146 7.869521E-8 -0.3949639
v 0.024697602 0.024678938 -0.36484733
v -6.177262E-10 0.05180151 -0.3949639
v -5.3117757E-11 0.034901254 -0.36484733
v -0.036629155 0.036629222 -0.3949639
v -0.024697602 0.024678938 -0.36484733
v -0.05180146 7.869521E-8 -0.3949639
v -0.034927707 7.4147735E-8 -0.36484733
v 0.025328888 0.025328947 -0.42508048
v 0.035820466 8.324268E-8 -0.42508048
v 0.035820466 1.1486529E-7 -0.63450754
v 0.025328888 0.025328971 -0.63450754
v 0.036629155 0.036629256 -0.6646242
v 0.05180146 1.1941279E-7 -0.6646242
v -6.177262E-10 0.051801544 -0.6646242
v -4.2715476E-10 0.035820544 -0.63450754
v -0.036629155 0.036629256 -0.6646242
v -0.025328888 0.025328971 -0.63450754
v -0.05180146 1.1941279E-7 -0.6646242
v -0.035820466 1.1486529E-7 -0.63450754
v -4.2715476E-10 0.035820518 -0.42508048
v -0.025328888 0.025328947 -0.42508048
v -0.035820466 8.324268E-8 -0.42508048
v 0.027044287 0.027044378 -0.6946306
v 0.038246408 1.2394362E-7 -0.6946306
v -0.027044287 0.027044378 -0.6946306
v -4.560838E-10 0.038246494 -0.6946306
v -0.038246408 1.2394362E-7 -0.6946306
v 0.038246408 1.2394362E-7 -0.6946306
v -3.1820682E-10 1.2630045E-7 -0.7102392
v 0.027044287 0.027044378 -0.6946306
v -4.560838E-10 0.038246494 -0.6946306
v -0.027044287 0.027044378 -0.6946306
v -0.038246408 1.2394362E-7 -0.6946306
v 0.024697602 0.024678769 0.75848746
v 0.034871943 -1.0661679E-8 0.19682007
v 0.024658173 0.024676912 0.19682007
v 0.034927707 -9.54711E-8 0.75848746
v -5.3117757E-11 0.034901083 0.75848746
v 2.7908129E-11 0.034898397 0.19682007
v -0.024697602 0.024678769 0.75848746
v -0.024658173 0.024676912 0.19682007
v -0.034927707 -9.54711E-8 0.75848746
v -0.034871943 -1.0661679E-8 0.19682007
v 0.036629155 0.036629044 0.788604
v 0.034927707 -9.54711E-8 0.75848746
v 0.024697602 0.024678769 0.75848746
v 0.05180146 -1.00018575E-7 0.788604
v -6.177262E-10 0.05180133 0.788604
v -5.3117757E-11 0.034901083 0.75848746
v -0.036629155 0.036629044 0.788604
v -0.024697602 0.024678769 0.75848746
v -0.05180146 -1.00018575E-7 0.788604
v -0.034927707 -9.54711E-8 0.75848746
v 0.025328888 0.02532876 0.8187206
v 0.035820466 -1.04566055E-7 0.8187206
v 0.035820466 -1.3618866E-7 1.0281476
v 0.025328888 0.025328722 1.0281476
v 0.036629155 0.036628995 1.0582644
v 0.05180146 -1.4073615E-7 1.0582644
v -6.177262E-10 0.05180128 1.0582644
v -4.2715476E-10 0.035820294 1.0281476
v -0.036629155 0.036628995 1.0582644
v -0.025328888 0.025328722 1.0281476
v -0.05180146 -1.4073615E-7 1.0582644
v -0.035820466 -1.3618866E-7 1.0281476
v -4.2715476E-10 0.035820328 0.8187206
v -0.025328888 0.02532876 0.8187206
v -0.035820466 -1.04566055E-7 0.8187206
v 0.027044287 0.02704411 1.0882708
v 0.038246408 -1.45267E-7 1.0882708
v -0.027044287 0.02704411 1.0882708
v -4.560838E-10 0.03824622 1.0882708
v -0.038246408 -1.45267E-7 1.0882708
v 0.038246408 -1.45267E-7 1.0882708
v 0.027044287 0.02704411 1.0882708
v -3.1820682E-10 -1.4762382E-7 1.1038793
v -4.560838E-10 0.03824622 1.0882708
v -0.027044287 0.02704411 1.0882708
v -0.038246408 -1.45267E-7 1.0882708
v 0.024697602 -0.024678791 -0.36484733
v 0.034871943 -1.0661679E-8 0.19682007
v 0.024658173 -0.024676936 0.19682007
v 0.034927707 7.4147735E-8 -0.36484733
v -5.3117757E-11 -0.034901105 -0.36484733
v 2.7908129E-11 -0.034898423 0.19682007
v -0.024697602 -0.024678791 -0.36484733
v -0.024658173 -0.024676936 0.19682007
v -0.034927707 7.4147735E-8 -0.36484733
v -0.034871943 -1.0661679E-8 0.19682007
v 0.036629155 -0.036629066 -0.3949639
v 0.034927707 7.4147735E-8 -0.36484733
v 0.024697602 -0.024678791 -0.36484733
v 0.05180146 7.869521E-8 -0.3949639
v -6.177262E-10 -0.051801357 -0.3949639
v -5.3117757E-11 -0.034901105 -0.36484733
v -0.036629155 -0.036629066 -0.3949639
v -0.024697602 -0.024678791 -0.36484733
v -0.05180146 7.869521E-8 -0.3949639
v -0.034927707 7.4147735E-8 -0.36484733
v 0.025328888 -0.025328781 -0.42508048
v 0.035820466 8.324268E-8 -0.42508048
v 0.035820466 1.1486529E-7 -0.63450754
v 0.025328888 -0.025328742 -0.63450754
v 0.036629155 -0.036629017 -0.6646242
v 0.05180146 1.1941279E-7 -0.6646242
v -6.177262E-10 -0.051801305 -0.6646242
v -4.2715476E-10 -0.035820313 -0.63450754
v -0.036629155 -0.036629017 -0.6646242
v -0.025328888 -0.025328742 -0.63450754
v -0.05180146 1.1941279E-7 -0.6646242
v -0.035820466 1.1486529E-7 -0.63450754
v -4.2715476E-10 -0.03582035 -0.42508048
v -0.025328888 -0.025328781 -0.42508048
v -0.035820466 8.324268E-8 -0.42508048
v 0.027044287 -0.02704413 -0.6946306
v 0.038246408 1.2394362E-7 -0.6946306
v -0.027044287 -0.02704413 -0.6946306
v -4.560838E-10 -0.038246244 -0.6946306
v -0.038246408 1.2394362E-7 -0.6946306
v 0.038246408 1.2394362E-7 -0.6946306
v 0.027044287 -0.02704413 -0.6946306
v -3.1820682E-10 1.2630045E-7 -0.7102392
v -4.560838E-10 -0.038246244 -0.6946306
v -0.027044287 -0.02704413 -0.6946306
v -0.038246408 1.2394362E-7 -0.6946306
v 0.024697602 -0.024678959 0.75848746
v 0.034871943 -1.0661679E-8 0.19682007
v 0.034927707 -9.54711E-8 0.75848746
v 0.024658173 -0.024676936 0.19682007
v -5.3117757E-11 -0.034901276 0.75848746
v 2.7908129E-11 -0.034898423 0.19682007
v -0.024697602 -0.024678959 0.75848746
v -0.024658173 -0.024676936 0.19682007
v -0.034927707 -9.54711E-8 0.75848746
v -0.034871943 -1.0661679E-8 0.19682007
v 0.036629155 -0.036629245 0.788604
v 0.034927707 -9.54711E-8 0.75848746
v 0.05180146 -1.00018575E-7 0.788604
v 0.024697602 -0.024678959 0.75848746
v -6.177262E-10 -0.051801533 0.788604
v -5.3117757E-11 -0.034901276 0.75848746
v -0.036629155 -0.036629245 0.788604
v -0.024697602 -0.024678959 0.75848746
v -0.05180146 -1.00018575E-7 0.788604
v -0.034927707 -9.54711E-8 0.75848746
v 0.025328888 -0.02532897 0.8187206
v 0.035820466 -1.04566055E-7 0.8187206
v 0.035820466 -1.3618866E-7 1.0281476
v 0.025328888 -0.025328994 1.0281476
v 0.036629155 -0.03662928 1.0582644
v 0.05180146 -1.4073615E-7 1.0582644
v -6.177262E-10 -0.051801566 1.0582644
v -4.2715476E-10 -0.035820566 1.0281476
v -0.036629155 -0.03662928 1.0582644
v -0.025328888 -0.025328994 1.0281476
v -0.05180146 -1.4073615E-7 1.0582644
v -0.035820466 -1.3618866E-7 1.0281476
v -4.2715476E-10 -0.03582054 0.8187206
v -0.025328888 -0.02532897 0.8187206
v -0.035820466 -1.04566055E-7 0.8187206
v 0.027044287 -0.0270444 1.0882708
v 0.038246408 -1.45267E-7 1.0882708
v -0.027044287 -0.0270444 1.0882708
v -4.560838E-10 -0.038246512 1.0882708
v -0.038246408 -1.45267E-7 1.0882708
v 0.038246408 -1.45267E-7 1.0882708
v -3.1820682E-10 -1.4762382E-7 1.1038793
v 0.027044287 -0.0270444 1.0882708
v -4.560838E-10 -0.038246512 1.0882708
v -0.027044287 -0.0270444 1.0882708
v -0.038246408 -1.45267E-7 1.0882708
vn 0.6809923 0.68098754 0.2692682
vn 1.0 0.0 0.0
vn 0.9630935 0.0 0.26916707
vn 0.7070982 0.70711535 1.0654395E-7
vn 0.0 0.9630369 0.26936942
vn 0.0 1.0 1.506164E-7
vn -0.6809923 0.68098754 0.2692682
vn -0.70709825 0.7071153 1.0654395E-7
vn -0.9630935 0.0 0.26916707
vn -1.0 0.0 0.0
vn 0.70700926 0.7071272 0.010434595
vn 0.9630935 0.0 0.26916707
vn 0.9999466 0.0 0.010335085
vn 0.6809923 0.68098754 0.2692682
vn 0.0 0.99994457 0.010534048
vn 0.0 0.9630369 0.26936942
vn -0.7070093 0.7071272 0.010434595
vn -0.6809923 0.68098754 0.2692682
vn -0.9999466 0.0 0.010335098
vn -0.9630935 0.0 0.26916707
vn 0.6834375 0.6834379 -0.25656554
vn 0.9665268 0.0 -0.25656572
vn 0.96652716 0.0 0.2565646
vn 0.68343765 0.6834381 0.25656456
vn 0.7068126 0.70681316 0.02882597
vn 0.9995845 0.0 0.028825847
vn 0.0 0.9995845 0.028825985
vn 0.0 0.96652704 0.25656465
vn -0.7068126 0.70681316 0.028825957
vn -0.6834377 0.68343806 0.25656456
vn -0.9995845 0.0 0.028825836
vn -0.96652716 0.0 0.25656456
vn 0.0 0.9665268 -0.25656554
vn -0.6834375 0.6834379 -0.2565655
vn -0.9665268 0.0 -0.25656572
vn 0.52035725 0.5203575 -0.67709416
vn 0.7358964 0.0 -0.6770942
vn -0.52035725 0.5203575 -0.67709416
vn 0.0 0.7358965 -0.67709404
vn -0.7358964 0.0 -0.6770942
vn 0.7358964 0.0 -0.6770942
vn 0.0 0.0 -1.0
vn 0.52035725 0.5203575 -0.67709416
vn 0.0 0.7358965 -0.67709404
vn -0.52035725 0.5203575 -0.67709416
vn -0.7358964 0.0 -0.6770942
vn 0.6809923 0.68098766 -0.26926807
vn 1.0 0.0 0.0
vn 0.7070982 0.70711535 1.0654395E-7
vn 0.9630935 0.0 -0.2691671
vn 0.0 0.963037 -0.2693692
vn 0.0 1.0 1.506164E-7
vn -0.68099236 0.6809876 -0.26926804
vn -0.70709825 0.7071153 1.0654395E-7
vn -0.9630935 0.0 -0.26916707
vn -1.0 0.0 0.0
vn 0.70700926 0.7071272 -0.010434518
vn 0.9630935 0.0 -0.2691671
vn 0.6809923 0.68098766 -0.26926807
vn 0.9999466 0.0 -0.010335086
vn 0.0 0.99994457 -0.010533866
vn 0.0 0.963037 -0.2693692
vn -0.7070093 0.7071272 -0.010434492
vn -0.68099236 0.6809876 -0.26926804
vn -0.9999466 0.0 -0.010335099
vn -0.9630935 0.0 -0.26916707
vn 0.6834374 0.6834379 0.25656572
vn 0.9665268 0.0 0.25656572
vn 0.96652716 0.0 -0.2565646
vn 0.68343776 0.6834381 -0.25656435
vn 0.7068127 0.70681316 -0.028825784
vn 0.9995845 0.0 -0.028825847
vn 0.0 0.9995845 -0.028825738
vn 0.0 0.96652716 -0.25656435
vn -0.7068126 0.70681316 -0.028825754
vn -0.68343765 0.6834381 -0.25656432
vn -0.9995845 0.0 -0.028825836
vn -0.96652716 0.0 -0.25656456
vn 0.0 0.9665268 0.25656587
vn -0.6834374 0.6834379 0.25656575
vn -0.9665268 0.0 0.25656572
vn 0.52035713 0.5203575 0.6770942
vn 0.7358964 0.0 0.67709416
vn -0.52035713 0.5203575 0.6770942
vn 0.0 0.7358964 0.67709416
vn -0.7358964 0.0 0.67709416
vn 0.7358964 0.0 0.67709416
vn 0.52035713 0.5203575 0.6770942
vn 0.0 0.0 1.0
vn 0.0 0.7358964 0.67709416
vn -0.52035713 0.5203575 0.6770942
vn -0.7358964 0.0 0.67709416
vn 0.68099236 -0.6809876 0.26926804
vn 1.0 0.0 0.0
vn 0.7070982 -0.70711535 -1.0659846E-7
vn 0.9630935 0.0 0.26916707
vn 0.0 -0.963037 0.2693692
vn 0.0 -1.0 -1.5067126E-7
vn -0.68099236 -0.6809876 0.26926804
vn -0.70709825 -0.7071153 -1.0654145E-7
vn -0.9630935 0.0 0.26916707
vn -1.0 0.0 0.0
vn 0.70700926 -0.7071272 0.010434505
vn 0.9630935 0.0 0.26916707
vn 0.68099236 -0.6809876 0.26926804
vn 0.9999466 0.0 0.010335085
vn 0.0 -0.99994457 0.01053388
vn 0.0 -0.963037 0.2693692
vn -0.7070093 -0.7071272 0.010434492
vn -0.68099236 -0.6809876 0.26926804
vn -0.9999466 0.0 0.010335098
vn -0.9630935 0.0 0.26916707
vn 0.6834374 -0.6834379 -0.25656572
vn 0.9665268 0.0 -0.25656572
vn 0.96652716 0.0 0.2565646
vn 0.68343776 -0.6834381 0.25656435
vn 0.70681274 -0.7068131 0.028825771
vn 0.9995845 0.0 0.028825847
vn 0.0 -0.9995845 0.028825762
vn 0.0 -0.96652716 0.25656438
vn -0.7068126 -0.70681316 0.028825745
vn -0.68343776 -0.6834381 0.25656435
vn -0.9995845 0.0 0.028825836
vn -0.96652716 0.0 0.25656456
vn 0.0 -0.9665267 -0.25656587
vn -0.6834374 -0.6834379 -0.25656575
vn -0.9665268 0.0 -0.25656572
vn 0.52035713 -0.5203575 -0.6770942
vn 0.7358964 0.0 -0.6770942
vn -0.52035713 -0.5203575 -0.6770942
vn 0.0 -0.7358964 -0.6770942
vn -0.7358964 0.0 -0.6770942
vn 0.7358964 0.0 -0.6770942
vn 0.52035713 -0.5203575 -0.6770942
vn 0.0 0.0 -1.0
vn 0.0 -0.7358964 -0.6770942
vn -0.52035713 -0.5203575 -0.6770942
vn -0.7358964 0.0 -0.6770942
vn 0.6809923 -0.68098754 -0.26926824
vn 1.0 0.0 0.0
vn 0.9630935 0.0 -0.2691671
vn 0.7070982 -0.70711535 -1.0659846E-7
vn 0.0 -0.9630369 -0.26936942
vn 0.0 -1.0 -1.5067126E-7
vn -0.6809923 -0.68098754 -0.26926824
vn -0.70709825 -0.7071153 -1.0654145E-7
vn -0.9630935 0.0 -0.26916707
vn -1.0 0.0 0.0
vn 0.7070093 -0.7071272 -0.010434608
vn 0.9630935 0.0 -0.2691671
vn 0.9999466 0.0 -0.010335086
vn 0.6809923 -0.68098754 -0.26926824
vn 0.0 -0.99994457 -0.010534089
vn 0.0 -0.9630369 -0.26936942
vn -0.7070093 -0.7071272 -0.010434595
vn -0.6809923 -0.68098754 -0.26926824
vn -0.9999466 0.0 -0.010335099
vn -0.9630935 0.0 -0.26916707
vn 0.6834375 -0.6834379 0.25656554
vn 0.9665268 0.0 0.25656572
vn 0.96652716 0.0 -0.2565646
vn 0.6834377 -0.68343806 -0.25656456
vn 0.70681274 -0.7068131 -0.028825957
vn 0.9995845 0.0 -0.028825847
vn 0.0 -0.9995845 -0.028826017
vn 0.0 -0.96652704 -0.25656465
vn -0.70681274 -0.7068131 -0.028825957
vn -0.6834377 -0.68343806 -0.25656456
vn -0.9995845 0.0 -0.028825836
vn -0.96652716 0.0 -0.25656456
vn 0.0 -0.9665268 0.25656554
vn -0.6834375 -0.6834379 0.25656554
vn -0.9665268 0.0 0.25656572
vn 0.52035725 -0.5203575 0.67709416
vn 0.7358964 0.0 0.67709416
vn -0.52035725 -0.5203575 0.67709416
vn 0.0 -0.73589647 0.6770941
vn -0.7358964 0.0 0.67709416
vn 0.7358964 0.0 0.67709416
vn 0.0 0.0 1.0
vn 0.52035725 -0.5203575 0.67709416
vn 0.0 -0.73589647 0.6770941
vn -0.52035725 -0.5203575 0.67709416
vn -0.7358964 0.0 0.67709416
vt 0.658239 0.9555294
vt 0.5574434 0.06589626
vt 0.5574434 0.9555294
vt 0.658239 0.06589626
vt 0.75591373 0.9555294
vt 0.75591373 0.06589626
vt 0.8532054 0.9555294
vt 0.8532054 0.06589626
vt 0.9528547 0.9555294
vt 0.9528547 0.06589626
vt 0.1604633 0.5199729
vt 0.060158778 0.4783628
vt 0.060158778 0.5199729
vt 0.1604633 0.4783628
vt 0.2576622 0.5199729
vt 0.2576622 0.4783628
vt 0.35447964 0.5199729
vt 0.35447964 0.4783628
vt 0.45364335 0.5199729
vt 0.45364335 0.4783628
vt 0.1604633 0.5588886
vt 0.060158778 0.5588886
vt 0.060158778 0.82504845
vt 0.1604633 0.82504845
vt 0.1604633 0.8590719
vt 0.060158778 0.8590719
vt 0.2576622 0.8590719
vt 0.2576622 0.82504845
vt 0.35447964 0.8590719
vt 0.35447964 0.82504845
vt 0.45364335 0.8590719
vt 0.45364335 0.82504845
vt 0.2576622 0.5588886
vt 0.35447964 0.5588886
vt 0.45364335 0.5588886
vt 0.1604633 0.8857307
vt 0.060158778 0.8857307
vt 0.35447964 0.8857307
vt 0.2576622 0.8857307
vt 0.45364335 0.8857307
vt 0.10656967 0.94221556
vt 0.25875965 0.96102554
vt 0.18222764 0.92141944
vt 0.262048 0.91577697
vt 0.34131798 0.9225822
vt 0.41512936 0.9450603
vt 0.658239 0.9555294
vt 0.5574434 0.06589626
vt 0.658239 0.06589626
vt 0.5574434 0.9555294
vt 0.75591373 0.9555294
vt 0.75591373 0.06589626
vt 0.8532054 0.9555294
vt 0.8532054 0.06589626
vt 0.9528547 0.9555294
vt 0.9528547 0.06589626
vt 0.1604633 0.5199729
vt 0.060158778 0.4783628
vt 0.1604633 0.4783628
vt 0.060158778 0.5199729
vt 0.2576622 0.5199729
vt 0.2576622 0.4783628
vt 0.35447964 0.5199729
vt 0.35447964 0.4783628
vt 0.45364335 0.5199729
vt 0.45364335 0.4783628
vt 0.1604633 0.5588886
vt 0.060158778 0.5588886
vt 0.060158778 0.82504845
vt 0.1604633 0.82504845
vt 0.1604633 0.8590719
vt 0.060158778 0.8590719
vt 0.2576622 0.8590719
vt 0.2576622 0.82504845
vt 0.35447964 0.8590719
vt 0.35447964 0.82504845
vt 0.45364335 0.8590719
vt 0.45364335 0.82504845
vt 0.2576622 0.5588886
vt 0.35447964 0.5588886
vt 0.45364335 0.5588886
vt 0.1604633 0.8857307
vt 0.060158778 0.8857307
vt 0.35447964 0.8857307
vt 0.2576622 0.8857307
vt 0.45364335 0.8857307
vt 0.10656967 0.94221556
vt 0.18222764 0.92141944
vt 0.25875965 0.96102554
vt 0.262048 0.91577697
vt 0.34131798 0.9225822
vt 0.41512936 0.9450603
vt 0.658239 0.9555294
vt 0.5574434 0.06589626
vt 0.658239 0.06589626
vt 0.5574434 0.9555294
vt 0.75591373 0.9555294
vt 0.75591373 0.06589626
vt 0.8532054 0.9555294
vt 0.8532054 0.06589626
vt 0.9528547 0.9555294
vt 0.9528547 0.06589626
vt 0.1604633 0.5199729
vt 0.060158778 0.4783628
vt 0.1604633 0.4783628
vt 0.060158778 0.5199729
vt 0.2576622 0.5199729
vt 0.2576622 0.4783628
vt 0.35447964 0.5199729
vt 0.35447964 0.4783628
vt 0.45364335 0.5199729
vt 0.45364335 0.4783628
vt 0.1604633 0.5588886
vt 0.060158778 0.5588886
vt 0.060158778 0.82504845
vt 0.1604633 0.82504845
vt 0.1604633 0.8590719
vt 0.060158778 0.8590719
vt 0.2576622 0.8590719
vt 0.2576622 0.82504845
vt 0.35447964 0.8590719
vt 0.35447964 0.82504845
vt 0.45364335 0.8590719
vt 0.45364335 0.82504845
vt 0.2576622 0.5588886
vt 0.35447964 0.5588886
vt 0.45364335 0.5588886
vt 0.1604633 0.8857307
vt 0.060158778 0.8857307
vt 0.35447964 0.8857307
vt 0.2576622 0.8857307
vt 0.45364335 0.8857307
vt 0.10656967 0.94221556
vt 0.18222764 0.92141944
vt 0.25875965 0.96102554
vt 0.262048 0.91577697
vt 0.34131798 0.9225822
vt 0.41512936 0.9450603
vt 0.658239 0.9555294
vt 0.5574434 0.06589626
vt 0.5574434 0.9555294
vt 0.658239 0.06589626
vt 0.75591373 0.9555294
vt 0.75591373 0.06589626
vt 0.8532054 0.9555294
vt 0.8532054 0.06589626
vt 0.9528547 0.9555294
vt 0.9528547 0.06589626
vt 0.1604633 0.5199729
vt 0.060158778 0.4783628
vt 0.060158778 0.5199729
vt 0.1604633 0.4783628
vt 0.2576622 0.5199729
vt 0.2576622 0.4783628
vt 0.35447964 0.5199729
vt 0.35447964 0.4783628
vt 0.45364335 0.5199729
vt 0.45364335 0.4783628
vt 0.1604633 0.5588886
vt 0.060158778 0.5588886
vt 0.060158778 0.82504845
vt 0.1604633 0.82504845
vt 0.1604633 0.8590719
vt 0.060158778 0.8590719
vt 0.2576622 0.8590719
vt 0.2576622 0.82504845
vt 0.35447964 0.8590719
vt 0.35447964 0.82504845
vt 0.45364335 0.8590719
vt 0.45364335 0.82504845
vt 0.2576622 0.5588886
vt 0.35447964 0.5588886
vt 0.45364335 0.5588886
vt 0.1604633 0.8857307
vt 0.060158778 0.8857307
vt 0.35447964 0.8857307
vt 0.2576622 0.8857307
vt 0.45364335 0.8857307
vt 0.10656967 0.94221556
vt 0.25875965 0.96102554
vt 0.18222764 0.92141944
vt 0.262048 0.91577697
vt 0.34131798 0.9225822
vt 0.41512936 0.9450603

o w_0
s 1
usemtl w_0
f 1/1/1 2/2/2 3/3/3
f 1/1/1 4/4/4 2/2/2
f 5/5/5 4/4/4 1/1/1
f 5/5/5 6/6/6 4/4/4
f 7/7/7 6/6/6 5/5/5
f 7/7/7 8/8/8 6/6/6
f 9/9/9 8/8/8 7/7/7
f 9/9/9 10/10/10 8/8/8
f 11/11/11 12/12/12 13/13/13
f 11/11/11 14/14/14 12/12/12
f 15/15/15 14/14/14 11/11/11
f 15/15/15 16/16/16 14/14/14
f 17/17/17 16/16/16 15/15/15
f 17/17/17 18/18/18 16/16/16
f 19/19/19 18/18/18 17/17/17
f 19/19/19 20/20/20 18/18/18
f 21/21/21 11/11/11 13/13/13
f 21/21/21 13/13/13 22/22/22
f 21/21/21 22/22/22 23/23/23
f 21/21/21 23/23/23 24/24/24
f 25/25/25 24/24/24 23/23/23
f 25/25/25 23/23/23 26/26/26
f 27/27/27 24/24/24 25/25/25
f 27/27/27 28/28/28 24/24/24
f 29/29/29 28/28/28 27/27/27
f 29/29/29 30/30/30 28/28/28
f 31/31/31 30/30/30 29/29/29
f 31/31/31 32/32/32 30/30/30
f 33/33/33 24/24/24 28/28/28
f 33/33/33 21/21/21 24/24/24
f 34/34/34 28/28/28 30/30/30
f 34/34/34 33/33/33 28/28/28
f 35/35/35 30/30/30 32/32/32
f 35/35/35 34/34/34 30/30/30
f 33/33/33 11/11/11 21/21/21
f 33/33/33 15/15/15 11/11/11
f 34/34/34 15/15/15 33/33/33
f 34/34/34 17/17/17 15/15/15
f 35/35/35 17/17/17 34/34/34
f 35/35/35 19/19/19 17/17/17
f 36/36/36 25/25/25 26/26/26
f 36/36/36 26/26/26 37/37/37
f 38/38/38 29/29/29 27/27/27
f 38/38/38 27/27/27 39/39/39
f 39/39/39 25/25/25 36/36/36
f 39/39/39 27/27/27 25/25/25
f 40/40/40 29/29/29 38/38/38
f 40/40/40 31/31/31 29/29/29
f 41/41/41 42/42/42 43/43/43
f 43/43/43 42/42/42 44/44/44
f 44/44/44 42/42/42 45/45/45
f 45/45/45 42/42/42 46/46/46
f 47/47/47 48/48/48 49/49/49
f 47/47/47 50/50/50 48/48/48
f 51/51/51 47/47/47 49/49/49
f 51/51/51 49/49/49 52/52/52
f 53/53/53 51/51/51 52/52/52
f 53/53/53 52/52/52 54/54/54
f 55/55/55 53/53/53 54/54/54
f 55/55/55 54/54/54 56/56/56
f 57/57/57 58/58/58 59/59/59
f 57/57/57 60/60/60 58/58/58
f 61/61/61 57/57/57 59/59/59
f 61/61/61 59/59/59 62/62/62
f 63/63/63 61/61/61 62/62/62
f 63/63/63 62/62/62 64/64/64
f 65/65/65 63/63/63 64/64/64
f 65/65/65 64/64/64 66/66/66
f 67/67/67 60/60/60 57/57/57
f 67/67/67 68/68/68 60/60/60
f 67/67/67 69/69/69 68/68/68
f 67/67/67 70/70/70 69/69/69
f 71/71/71 69/69/69 70/70/70
f 71/71/71 72/72/72 69/69/69
f 73/73/73 71/71/71 70/70/70
f 73/73/73 70/70/70 74/74/74
f 75/75/75 73/73/73 74/74/74
f 75/75/75 74/74/74 76/76/76
f 77/77/77 75/75/75 76/76/76
f 77/77/77 76/76/76 78/78/78
f 79/79/79 70/70/70 67/67/67
f 79/79/79 74/74/74 70/70/70
f 80/80/80 74/74/74 79/79/79
f 80/80/80 76/76/76 74/74/74
f 81/81/81 76/76/76 80/80/80
f 81/81/81 78/78/78 76/76/76
f 79/79/79 67/67/67 57/57/57
f 79/79/79 57/57/57 61/61/61
f 80/80/80 79/79/79 61/61/61
f 80/80/80 61/61/61 63/63/63
f 81/81/81 80/80/80 63/63/63
f 81/81/81 63/63/63 65/65/65
f 82/82/82 72/72/72 71/71/71
f 82/82/82 83/83/83 72/72/72
f 84/84/84 73/73/73 75/75/75
f 84/84/84 85/85/85 73/73/73
f 85/85/85 71/71/71 73/73/73
f 85/85/85 82/82/82 71/71/71
f 86/86/86 75/75/75 77/77/77
f 86/86/86 84/84/84 75/75/75
f 87/87/87 88/88/88 89/89/89
f 88/88/88 90/90/90 89/89/89
f 90/90/90 91/91/91 89/89/89
f 91/91/91 92/92/92 89/89/89
f 93/93/93 94/94/94 95/95/95
f 93/93/93 96/96/96 94/94/94
f 97/97/97 93/93/93 95/95/95
f 97/97/97 95/95/95 98/98/98
f 99/99/99 97/97/97 98/98/98
f 99/99/99 98/98/98 100/100/100
f 101/101/101 99/99/99 100/100/100
f 101/101/101 100/100/100 102/102/102
f 103/103/103 104/104/104 105/105/105
f 103/103/103 106/106/106 104/104/104
f 107/107/107 103/103/103 105/105/105
f 107/107/107 105/105/105 108/108/108
f 109/109/109 107/107/107 108/108/108
f 109/109/109 108/108/108 110/110/110
f 111/111/111 109/109/109 110/110/110
f 111/111/111 110/110/110 112/112/112
f 113/113/113 106/106/106 103/103/103
f 113/113/113 114/114/114 106/106/106
f 113/113/113 115/115/115 114/114/114
f 113/113/113 116/116/116 115/115/115
f 117/117/117 115/115/115 116/116/116
f 117/117/117 118/118/118 115/115/115
f 119/119/119 117/117/117 116/116/116
f 119/119/119 116/116/116 120/120/120
f 121/121/121 119/119/119 120/120/120
f 121/121/121 120/120/120 122/122/122
f 123/123/123 121/121/121 122/122/122
f 123/123/123 122/122/122 124/124/124
f 125/125/125 116/116/116 113/113/113
f 125/125/125 120/120/120 116/116/116
f 126/126/126 120/120/120 125/125/125
f 126/126/126 122/122/122 120/120/120
f 127/127/127 122/122/122 126/126/126
f 127/127/127 124/124/124 122/122/122
f 125/125/125 113/113/113 103/103/103
f 125/125/125 103/103/103 107/107/107
f 126/126/126 125/125/125 107/107/107
f 126/126/126 107/107/107 109/109/109
f 127/127/127 126/126/126 109/109/109
f 127/127/127 109/109/109 111/111/111
f 128/128/128 118/118/118 117/117/117
f 128/128/128 129/129/129 118/118/118
f 130/130/130 119/119/119 121/121/121
f 130/130/130 131/131/131 119/119/119
f 131/131/131 117/117/117 119/119/119
f 131/131/131 128/128/128 117/117/117
f 132/132/132 121/121/121 123/123/123
f 132/132/132 130/130/130 121/121/121
f 133/133/133 134/134/134 135/135/135
f 134/134/134 136/136/136 135/135/135
f 136/136/136 137/137/137 135/135/135
f 137/137/137 138/138/138 135/135/135
f 139/139/139 140/140/140 141/141/141
f 139/139/139 142/142/142 140/140/140
f 143/143/143 142/142/142 139/139/139
f 143/143/143 144/144/144 142/142/142
f 145/145/145 144/144/144 143/143/143
f 145/145/145 146/146/146 144/144/144
f 147/147/147 146/146/146 145/145/145
f 147/147/147 148/148/148 146/146/146
f 149/149/149 150/150/150 151/151/151
f 149/149/149 152/152/152 150/150/150
f 153/153/153 152/152/152 149/149/149
f 153/153/153 154/154/154 152/152/152
f 155/155/155 154/154/154 153/153/153
f 155/155/155 156/156/156 154/154/154
f 157/157/157 156/156/156 155/155/155
f 157/157/157 158/158/158 156/156/156
f 159/159/159 149/149/149 151/151/151
f 159/159/159 151/151/151 160/160/160
f 159/159/159 160/160/160 161/161/161
f 159/159/159 161/161/161 162/162/162
f 163/163/163 162/162/162 161/161/161
f 163/163/163 161/161/161 164/164/164
f 165/165/165 162/162/162 163/163/163
f 165/165/165 166/166/166 162/162/162
f 167/167/167 166/166/166 165/165/165
f 167/167/167 168/168/168 166/166/166
f 169/169/169 168/168/168 167/167/167
f 169/169/169 170/170/170 168/168/168
f 171/171/171 162/162/162 166/166/166
f 171/171/171 159/159/159 162/162/162
f 172/172/172 166/166/166 168/168/168
f 172/172/172 171/171/171 166/166/166
f 173/173/173 168/168/168 170/170/170
f 173/173/173 172/172/172 168/168/168
f 171/171/171 149/149/149 159/159/159
f 171/171/171 153/153/153 149/149/149
f 172/172/172 153/153/153 171/171/171
f 172/172/172 155/155/155 153/153/153
f 173/173/173 155/155/155 172/172/172
f 173/173/173 157/157/157 155/155/155
f 174/174/174 163/163/163 164/164/164
f 174/174/174 164/164/164 175/175/175
f 176/176/176 167/167/167 165/165/165
f 176/176/176 165/165/165 177/177/177
f 177/177/177 163/163/163 174/174/174
f 177/177/177 165/165/165 163/163/163
f 178/178/178 167/167/167 176/176/176
f 178/178/178 169/169/169 167/167/167
f 179/179/179 180/180/180 181/181/181
f 181/181/181 180/180/180 182/182/182
f 182/182/182 180/180/180 183/183/183
f 183/183/183 180/180/180 184/184/184

