# Created by DisUnity v0.3.1
v 0.031020125 0.57133365 0.040651854
v 0.071948394 0.69363844 0.13644958
v 0.026699372 0.55890965 0.06784622
v 0.07632133 0.7032921 0.122946315
v 0.0046196748 0.44237062 -0.0037379456
v 0.0046375273 0.43176854 0.03088974
v -0.029057005 0.45384797 -0.01320816
v 0.0036736296 0.58194643 0.038164824
v -0.043986585 0.3644568 -0.038408507
v -0.011053695 0.317764 -0.0289785
v 0.11533165 0.7740768 0.19944228
v 0.116668925 0.7784822 0.19407256
v 0.11093269 0.7815089 0.19394477
v 0.04711479 0.69113934 0.10287697
v 0.05310722 0.72796947 0.11304611
v 0.07353859 0.7333159 0.14085525
v -0.008253555 0.31404802 0.00681633
v -0.0012257386 0.5699663 0.06460579
v 0.057252042 0.7024835 0.13711196
v -0.029049987 0.44094288 0.02127365
v 0.10957214 0.77818114 0.19934447
v -0.04188179 0.3164568 -0.0060777282
v 0.008043442 0.21069625 -0.028978042
v -0.06987678 0.20980048 -0.08208923
v -0.011053695 0.317764 -0.0289785
v -0.011255874 0.14876346 -0.042749174
v -0.054770354 0.31496692 -0.055750273
v -0.052153245 0.108972244 -0.06398635
v -0.06413902 0.41530544 -0.06263443
v -0.043986585 0.3644568 -0.038408507
v -0.04188179 0.3164568 -0.0060777282
v -0.041523665 0.2085944 0.007842941
v -0.045766983 0.14730003 -0.017112503
v -0.052153245 0.108972244 -0.06398635
v 0.030681381 0.0017545319 -0.020681
v -0.039367445 0.046566885 -0.05033676
v -0.0077996063 0.12812465 -0.037871778
v 0.0020278168 0.143344 -0.020115357
v 0.016143493 0.07496681 0.026011046
v 0.041392058 0.020580215 0.05689514
v -0.0044213864 0.20903976 0.005980835
v -0.041158218 -0.020463752 -0.05657379
v 0.040714797 -0.0466967 0.052143097
v 0.056750793 -0.12761322 0.03808342
v 0.07311661 -0.17488441 0.088443674
v 0.043422468 -0.12549804 0.016603699
v -0.0026352692 -0.13621284 -0.01132309
v -0.015089645 -0.07364284 -0.02451706
v -0.02868759 -7.629776E-4 0.023421325
v -0.04096916 0.12671803 -0.013231658
v -0.027643356 0.14208564 0.001925888
v 0.010252914 -0.12690471 0.041243818
v 0.02707962 -0.12887143 0.06012466
v -0.011053695 0.317764 -0.0289785
v -0.0044213864 0.20903976 0.005980835
v 0.008043442 0.21069625 -0.028978042
v -0.008253555 0.31404802 0.00681633
v 0.0020278168 0.143344 -0.020115357
v -0.011255874 0.14876346 -0.042749174
v -0.0077996063 0.12812465 -0.037871778
v -0.052153245 0.108972244 -0.06398635
v -0.04188179 0.3164568 -0.0060777282
v -0.041523665 0.2085944 0.007842941
v -0.027643356 0.14208564 0.001925888
v -0.045766983 0.14730003 -0.017112503
v -0.04096916 0.12671803 -0.013231658
v 0.052950818 0.7895671 0.10513443
v 0.043225173 0.7881831 0.10318046
v 0.051966857 0.7904976 0.115080334
v 0.061547086 0.72009045 0.119651794
v 0.062393647 0.72085446 0.1251409
v 0.05655258 0.7191475 0.11718048
v 0.042223968 0.7891121 0.11310295
v 0.057429425 0.71991575 0.122710645
v 0.039255522 0.76992476 0.084869914
v 0.03028244 0.7661157 0.08449776
v 0.036839064 0.7732617 0.09373199
v 0.060219724 0.7162338 0.11591431
v 0.059495162 0.7185553 0.12110779
v 0.055148236 0.71364576 0.11497589
v 0.027852325 0.7694412 0.09334084
v 0.05444725 0.71598893 0.12020248
v 0.0653112 0.73259705 0.12973876
v 0.0638092 0.72781235 0.10783561
v 0.064771496 0.7379562 0.12931809
v 0.06374984 0.71775466 0.1163179
v 0.046854325 0.71558595 0.10392181
v 0.0501445 0.7121323 0.108153686
v 0.058047943 0.7346289 0.105664216
v 0.06003746 0.7424037 0.12319931
v 0.06374984 0.71775466 0.1163179
v 0.0653112 0.73259705 0.12973876
v 0.0501445 0.7121323 0.108153686
v 0.045296248 0.7250372 0.10236381
v 0.045058362 0.72701734 0.12176475
v 0.053735808 0.71733 0.12375686
v 0.053735808 0.71733 0.12375686
v 0.044265136 0.7340445 0.11590286
v 0.23776664 -0.452358 0.26053
v 0.31342763 -0.5020297 0.39326653
v 0.3221377 -0.51385117 0.38437575
v 0.22698256 -0.43277916 0.28085053
v 0.16896553 -0.37137684 0.17104636
v 0.16227806 -0.34877804 0.19854294
v 0.14283752 -0.3972763 0.1696044
v 0.21661507 -0.47241905 0.26463142
v 0.09782028 -0.33769056 0.112405315
v 0.11017677 -0.28250042 0.09995193
v 0.37841934 -0.528584 0.47924003
v 0.3817219 -0.53391004 0.4759606
v 0.37755123 -0.53863484 0.4774977
v 0.29220894 -0.52242774 0.36353835
v 0.31062672 -0.54712105 0.38692206
v 0.32929176 -0.5330288 0.4128527
v 0.108528666 -0.2641912 0.13101608
v 0.20552078 -0.45372543 0.28448394
v 0.30306843 -0.51465976 0.39854148
v 0.13529587 -0.37280458 0.19605796
v 0.37462515 -0.534211 0.48123243
v 0.0793486 -0.28380767 0.122852705
v 0.08805191 -0.18546043 0.05611221
v 0.11017677 -0.28250042 0.09995193
v 0.019886322 -0.23465556 0.013375168
v 0.048284758 -0.14604801 0.020573195
v 0.07083862 -0.30697766 0.07783676
v -0.0026352692 -0.13621284 -0.01132309
v 0.10001053 -0.3974701 0.11194122
v 0.09782028 -0.33769056 0.112405315
v 0.0793486 -0.28380767 0.122852705
v 0.03848488 -0.18756229 0.09293319
v 0.013773727 -0.14751144 0.046209868
v 0.11017677 -0.28250042 0.09995193
v 0.07311661 -0.17488441 0.088443674
v 0.108528666 -0.2641912 0.13101608
v 0.08805191 -0.18546043 0.05611221
v 0.056750793 -0.12761322 0.03808342
v 0.048284758 -0.14604801 0.020573195
v 0.043422468 -0.12549804 0.016603699
v -0.0026352692 -0.13621284 -0.01132309
v 0.0793486 -0.28380767 0.122852705
v 0.03848488 -0.18756229 0.09293319
v 0.02707962 -0.12887143 0.06012466
v 0.013773727 -0.14751144 0.046209868
v 0.010252914 -0.12690471 0.041243818
v 0.33400446 -0.60205144 0.40403938
v 0.3326463 -0.59926796 0.41358733
v 0.3246505 -0.60527533 0.4024806
v 0.3149778 -0.5347548 0.3891793
v 0.31560665 -0.53291273 0.39443687
v 0.31020498 -0.5367956 0.38694373
v 0.32327762 -0.60250634 0.4120079
v 0.31086013 -0.53492945 0.39223814
v 0.31565514 -0.5986494 0.37882522
v 0.31395277 -0.59884816 0.38844672
v 0.3059697 -0.59893113 0.37769547
v 0.31261516 -0.53348553 0.38434082
v 0.3123932 -0.53365254 0.3900688
v 0.3070375 -0.53356713 0.38286406
v 0.30425194 -0.5991329 0.38729614
v 0.30684268 -0.5337303 0.3886289
v 0.32230198 -0.5398759 0.40305236
v 0.32088295 -0.54507136 0.38123757
v 0.31641337 -0.53329194 0.38502944
v 0.32382795 -0.54474473 0.4048287
v 0.30096942 -0.542648 0.37417716
v 0.30239138 -0.53685135 0.3764222
v 0.31826058 -0.55379677 0.3824044
v 0.32159042 -0.5526583 0.40136495
v 0.31641337 -0.53329194 0.38502944
v 0.32230198 -0.5398759 0.40305236
v 0.30239138 -0.53685135 0.3764222
v 0.30316493 -0.5517824 0.37661117
v 0.3021321 -0.54586643 0.3951667
v 0.30639935 -0.53371656 0.3924684
v 0.30639935 -0.53371656 0.3924684
v 0.30447775 -0.55438125 0.39264297
vn 0.79654133 0.07094212 -0.60040736
vn 0.49312648 -0.6004062 0.62955433
vn 0.5488862 -0.4345203 0.714084
vn 0.864823 -0.0021869654 -0.5020722
vn 0.799552 0.050227147 -0.5984929
vn 0.5784771 -0.29073736 0.76212597
vn -0.57052267 0.33744776 -0.7487542
vn -0.52727246 0.5084625 -0.68077135
vn 0.32614404 0.81121296 0.48534885
vn 0.85839486 0.07446535 -0.50755596
vn 0.58699024 -0.22653174 0.7772553
vn 0.8976655 0.437224 -0.055060957
vn -0.06705038 0.9971928 -0.03333068
vn -0.51247436 0.5512441 -0.65840715
vn -0.40924925 0.7581682 -0.5076378
vn -0.3343788 0.8526592 -0.40145117
vn 0.59694153 -0.041414905 0.80121505
vn -0.8068847 0.002949422 0.59070164
vn -0.72847444 -0.06975024 0.681513
vn -0.8047877 -0.017804557 0.59329563
vn -0.33442628 0.38497654 0.8602047
vn -0.73605525 0.006853077 0.67688686
vn 0.9182544 0.033268884 -0.3945911
vn -0.59686816 0.029488105 -0.8017973
vn 0.85839486 0.07446535 -0.50755596
vn 0.75915575 -0.05296209 -0.6487508
vn -0.5959983 0.10193881 -0.7964889
vn -0.58036435 -0.18922552 -0.7920675
vn -0.25709182 0.920731 -0.29352713
vn 0.32614404 0.81121296 0.48534885
vn -0.73605525 0.006853077 0.67688686
vn -0.64297897 -0.03293507 0.7651754
vn -0.83560884 -0.120589785 0.5359254
vn -0.58036435 -0.18922552 -0.7920675
vn 0.8013106 0.033538636 -0.5973077
vn -0.59370244 -0.058481067 -0.8025568
vn 0.7647401 0.031966485 -0.64354545
vn 0.98382854 0.07649502 -0.16195677
vn 0.52953094 0.42033374 0.73682874
vn 0.5646402 0.28073865 0.77612317
vn 0.59576124 0.017255347 0.80297625
vn -0.5646409 -0.28073853 -0.7761227
vn 0.58717793 0.1348938 0.798139
vn 0.95134366 0.23734151 -0.19650479
vn 0.4933661 0.5242578 0.69407755
vn 0.77059126 0.002994772 -0.6373226
vn -0.54390407 -0.3697605 -0.7532899
vn -0.50681454 -0.48869517 -0.71015215
vn -0.803249 -0.034502294 0.5946433
vn -0.8368722 -0.035950072 0.5462166
vn -0.44171545 0.016044538 0.89701176
vn -0.83102155 -0.064922586 0.5524386
vn -0.47420067 0.1768909 0.8624636
vn 0.85839486 0.07446535 -0.50755596
vn 0.59576124 0.017255347 0.80297625
vn 0.9182544 0.033268884 -0.3945911
vn 0.59694153 -0.041414905 0.80121505
vn 0.98382854 0.07649502 -0.16195677
vn 0.75915575 -0.05296209 -0.6487508
vn 0.7647401 0.031966485 -0.64354545
vn -0.58036435 -0.18922552 -0.7920675
vn -0.73605525 0.006853077 0.67688686
vn -0.64297897 -0.03293507 0.7651754
vn -0.44171545 0.016044538 0.89701176
vn -0.83560884 -0.120589785 0.5359254
vn -0.8368722 -0.035950072 0.5462166
vn 0.59746546 0.5573895 -0.57649976
vn -0.548879 0.43455416 -0.714069
vn 0.38570696 0.73243773 0.56103927
vn 0.82299334 -3.5473736E-4 -0.56805086
vn 0.5816739 0.1797827 0.79330546
vn -0.5630833 -0.28838646 -0.77444845
vn -0.7533828 0.50009906 0.42698386
vn -0.77965033 -0.06831461 0.6224777
vn 0.48421198 0.47579113 -0.7342762
vn -0.5969363 0.040305417 -0.8012756
vn 0.1881164 0.9330977 0.3064978
vn 0.823608 0.00669417 -0.5671201
vn 0.48926404 0.53450435 0.6891486
vn -0.456682 -0.60797584 -0.64946663
vn -0.8672658 0.41848162 0.26967224
vn -0.77932155 -0.061279517 0.6236207
vn 0.51691586 -0.538927 0.6650983
vn 0.7960251 0.006566147 -0.60522795
vn 0.50765383 0.4863837 0.71113884
vn 0.38482532 -0.8151223 0.43299553
vn -0.43104604 -0.65767217 -0.6177917
vn 0.17838372 -0.9664205 0.1849615
vn -0.28288707 0.78062654 -0.5573124
vn -0.13532022 0.98275006 -0.12605877
vn 0.38482532 -0.8151223 0.43299553
vn 0.51691586 -0.538927 0.6650983
vn 0.17838372 -0.9664205 0.1849615
vn -0.53984934 0.46743676 -0.70004684
vn -0.8078321 -0.061438065 0.5862018
vn 0.34799436 -0.81668115 0.46036065
vn 0.34799436 -0.81668115 0.46036065
vn -0.4942802 0.77166563 -0.40027392
vn 0.81104684 -8.790041E-4 -0.58498055
vn 0.1827412 0.9364468 0.29945466
vn 0.8391782 0.12478992 -0.5293462
vn 0.28921473 0.85122335 0.43791977
vn 0.8059803 0.018397098 -0.5916563
vn 0.36618257 0.7604211 0.5363489
vn -0.34253535 -0.7914199 -0.5062846
vn -0.24440499 -0.8921407 -0.37993577
vn 0.56438714 -0.36843973 0.7387281
vn 0.8621558 0.05584373 -0.5035561
vn 0.39670882 0.71563184 0.5748853
vn 0.99716884 -0.055466365 0.05077234
vn 0.31122094 -0.87578976 0.36896294
vn -0.21660417 -0.9137412 -0.34374356
vn -0.056264337 -0.9896207 -0.13223132
vn 0.039627697 -0.9992078 -0.003689708
vn 0.47279453 0.5732871 0.66918397
vn -0.79237896 -0.068871796 0.60612893
vn -0.7541192 0.057227444 0.6542395
vn -0.79835945 -0.04963412 0.60013217
vn -0.2349152 -0.10771151 0.96602964
vn -0.73229486 -0.011768546 0.680886
vn 0.89319617 0.15734234 -0.42124102
vn 0.8621558 0.05584373 -0.5035561
vn -0.4771131 -0.56346977 -0.6744366
vn 0.73428005 0.07020754 -0.67520636
vn -0.44980735 -0.62191224 -0.64101374
vn -0.54390407 -0.3697605 -0.7532899
vn 0.12779623 -0.9850162 0.115806684
vn 0.56438714 -0.36843973 0.7387281
vn -0.73229486 -0.011768546 0.680886
vn -0.66803753 0.09113878 0.7385252
vn -0.8604848 0.0025817428 0.5094696
vn 0.8621558 0.05584373 -0.5035561
vn 0.4933661 0.5242578 0.69407755
vn 0.47279453 0.5732871 0.66918397
vn 0.89319617 0.15734234 -0.42124102
vn 0.95134366 0.23734151 -0.19650479
vn 0.73428005 0.07020754 -0.67520636
vn 0.77059126 0.002994772 -0.6373226
vn -0.54390407 -0.3697605 -0.7532899
vn -0.73229486 -0.011768546 0.680886
vn -0.66803753 0.09113878 0.7385252
vn -0.47420067 0.1768909 0.8624636
vn -0.8604848 0.0025817428 0.5094696
vn -0.83102155 -0.064922586 0.5524386
vn 0.80577844 -0.47405112 -0.35496
vn 0.5841679 -0.25021687 0.7721006
vn -0.2891941 -0.8512419 -0.4378972
vn 0.8064365 0.081632346 -0.58565897
vn 0.5415167 0.37866926 0.75057924
vn -0.5661654 -0.27307376 -0.7777451
vn -0.5450691 -0.53133756 0.6485214
vn -0.7962081 0.013672341 0.6048683
vn 0.68329126 -0.50995153 -0.52255386
vn 0.4962896 -0.5928177 0.63424265
vn -0.47320142 -0.5723707 -0.6696807
vn 0.80954486 0.07630742 -0.5820776
vn 0.5961749 0.0051776357 0.80283797
vn -0.5964974 0.08433552 -0.79817194
vn -0.66818696 -0.56726 0.48139623
vn -0.7933845 0.008336668 0.6086638
vn 0.2247653 0.90768915 0.35437396
vn 0.7870311 0.05109953 -0.6147933
vn 0.018468296 0.99888855 0.043365076
vn 0.5935366 0.06112018 0.8024827
vn -0.5937849 0.1481311 -0.79087085
vn -0.20890373 0.95124227 -0.22693045
vn 0.0729243 -0.9811608 -0.1789007
vn 0.25010905 -0.92567575 0.28384808
vn 0.018468296 0.99888855 0.043365076
vn 0.2247653 0.90768915 0.35437396
vn -0.20890373 0.95124227 -0.22693045
vn -0.269744 -0.86996716 -0.4127895
vn -0.81682515 -0.016912173 0.5766374
vn -0.018360166 0.9973265 0.07073025
vn -0.018360166 0.9973265 0.07073025
vn -0.13846979 -0.9901252 -0.021867968
vt 0.22205806 0.50125587
vt 0.42072076 0.78059375
vt 0.3311641 0.49168155
vt 0.3653539 0.79211515
vt 0.1877734 0.24549882
vt 0.3217028 0.24256286
vt 0.052331902 0.2516406
vt 0.11690768 0.5127354
vt 0.051152408 0.07743007
vt 0.21240258 0.009047597
vt 0.55829376 0.97543085
vt 0.53531814 0.9777305
vt 0.5211592 0.9850589
vt 0.25224203 0.75172603
vt 0.24925625 0.8227803
vt 0.35787272 0.8571234
vt 0.34013367 0.018803025
vt 0.22205806 0.50125587
vt 0.3653539 0.79211515
vt 0.1877734 0.24549882
vt 0.53531814 0.9777305
vt 0.21240258 0.009047597
vt 0.87299913 0.49250144
vt 0.44965595 0.51468337
vt 0.8704822 0.742417
vt 0.7488311 0.35893056
vt 0.63578093 0.74610054
vt 0.5196427 0.27820763
vt 0.6063812 0.974164
vt 0.7817054 0.86810505
vt 0.8704822 0.742417
vt 0.87299913 0.49250144
vt 0.7488311 0.35893056
vt 0.49037904 0.26357058
vt 0.6858856 0.018968415
vt 0.47223178 0.13957882
vt 0.6966722 0.26357058
vt 0.77808475 0.28196588
vt 0.9112417 0.13957882
vt 0.9900766 0.018666497
vt 0.9112417 0.3961189
vt 0.3715914 0.019059783
vt 0.9112417 0.13957882
vt 0.77808475 0.28196588
vt 0.9112417 0.3961189
vt 0.6966722 0.26357058
vt 0.49037904 0.26357058
vt 0.47223178 0.13957882
vt 0.6858856 0.018968415
vt 0.6966722 0.26357058
vt 0.77808475 0.28196588
vt 0.6966722 0.26357058
vt 0.77808475 0.28196588
vt 0.4209909 0.9649914
vt 0.09034456 0.8381261
vt 0.19664675 0.8008643
vt 0.3119816 0.9943154
vt 0.009416381 0.71736807
vt 0.089571334 0.6948406
vt 0.025395101 0.6727691
vt 0.12175714 0.58477664
vt 0.4209909 0.9649914
vt 0.19664675 0.8008643
vt 0.009416381 0.71736807
vt 0.089571334 0.6948406
vt 0.025395101 0.6727691
vt 0.40319392 0.35956702
vt 0.42428556 0.36342177
vt 0.3817917 0.36342177
vt 0.40319392 0.2530267
vt 0.3817917 0.2530267
vt 0.42428556 0.2530267
vt 0.40319392 0.35956702
vt 0.40319392 0.2530267
vt 0.4019601 0.24240562
vt 0.42303842 0.24639717
vt 0.3805839 0.24639717
vt 0.4019601 0.14130282
vt 0.3805839 0.14130282
vt 0.42303842 0.14130282
vt 0.4019601 0.24240562
vt 0.4019601 0.14130282
vt 0.7720972 0.8991042
vt 0.88319916 0.92076653
vt 0.7720972 0.92076653
vt 0.88319916 0.8991042
vt 0.9796957 0.92076653
vt 0.9796957 0.8991042
vt 0.88319916 0.9448584
vt 0.7720972 0.9448584
vt 0.88319916 0.98908144
vt 0.7720972 0.98908144
vt 0.9796957 0.98908144
vt 0.9796957 0.9448584
vt 0.88319916 0.92076653
vt 0.88319916 0.8991042
vt 0.88319916 0.98908144
vt 0.88319916 0.9448584
vt 0.22205806 0.50125587
vt 0.42072076 0.78059375
vt 0.3653539 0.79211515
vt 0.3311641 0.49168155
vt 0.1877734 0.24549882
vt 0.3217028 0.24256286
vt 0.052331902 0.2516406
vt 0.11690768 0.5127354
vt 0.051152408 0.07743007
vt 0.21240258 0.009047597
vt 0.55829376 0.97543085
vt 0.53531814 0.9777305
vt 0.5211592 0.9850589
vt 0.25224203 0.75172603
vt 0.24925625 0.8227803
vt 0.35787272 0.8571234
vt 0.34013367 0.018803025
vt 0.22205806 0.50125587
vt 0.3653539 0.79211515
vt 0.1877734 0.24549882
vt 0.53531814 0.9777305
vt 0.21240258 0.009047597
vt 0.87299913 0.49250144
vt 0.8704822 0.742417
vt 0.44965595 0.51468337
vt 0.7488311 0.35893056
vt 0.63578093 0.74610054
vt 0.5196427 0.27820763
vt 0.6063812 0.974164
vt 0.7817054 0.86810505
vt 0.8704822 0.742417
vt 0.87299913 0.49250144
vt 0.7488311 0.35893056
vt 0.4209909 0.9649914
vt 0.09034456 0.8381261
vt 0.3119816 0.9943154
vt 0.19664675 0.8008643
vt 0.009416381 0.71736807
vt 0.089571334 0.6948406
vt 0.025395101 0.6727691
vt 0.12175714 0.58477664
vt 0.4209909 0.9649914
vt 0.19664675 0.8008643
vt 0.009416381 0.71736807
vt 0.089571334 0.6948406
vt 0.025395101 0.6727691
vt 0.40319392 0.35956702
vt 0.3817917 0.36342177
vt 0.42428556 0.36342177
vt 0.40319392 0.2530267
vt 0.3817917 0.2530267
vt 0.42428556 0.2530267
vt 0.40319392 0.35956702
vt 0.40319392 0.2530267
vt 0.4019601 0.24240562
vt 0.3805839 0.24639717
vt 0.42303842 0.24639717
vt 0.4019601 0.14130282
vt 0.3805839 0.14130282
vt 0.42303842 0.14130282
vt 0.4019601 0.24240562
vt 0.4019601 0.14130282
vt 0.7720972 0.8991042
vt 0.88319916 0.92076653
vt 0.88319916 0.8991042
vt 0.7720972 0.92076653
vt 0.9796957 0.92076653
vt 0.9796957 0.8991042
vt 0.88319916 0.9448584
vt 0.7720972 0.9448584
vt 0.88319916 0.98908144
vt 0.7720972 0.98908144
vt 0.9796957 0.98908144
vt 0.9796957 0.9448584
vt 0.88319916 0.92076653
vt 0.88319916 0.8991042
vt 0.88319916 0.98908144
vt 0.88319916 0.9448584

o w_0
s 1
usemtl w_0
f 1/1/1 2/2/2 3/3/3
f 1/1/1 4/4/4 2/2/2
f 3/3/3 5/5/5 1/1/1
f 3/3/3 6/6/6 5/5/5
f 1/1/1 5/5/5 7/7/7
f 1/1/1 7/7/7 8/8/8
f 9/9/9 7/7/7 5/5/5
f 9/9/9 5/5/5 10/10/10
f 4/4/4 11/11/11 2/2/2
f 4/4/4 12/12/12 11/11/11
f 12/12/12 13/13/13 11/11/11
f 1/1/1 14/14/14 4/4/4
f 1/1/1 8/8/8 14/14/14
f 4/4/4 14/14/14 15/15/15
f 4/4/4 15/15/15 16/16/16
f 16/16/16 12/12/12 4/4/4
f 16/16/16 13/13/13 12/12/12
f 5/5/5 17/17/17 10/10/10
f 5/5/5 6/6/6 17/17/17
f 18/18/18 3/3/3 2/2/2
f 18/18/18 8/8/8 7/7/7
f 18/18/18 14/14/14 8/8/8
f 18/18/18 2/2/2 19/19/19
f 19/19/19 16/16/16 15/15/15
f 19/19/19 15/15/15 14/14/14
f 19/19/19 2/2/2 11/11/11
f 18/18/18 19/19/19 14/14/14
f 18/18/18 7/7/7 20/20/20
f 9/9/9 20/20/20 7/7/7
f 20/20/20 17/17/17 6/6/6
f 3/3/3 20/20/20 6/6/6
f 3/3/3 18/18/18 20/20/20
f 21/21/21 11/11/11 13/13/13
f 19/19/19 11/11/11 21/21/21
f 16/16/16 21/21/21 13/13/13
f 16/16/16 19/19/19 21/21/21
f 9/9/9 22/22/22 20/20/20
f 20/20/20 22/22/22 17/17/17
f 23/23/23 24/24/24 25/25/25
f 23/23/23 26/26/26 24/24/24
f 24/24/24 27/27/27 25/25/25
f 26/26/26 28/28/28 24/24/24
f 27/27/27 29/29/29 25/25/25
f 25/25/25 29/29/29 30/30/30
f 24/24/24 31/31/31 27/27/27
f 31/31/31 30/30/30 29/29/29
f 27/27/27 31/31/31 29/29/29
f 32/32/32 31/31/31 24/24/24
f 32/32/32 24/24/24 33/33/33
f 33/33/33 24/24/24 28/28/28
f 34/34/34 35/35/35 36/36/36
f 34/34/34 37/37/37 35/35/35
f 38/38/38 35/35/35 37/37/37
f 38/38/38 39/39/39 35/35/35
f 39/39/39 40/40/40 35/35/35
f 41/41/41 39/39/39 38/38/38
f 42/42/42 36/36/36 35/35/35
f 43/43/43 35/35/35 40/40/40
f 44/44/44 35/35/35 43/43/43
f 45/45/45 44/44/44 43/43/43
f 44/44/44 46/46/46 35/35/35
f 47/47/47 35/35/35 46/46/46
f 47/47/47 48/48/48 35/35/35
f 42/42/42 35/35/35 48/48/48
f 34/34/34 36/36/36 49/49/49
f 39/39/39 49/49/49 40/40/40
f 42/42/42 49/49/49 36/36/36
f 47/47/47 49/49/49 48/48/48
f 43/43/43 40/40/40 49/49/49
f 42/42/42 48/48/48 49/49/49
f 34/34/34 49/49/49 50/50/50
f 41/41/41 51/51/51 39/39/39
f 51/51/51 49/49/49 39/39/39
f 51/51/51 50/50/50 49/49/49
f 47/47/47 52/52/52 49/49/49
f 45/45/45 43/43/43 53/53/53
f 53/53/53 49/49/49 52/52/52
f 53/53/53 43/43/43 49/49/49
f 54/54/54 55/55/55 56/56/56
f 54/54/54 57/57/57 55/55/55
f 56/56/56 55/55/55 58/58/58
f 56/56/56 58/58/58 59/59/59
f 60/60/60 59/59/59 58/58/58
f 61/61/61 59/59/59 60/60/60
f 62/62/62 55/55/55 57/57/57
f 62/62/62 63/63/63 55/55/55
f 63/63/63 64/64/64 55/55/55
f 63/63/63 65/65/65 64/64/64
f 66/66/66 64/64/64 65/65/65
f 61/61/61 66/66/66 65/65/65
f 67/67/67 68/68/68 69/69/69
f 70/70/70 67/67/67 69/69/69
f 70/70/70 69/69/69 71/71/71
f 72/72/72 67/67/67 70/70/70
f 72/72/72 68/68/68 67/67/67
f 73/73/73 69/69/69 68/68/68
f 72/72/72 73/73/73 68/68/68
f 74/74/74 69/69/69 73/73/73
f 74/74/74 71/71/71 69/69/69
f 72/72/72 74/74/74 73/73/73
f 75/75/75 76/76/76 77/77/77
f 78/78/78 75/75/75 77/77/77
f 78/78/78 77/77/77 79/79/79
f 80/80/80 75/75/75 78/78/78
f 80/80/80 76/76/76 75/75/75
f 81/81/81 77/77/77 76/76/76
f 80/80/80 81/81/81 76/76/76
f 82/82/82 77/77/77 81/81/81
f 82/82/82 79/79/79 77/77/77
f 80/80/80 82/82/82 81/81/81
f 83/83/83 84/84/84 85/85/85
f 83/83/83 86/86/86 84/84/84
f 86/86/86 87/87/87 84/84/84
f 86/86/86 88/88/88 87/87/87
f 85/85/85 84/84/84 89/89/89
f 85/85/85 89/89/89 90/90/90
f 90/90/90 89/89/89 91/91/91
f 90/90/90 91/91/91 92/92/92
f 89/89/89 93/93/93 91/91/91
f 89/89/89 94/94/94 93/93/93
f 84/84/84 94/94/94 89/89/89
f 84/84/84 87/87/87 94/94/94
f 83/83/83 85/85/85 95/95/95
f 95/95/95 94/94/94 87/87/87
f 83/83/83 95/95/95 96/96/96
f 96/96/96 87/87/87 88/88/88
f 96/96/96 95/95/95 87/87/87
f 90/90/90 92/92/92 97/97/97
f 90/90/90 97/97/97 98/98/98
f 98/98/98 93/93/93 94/94/94
f 98/98/98 97/97/97 93/93/93
f 85/85/85 98/98/98 95/95/95
f 85/85/85 90/90/90 98/98/98
f 95/95/95 98/98/98 94/94/94
f 99/99/99 100/100/100 101/101/101
f 99/99/99 102/102/102 100/100/100
f 102/102/102 99/99/99 103/103/103
f 102/102/102 103/103/103 104/104/104
f 99/99/99 105/105/105 103/103/103
f 99/99/99 106/106/106 105/105/105
f 107/107/107 103/103/103 105/105/105
f 107/107/107 108/108/108 103/103/103
f 101/101/101 100/100/100 109/109/109
f 101/101/101 109/109/109 110/110/110
f 110/110/110 109/109/109 111/111/111
f 99/99/99 112/112/112 106/106/106
f 99/99/99 101/101/101 112/112/112
f 101/101/101 113/113/113 112/112/112
f 101/101/101 114/114/114 113/113/113
f 114/114/114 110/110/110 111/111/111
f 114/114/114 101/101/101 110/110/110
f 103/103/103 115/115/115 104/104/104
f 103/103/103 108/108/108 115/115/115
f 116/116/116 100/100/100 102/102/102
f 116/116/116 105/105/105 106/106/106
f 116/116/116 106/106/106 112/112/112
f 116/116/116 117/117/117 100/100/100
f 117/117/117 113/113/113 114/114/114
f 117/117/117 112/112/112 113/113/113
f 117/117/117 109/109/109 100/100/100
f 116/116/116 112/112/112 117/117/117
f 116/116/116 118/118/118 105/105/105
f 107/107/107 105/105/105 118/118/118
f 118/118/118 104/104/104 115/115/115
f 102/102/102 118/118/118 116/116/116
f 102/102/102 104/104/104 118/118/118
f 119/119/119 111/111/111 109/109/109
f 117/117/117 119/119/119 109/109/109
f 114/114/114 119/119/119 117/117/117
f 114/114/114 111/111/111 119/119/119
f 107/107/107 118/118/118 120/120/120
f 118/118/118 115/115/115 120/120/120
f 121/121/121 122/122/122 123/123/123
f 121/121/121 123/123/123 124/124/124
f 123/123/123 122/122/122 125/125/125
f 124/124/124 123/123/123 126/126/126
f 125/125/125 122/122/122 127/127/127
f 122/122/122 128/128/128 127/127/127
f 123/123/123 125/125/125 129/129/129
f 129/129/129 127/127/127 128/128/128
f 125/125/125 127/127/127 129/129/129
f 130/130/130 123/123/123 129/129/129
f 130/130/130 131/131/131 123/123/123
f 131/131/131 126/126/126 123/123/123
f 132/132/132 133/133/133 134/134/134
f 132/132/132 135/135/135 133/133/133
f 135/135/135 136/136/136 133/133/133
f 135/135/135 137/137/137 136/136/136
f 138/138/138 136/136/136 137/137/137
f 139/139/139 138/138/138 137/137/137
f 140/140/140 134/134/134 133/133/133
f 140/140/140 133/133/133 141/141/141
f 141/141/141 133/133/133 142/142/142
f 141/141/141 142/142/142 143/143/143
f 144/144/144 143/143/143 142/142/142
f 139/139/139 143/143/143 144/144/144
f 145/145/145 146/146/146 147/147/147
f 148/148/148 146/146/146 145/145/145
f 148/148/148 149/149/149 146/146/146
f 150/150/150 145/145/145 147/147/147
f 150/150/150 148/148/148 145/145/145
f 151/151/151 147/147/147 146/146/146
f 150/150/150 147/147/147 151/151/151
f 152/152/152 146/146/146 149/149/149
f 152/152/152 151/151/151 146/146/146
f 150/150/150 151/151/151 152/152/152
f 153/153/153 154/154/154 155/155/155
f 156/156/156 154/154/154 153/153/153
f 156/156/156 157/157/157 154/154/154
f 158/158/158 153/153/153 155/155/155
f 158/158/158 156/156/156 153/153/153
f 159/159/159 155/155/155 154/154/154
f 158/158/158 155/155/155 159/159/159
f 160/160/160 154/154/154 157/157/157
f 160/160/160 159/159/159 154/154/154
f 158/158/158 159/159/159 160/160/160
f 161/161/161 162/162/162 163/163/163
f 161/161/161 164/164/164 162/162/162
f 163/163/163 162/162/162 165/165/165
f 163/163/163 165/165/165 166/166/166
f 164/164/164 167/167/167 162/162/162
f 164/164/164 168/168/168 167/167/167
f 168/168/168 169/169/169 167/167/167
f 168/168/168 170/170/170 169/169/169
f 167/167/167 169/169/169 171/171/171
f 167/167/167 171/171/171 172/172/172
f 162/162/162 172/172/172 165/165/165
f 162/162/162 167/167/167 172/172/172
f 161/161/161 173/173/173 164/164/164
f 173/173/173 165/165/165 172/172/172
f 161/161/161 174/174/174 173/173/173
f 174/174/174 165/165/165 173/173/173
f 174/174/174 166/166/166 165/165/165
f 168/168/168 175/175/175 170/170/170
f 168/168/168 176/176/176 175/175/175
f 176/176/176 171/171/171 175/175/175
f 176/176/176 172/172/172 171/171/171
f 164/164/164 176/176/176 168/168/168
f 164/164/164 173/173/173 176/176/176
f 173/173/173 172/172/172 176/176/176

