# Created by DisUnity v0.3.1
v -0.038943723 -0.0254186 1.5960947
v 9.1479524E-5 -0.10615489 1.6522729
v -0.08350823 -0.02541861 1.6522729
v 9.147411E-5 -0.06311677 1.5960947
v 0.0836912 -0.025418608 1.6522729
v 0.039126668 -0.025418596 1.5960947
v 9.148433E-5 0.055317678 1.6522732
v 9.1475275E-5 -0.023999905 1.5960947
v 9.151315E-5 -0.025418652 1.9141415
v 9.146557E-5 -0.110896386 1.5364308
v -0.08841777 -0.025418589 1.5364308
v 0.0886007 -0.025418587 1.5364308
v 9.147066E-5 0.060059175 1.5364308
v 9.145957E-5 -0.085469015 1.4797639
v -0.062088728 -0.02541858 1.4797639
v 0.06227165 -0.02541858 1.4797639
v 9.146316E-5 0.034631867 1.4797639
v -0.062088728 -0.02541858 1.4797639
v 9.1375456E-5 -0.0854689 0.7741304
v 9.145957E-5 -0.085469015 1.4797639
v -0.062088814 -0.025418464 0.7741304
v 0.062271565 -0.025418462 0.7741304
v 0.06227165 -0.02541858 1.4797639
v 9.137904E-5 0.034631968 0.7741304
v 9.146316E-5 0.034631867 1.4797639
v -0.03930101 -0.025350768 0.9102324
v -0.005820236 -0.08746185 -1.1659318
v 9.13923E-5 -0.06474306 0.9102324
v -0.045212533 -0.04806961 -1.1659318
v 0.033572197 -0.048069533 -1.1659318
v 0.039483797 -0.025350763 0.9102324
v -0.00582016 -0.0060381317 -1.1659318
v 9.139472E-5 0.016680714 0.9102323
v -0.051568393 -0.04806946 -1.0978109
v -0.0058201216 -0.0938179 -1.171949
v -0.0058201216 -0.09381782 -1.0978109
v -0.051568374 -0.048069533 -1.1719489
v 0.039928205 -0.048069533 -1.1719489
v 0.039928205 -0.048069686 -1.0978109
v -0.0058200834 3.1799317E-4 -1.1719488
v -0.0058200834 3.1799317E-4 -1.097811
v -0.0058201407 -0.12524353 -1.233896
v -0.08299427 -0.048069533 -1.2338961
v 0.07135385 -0.04806946 -1.2338961
v -0.005820179 0.029104462 -1.2338961
v -0.00582016 -0.0889003 -1.2897424
v -0.046650887 -0.048069533 -1.2897424
v 0.035010546 -0.04806961 -1.2897424
v -0.005820198 -0.004599686 -1.2897424
v -0.005820198 -0.08890022 -1.390928
v -0.046650905 -0.048069533 -1.390928
v 0.03501049 -0.04806946 -1.390928
v -0.005820198 -0.0045997617 -1.390928
v -0.0058200643 -0.114577636 -1.4489664
v -0.0723282 -0.048069533 -1.4489665
v 0.060687922 -0.048069533 -1.4489665
v -0.0058201407 0.018438492 -1.4489665
v -0.0058201216 -0.048069533 -1.6280481
v -0.0547661 -0.026598379 0.92979085
v -0.054645702 -0.026520874 0.9565754
v -0.08312027 -0.025149345 0.77433914
v -0.11849884 0.016873589 0.77265507
v -0.15042076 0.043661006 0.6215148
v -0.11577434 -0.01795953 0.6214436
v -0.20321731 0.062351294 0.47093847
v -0.15697815 -0.023375882 0.47542423
v -0.20155975 0.019735707 0.38834974
v -0.15890297 -0.029825334 0.36730364
v -0.13884063 -0.0350919 0.27237272
v -0.23432586 0.07908481 0.37009257
v -0.26105705 0.09529417 0.2652571
v -0.20079109 0.031545475 0.3031823
v -0.04115481 -0.027523812 0.8298052
v -0.0627536 -0.035075996 0.77968055
v -0.02878006 -0.069842175 0.7781452
v -0.05144061 -0.027132958 0.86200935
v -0.16667888 -0.05147398 0.6744974
v -0.12150146 -0.09585623 0.7003115
v -0.2583815 -0.0907116 0.5460785
v -0.21944655 -0.15464018 0.59012437
v -0.26771483 -0.1445037 0.4818103
v -0.2304274 -0.18803066 0.488137
v -0.20553954 -0.21693413 0.40307707
v -0.2975418 -0.10907205 0.4505272
v -0.3146466 -0.12998952 0.34451935
v -0.26684982 -0.16319394 0.4019396
v 0.22974958 -0.06541366 1.6394839
v 0.0838428 -0.08058783 1.0466024
v 0.27385825 -0.060826275 0.9358228
v 0.08952598 -0.07999686 1.472439
v -0.19420576 -0.10950487 1.3945374
v -0.19420579 -0.10950484 1.0744371
v 0.5902532 -0.02535086 1.2386625
v 0.55174 -0.025350902 1.5058765
v 0.46644992 -0.025350938 1.7229879
v 0.32334995 -0.025350962 1.906698
v 0.5544894 -0.025350818 0.9937162
v 0.4362209 -0.025350772 0.7571202
v 0.22974958 0.014711834 1.6394839
v 0.27385825 0.010124674 0.9358228
v 0.0838428 0.029886208 1.0466024
v 0.08952598 0.029295089 1.472439
v -0.19420576 0.058803134 1.3945374
v -0.19420579 0.058803238 1.0744371
v 0.32334995 -0.025350962 1.906698
v 0.22974958 -0.025350915 1.6394839
v 0.22974958 -0.06541366 1.6394839
v 0.08952598 -0.025350882 1.472439
v 0.08952598 -0.07999686 1.472439
v -0.19420576 -0.025350861 1.3945374
v -0.19420576 -0.10950487 1.3945374
v -0.19420579 -0.02535081 1.0744371
v -0.19420579 -0.10950484 1.0744371
v 0.0838428 -0.025350811 1.0466024
v 0.0838428 -0.08058783 1.0466024
v 0.27385825 -0.025350796 0.9358228
v 0.27385825 -0.060826275 0.9358228
v 0.4362209 -0.025350772 0.7571202
v 0.22974958 0.014711834 1.6394839
v 0.27385825 0.010124674 0.9358228
v -0.19420579 0.058803238 1.0744371
v 0.0838428 0.029886208 1.0466024
v -0.19420576 0.058803134 1.3945374
v 0.08952598 0.029295089 1.472439
v -0.0547661 -0.026598379 0.92979085
v -0.08312027 -0.025149345 0.77433914
v -0.054645702 -0.026520874 0.9565754
v -0.11849884 0.016873589 0.77265507
v -0.15042076 0.043661006 0.6215148
v -0.11577434 -0.01795953 0.6214436
v -0.20321731 0.062351294 0.47093847
v -0.15697815 -0.023375882 0.47542423
v -0.20155975 0.019735707 0.38834974
v -0.15890297 -0.029825334 0.36730364
v -0.13884063 -0.0350919 0.27237272
v -0.23432586 0.07908481 0.37009257
v -0.26105705 0.09529417 0.2652571
v -0.20079109 0.031545475 0.3031823
v -0.04115481 -0.027523812 0.8298052
v -0.0627536 -0.035075996 0.77968055
v -0.05144061 -0.027132958 0.86200935
v -0.02878006 -0.069842175 0.7781452
v -0.16667888 -0.05147398 0.6744974
v -0.12150146 -0.09585623 0.7003115
v -0.2583815 -0.0907116 0.5460785
v -0.21944655 -0.15464018 0.59012437
v -0.26771483 -0.1445037 0.4818103
v -0.2304274 -0.18803066 0.488137
v -0.20553954 -0.21693413 0.40307707
v -0.2975418 -0.10907205 0.4505272
v -0.3146466 -0.12998952 0.34451935
v -0.26684982 -0.16319394 0.4019396
vn -0.99697137 0.07647276 0.0141418185
vn 0.0 -0.9888342 -0.14901966
vn -0.97739947 0.005968785 -0.21131644
vn 0.0 -0.99987674 0.015702467
vn 0.97739947 0.005968708 -0.21131663
vn 0.99697137 0.07647277 0.014141577
vn 0.0 0.98108095 -0.1935982
vn 0.0 0.99999547 0.0030323404
vn 1.0484814E-6 -1.2097863E-6 1.0
vn 0.0 -0.99450964 0.10464478
vn -0.98671955 0.0065876245 0.16229989
vn 0.98671955 0.0065875407 0.16229983
vn 0.0 0.9895544 0.14415981
vn 0.0 -0.9728948 -0.23124853
vn -0.9707489 1.2399366E-7 -0.24009727
vn 0.9707488 0.0 -0.2400975
vn 0.0 0.97289485 -0.231248
vn -0.9707489 1.2399366E-7 -0.24009727
vn 0.0 -1.0 -1.6192917E-7
vn 0.0 -0.9728948 -0.23124853
vn -1.0 0.0 1.1534495E-7
vn 1.0 0.0 -1.2378479E-7
vn 0.9707488 0.0 -0.2400975
vn 0.0 1.0 1.5377839E-7
vn 0.0 0.97289485 -0.231248
vn -0.999931 -0.01136768 0.0029715358
vn -0.0012725705 -0.9999393 0.01094563
vn 0.0012907995 -0.9999393 0.0109383315
vn -0.9997745 -0.021013895 0.0030766458
vn 0.9997745 -0.02107257 -0.0026161373
vn 0.99993193 -0.011344779 -0.002723034
vn -0.0013325416 0.9999393 -0.010938243
vn 0.0013124684 0.9999392 -0.010945773
vn -0.9999018 -0.014013144 1.3048839E-7
vn 0.0 -0.96546704 0.2605253
vn -9.122713E-7 -1.0 1.9682561E-7
vn -0.967361 -0.009197843 0.2532354
vn 0.96736133 -0.009198064 0.25323403
vn 0.9999018 -0.014016271 2.4213801E-7
vn 7.1920374E-7 0.96705025 0.25458565
vn 6.0755883E-7 1.0 1.8628127E-7
vn 4.1365766E-7 -0.9990049 -0.044600245
vn -0.9990048 -0.0027401538 -0.04451998
vn 0.9990048 -0.0027391226 -0.044520874
vn -2.2273854E-7 0.99896634 -0.045454957
vn 3.0841326E-7 -0.94494134 -0.32723996
vn -0.9476961 -0.009887412 -0.3190207
vn 0.9476961 -0.009888097 -0.31902078
vn -2.425046E-7 0.9464462 -0.3228616
vn -3.1875024E-7 -0.9735293 0.22856225
vn -0.97525996 -0.010497717 0.22081165
vn 0.9752597 -0.010496495 0.22081271
vn -4.278455E-7 0.975156 0.22151886
vn 9.4340714E-7 -0.9996536 0.02632297
vn -0.99977344 -0.0019040135 0.021200497
vn 0.99977344 -0.0019036779 0.02120154
vn 0.0 0.9997931 0.020342018
vn 1.1793E-7 -1.1793E-7 -1.0
vn -0.06849974 -0.99764603 0.0031947494
vn -0.5586542 -0.82542825 0.08107792
vn -0.78710216 -0.6063303 0.11328621
vn -0.80141294 -0.58721495 0.11364787
vn -0.843266 -0.50164217 0.19302216
vn -0.83997333 -0.51307184 0.17664084
vn -0.8635483 -0.45042643 0.2267166
vn -0.84048337 -0.50234807 0.20306183
vn -0.82393014 -0.5617391 0.074754916
vn -0.7693614 -0.635781 -0.062173717
vn -0.76248044 -0.63741785 -0.11100472
vn -0.8838238 -0.43499315 0.17215222
vn -0.79470336 -0.6068872 0.011594833
vn -0.71933323 -0.68716866 -0.10177862
vn -0.4323842 -0.84536725 0.3136848
vn -0.5484817 -0.61304516 0.56863296
vn -0.54992807 -0.60804373 0.5725923
vn -0.4323842 -0.84536725 0.3136848
vn -0.7029587 -0.2180661 0.6769757
vn -0.646073 -0.29899794 0.70227486
vn -0.8401406 -0.2553372 0.47850475
vn -0.7996455 -0.26376912 0.5394378
vn -0.80720973 -0.5251326 0.26953328
vn -0.76241237 -0.63509417 0.12402779
vn -0.6977901 -0.7091037 0.101296335
vn -0.84275806 -0.45374003 0.2896183
vn -0.7543406 -0.62793756 0.19148047
vn -0.6705414 -0.72393614 0.16214359
vn -0.49200132 -0.7842978 0.37790436
vn -0.11708328 -0.76421297 -0.6342477
vn -0.3307109 -0.7640828 -0.55390245
vn -0.25745544 -0.79452956 0.549945
vn -0.60769415 -0.627389 0.48691967
vn -0.5724678 -0.6157822 -0.54138064
vn 0.99999857 0.0 -0.0017402496
vn 0.9768495 -2.9501814E-7 0.2139277
vn 0.8757524 -2.612237E-7 0.48276067
vn -0.0072073825 0.0 0.999974
vn 0.96645457 1.5389392E-7 -0.25683776
vn 0.31229636 0.0 -0.9499848
vn -0.49200118 0.78429776 0.37790453
vn -0.33071086 0.76408285 -0.5539024
vn -0.11708323 0.7642131 -0.6342475
vn -0.25745526 0.7945295 0.5499452
vn -0.60769415 0.627389 0.48691985
vn -0.57246774 0.61578226 -0.5413804
vn -0.0072073825 0.0 0.999974
vn -0.86899537 0.0 0.49482027
vn -0.49200132 -0.7842978 0.37790436
vn -0.5398108 0.0 0.84178644
vn -0.25745544 -0.79452956 0.549945
vn -0.795224 0.0 0.6063157
vn -0.60769415 -0.627389 0.48691967
vn -0.74148834 0.0 -0.6709658
vn -0.5724678 -0.6157822 -0.54138064
vn -0.30867675 0.0 -0.951167
vn -0.11708328 -0.76421297 -0.6342477
vn -0.6292198 0.0 -0.77722734
vn -0.3307109 -0.7640828 -0.55390245
vn 0.31229636 0.0 -0.9499848
vn -0.49200118 0.78429776 0.37790453
vn -0.33071086 0.76408285 -0.5539024
vn -0.57246774 0.61578226 -0.5413804
vn -0.11708323 0.7642131 -0.6342475
vn -0.60769415 0.627389 0.48691985
vn -0.25745526 0.7945295 0.5499452
vn 0.06849974 0.99764603 -0.0031947494
vn 0.7871022 0.6063303 -0.11328622
vn 0.5586542 0.82542825 -0.08107792
vn 0.80141294 0.58721495 -0.11364788
vn 0.843266 0.5016421 -0.19302216
vn 0.83997345 0.5130719 -0.17664087
vn 0.8635483 0.45042643 -0.2267166
vn 0.84048337 0.50234807 -0.20306183
vn 0.82393014 0.5617391 -0.074754916
vn 0.7693614 0.635781 0.062173717
vn 0.76248044 0.63741785 0.11100472
vn 0.8838238 0.43499315 -0.17215222
vn 0.79470336 0.6068872 -0.011594833
vn 0.71933323 0.68716866 0.10177862
vn 0.4323842 0.84536725 -0.3136848
vn 0.54848164 0.61304516 -0.56863296
vn 0.4323842 0.84536725 -0.3136848
vn 0.54992807 0.6080438 -0.5725923
vn 0.70295876 0.21806611 -0.6769757
vn 0.6460729 0.29899794 -0.7022748
vn 0.8401406 0.2553372 -0.47850475
vn 0.7996455 0.26376912 -0.53943765
vn 0.80720973 0.5251326 -0.26953328
vn 0.76241237 0.63509417 -0.12402779
vn 0.6977901 0.7091037 -0.101296335
vn 0.84275806 0.45374003 -0.2896183
vn 0.7543406 0.62793756 -0.19148047
vn 0.6705414 0.72393614 -0.16214359
vt 0.7591719 0.85526764
vt 0.71537817 0.79224133
vt 0.80916893 0.79224133
vt 0.71537817 0.85526764
vt 0.6215875 0.79224133
vt 0.67158455 0.85526764
vt 0.71537817 0.7922413
vt 0.71537817 0.85526764
vt 0.71537817 0.49845043
vt 0.71537817 0.92220515
vt 0.81467706 0.92220515
vt 0.6160794 0.92220515
vt 0.71537817 0.92220515
vt 0.71537817 0.9857798
vt 0.78513837 0.9857798
vt 0.6456181 0.9857798
vt 0.71537817 0.9857798
vt 0.97162366 0.7726511
vt 0.90486634 0.015075199
vt 0.90486634 0.7726511
vt 0.97162366 0.015075199
vt 0.83810896 0.015075199
vt 0.83810896 0.7726511
vt 0.90486634 0.015075199
vt 0.90486634 0.7726511
vt 0.19951124 0.22648121
vt 0.119271204 0.0152362175
vt 0.119271204 0.22648121
vt 0.19951124 0.0152362175
vt 0.039030887 0.0152362175
vt 0.039030887 0.22648121
vt 0.119271204 0.0152362175
vt 0.119271204 0.22648121
vt 0.78923666 0.010637371
vt 0.7417585 0.08757884
vt 0.7417585 0.010637371
vt 0.78923666 0.08757884
vt 0.69428027 0.08757884
vt 0.69428027 0.010637371
vt 0.7417585 0.08757884
vt 0.7417585 0.010637371
vt 0.7417585 0.1518683
vt 0.82185066 0.1518683
vt 0.6616663 0.1518683
vt 0.7417585 0.1518683
vt 0.7417585 0.20982629
vt 0.784133 0.20982629
vt 0.6993839 0.20982629
vt 0.7417585 0.20982629
vt 0.7417585 0.26258203
vt 0.784133 0.26258203
vt 0.6993839 0.26258203
vt 0.7417585 0.26258203
vt 0.7417585 0.3387967
vt 0.81078136 0.3387967
vt 0.6727356 0.3387967
vt 0.7417585 0.3387967
vt 0.7417585 0.49562022
vt 0.12281955 0.5463177
vt 0.040191047 0.5463177
vt 0.20790201 0.6408673
vt 0.05956046 0.6408673
vt 0.062110167 0.74483216
vt 0.2671147 0.74483216
vt 0.058371328 0.8489549
vt 0.31147337 0.8489549
vt 0.20831679 0.91745645
vt 0.37949896 0.91745645
vt 0.4696607 0.9913065
vt 0.04486416 0.91745645
vt 0.026501484 0.98785657
vt 0.22514935 0.96529615
vt 0.12281955 0.5463177
vt 0.05956046 0.6408673
vt 0.20790201 0.6408673
vt 0.040191047 0.5463177
vt 0.062110167 0.74483216
vt 0.2671147 0.74483216
vt 0.058371328 0.8489549
vt 0.31147337 0.8489549
vt 0.20831679 0.91745645
vt 0.37949896 0.91745645
vt 0.4696607 0.9913065
vt 0.04486416 0.91745645
vt 0.026501484 0.98785657
vt 0.22514935 0.96529615
vt 0.36542004 0.7034682
vt 0.24978715 0.2387541
vt 0.40037763 0.1519233
vt 0.25429153 0.57253504
vt 0.029430099 0.51147413
vt 0.029430099 0.2605722
vt 0.6511248 0.38929576
vt 0.6206028 0.5987439
vt 0.5530087 0.76892066
vt 0.43959987 0.9129168
vt 0.62278163 0.19730169
vt 0.52905244 0.011852338
vt 0.36542004 0.7034682
vt 0.40037763 0.1519233
vt 0.24978715 0.2387541
vt 0.25429153 0.57253504
vt 0.029430099 0.51147413
vt 0.029430099 0.2605722
vt 0.82152 0.39542463
vt 0.82152 0.43803564
vt 0.7989443 0.43803564
vt 0.82152 0.47085866
vt 0.78834873 0.47085866
vt 0.82152 0.515142
vt 0.7706353 0.515142
vt 0.82152 0.56331617
vt 0.7706353 0.56331617
vt 0.82152 0.605365
vt 0.78834873 0.605365
vt 0.82152 0.63846076
vt 0.79894435 0.63846076
vt 0.82152 0.6747979
vt 0.7989443 0.43803564
vt 0.79894435 0.63846076
vt 0.7706353 0.56331617
vt 0.78834873 0.605365
vt 0.7706353 0.515142
vt 0.78834873 0.47085866
vt 0.12281955 0.5463177
vt 0.20790201 0.6408673
vt 0.040191047 0.5463177
vt 0.05956046 0.6408673
vt 0.062110167 0.74483216
vt 0.2671147 0.74483216
vt 0.058371328 0.8489549
vt 0.31147337 0.8489549
vt 0.20831679 0.91745645
vt 0.37949896 0.91745645
vt 0.4696607 0.9913065
vt 0.04486416 0.91745645
vt 0.026501484 0.98785657
vt 0.22514935 0.96529615
vt 0.12281955 0.5463177
vt 0.05956046 0.6408673
vt 0.040191047 0.5463177
vt 0.20790201 0.6408673
vt 0.062110167 0.74483216
vt 0.2671147 0.74483216
vt 0.058371328 0.8489549
vt 0.31147337 0.8489549
vt 0.20831679 0.91745645
vt 0.37949896 0.91745645
vt 0.4696607 0.9913065
vt 0.04486416 0.91745645
vt 0.026501484 0.98785657
vt 0.22514935 0.96529615

o xu_huang_3_w_0
s 1
usemtl xu_huang_3_w_0
f 1/1/1 2/2/2 3/3/3
f 1/1/1 4/4/4 2/2/2
f 4/4/4 5/5/5 2/2/2
f 4/4/4 6/6/6 5/5/5
f 6/6/6 7/7/7 5/5/5
f 6/6/6 8/8/8 7/7/7
f 8/8/8 3/3/3 7/7/7
f 8/8/8 1/1/1 3/3/3
f 3/3/3 2/2/2 9/9/9
f 2/2/2 5/5/5 9/9/9
f 5/5/5 7/7/7 9/9/9
f 7/7/7 3/3/3 9/9/9
f 1/1/1 10/10/10 4/4/4
f 1/1/1 11/11/11 10/10/10
f 8/8/8 11/11/11 1/1/1
f 4/4/4 12/12/12 6/6/6
f 4/4/4 10/10/10 12/12/12
f 6/6/6 13/13/13 8/8/8
f 6/6/6 12/12/12 13/13/13
f 8/8/8 13/13/13 11/11/11
f 11/11/11 14/14/14 10/10/10
f 11/11/11 15/15/15 14/14/14
f 13/13/13 15/15/15 11/11/11
f 10/10/10 16/16/16 12/12/12
f 10/10/10 14/14/14 16/16/16
f 12/12/12 17/17/17 13/13/13
f 12/12/12 16/16/16 17/17/17
f 13/13/13 17/17/17 15/15/15
f 18/18/18 19/19/19 20/20/20
f 18/18/18 21/21/21 19/19/19
f 20/20/20 19/19/19 22/22/22
f 20/20/20 22/22/22 23/23/23
f 23/23/23 22/22/22 24/24/24
f 23/23/23 24/24/24 25/25/25
f 25/25/25 21/21/21 18/18/18
f 25/25/25 24/24/24 21/21/21
f 26/26/26 27/27/27 28/28/28
f 26/26/26 29/29/29 27/27/27
f 28/28/28 27/27/27 30/30/30
f 28/28/28 30/30/30 31/31/31
f 31/31/31 30/30/30 32/32/32
f 31/31/31 32/32/32 33/33/33
f 33/33/33 29/29/29 26/26/26
f 33/33/33 32/32/32 29/29/29
f 34/34/34 35/35/35 36/36/36
f 34/34/34 37/37/37 35/35/35
f 36/36/36 35/35/35 38/38/38
f 36/36/36 38/38/38 39/39/39
f 39/39/39 38/38/38 40/40/40
f 39/39/39 40/40/40 41/41/41
f 41/41/41 37/37/37 34/34/34
f 41/41/41 40/40/40 37/37/37
f 37/37/37 42/42/42 35/35/35
f 37/37/37 43/43/43 42/42/42
f 40/40/40 43/43/43 37/37/37
f 35/35/35 44/44/44 38/38/38
f 35/35/35 42/42/42 44/44/44
f 38/38/38 45/45/45 40/40/40
f 38/38/38 44/44/44 45/45/45
f 40/40/40 45/45/45 43/43/43
f 43/43/43 46/46/46 42/42/42
f 43/43/43 47/47/47 46/46/46
f 45/45/45 47/47/47 43/43/43
f 42/42/42 48/48/48 44/44/44
f 42/42/42 46/46/46 48/48/48
f 44/44/44 49/49/49 45/45/45
f 44/44/44 48/48/48 49/49/49
f 45/45/45 49/49/49 47/47/47
f 47/47/47 50/50/50 46/46/46
f 47/47/47 51/51/51 50/50/50
f 49/49/49 51/51/51 47/47/47
f 46/46/46 52/52/52 48/48/48
f 46/46/46 50/50/50 52/52/52
f 48/48/48 53/53/53 49/49/49
f 48/48/48 52/52/52 53/53/53
f 49/49/49 53/53/53 51/51/51
f 51/51/51 54/54/54 50/50/50
f 51/51/51 55/55/55 54/54/54
f 53/53/53 55/55/55 51/51/51
f 50/50/50 56/56/56 52/52/52
f 50/50/50 54/54/54 56/56/56
f 52/52/52 57/57/57 53/53/53
f 52/52/52 56/56/56 57/57/57
f 53/53/53 57/57/57 55/55/55
f 55/55/55 58/58/58 54/54/54
f 54/54/54 58/58/58 56/56/56
f 56/56/56 58/58/58 57/57/57
f 57/57/57 58/58/58 55/55/55
f 59/59/59 60/60/60 61/61/61
f 61/61/61 60/60/60 62/62/62
f 61/61/61 62/62/62 63/63/63
f 61/61/61 63/63/63 64/64/64
f 64/64/64 63/63/63 65/65/65
f 64/64/64 65/65/65 66/66/66
f 65/65/65 67/67/67 66/66/66
f 66/66/66 67/67/67 68/68/68
f 68/68/68 67/67/67 69/69/69
f 70/70/70 67/67/67 65/65/65
f 71/71/71 67/67/67 70/70/70
f 71/71/71 72/72/72 67/67/67
f 69/69/69 67/67/67 72/72/72
f 73/73/73 74/74/74 75/75/75
f 73/73/73 76/76/76 74/74/74
f 75/75/75 74/74/74 77/77/77
f 75/75/75 77/77/77 78/78/78
f 78/78/78 77/77/77 79/79/79
f 78/78/78 79/79/79 80/80/80
f 79/79/79 81/81/81 80/80/80
f 80/80/80 81/81/81 82/82/82
f 82/82/82 81/81/81 83/83/83
f 84/84/84 81/81/81 79/79/79
f 85/85/85 81/81/81 84/84/84
f 85/85/85 86/86/86 81/81/81
f 83/83/83 81/81/81 86/86/86
f 87/87/87 88/88/88 89/89/89
f 87/87/87 90/90/90 88/88/88
f 88/88/88 90/90/90 91/91/91
f 88/88/88 91/91/91 92/92/92
f 87/87/87 89/89/89 93/93/93
f 87/87/87 93/93/93 94/94/94
f 87/87/87 94/94/94 95/95/95
f 87/87/87 95/95/95 96/96/96
f 93/93/93 89/89/89 97/97/97
f 97/97/97 89/89/89 98/98/98
f 99/99/99 96/96/96 95/95/95
f 99/99/99 95/95/95 94/94/94
f 99/99/99 94/94/94 93/93/93
f 99/99/99 93/93/93 100/100/100
f 97/97/97 98/98/98 100/100/100
f 93/93/93 97/97/97 100/100/100
f 99/99/99 100/100/100 101/101/101
f 99/99/99 101/101/101 102/102/102
f 101/101/101 103/103/103 102/102/102
f 101/101/101 104/104/104 103/103/103
f 105/105/105 106/106/106 107/107/107
f 107/107/107 106/106/106 108/108/108
f 107/107/107 108/108/108 109/109/109
f 109/109/109 108/108/108 110/110/110
f 109/109/109 110/110/110 111/111/111
f 111/111/111 110/110/110 112/112/112
f 111/111/111 112/112/112 113/113/113
f 113/113/113 112/112/112 114/114/114
f 113/113/113 114/114/114 115/115/115
f 115/115/115 114/114/114 116/116/116
f 115/115/115 116/116/116 117/117/117
f 117/117/117 116/116/116 118/118/118
f 105/105/105 119/119/119 106/106/106
f 119/119/119 108/108/108 106/106/106
f 120/120/120 118/118/118 116/116/116
f 121/121/121 114/114/114 112/112/112
f 121/121/121 122/122/122 114/114/114
f 122/122/122 116/116/116 114/114/114
f 122/122/122 120/120/120 116/116/116
f 123/123/123 112/112/112 110/110/110
f 123/123/123 121/121/121 112/112/112
f 124/124/124 110/110/110 108/108/108
f 124/124/124 123/123/123 110/110/110
f 119/119/119 124/124/124 108/108/108
f 125/125/125 126/126/126 127/127/127
f 126/126/126 128/128/128 127/127/127
f 126/126/126 129/129/129 128/128/128
f 126/126/126 130/130/130 129/129/129
f 130/130/130 131/131/131 129/129/129
f 130/130/130 132/132/132 131/131/131
f 131/131/131 132/132/132 133/133/133
f 132/132/132 134/134/134 133/133/133
f 134/134/134 135/135/135 133/133/133
f 136/136/136 131/131/131 133/133/133
f 137/137/137 136/136/136 133/133/133
f 137/137/137 133/133/133 138/138/138
f 135/135/135 138/138/138 133/133/133
f 139/139/139 140/140/140 141/141/141
f 139/139/139 142/142/142 140/140/140
f 142/142/142 143/143/143 140/140/140
f 142/142/142 144/144/144 143/143/143
f 144/144/144 145/145/145 143/143/143
f 144/144/144 146/146/146 145/145/145
f 145/145/145 146/146/146 147/147/147
f 146/146/146 148/148/148 147/147/147
f 148/148/148 149/149/149 147/147/147
f 150/150/150 145/145/145 147/147/147
f 151/151/151 150/150/150 147/147/147
f 151/151/151 147/147/147 152/152/152
f 149/149/149 152/152/152 147/147/147

