# Created by DisUnity v0.3.1
v -0.010484772 0.14115472 0.030040191
v 0.031539686 0.09364885 0.024828957
v 0.079045564 0.14115472 0.0
v 0.0132682035 0.07537737 0.030040188
v 0.09731705 0.23251216 0.0
v 0.047984008 0.060760193 0.024828956
v 0.08635414 0.06989593 0.0
v 0.047984008 0.060760193 -0.02482895
v 0.031539686 0.09364885 -0.024828948
v -0.010484772 0.14115472 -0.030040191
v 0.0132682035 0.07537737 -0.030040182
v -0.03423767 0.2526108 -0.009822273
v -0.025101928 0.30377096 -0.007879042
v 0.1521315 0.35127684 0.0
v -0.025101928 0.30377096 0.007879061
v -0.012311859 0.3549311 0.007879063
v -0.0013490295 0.44080713 0.007879055
v 0.16674873 0.52485603 0.0
v -0.014139023 0.535819 0.007879053
v 0.12655143 0.67102796 0.0
v -0.03157692 0.6566585 0.007879049
v 0.038848266 0.8117184 -3.2304814E-9
v -0.07991638 0.7861383 0.007879046
v -0.12011368 0.96154463 -5.657819E-9
v -0.1584838 0.91952026 0.00787904
v -0.03423767 0.3841655 0.00787906
v -0.023274764 0.45907864 0.007879059
v -0.2279155 1.0218407 -6.6346724E-9
v -0.07991638 0.7861383 -0.007879061
v -0.1584838 0.91952026 -0.007879066
v -0.03157692 0.6566585 -0.007879054
v -0.014139023 0.535819 -0.00787905
v -0.0013490295 0.44080713 -0.007879048
v -0.012311859 0.3549311 -0.007879045
v -0.03423767 0.3841655 -0.007879044
v -0.023274764 0.45907864 -0.007879048
v -0.03423767 0.2526108 0.0098222885
v -0.050682068 0.20510493 0.013182488
v -0.074434966 0.20510493 0.013182488
v -0.038704835 0.106131725 0.020109152
v -0.10262443 0.16222721 0.0134725105
v -0.08070564 0.10701238 0.015777344
v -0.038704835 0.106131725 -0.020109147
v -0.10262443 0.16222721 -0.013472509
v -0.074434966 0.20510493 -0.013182488
v -0.08070564 0.10701238 -0.015777342
v -0.050682068 0.20510493 -0.013182488
v -0.07991638 0.7861383 -0.007879061
v -0.1584838 0.91952026 0.00787904
v -0.1584838 0.91952026 -0.007879066
v -0.07991638 0.7861383 0.007879046
v -0.014139023 0.535819 -0.00787905
v -0.03157692 0.6566585 0.007879049
v -0.03157692 0.6566585 -0.007879054
v -0.014139023 0.535819 0.007879053
v -0.0013490295 0.44080713 -0.007879048
v -0.0013490295 0.44080713 0.007879055
v -0.012311859 0.3549311 -0.007879045
v -0.023274764 0.45907864 0.007879059
v -0.023274764 0.45907864 -0.007879048
v -0.012311859 0.3549311 0.007879063
v -0.03423767 0.2526108 -0.009822273
v -0.025101928 0.30377096 0.007879061
v -0.025101928 0.30377096 -0.007879042
v -0.03423767 0.2526108 0.0098222885
v -0.074434966 0.20510493 -0.013182488
v -0.050682068 0.20510493 0.013182488
v -0.050682068 0.20510493 -0.013182488
v -0.074434966 0.20510493 0.013182488
v -0.038704835 0.106131725 -0.020109147
v -0.08070564 0.10701238 0.015777344
v -0.08070564 0.10701238 -0.015777342
v -0.038704835 0.106131725 0.020109152
v -0.08070564 0.10701238 -0.015777342
v -0.10262443 0.16222721 0.0134725105
v -0.10262443 0.16222721 -0.013472509
v -0.08070564 0.10701238 0.015777344
v -0.1584838 0.91952026 0.00787904
v -0.2279155 1.0218407 -6.6346724E-9
v -0.1584838 0.91952026 -0.007879066
v -0.023274764 0.45907864 0.007879059
v -0.0013490295 0.44080713 -0.007879048
v -0.023274764 0.45907864 -0.007879048
v -0.0013490295 0.44080713 0.007879055
v -0.03157692 0.6566585 0.007879049
v -0.07991638 0.7861383 -0.007879061
v -0.03157692 0.6566585 -0.007879054
v -0.07991638 0.7861383 0.007879046
v -0.050682068 0.20510493 0.013182488
v -0.03423767 0.2526108 -0.009822273
v -0.050682068 0.20510493 -0.013182488
v -0.03423767 0.2526108 0.0098222885
v -0.10262443 0.16222721 0.0134725105
v -0.074434966 0.20510493 -0.013182488
v -0.10262443 0.16222721 -0.013472509
v -0.074434966 0.20510493 0.013182488
v -0.025101928 0.30377096 -0.007879042
v -0.03423767 0.3841655 0.00787906
v -0.03423767 0.3841655 -0.007879044
v -0.025101928 0.30377096 0.007879061
v -0.03423767 0.3841655 -0.007879044
v -0.012311859 0.3549311 0.007879063
v -0.012311859 0.3549311 -0.007879045
v -0.03423767 0.3841655 0.00787906
v 0.0132682035 0.07537737 -0.030040182
v -0.010484772 0.14115472 0.030040191
v -0.010484772 0.14115472 -0.030040191
v 0.0132682035 0.07537737 0.030040188
v 0.047984008 0.060760193 -0.02482895
v 0.031539686 0.09364885 0.024828957
v 0.031539686 0.09364885 -0.024828948
v 0.047984008 0.060760193 0.024828956
v 0.031539686 0.09364885 0.024828957
v 0.0132682035 0.07537737 -0.030040182
v 0.031539686 0.09364885 -0.024828948
v 0.0132682035 0.07537737 0.030040188
v 0.08635414 0.06989593 0.0
v 0.047984008 0.060760193 0.024828956
v 0.047984008 0.060760193 -0.02482895
v -0.010484772 0.14115472 0.030040191
v -0.038704835 0.106131725 -0.020109147
v -0.010484772 0.14115472 -0.030040191
v -0.038704835 0.106131725 0.020109152
v -0.034134828 0.14291103 -1.1866341E-8
v -0.016902804 -0.08327022 -0.029846728
v -0.016902836 0.14291103 -0.019236019
v -0.034134828 -0.08327022 0.0
v 0.01756123 -0.08327022 -0.029846722
v 0.017561197 0.14291103 -0.01923604
v 0.034793243 -0.08327022 1.2442977E-8
v 0.034793243 0.14291103 -5.336298E-8
v 0.017561221 -0.08327022 0.029846737
v 0.017561255 0.14291103 0.019235952
v -0.01690281 -0.08327022 0.029846732
v -0.016902776 0.14291103 0.019235972
v -0.034134828 -0.08327022 0.0
v -0.026269712 -0.09683613 -0.046070695
v -0.016902804 -0.08327022 -0.029846728
v -0.05286865 -0.09683609 0.0
v 0.026928147 -0.09683613 -0.046070687
v 0.01756123 -0.08327022 -0.029846722
v 0.05352707 -0.09683609 1.8501067E-8
v 0.034793243 -0.08327022 1.2442977E-8
v 0.026928129 -0.09683609 0.04607071
v 0.017561221 -0.08327022 0.029846737
v -0.02626972 -0.09683609 0.046070702
v -0.01690281 -0.08327022 0.029846732
v -0.05286865 -0.09683609 0.0
v -0.016902799 -0.122029915 -0.029846724
v -0.026269712 -0.09683613 -0.046070695
v -0.034134828 -0.122029915 0.0
v 0.017561235 -0.122029915 -0.029846713
v 0.026928147 -0.09683613 -0.046070687
v 0.034793243 -0.122029915 2.5072486E-8
v 0.05352707 -0.09683609 1.8501067E-8
v 0.017561216 -0.122029915 0.029846746
v 0.026928129 -0.09683609 0.04607071
v -0.016902816 -0.122029915 0.029846733
v -0.02626972 -0.09683609 0.046070702
v -0.034134828 -0.122029915 0.0
v 3.2920836E-4 -0.122029915 1.0853013E-8
v -0.016902799 -0.122029915 -0.029846724
v 0.017561235 -0.122029915 -0.029846713
v 0.034793243 -0.122029915 2.5072486E-8
v 0.017561216 -0.122029915 0.029846746
v -0.016902816 -0.122029915 0.029846733
v 1.5419006E-4 -0.10788841 -5.2508854E-5
v 0.025669457 -0.12283493 -0.025567777
v 1.5419244E-4 -0.12283493 -0.03613655
v 0.03623823 -0.12283493 -5.2505045E-5
v 0.025669452 -0.12283493 0.025462763
v 1.5419006E-4 -0.12283493 0.03603153
v -0.025361074 -0.12283493 0.025462763
v -0.035929848 -0.12283493 -5.2497307E-5
v -0.025361089 -0.12283493 -0.025567764
v 0.03623823 -0.15891895 -0.03613654
v 1.5419244E-4 -0.15891895 -0.05108304
v 0.051184725 -0.15891895 -5.2502164E-5
v 0.03623822 -0.15891895 0.036031537
v 1.5419006E-4 -0.15891895 0.05097803
v -0.03592984 -0.15891895 0.036031537
v -0.050876345 -0.15891895 -5.2491218E-5
v -0.035929862 -0.15891895 -0.036136527
v 0.025669457 -0.19500297 -0.025567772
v 1.5419244E-4 -0.19500297 -0.03613654
v 0.036238227 -0.19500297 -5.2501895E-5
v 0.025669452 -0.19500297 0.025462767
v 1.5419006E-4 -0.19500297 0.036031533
v -0.025361072 -0.19500297 0.025462765
v -0.035929848 -0.19500297 -5.249415E-5
v -0.025361089 -0.19500297 -0.02556776
v 1.5419006E-4 -0.2099495 -5.2504394E-5
vn 0.049804445 0.09590945 0.9941433
vn 0.3484256 0.13067183 0.92818344
vn 0.9969325 0.07826619 0.0
vn 0.28465155 0.14790794 0.9471519
vn 0.96695745 0.25493795 -2.3438291E-7
vn 0.44676203 0.10189295 0.8888316
vn 0.9749646 0.22236009 0.0
vn 0.4467619 0.10189296 -0.8888316
vn 0.34842554 0.13067175 -0.92818344
vn 0.049804438 0.09590942 -0.9941433
vn 0.2846516 0.14790782 -0.9471519
vn 0.064596355 0.11220805 -0.99158293
vn 0.054643594 -0.0021457914 -0.99850357
vn 0.9813572 -0.19219264 0.0
vn 0.054643687 -0.0021458368 0.99850357
vn 0.027702123 -0.007729163 0.9995864
vn 0.029011244 -0.0014156936 0.99957806
vn 0.9958326 0.09119981 -4.5572853E-7
vn 0.046614062 0.0054918397 0.9988979
vn 0.94777834 0.31892982 0.0
vn 0.04996313 0.019127727 0.9985678
vn 0.8416329 0.5400501 -2.9072723E-7
vn 0.06459895 0.046545427 0.9968252
vn 0.6206849 0.7840601 3.5853606E-7
vn 0.07146103 0.08708935 0.9936341
vn -1.0485522E-7 0.0 1.0
vn 1.8036066E-7 0.0 1.0
vn 0.4881529 0.8727581 6.77546E-7
vn 0.06459905 0.04654544 -0.9968252
vn 0.07146116 0.087089494 -0.9936341
vn 0.049963165 0.019127697 -0.9985678
vn 0.046614047 0.0054918155 -0.9988979
vn 0.029011123 -0.0014157547 -0.99957806
vn 0.02770206 -0.00772919 -0.9995864
vn 0.0 0.0 -1.0
vn 0.0 0.0 -1.0
vn 0.06459641 0.11220797 0.99158293
vn -0.07829374 0.11919538 0.98977906
vn -0.15541613 0.037601784 0.98713326
vn -0.14146459 0.036492527 0.98927045
vn -0.07607209 0.03122654 0.9966132
vn -0.07607209 0.031226544 0.9966132
vn -0.14146459 0.03649249 -0.98927045
vn -0.07607206 0.031226514 -0.9966132
vn -0.15541616 0.03760174 -0.98713326
vn -0.07607206 0.03122651 -0.9966132
vn -0.078293785 0.11919543 -0.98977906
vn -0.8616308 -0.50753576 0.0
vn -0.8616308 -0.50753576 0.0
vn -0.8616307 -0.50753576 0.0
vn -0.8616307 -0.50753576 0.0
vn -0.98974776 -0.14282677 0.0
vn -0.98974776 -0.14282677 0.0
vn -0.98974776 -0.14282675 0.0
vn -0.98974776 -0.14282675 0.0
vn -0.9910608 -0.13341141 0.0
vn -0.9910608 -0.13341141 0.0
vn -0.99450547 -0.10468487 0.0
vn -0.99450547 -0.10468487 0.0
vn -0.99450547 -0.10468487 0.0
vn -0.99450547 -0.10468487 0.0
vn -0.98442763 0.17579064 0.0
vn -0.98442763 0.17579065 0.0
vn -0.98442763 0.17579065 0.0
vn -0.98442763 0.17579064 0.0
vn 0.0 1.0 0.0
vn 0.0 1.0 0.0
vn 0.0 1.0 0.0
vn 0.0 1.0 0.0
vn -0.020963108 -0.99978024 0.0
vn -0.020963104 -0.99978024 0.0
vn -0.020963104 -0.99978024 0.0
vn -0.020963108 -0.99978024 0.0
vn -0.92944366 -0.36896396 0.0
vn -0.92944366 -0.36896396 0.0
vn -0.92944366 -0.36896396 0.0
vn -0.92944366 -0.36896402 0.0
vn -0.82747567 -0.5615017 0.0
vn -0.82747567 -0.5615017 0.0
vn -0.82747567 -0.5615017 0.0
vn 0.6401852 0.7682206 0.0
vn 0.6401853 0.76822054 0.0
vn 0.6401853 0.76822054 0.0
vn 0.64018524 0.7682206 0.0
vn -0.9368408 -0.3497562 0.0
vn -0.9368408 -0.3497562 0.0
vn -0.9368408 -0.34975627 0.0
vn -0.9368408 -0.34975627 0.0
vn -0.94498575 0.32711157 0.0
vn -0.94498575 0.32711157 0.0
vn -0.94498575 0.32711157 0.0
vn -0.94498575 0.32711154 0.0
vn -0.83559215 0.54935044 0.0
vn -0.83559215 0.54935044 0.0
vn -0.83559215 0.54935044 0.0
vn -0.83559215 0.5493504 0.0
vn -0.99360526 -0.112909704 0.0
vn -0.99360526 -0.112909704 0.0
vn -0.99360526 -0.112909704 0.0
vn -0.99360526 -0.112909704 0.0
vn 0.7999997 0.6000004 0.0
vn 0.7999997 0.6000004 0.0
vn 0.7999997 0.6000004 0.0
vn 0.7999997 0.6000004 0.0
vn -0.94055367 -0.339645 0.0
vn -0.94055367 -0.339645 0.0
vn -0.94055367 -0.339645 0.0
vn -0.94055367 -0.33964497 0.0
vn -0.8944273 -0.44721335 0.0
vn -0.8944273 -0.44721335 0.0
vn -0.8944273 -0.44721335 0.0
vn -0.8944273 -0.44721335 0.0
vn 0.70710677 -0.70710677 0.0
vn 0.70710677 -0.70710677 0.0
vn 0.70710677 -0.70710677 0.0
vn 0.70710677 -0.70710677 0.0
vn 0.23162049 -0.97280633 0.0
vn 0.23162045 -0.97280633 0.0
vn 0.23162048 -0.97280633 0.0
vn 0.77867687 -0.62742513 0.0
vn 0.77867687 -0.62742513 0.0
vn 0.7786769 -0.62742513 0.0
vn 0.77867687 -0.62742513 0.0
vn 0.99986434 -0.01646787 -3.7090717E-7
vn 0.45508617 -0.03424676 0.88978857
vn 0.46619385 -0.033794004 0.88403696
vn 0.99986434 -0.016467867 -4.4045225E-7
vn -0.45508578 -0.034246773 0.88978875
vn -0.46619314 -0.033794023 0.8840373
vn -0.99986434 -0.016467866 3.013621E-7
vn -0.99986434 -0.016467866 4.6363405E-7
vn -0.45508617 -0.034247063 -0.88978857
vn -0.46619385 -0.033794302 -0.88403696
vn 0.45508572 -0.034247078 -0.88978875
vn 0.46619314 -0.03379432 -0.8840373
vn 0.58650976 -0.8099421 3.957326E-7
vn 0.29325488 -0.8099416 0.50793326
vn 0.2932549 -0.80994165 0.50793314
vn 0.58650976 -0.8099421 4.3630797E-7
vn -0.293255 -0.80994165 0.507933
vn -0.293255 -0.80994165 0.50793296
vn -0.58650976 -0.8099421 2.0451934E-7
vn -0.5865097 -0.8099421 1.7412238E-7
vn -0.2932546 -0.80994236 -0.5079322
vn -0.2932547 -0.8099423 -0.5079322
vn 0.29325482 -0.80994236 -0.50793207
vn 0.29325485 -0.8099423 -0.50793207
vn 0.80246294 0.5967019 -2.0725446E-7
vn 0.4012313 0.59670234 0.69495296
vn 0.4012314 0.59670234 0.69495296
vn 0.80246294 0.5967019 0.0
vn -0.4012317 0.5967024 0.6949527
vn -0.40123162 0.59670246 0.6949528
vn -0.80246294 0.5967021 -5.258751E-7
vn -0.80246294 0.596702 -3.886021E-7
vn -0.40123126 0.5967018 -0.69495356
vn -0.40123138 0.5967018 -0.6949535
vn 0.40123174 0.59670174 -0.69495326
vn 0.40123156 0.59670174 -0.6949534
vn 0.0 1.0 0.0
vn 0.0 1.0 0.0
vn 0.0 1.0 0.0
vn 0.0 1.0 0.0
vn 0.0 1.0 0.0
vn 0.0 1.0 0.0
vn 0.0 1.0 0.0
vn 0.0 1.0 0.0
vn 0.52935135 0.66300404 -0.5293514
vn 0.0 0.663004 -0.7486159
vn 0.7486159 0.66300404 0.0
vn 0.5293513 0.66300404 0.5293514
vn 0.0 0.6630041 0.74861574
vn -0.52935123 0.6630041 0.52935135
vn -0.7486159 0.66300404 2.0707803E-7
vn -0.52935153 0.66300404 -0.5293512
vn 0.7071068 0.0 -0.70710677
vn 0.0 0.0 -1.0
vn 1.0 0.0 1.09161334E-7
vn 0.70710665 0.0 0.7071069
vn 0.0 0.0 1.0
vn -0.70710665 0.0 0.7071069
vn -1.0 0.0 3.0322587E-7
vn -0.7071069 0.0 -0.7071066
vn 0.52935135 -0.6630041 -0.52935135
vn 0.0 -0.66300404 -0.74861574
vn 0.7486159 -0.66300404 0.0
vn 0.52935135 -0.663004 0.52935135
vn 0.0 -0.66300404 0.7486159
vn -0.5293513 -0.663004 0.5293514
vn -0.7486159 -0.66300404 2.3583888E-7
vn -0.52935153 -0.663004 -0.5293511
vn 0.0 -1.0 0.0
vt 0.38943446 0.09113909
vt 0.2226102 0.03776209
vt 0.15686801 0.10407562
vt 0.2847516 0.03776209
vt 0.109567836 0.19821894
vt 0.13661316 0.03776209
vt 0.071550325 0.0763893
vt 0.13661316 0.03776209
vt 0.2226102 0.03776209
vt 0.38943446 0.09113909
vt 0.2847516 0.03776209
vt 0.5005655 0.19737665
vt 0.5005655 0.24962772
vt 0.07198176 0.3250576
vt 0.5005655 0.24962772
vt 0.5005655 0.30512252
vt 0.5005655 0.39307114
vt 0.027959486 0.4815968
vt 0.5005655 0.49247298
vt 0.084895745 0.61995935
vt 0.5005655 0.61995935
vt 0.19013482 0.7721158
vt 0.5005655 0.7462097
vt 0.40102756 0.89550745
vt 0.5005655 0.89550745
vt 0.57516575 0.33168074
vt 0.57065403 0.408196
vt 0.5817822 0.98474675
vt 0.5005655 0.7462097
vt 0.5005655 0.89550745
vt 0.5005655 0.61995935
vt 0.5005655 0.49247298
vt 0.5005655 0.39307114
vt 0.5005655 0.30512252
vt 0.57516575 0.33168074
vt 0.57065403 0.408196
vt 0.5005655 0.19737665
vt 0.5006239 0.1495478
vt 0.5824712 0.14585455
vt 0.4488939 0.03776209
vt 0.687741 0.099017724
vt 0.687741 0.03776209
vt 0.4488939 0.03776209
vt 0.687741 0.099017724
vt 0.5824712 0.14585455
vt 0.687741 0.03776209
vt 0.5006239 0.1495478
vt 0.5817822 0.7462097
vt 0.5005655 0.89550745
vt 0.5817822 0.89550745
vt 0.5005655 0.7462097
vt 0.5817822 0.49269947
vt 0.5005655 0.61995935
vt 0.5817822 0.61995935
vt 0.5005655 0.49247298
vt 0.5797774 0.42331672
vt 0.5005655 0.39307114
vt 0.57516575 0.36495027
vt 0.57065403 0.408196
vt 0.6253278 0.4154807
vt 0.5005655 0.30512252
vt 0.57516575 0.19737665
vt 0.5005655 0.24962772
vt 0.57516575 0.24962772
vt 0.5005655 0.19737665
vt 0.6311256 0.15713315
vt 0.5006239 0.1495478
vt 0.57516575 0.16917573
vt 0.5824712 0.14585455
vt 0.4514292 0.015671901
vt 0.687741 0.03776209
vt 0.73963964 0.015671901
vt 0.4488939 0.03776209
vt 0.73963964 0.015671901
vt 0.687741 0.099017724
vt 0.73963964 0.09938365
vt 0.687741 0.03776209
vt 0.5005655 0.89550745
vt 0.5817822 0.98474675
vt 0.5817822 0.89550745
vt 0.57065403 0.408196
vt 0.5797774 0.42331672
vt 0.6253278 0.4154807
vt 0.5005655 0.39307114
vt 0.5005655 0.61995935
vt 0.5817822 0.7462097
vt 0.5817822 0.61995935
vt 0.5005655 0.7462097
vt 0.5006239 0.1495478
vt 0.57516575 0.19737665
vt 0.57516575 0.16917573
vt 0.5005655 0.19737665
vt 0.687741 0.099017724
vt 0.6311256 0.15713315
vt 0.73963964 0.09938365
vt 0.5824712 0.14585455
vt 0.57516575 0.24962772
vt 0.57516575 0.33168074
vt 0.57516575 0.33168074
vt 0.5005655 0.24962772
vt 0.57516575 0.33168074
vt 0.5005655 0.30512252
vt 0.57516575 0.36495027
vt 0.57516575 0.33168074
vt 0.29019815 0.015671901
vt 0.38943446 0.09113909
vt 0.38568625 0.015671901
vt 0.2847516 0.03776209
vt 0.071550325 0.015671901
vt 0.2226102 0.03776209
vt 0.21346799 0.015671901
vt 0.13661316 0.03776209
vt 0.2226102 0.03776209
vt 0.29019815 0.015671901
vt 0.21346799 0.015671901
vt 0.2847516 0.03776209
vt 0.071550325 0.0763893
vt 0.13661316 0.03776209
vt 0.071550325 0.015671901
vt 0.38943446 0.09113909
vt 0.4514292 0.015671901
vt 0.38568625 0.015671901
vt 0.4488939 0.03776209
vt 0.92958087 0.685633
vt 0.8836389 0.41853517
vt 0.8836389 0.685633
vt 0.92958087 0.41853517
vt 0.7917531 0.41853517
vt 0.7917531 0.685633
vt 0.7458107 0.41853517
vt 0.7458107 0.685633
vt 0.7917531 0.41853517
vt 0.7917531 0.685633
vt 0.8836389 0.41853517
vt 0.8836389 0.685633
vt 0.92958087 0.41853517
vt 0.9086117 0.38804755
vt 0.8836389 0.41853517
vt 0.9795278 0.38804755
vt 0.76677996 0.38804755
vt 0.7917531 0.41853517
vt 0.69586366 0.38804755
vt 0.7458107 0.41853517
vt 0.76677996 0.38804755
vt 0.7917531 0.41853517
vt 0.9086117 0.38804755
vt 0.8836389 0.41853517
vt 0.9795278 0.38804755
vt 0.8836389 0.3582962
vt 0.9086117 0.38804755
vt 0.92958087 0.3582962
vt 0.7917531 0.3582962
vt 0.76677996 0.38804755
vt 0.7458107 0.3582962
vt 0.69586366 0.38804755
vt 0.7917531 0.3582962
vt 0.76677996 0.38804755
vt 0.8836389 0.3582962
vt 0.9086117 0.38804755
vt 0.92958087 0.3582962
vt 0.8376966 0.32028088
vt 0.8836389 0.3582962
vt 0.7917531 0.3582962
vt 0.7458107 0.3582962
vt 0.7917531 0.3582962
vt 0.8836389 0.3582962
vt 0.95176023 0.96973276
vt 0.8465494 0.9327511
vt 0.95176023 0.9327511
vt 0.7220084 0.9327511
vt 0.8465494 0.9327511
vt 0.95176023 0.9327511
vt 0.8465494 0.9327511
vt 0.7220084 0.9327511
vt 0.8465492 0.9327511
vt 0.8029937 0.84346944
vt 0.95176023 0.84346944
vt 0.6268422 0.84346944
vt 0.8029937 0.84346944
vt 0.95176023 0.84346944
vt 0.8029937 0.84346944
vt 0.6268421 0.84346944
vt 0.8029934 0.84346944
vt 0.8521345 0.7541878
vt 0.95176023 0.7541878
vt 0.7220085 0.7541878
vt 0.8521345 0.7541878
vt 0.95176023 0.7541878
vt 0.8521345 0.7541878
vt 0.7220084 0.7541878
vt 0.85213435 0.7541878
vt 0.95176023 0.7172061

o zhang_he_w_01_d 
s 1
usemtl zhang_he_w_01_d 
f 1/1/1 2/2/2 3/3/3
f 1/1/1 4/4/4 2/2/2
f 1/1/1 3/3/3 5/5/5
f 3/3/3 2/2/2 6/6/6
f 3/3/3 6/6/6 7/7/7
f 3/3/3 7/7/7 8/8/8
f 3/3/3 8/8/8 9/9/9
f 10/10/10 3/3/3 9/9/9
f 10/10/10 5/5/5 3/3/3
f 10/10/10 9/9/9 11/11/11
f 10/10/10 12/12/12 5/5/5
f 12/12/12 13/13/13 5/5/5
f 13/13/13 14/14/14 5/5/5
f 15/15/15 5/5/5 14/14/14
f 15/15/15 14/14/14 16/16/16
f 16/16/16 14/14/14 17/17/17
f 17/17/17 14/14/14 18/18/18
f 17/17/17 18/18/18 19/19/19
f 19/19/19 18/18/18 20/20/20
f 19/19/19 20/20/20 21/21/21
f 21/21/21 20/20/20 22/22/22
f 21/21/21 22/22/22 23/23/23
f 23/23/23 22/22/22 24/24/24
f 23/23/23 24/24/24 25/25/25
f 15/15/15 16/16/16 26/26/26
f 16/16/16 17/17/17 27/27/27
f 25/25/25 24/24/24 28/28/28
f 29/29/29 24/24/24 22/22/22
f 29/29/29 30/30/30 24/24/24
f 30/30/30 28/28/28 24/24/24
f 31/31/31 22/22/22 20/20/20
f 31/31/31 29/29/29 22/22/22
f 32/32/32 20/20/20 18/18/18
f 32/32/32 31/31/31 20/20/20
f 33/33/33 32/32/32 18/18/18
f 33/33/33 18/18/18 14/14/14
f 34/34/34 33/33/33 14/14/14
f 13/13/13 34/34/34 14/14/14
f 13/13/13 35/35/35 34/34/34
f 34/34/34 36/36/36 33/33/33
f 37/37/37 5/5/5 15/15/15
f 1/1/1 5/5/5 37/37/37
f 1/1/1 37/37/37 38/38/38
f 1/1/1 38/38/38 39/39/39
f 1/1/1 39/39/39 40/40/40
f 40/40/40 39/39/39 41/41/41
f 40/40/40 41/41/41 42/42/42
f 43/43/43 44/44/44 45/45/45
f 43/43/43 46/46/46 44/44/44
f 10/10/10 43/43/43 45/45/45
f 10/10/10 45/45/45 47/47/47
f 10/10/10 47/47/47 12/12/12
f 48/48/48 49/49/49 50/50/50
f 48/48/48 51/51/51 49/49/49
f 52/52/52 53/53/53 54/54/54
f 52/52/52 55/55/55 53/53/53
f 56/56/56 55/55/55 52/52/52
f 56/56/56 57/57/57 55/55/55
f 58/58/58 59/59/59 60/60/60
f 58/58/58 61/61/61 59/59/59
f 62/62/62 63/63/63 64/64/64
f 62/62/62 65/65/65 63/63/63
f 66/66/66 67/67/67 68/68/68
f 66/66/66 69/69/69 67/67/67
f 70/70/70 71/71/71 72/72/72
f 70/70/70 73/73/73 71/71/71
f 74/74/74 75/75/75 76/76/76
f 74/74/74 77/77/77 75/75/75
f 78/78/78 79/79/79 80/80/80
f 81/81/81 82/82/82 83/83/83
f 81/81/81 84/84/84 82/82/82
f 85/85/85 86/86/86 87/87/87
f 85/85/85 88/88/88 86/86/86
f 89/89/89 90/90/90 91/91/91
f 89/89/89 92/92/92 90/90/90
f 93/93/93 94/94/94 95/95/95
f 93/93/93 96/96/96 94/94/94
f 97/97/97 98/98/98 99/99/99
f 97/97/97 100/100/100 98/98/98
f 101/101/101 102/102/102 103/103/103
f 101/101/101 104/104/104 102/102/102
f 105/105/105 106/106/106 107/107/107
f 105/105/105 108/108/108 106/106/106
f 109/109/109 110/110/110 111/111/111
f 109/109/109 112/112/112 110/110/110
f 113/113/113 114/114/114 115/115/115
f 113/113/113 116/116/116 114/114/114
f 117/117/117 118/118/118 119/119/119
f 120/120/120 121/121/121 122/122/122
f 120/120/120 123/123/123 121/121/121
f 124/124/124 125/125/125 126/126/126
f 124/124/124 127/127/127 125/125/125
f 126/126/126 125/125/125 128/128/128
f 126/126/126 128/128/128 129/129/129
f 129/129/129 128/128/128 130/130/130
f 129/129/129 130/130/130 131/131/131
f 131/131/131 130/130/130 132/132/132
f 131/131/131 132/132/132 133/133/133
f 133/133/133 132/132/132 134/134/134
f 133/133/133 134/134/134 135/135/135
f 135/135/135 127/127/127 124/124/124
f 135/135/135 134/134/134 127/127/127
f 136/136/136 137/137/137 138/138/138
f 136/136/136 139/139/139 137/137/137
f 138/138/138 137/137/137 140/140/140
f 138/138/138 140/140/140 141/141/141
f 141/141/141 140/140/140 142/142/142
f 141/141/141 142/142/142 143/143/143
f 143/143/143 142/142/142 144/144/144
f 143/143/143 144/144/144 145/145/145
f 145/145/145 144/144/144 146/146/146
f 145/145/145 146/146/146 147/147/147
f 147/147/147 139/139/139 136/136/136
f 147/147/147 146/146/146 139/139/139
f 148/148/148 149/149/149 150/150/150
f 148/148/148 151/151/151 149/149/149
f 150/150/150 149/149/149 152/152/152
f 150/150/150 152/152/152 153/153/153
f 153/153/153 152/152/152 154/154/154
f 153/153/153 154/154/154 155/155/155
f 155/155/155 154/154/154 156/156/156
f 155/155/155 156/156/156 157/157/157
f 157/157/157 156/156/156 158/158/158
f 157/157/157 158/158/158 159/159/159
f 159/159/159 151/151/151 148/148/148
f 159/159/159 158/158/158 151/151/151
f 160/160/160 161/161/161 162/162/162
f 162/162/162 161/161/161 163/163/163
f 163/163/163 161/161/161 164/164/164
f 164/164/164 161/161/161 165/165/165
f 165/165/165 161/161/161 166/166/166
f 166/166/166 161/161/161 160/160/160
f 167/167/167 168/168/168 169/169/169
f 167/167/167 170/170/170 168/168/168
f 167/167/167 171/171/171 170/170/170
f 167/167/167 172/172/172 171/171/171
f 167/167/167 173/173/173 172/172/172
f 167/167/167 174/174/174 173/173/173
f 167/167/167 175/175/175 174/174/174
f 167/167/167 169/169/169 175/175/175
f 169/169/169 168/168/168 176/176/176
f 169/169/169 176/176/176 177/177/177
f 175/175/175 169/169/169 177/177/177
f 168/168/168 178/178/178 176/176/176
f 168/168/168 170/170/170 178/178/178
f 170/170/170 179/179/179 178/178/178
f 170/170/170 171/171/171 179/179/179
f 171/171/171 180/180/180 179/179/179
f 171/171/171 172/172/172 180/180/180
f 172/172/172 181/181/181 180/180/180
f 172/172/172 173/173/173 181/181/181
f 173/173/173 182/182/182 181/181/181
f 173/173/173 174/174/174 182/182/182
f 174/174/174 183/183/183 182/182/182
f 174/174/174 175/175/175 183/183/183
f 175/175/175 177/177/177 183/183/183
f 177/177/177 176/176/176 184/184/184
f 177/177/177 184/184/184 185/185/185
f 183/183/183 177/177/177 185/185/185
f 176/176/176 186/186/186 184/184/184
f 176/176/176 178/178/178 186/186/186
f 178/178/178 187/187/187 186/186/186
f 178/178/178 179/179/179 187/187/187
f 179/179/179 188/188/188 187/187/187
f 179/179/179 180/180/180 188/188/188
f 180/180/180 189/189/189 188/188/188
f 180/180/180 181/181/181 189/189/189
f 181/181/181 190/190/190 189/189/189
f 181/181/181 182/182/182 190/190/190
f 182/182/182 191/191/191 190/190/190
f 182/182/182 183/183/183 191/191/191
f 183/183/183 185/185/185 191/191/191
f 192/192/192 185/185/185 184/184/184
f 192/192/192 184/184/184 186/186/186
f 192/192/192 186/186/186 187/187/187
f 192/192/192 187/187/187 188/188/188
f 192/192/192 188/188/188 189/189/189
f 192/192/192 189/189/189 190/190/190
f 192/192/192 190/190/190 191/191/191
f 192/192/192 191/191/191 185/185/185

