# Created by DisUnity v0.3.1
v -0.05006876 0.3103613 0.0069668866
v 0.05609476 0.2312027 0.03599057
v 0.03418865 0.311769 -0.022599949
v -0.028162645 0.22979498 0.06555741
v -0.0019776959 0.3452134 -0.12407182
v -0.08623511 0.3438057 -0.09450499
v -0.07802722 0.1752205 -0.03641212
v 0.032924056 0.17707424 -0.07534611
v -0.106293984 0.25144467 -0.15606481
v -0.02203657 0.2528524 -0.18563163
v -0.020572156 0.15086588 -0.18631427
v -0.104829565 0.14945814 -0.15674743
v 0.03418865 0.311769 -0.022599949
v 0.05609476 0.2312027 0.03599057
v 0.032924056 0.17707424 -0.07534611
v -0.0019776959 0.3452134 -0.12407182
v -0.02203657 0.2528524 -0.18563163
v -0.020572156 0.15086588 -0.18631427
v -0.05006876 0.3103613 0.0069668866
v -0.08623511 0.3438057 -0.09450499
v -0.07802722 0.1752205 -0.03641212
v -0.106293984 0.25144467 -0.15606481
v -0.028162645 0.22979498 0.06555741
v -0.104829565 0.14945814 -0.15674743
v -0.03678199 0.21679415 -0.012892393
v 0.06655809 -0.19133562 0.09895891
v 0.014197718 0.21764588 -0.03078172
v 0.015578382 -0.19218737 0.11684824
v -0.06612399 0.18604769 -0.097972706
v 0.03721618 -0.22208208 0.013878555
v -0.013763527 -0.22293383 0.031767886
v -0.015144191 0.18689942 -0.115862064
v 0.06655809 -0.19133562 0.09895891
v 0.014197718 0.21764588 -0.03078172
v -0.013763527 -0.22293383 0.031767886
v -0.03678199 0.21679415 -0.012892393
v -0.06612399 0.18604769 -0.097972706
v 0.015578382 -0.19218737 0.11684824
v 0.0138797015 -0.18604149 0.18305056
v 0.0548676 -0.13687554 0.030541748
v -0.019661091 -0.13812074 0.056694668
v 0.10905886 -0.18445127 0.14965118
v 0.10142357 -0.23710963 0.15102114
v 0.022259494 -0.23843229 0.17880066
v 0.042485513 -0.2542114 -0.043386128
v -0.019661091 -0.13812074 0.056694668
v 0.0548676 -0.13687554 0.030541748
v -0.052693732 -0.2558016 -0.009986711
v -0.033113282 -0.29645565 0.018240709
v 0.046050794 -0.29513302 -0.009538822
v 0.022259494 -0.23843229 0.17880066
v 0.10142357 -0.23710963 0.15102114
v 0.0548676 -0.13687554 0.030541748
v 0.10905886 -0.18445127 0.14965118
v 0.042485513 -0.2542114 -0.043386128
v 0.046050794 -0.29513302 -0.009538822
v 0.10142357 -0.23710963 0.15102114
v -0.019661091 -0.13812074 0.056694668
v -0.052693732 -0.2558016 -0.009986711
v 0.0138797015 -0.18604149 0.18305056
v 0.022259494 -0.23843229 0.17880066
v -0.033113282 -0.29645565 0.018240709
v -0.006532962 0.22061126 -0.077181794
v -0.055767853 0.6475352 -0.12809211
v -0.0042866943 0.24521168 -5.4039474E-4
v -0.0580393 0.6229213 -0.20480601
v -0.049681652 0.21989034 -0.062040452
v -0.101188086 0.62220037 -0.18966465
v -0.051926084 0.19529188 -0.13867645
v -0.103455685 0.59756464 -0.26636866
v -0.14101303 0.9704812 -0.30179232
v -0.106743366 0.9890146 -0.25710002
v -0.14701733 1.1490431 -0.36425048
v -0.107372284 0.9710433 -0.3135972
v -0.14163375 0.95245403 -0.3582688
vn -0.43958217 0.6410411 0.62915325
vn 0.7795445 -0.17192264 0.60228986
vn 0.71697545 0.66036433 0.22330475
vn -0.22688814 -0.18873765 0.9554579
vn 0.44086212 0.7847625 -0.43564704
vn -0.63949645 0.7667123 -0.05653766
vn -0.60016143 -0.66349 0.44675195
vn 0.7671252 -0.6406459 -0.033043653
vn -0.83107156 0.23081759 -0.5060071
vn 0.3254921 0.25014108 -0.91185766
vn 0.33296797 -0.63986444 -0.692608
vn -0.6734628 -0.65667963 -0.3394404
vn 0.71697545 0.66036433 0.22330475
vn 0.7795445 -0.17192264 0.60228986
vn 0.7671252 -0.6406459 -0.033043653
vn 0.44086212 0.7847625 -0.43564704
vn 0.3254921 0.25014108 -0.91185766
vn 0.33296797 -0.63986444 -0.692608
vn -0.43958217 0.6410411 0.62915325
vn -0.63949645 0.7667123 -0.05653766
vn -0.60016143 -0.66349 0.44675195
vn -0.83107156 0.23081759 -0.5060071
vn -0.22688814 -0.18873765 0.9554579
vn -0.6734628 -0.65667963 -0.3394404
vn -0.44897825 0.21745414 0.86667883
vn 0.88529366 0.23974636 0.39846814
vn 0.88529354 0.23974635 0.39846832
vn -0.44897863 0.21745418 0.8666786
vn -0.88529384 -0.23974638 -0.39846772
vn 0.44897845 -0.2174542 -0.8666788
vn -0.88529366 -0.23974636 -0.3984682
vn 0.44897884 -0.21745415 -0.8666786
vn 0.88529366 0.23974636 0.39846814
vn 0.88529354 0.23974635 0.39846832
vn -0.88529366 -0.23974636 -0.3984682
vn -0.44897825 0.21745414 0.86667883
vn -0.88529384 -0.23974638 -0.39846772
vn -0.44897863 0.21745418 0.8666786
vn -0.3826389 0.40807438 0.82889247
vn 0.40150553 0.8083229 -0.43058947
vn -0.6063285 0.7914844 -0.07692947
vn 0.80425435 0.4279043 0.41239876
vn 0.73371613 -0.5118664 0.44682598
vn -0.27813908 -0.52877206 0.8018969
vn 0.33815053 -0.060500663 -0.93914527
vn -0.6063285 0.7914844 -0.07692947
vn 0.40150553 0.8083229 -0.43058947
vn -0.84875625 -0.080331355 -0.52264667
vn -0.5623634 -0.82659066 -0.022257362
vn 0.4494843 -0.80968463 -0.3773258
vn -0.27813908 -0.52877206 0.8018969
vn 0.73371613 -0.5118664 0.44682598
vn 0.40150553 0.8083229 -0.43058947
vn 0.80425435 0.4279043 0.41239876
vn 0.33815053 -0.060500663 -0.93914527
vn 0.4494843 -0.80968463 -0.3773258
vn 0.73371613 -0.5118664 0.44682598
vn -0.6063285 0.7914844 -0.07692947
vn -0.84875625 -0.080331355 -0.52264667
vn -0.3826389 0.40807438 0.82889247
vn -0.27813908 -0.52877206 0.8018969
vn -0.5623634 -0.82659066 -0.022257362
vn 0.94347566 0.015714407 -0.3310693
vn 0.3056117 0.34527558 0.8873479
vn 0.30854285 0.3231183 0.8946485
vn 0.94262093 0.022230709 -0.33312407
vn -0.94347817 -0.015794303 0.33105797
vn -0.94428194 -0.009309146 0.32900614
vn -0.30852428 -0.32338983 -0.8945567
vn -0.3112663 -0.30116826 -0.9013384
vn -0.9487333 0.03662614 0.31394824
vn 0.28483403 0.47223824 0.8341826
vn -0.12113556 0.946167 -0.30015707
vn 0.93531996 0.06810405 -0.3471863
vn -0.32406446 -0.16581334 -0.93139046
vt 0.348681 0.32594
vt 0.269139 0.188626
vt 0.26914 0.325942
vt 0.34868 0.188624
vt 0.269141 0.481156
vt 0.348682 0.481155
vt 0.348679 0.0203371
vt 0.269138 0.0203371
vt 0.348681 0.325937
vt 0.26914 0.32594
vt 0.269139 0.188624
vt 0.34868 0.18862
vt 0.0772621 0.863742
vt 0.0197713 0.980298
vt 0.237211 0.980298
vt 0.237211 0.787376
vt 0.0780674 0.863742
vt 0.0198799 0.980298
vt 0.0772621 0.863742
vt 0.237211 0.787376
vt 0.237211 0.980298
vt 0.0780677 0.863742
vt 0.0197713 0.980298
vt 0.01988 0.980298
vt 0.0199399 0.0203383
vt 0.0945199 0.574196
vt 0.0945199 0.0203383
vt 0.0199399 0.574196
vt 0.0199399 0.0203383
vt 0.0945199 0.574196
vt 0.0199399 0.574196
vt 0.0945199 0.0203383
vt 0.234977 0.574196
vt 0.234977 0.0203383
vt 0.0945199 0.574196
vt 0.234977 0.0203383
vt 0.0945199 0.0203383
vt 0.234977 0.574196
vt 0.268627 0.808803
vt 0.348169 0.980381
vt 0.268628 0.980381
vt 0.348168 0.808803
vt 0.348167 0.745054
vt 0.268626 0.745055
vt 0.268627 0.808803
vt 0.348169 0.980381
vt 0.268628 0.980381
vt 0.348168 0.808803
vt 0.348167 0.745054
vt 0.268626 0.745055
vt 0.348166 0.519887
vt 0.268625 0.519887
vt 0.225359 0.714782
vt 0.0944471 0.826185
vt 0.0944484 0.603378
vt 0.0199132 0.622123
vt 0.019913 0.80744
vt 0.225359 0.714782
vt 0.0944484 0.603378
vt 0.0944471 0.826185
vt 0.019913 0.80744
vt 0.0199132 0.622123
vt 0.856299 0.980391
vt 0.972944 0.558508
vt 0.972825 0.980391
vt 0.856299 0.558251
vt 0.856299 0.980391
vt 0.856299 0.558251
vt 0.738671 0.980391
vt 0.738552 0.558263
vt 0.856299 0.201029
vt 0.942449 0.201058
vt 0.8563 0.0202811
vt 0.856299 0.201029
vt 0.77015 0.201058

o zhou_yu_5_w_0
s 1
usemtl zhou_yu_5_w_0
f 1/1/1 2/2/2 3/3/3
f 2/2/2 1/1/1 4/4/4
f 5/5/5 1/1/1 3/3/3
f 1/1/1 5/5/5 6/6/6
f 7/7/7 2/2/2 4/4/4
f 2/2/2 7/7/7 8/8/8
f 5/5/5 9/9/9 6/6/6
f 9/9/9 5/5/5 10/10/10
f 11/11/11 9/9/9 10/10/10
f 7/7/7 11/11/11 8/8/8
f 9/9/9 11/11/11 12/12/12
f 11/11/11 7/7/7 12/12/12
f 13/13/13 14/14/14 15/15/15
f 13/13/13 15/15/15 16/16/16
f 16/16/16 15/15/15 17/17/17
f 17/17/17 15/15/15 18/18/18
f 19/19/19 20/20/20 21/21/21
f 21/21/21 20/20/20 22/22/22
f 19/19/19 21/21/21 23/23/23
f 21/21/21 22/22/22 24/24/24
f 25/25/25 26/26/26 27/27/27
f 26/26/26 25/25/25 28/28/28
f 29/29/29 30/30/30 31/31/31
f 30/30/30 29/29/29 32/32/32
f 32/32/32 33/33/33 30/30/30
f 33/33/33 32/32/32 34/34/34
f 35/35/35 36/36/36 37/37/37
f 36/36/36 35/35/35 38/38/38
f 39/39/39 40/40/40 41/41/41
f 40/40/40 39/39/39 42/42/42
f 39/39/39 43/43/43 42/42/42
f 43/43/43 39/39/39 44/44/44
f 45/45/45 46/46/46 47/47/47
f 46/46/46 45/45/45 48/48/48
f 45/45/45 49/49/49 48/48/48
f 49/49/49 45/45/45 50/50/50
f 50/50/50 51/51/51 49/49/49
f 51/51/51 50/50/50 52/52/52
f 53/53/53 54/54/54 55/55/55
f 54/54/54 56/56/56 55/55/55
f 56/56/56 54/54/54 57/57/57
f 58/58/58 59/59/59 60/60/60
f 59/59/59 61/61/61 60/60/60
f 61/61/61 59/59/59 62/62/62
f 63/63/63 64/64/64 65/65/65
f 64/64/64 63/63/63 66/66/66
f 64/64/64 67/67/67 65/65/65
f 67/67/67 64/64/64 68/68/68
f 68/68/68 69/69/69 67/67/67
f 69/69/69 68/68/68 70/70/70
f 63/63/63 70/70/70 66/66/66
f 70/70/70 63/63/63 69/69/69
f 64/64/64 71/71/71 68/68/68
f 71/71/71 70/70/70 68/68/68
f 71/71/71 64/64/64 72/72/72
f 71/71/71 72/72/72 73/73/73
f 74/74/74 73/73/73 72/72/72
f 64/64/64 74/74/74 72/72/72
f 74/74/74 64/64/64 66/66/66
f 70/70/70 74/74/74 66/66/66
f 73/73/73 74/74/74 75/75/75
f 71/71/71 73/73/73 75/75/75
f 74/74/74 70/70/70 75/75/75
f 70/70/70 71/71/71 75/75/75

