# Created by DisUnity v0.3.1
v -0.03911628 0.49699757 0.08400185
v 0.037842277 -0.49626386 0.088785715
v 0.023784732 0.497889 0.08446181
v -0.025058826 -0.49715528 0.08832572
v -0.037842307 0.49626398 -0.088785864
v 0.03911626 -0.49699742 -0.084002
v -0.02378485 -0.49788883 -0.084462
v 0.02505872 0.4971555 -0.08832592
v 0.037842277 -0.49626386 0.088785715
v 0.023784732 0.497889 0.08446181
v -0.037842307 0.49626398 -0.088785864
v 0.023784732 0.497889 0.08446181
v 0.02505872 0.4971555 -0.08832592
v -0.03911628 0.49699757 0.08400185
v -0.02378485 -0.49788883 -0.084462
v -0.03911628 0.49699757 0.08400185
v -0.037842307 0.49626398 -0.088785864
v -0.025058826 -0.49715528 0.08832572
v -0.037409484 0.46084493 0.08094876
v 0.036681738 -0.4954095 0.08555441
v -0.023875792 -0.49626774 0.085111566
v 0.023147937 0.4617033 0.08139161
v -0.036182955 0.46013877 -0.08540123
v 0.03790825 -0.4961157 -0.08079556
v 0.024374459 0.46099696 -0.08495838
v -0.022649279 -0.4969739 -0.08123842
v 0.036681738 -0.4954095 0.08555441
v 0.023147937 0.4617033 0.08139161
v -0.036182955 0.46013877 -0.08540123
v 0.023147937 0.4617033 0.08139161
v -0.037409484 0.46084493 0.08094876
v 0.024374459 0.46099696 -0.08495838
v -0.022649279 -0.4969739 -0.08123842
v -0.037409484 0.46084493 0.08094876
v -0.023875792 -0.49626774 0.085111566
v -0.036182955 0.46013877 -0.08540123
vn -0.58969647 0.57155675 0.57059705
vn 0.70180357 0.013021484 0.7122515
vn 0.56485707 0.5879194 0.5790399
vn -0.7122304 -0.007018187 0.70191073
vn -0.58118343 0.56665486 -0.58406174
vn 0.7122303 0.007018278 -0.7019108
vn -0.7018034 -0.013021355 -0.7122517
vn 0.57337034 0.58301747 -0.57561886
vn 0.70180357 0.013021484 0.7122515
vn 0.56485707 0.5879194 0.5790399
vn -0.58118343 0.56665486 -0.58406174
vn 0.56485707 0.5879194 0.5790399
vn 0.57337034 0.58301747 -0.57561886
vn -0.58969647 0.57155675 0.57059705
vn -0.7018034 -0.013021355 -0.7122517
vn -0.58969647 0.57155675 0.57059705
vn -0.58118343 0.56665486 -0.58406174
vn -0.7122304 -0.007018187 0.70191073
vn 0.5896972 -0.5715561 -0.570597
vn -0.7018037 -0.013021472 -0.71225137
vn 0.7122303 0.007018193 -0.7019108
vn -0.56485665 -0.58791983 -0.5790399
vn 0.581183 -0.56665504 0.5840619
vn -0.7122304 -0.007018272 0.70191073
vn -0.5733709 -0.583017 0.5756189
vn 0.7018035 0.013021392 0.71225154
vn -0.7018037 -0.013021472 -0.71225137
vn -0.56485665 -0.58791983 -0.5790399
vn 0.581183 -0.56665504 0.5840619
vn -0.56485665 -0.58791983 -0.5790399
vn 0.5896972 -0.5715561 -0.570597
vn -0.5733709 -0.583017 0.5756189
vn 0.7018035 0.013021392 0.71225154
vn 0.5896972 -0.5715561 -0.570597
vn 0.7122303 0.007018193 -0.7019108
vn 0.581183 -0.56665504 0.5840619
vt 0.380497 0.0794879
vt 0.467379 0.980391
vt 0.467379 0.0794879
vt 0.380497 0.980391
vt 0.381588 0.0794879
vt 0.467379 0.980391
vt 0.381588 0.980391
vt 0.467379 0.0794879
vt 0.704873 0.980391
vt 0.704873 0.0794879
vt 0.704873 0.0794879
vt 0.467379 0.0202811
vt 0.704873 0.0202811
vt 0.467379 0.0794879
vt 0.467379 0.980391
vt 0.704873 0.0794879
vt 0.467379 0.0794879
vt 0.704873 0.980391
vt 0.380497 0.0794879
vt 0.467379 0.980391
vt 0.380497 0.980391
vt 0.467379 0.0794879
vt 0.381588 0.0794879
vt 0.467379 0.980391
vt 0.467379 0.0794879
vt 0.381588 0.980391
vt 0.704873 0.980391
vt 0.704873 0.0794879
vt 0.704873 0.0794879
vt 0.467379 0.0202811
vt 0.467379 0.0794879
vt 0.704873 0.0202811
vt 0.467379 0.980391
vt 0.704873 0.0794879
vt 0.704873 0.980391
vt 0.467379 0.0794879

o zhou_yu_5_w_1
s 1
usemtl zhou_yu_5_w_1
f 1/1/1 2/2/2 3/3/3
f 2/2/2 1/1/1 4/4/4
f 5/5/5 6/6/6 7/7/7
f 6/6/6 5/5/5 8/8/8
f 8/8/8 9/9/9 6/6/6
f 9/9/9 8/8/8 10/10/10
f 11/11/11 12/12/12 13/13/13
f 12/12/12 11/11/11 14/14/14
f 15/15/15 16/16/16 17/17/17
f 16/16/16 15/15/15 18/18/18
f 19/19/19 20/20/20 21/21/21
f 20/20/20 19/19/19 22/22/22
f 23/23/23 24/24/24 25/25/25
f 24/24/24 23/23/23 26/26/26
f 27/27/27 25/25/25 24/24/24
f 25/25/25 27/27/27 28/28/28
f 29/29/29 30/30/30 31/31/31
f 30/30/30 29/29/29 32/32/32
f 33/33/33 34/34/34 35/35/35
f 34/34/34 33/33/33 36/36/36

