# Created by DisUnity v0.3.1
v -0.20212322 -1.3089721 0.1973741
v -0.22096361 -1.2820927 0.30300283
v -0.21073528 -1.3960917 0.2039945
v -0.27585235 -1.3658781 0.29337722
v -0.16704549 -1.0501363 0.1649282
v -0.17850208 -1.0322945 0.2435375
v -0.12940581 -0.831108 0.1267613
v -0.14005382 -0.8143553 0.19267647
v -0.06904927 -0.5682182 0.060517464
v -0.07868324 -0.5505349 0.14189564
v -0.043976936 -0.4300759 0.1235727
v -0.015999315 -0.4308343 -0.0030544456
v -0.0139200175 -0.39527428 -0.0038237532
v -0.19927865 -0.7963674 0.22280444
v -0.24890512 -1.0094359 0.27744773
v -0.34017563 -1.3317342 0.38191572
v -0.3152378 -1.2527319 0.3528548
v -0.15212327 -0.52691394 0.17470615
v -0.14506319 -0.366664 0.17434925
v -0.13371031 -0.3357148 0.16083303
v -0.12901087 -0.42647025 0.06040501
v -0.14313653 -0.547802 0.09401634
v -0.18846554 -0.81230253 0.1567137
v -0.12940581 -0.831108 0.1267613
v -0.2379526 -1.0297736 0.19937451
v -0.16704549 -1.0501363 0.1649282
v -0.29625377 -1.2789003 0.24707334
v -0.20212322 -1.3089721 0.1973741
v -0.21073528 -1.3960917 0.2039945
v -0.27585235 -1.3658781 0.29337722
v -0.19927865 -0.7963674 0.22280444
v -0.24890512 -1.0094359 0.27744773
v -0.34017563 -1.3317342 0.38191572
v -0.3152378 -1.2527319 0.3528548
v 0.0039746296 -0.20792873 -0.017219111
v -0.004012655 -0.21559486 0.07506548
v -0.002683399 -0.27307987 -0.011975167
v -0.0050953566 -0.14357157 -0.0013359231
v 0.0020669044 -0.13507375 0.050362427
v 0.006203255 -0.11510854 0.0461499
v -0.0017266236 -0.12469814 -0.004793482
v -0.0037714096 -0.117081314 -0.0016061007
v -0.010715214 -0.29462534 0.09877608
v 0.010095905 -0.33335635 -0.03261878
v -0.016248276 -0.35212913 0.115550905
v -0.010768733 -0.38136294 -0.0072718295
v -0.017819747 -0.37704366 0.0024665277
v 5.6313537E-4 -0.11003683 0.040212087
v 0.04874463 0.11246225 -0.0052172844
v 0.040248137 0.10494808 -0.04819004
v 0.06483672 0.13188064 -0.07975294
v 0.056759488 0.1480119 -0.012245331
v 0.062324937 0.21752577 -0.071483016
v 0.060433228 0.22520791 -0.037495896
v 0.04628963 0.22920227 -0.049230404
v -0.0398929 -0.099121794 0.048044395
v 0.028894812 0.23414716 -0.02553191
v -0.004595587 0.16640224 0.015684687
v 0.00561963 0.12216529 -5.9170363E-4
v -0.04436034 -0.103500746 0.053808354
v -0.048534114 -0.12197391 0.05837248
v -0.07957185 -0.16638961 0.09761902
v -0.09804338 -0.22566709 0.11910112
v -0.13061559 -0.2633949 0.16079508
v -0.13118017 -0.32149464 0.15823874
v -0.123830535 -0.3243353 0.1481828
v -0.043976936 -0.4300759 0.1235727
v -0.0139200175 -0.39527428 -0.0038237532
v -0.13371031 -0.3357148 0.16083303
v -0.082399026 -0.21227111 0.016835937
v -0.0521977 -0.112632215 0.0027665838
v -0.056127455 -0.13260618 0.0071325866
v -0.107461184 -0.2905231 0.026908066
v -0.12505177 -0.34751564 0.034725927
v -0.04462219 -0.10812088 0.00664604
v -0.0028768608 0.11465112 -0.043564454
v 0.0034816535 0.150271 -0.051822916
v 0.03078652 0.22646502 -0.059519034
v -0.12901087 -0.42647025 0.06040501
vn 0.9765969 -0.09695213 0.19198672
vn 0.7766289 -0.13754055 0.61476034
vn 0.8608935 -0.2873924 0.41984296
vn 0.61938256 -0.47736993 0.62328416
vn 0.97501355 -0.12347251 0.18467015
vn 0.80873525 5.374037E-4 0.5881726
vn 0.9710697 -0.15849572 0.17861335
vn 0.80207133 -0.0350536 0.5961986
vn 0.53084296 -0.41599503 -0.7383454
vn 0.7879205 -0.09657384 0.60815686
vn 0.7829676 -0.1152208 0.61129844
vn 0.5684145 -0.26143467 -0.7801006
vn 0.56890815 -0.25881028 -0.7806156
vn 0.45817724 0.09651336 0.8836056
vn 0.47601846 0.12462677 0.8705599
vn 0.5888175 -0.15211646 0.7938227
vn 0.49141267 0.14428067 0.85889274
vn -0.58665866 0.13962425 0.7977071
vn -0.56064034 0.29992875 0.77183235
vn -0.5600805 0.30252054 0.77122706
vn -0.81581634 -0.047428824 -0.5763629
vn -0.8132172 -0.02868205 -0.5812531
vn -0.80248946 0.03298334 -0.5957538
vn -0.4584534 -0.09788076 -0.88331187
vn -0.7947864 0.06853028 -0.6030077
vn -0.46346688 -0.062477738 -0.8839089
vn -0.81852406 -0.06990247 -0.57020336
vn -0.46947083 -0.035635475 -0.8822286
vn -0.6645178 -0.22271124 -0.71331316
vn -0.8000466 -0.41718283 -0.4311426
vn -0.97134584 0.15712827 -0.17831951
vn -0.962462 0.18562156 -0.1980191
vn -0.93659383 -0.087435775 -0.3393332
vn -0.95465493 0.20559685 -0.2153226
vn 0.5958081 -0.016002055 -0.8029674
vn 0.82375956 0.13359123 0.55097514
vn 0.59477514 0.13063385 -0.79320705
vn 0.5915884 -0.08815935 -0.8014057
vn 0.8222086 0.10954166 0.5585459
vn 0.81103474 0.36303735 0.45872277
vn 0.596945 0.043315787 -0.801112
vn 0.5909735 0.18614432 -0.7849208
vn 0.8170799 0.057458706 0.573654
vn 0.59584516 -0.014985774 -0.8029595
vn 0.78689533 -0.10053161 0.6088425
vn 0.3492273 -0.7829517 -0.51480764
vn 0.012456181 -0.99720347 -0.073688544
vn 0.7543362 0.5571172 0.34727135
vn 0.76029986 -0.18896134 0.6214802
vn 0.5114821 -0.47558573 -0.7156844
vn 0.56118375 -0.29739052 -0.7724194
vn 0.79214686 -0.07965248 0.6051106
vn 0.54906553 0.43382618 -0.7143682
vn 0.74771017 0.5721459 0.33701426
vn 0.19371624 0.95918113 -0.20602275
vn -0.41479352 0.6862095 0.59754735
vn -0.2896189 0.85081846 0.43843895
vn -0.5679272 0.26400104 0.7795911
vn -0.59270483 0.073413596 0.8020669
vn -0.47210157 0.57484365 0.6683375
vn -0.5159821 0.46252233 0.7209963
vn -0.49294567 0.525324 0.69356996
vn -0.43827695 0.6442649 0.6267664
vn -0.49260303 0.5261884 0.69315815
vn -0.5728839 -0.3244801 0.75267303
vn -0.37621728 -0.8039562 0.46055943
vn 0.7829676 -0.1152208 0.61129844
vn 0.56890815 -0.25881028 -0.7806156
vn -0.5600805 0.30252054 0.77122706
vn -0.756269 0.20058788 -0.6227534
vn -0.65186924 0.42506787 -0.62799984
vn -0.76437587 0.17681651 -0.6200528
vn -0.78019285 0.12518662 -0.61288446
vn -0.8137945 -0.032659024 -0.5802345
vn -0.51840645 0.6110845 -0.5981895
vn -0.8230656 -0.12182301 -0.554727
vn -0.81059486 -0.011692614 -0.5854905
vn -0.505874 0.6253008 -0.5942142
vn -0.81581634 -0.047428824 -0.5763629
vt 0.4734277 0.8943837
vt 0.25452092 0.8940622
vt 0.4734277 0.9701007
vt 0.25452092 0.9701007
vt 0.4734277 0.6673068
vt 0.25452092 0.6684354
vt 0.4734277 0.47190133
vt 0.25452092 0.4715315
vt 0.4734277 0.24202672
vt 0.25452092 0.24391575
vt 0.25452092 0.101396576
vt 0.4734277 0.07979922
vt 0.4734277 0.02738925
vt 0.035614133 0.47190133
vt 0.035614133 0.6673068
vt 0.035614133 0.9701007
vt 0.035614133 0.8943837
vt 0.035614133 0.24202672
vt 0.035614133 0.07979922
vt 0.035614133 0.02738925
vt 0.25452092 0.101396576
vt 0.25452092 0.24391575
vt 0.25452092 0.4715315
vt 0.4734277 0.47190133
vt 0.25452092 0.6684354
vt 0.4734277 0.6673068
vt 0.25452092 0.8940622
vt 0.4734277 0.8943837
vt 0.4734277 0.9701007
vt 0.25452092 0.9701007
vt 0.035614133 0.47190133
vt 0.035614133 0.6673068
vt 0.035614133 0.9701007
vt 0.035614133 0.8943837
vt 0.808161 0.6226229
vt 0.58160335 0.66076887
vt 0.84019625 0.711692
vt 0.69939876 0.54589605
vt 0.58160335 0.54589605
vt 0.58160335 0.5180105
vt 0.6972155 0.5185311
vt 0.679556 0.5049042
vt 0.58160335 0.77281266
vt 0.9631787 0.7810784
vt 0.58160335 0.8543771
vt 0.9081298 0.8566657
vt 0.869079 0.86449856
vt 0.58160335 0.50712425
vt 0.5816037 0.19417846
vt 0.6755075 0.19417846
vt 0.7558634 0.14347911
vt 0.5816037 0.14347911
vt 0.67849463 0.045730695
vt 0.5816037 0.045730695
vt 0.5816037 0.028017722
vt 0.679556 0.5049042
vt 0.67849463 0.045730695
vt 0.7558634 0.14347911
vt 0.6755075 0.19417846
vt 0.6972155 0.5185311
vt 0.69939876 0.54589605
vt 0.808161 0.6226229
vt 0.84019625 0.711692
vt 0.9631787 0.7810784
vt 0.9081298 0.8566657
vt 0.869079 0.86449856
vt 0.58160335 0.9661494
vt 0.90644556 0.87670577
vt 0.90644556 0.87670577
vt 0.58160335 0.66076887
vt 0.58160335 0.5180105
vt 0.58160335 0.54589605
vt 0.58160335 0.77281266
vt 0.58160335 0.8543771
vt 0.58160335 0.50712425
vt 0.5816037 0.19417846
vt 0.5816037 0.14347911
vt 0.5816037 0.045730695
vt 0.58160335 0.9661494

o zhu_jue_04_w_0
s 1
usemtl zhu_jue_04_w_0
f 1/1/1 2/2/2 3/3/3
f 3/3/3 2/2/2 4/4/4
f 5/5/5 2/2/2 1/1/1
f 5/5/5 6/6/6 2/2/2
f 7/7/7 6/6/6 5/5/5
f 7/7/7 8/8/8 6/6/6
f 8/8/8 7/7/7 9/9/9
f 8/8/8 9/9/9 10/10/10
f 10/10/10 9/9/9 11/11/11
f 12/12/12 11/11/11 9/9/9
f 13/13/13 11/11/11 12/12/12
f 14/14/14 6/6/6 8/8/8
f 14/14/14 15/15/15 6/6/6
f 15/15/15 2/2/2 6/6/6
f 16/16/16 4/4/4 2/2/2
f 17/17/17 16/16/16 2/2/2
f 15/15/15 17/17/17 2/2/2
f 8/8/8 18/18/18 14/14/14
f 8/8/8 10/10/10 18/18/18
f 10/10/10 11/11/11 18/18/18
f 19/19/19 18/18/18 11/11/11
f 20/20/20 19/19/19 11/11/11
f 12/12/12 9/9/9 21/21/21
f 13/13/13 12/12/12 21/21/21
f 19/19/19 21/21/21 18/18/18
f 20/20/20 21/21/21 19/19/19
f 22/22/22 21/21/21 9/9/9
f 22/22/22 18/18/18 21/21/21
f 23/23/23 22/22/22 9/9/9
f 23/23/23 18/18/18 22/22/22
f 23/23/23 9/9/9 24/24/24
f 24/24/24 25/25/25 23/23/23
f 24/24/24 26/26/26 25/25/25
f 26/26/26 27/27/27 25/25/25
f 26/26/26 28/28/28 27/27/27
f 28/28/28 29/29/29 27/27/27
f 29/29/29 30/30/30 27/27/27
f 31/31/31 23/23/23 25/25/25
f 23/23/23 31/31/31 18/18/18
f 31/31/31 25/25/25 32/32/32
f 32/32/32 25/25/25 27/27/27
f 33/33/33 27/27/27 30/30/30
f 34/34/34 27/27/27 33/33/33
f 32/32/32 27/27/27 34/34/34
f 35/35/35 36/36/36 37/37/37
f 36/36/36 35/35/35 38/38/38
f 36/36/36 38/38/38 39/39/39
f 38/38/38 40/40/40 39/39/39
f 38/38/38 41/41/41 40/40/40
f 41/41/41 42/42/42 40/40/40
f 43/43/43 37/37/37 36/36/36
f 44/44/44 37/37/37 43/43/43
f 44/44/44 43/43/43 45/45/45
f 44/44/44 45/45/45 46/46/46
f 46/46/46 45/45/45 47/47/47
f 42/42/42 48/48/48 40/40/40
f 42/42/42 49/49/49 48/48/48
f 42/42/42 50/50/50 49/49/49
f 51/51/51 49/49/49 50/50/50
f 51/51/51 52/52/52 49/49/49
f 53/53/53 52/52/52 51/51/51
f 53/53/53 54/54/54 52/52/52
f 54/54/54 53/53/53 55/55/55
f 56/56/56 48/48/48 49/49/49
f 54/54/54 55/55/55 57/57/57
f 57/57/57 52/52/52 54/54/54
f 57/57/57 58/58/58 52/52/52
f 58/58/58 49/49/49 52/52/52
f 58/58/58 59/59/59 49/49/49
f 56/56/56 49/49/49 59/59/59
f 56/56/56 40/40/40 48/48/48
f 60/60/60 40/40/40 56/56/56
f 61/61/61 40/40/40 60/60/60
f 61/61/61 39/39/39 40/40/40
f 36/36/36 39/39/39 61/61/61
f 36/36/36 61/61/61 62/62/62
f 62/62/62 63/63/63 36/36/36
f 43/43/43 36/36/36 63/63/63
f 64/64/64 43/43/43 63/63/63
f 64/64/64 45/45/45 43/43/43
f 64/64/64 65/65/65 45/45/45
f 65/65/65 66/66/66 45/45/45
f 66/66/66 67/67/67 45/45/45
f 68/68/68 45/45/45 67/67/67
f 68/68/68 47/47/47 45/45/45
f 66/66/66 69/69/69 67/67/67
f 62/62/62 70/70/70 63/63/63
f 70/70/70 62/62/62 61/61/61
f 61/61/61 60/60/60 71/71/71
f 61/61/61 71/71/71 72/72/72
f 38/38/38 72/72/72 71/71/71
f 70/70/70 72/72/72 38/38/38
f 38/38/38 71/71/71 41/41/41
f 41/41/41 71/71/71 42/42/42
f 70/70/70 38/38/38 35/35/35
f 35/35/35 37/37/37 70/70/70
f 73/73/73 70/70/70 37/37/37
f 44/44/44 73/73/73 37/37/37
f 44/44/44 74/74/74 73/73/73
f 68/68/68 74/74/74 47/47/47
f 46/46/46 47/47/47 74/74/74
f 44/44/44 46/46/46 74/74/74
f 42/42/42 71/71/71 75/75/75
f 42/42/42 75/75/75 76/76/76
f 42/42/42 76/76/76 50/50/50
f 51/51/51 50/50/50 76/76/76
f 51/51/51 76/76/76 77/77/77
f 53/53/53 51/51/51 77/77/77
f 53/53/53 77/77/77 78/78/78
f 78/78/78 55/55/55 53/53/53
f 56/56/56 76/76/76 75/75/75
f 78/78/78 57/57/57 55/55/55
f 57/57/57 78/78/78 77/77/77
f 57/57/57 77/77/77 58/58/58
f 58/58/58 77/77/77 76/76/76
f 58/58/58 76/76/76 59/59/59
f 56/56/56 59/59/59 76/76/76
f 64/64/64 73/73/73 74/74/74
f 64/64/64 63/63/63 73/73/73
f 73/73/73 63/63/63 70/70/70
f 56/56/56 75/75/75 71/71/71
f 60/60/60 56/56/56 71/71/71
f 70/70/70 61/61/61 72/72/72
f 64/64/64 74/74/74 65/65/65
f 65/65/65 74/74/74 66/66/66
f 66/66/66 74/74/74 79/79/79
f 68/68/68 79/79/79 74/74/74
f 66/66/66 79/79/79 69/69/69

