# Created by DisUnity v0.3.1
v 0.011816878 0.3678479 -0.1129379
v 0.010843224 0.31905392 -0.034137774
v 0.04773118 0.49921453 -0.073511116
v 0.030403756 0.49590632 -0.14991543
v 0.031629585 0.57155997 -0.16580683
v 0.040037118 0.54266685 -0.06067334
v 0.04249297 0.5935132 -0.061076947
v 0.03247994 0.63135785 -0.17218158
v 0.13029368 0.52243686 -0.18332802
v 0.14561415 0.5825388 -0.20052116
v 0.093797 0.6375884 -0.19813159
v 0.109290086 0.48185316 -0.15737036
v 0.09415726 0.41067445 -0.14106211
v 0.096509136 0.72789985 -0.21948923
v 0.14994062 0.64669716 -0.20268305
v 0.13845359 0.74673444 -0.24611387
v 0.1570588 0.7612644 -0.20572563
v 0.12180629 0.76886076 -0.15783639
v 0.18197927 0.83019507 -0.23533791
v 0.18560082 0.7723068 -0.24351744
v 0.18357924 0.72706956 -0.2433783
v 0.03366723 0.69868773 -0.16899724
v 0.06082193 0.62601525 -0.08389543
v 0.07013629 0.66578853 -0.09416373
v 0.004819822 0.75102323 -0.11372163
v 0.049984306 0.69265723 -0.06550221
v 0.01615625 0.6593029 -0.02186809
v 0.015552608 0.7603288 -0.015288805
v 0.0404908 0.8989803 -0.13731512
v 0.027172484 0.87639034 -0.024306068
v 0.052427914 0.76310325 -0.15663931
v 0.051611617 0.9972354 -0.050307114
v 0.111100525 1.0860851 -0.19849089
v 0.14590338 0.86921054 -0.18454689
v 0.17138916 1.0421308 -0.20898432
v 0.19881569 1.2118083 -0.28956482
v 0.25374335 1.1885244 -0.31149006
v 0.25199997 1.3254765 -0.33814573
v 0.28822482 1.3256953 -0.35007778
v 0.1200719 0.82067066 -0.15254429
v 0.20052393 1.2445652 -0.23664925
v 0.249039 1.3385713 -0.29659235
v 0.109925985 1.1297928 -0.1212411
v 0.29550815 1.5105008 -0.34933335
v 0.28721026 1.3239836 -0.31198972
v 0.24982883 1.2096452 -0.25166956
v 0.18107523 1.083118 -0.14650999
v 0.13264751 0.8950725 -0.06885624
v 0.11225776 0.7464676 -0.03391104
v 0.14028026 0.759378 -0.09137791
v 0.15397191 0.69358647 -0.07962858
v 0.15368286 0.6262185 -0.08214563
v 0.18579589 0.72411376 -0.15316227
v 0.16122152 0.6347294 -0.14804508
v 0.20023362 0.7441148 -0.20022038
v 0.14456697 0.5667711 -0.08191093
v 0.12559293 0.49187002 -0.07920387
v 0.08858201 0.36459285 -0.055912685
v -0.04439581 0.013864345 0.02280227
v 0.033366296 0.4350789 -0.1231114
v -0.053640865 0.0042661275 -0.030577047
v 0.04261136 0.4446771 -0.06973208
v 0.0865442 0.42283374 -0.13011964
v -4.629755E-4 -0.007979009 -0.03758529
v 0.09578926 0.43243197 -0.07674032
v 0.008782079 0.0016192071 0.015794022
v 0.09415726 0.41067445 -0.14106211
v 0.010843224 0.31905392 -0.034137774
v 0.011816878 0.3678479 -0.1129379
v 0.08858201 0.36459285 -0.055912685
v -0.13344093 -0.35870844 0.041129746
v -0.055702124 -0.31316948 0.019354848
v -0.09259008 -0.49333015 0.05872819
v -0.17045183 -0.48598564 0.06442094
v -0.18942589 -0.56088674 0.067128
v -0.08489602 -0.5367825 0.045890417
v -0.087351866 -0.58762884 0.04629401
v -0.19854175 -0.6203341 0.067362696
v -0.17515258 -0.51655245 0.16854507
v -0.19047303 -0.5766544 0.18573822
v -0.2060804 -0.62884504 0.13326214
v -0.15414898 -0.47596878 0.14258742
v -0.13901617 -0.40479007 0.12627919
v -0.2306548 -0.71822935 0.13837934
v -0.19479951 -0.64081275 0.18790013
v -0.24509254 -0.7382304 0.18543743
v -0.20191771 -0.75538 0.19094269
v -0.16666518 -0.76297635 0.14305346
v -0.22683816 -0.82431066 0.220555
v -0.2304597 -0.7664224 0.22873452
v -0.22843812 -0.72118515 0.22859536
v -0.19883081 -0.68770206 0.064845644
v -0.10568082 -0.6201309 0.0691125
v -0.11499519 -0.65990424 0.079380825
v -0.15711667 -0.7405832 0.019128114
v -0.094843194 -0.6867728 0.05071927
v -0.061015155 -0.6534185 0.007085156
v -0.06041151 -0.7544444 5.058801E-4
v -0.1775064 -0.8891881 0.054073304
v -0.07203138 -0.870506 0.009523125
v -0.18513915 -0.7534936 0.07659497
v -0.09647053 -0.991351 0.035524182
v -0.22593412 -1.0772336 0.13172704
v -0.19076227 -0.8633262 0.16976394
v -0.21624805 -1.0362464 0.1942014
v -0.29468772 -1.2037607 0.2368866
v -0.29860222 -1.18264 0.2967071
v -0.33206916 -1.3180991 0.2972068
v -0.33308372 -1.3198109 0.33529484
v -0.16493079 -0.81478626 0.13776135
v -0.24538282 -1.2386808 0.2218663
v -0.2938979 -1.3326869 0.28180945
v -0.15478487 -1.1239084 0.10645816
v -0.34036705 -1.5046164 0.33455038
v -0.29685888 -1.3195921 0.3233628
v -0.24367458 -1.2059239 0.27478188
v -0.15595943 -1.0802007 0.18370794
v -0.085349694 -0.8930959 0.1225322
v -0.04967873 -0.7451388 0.09893871
v -0.09728681 -0.75721884 0.14185637
v -0.078526124 -0.6928033 0.15421432
v -0.077338845 -0.62547344 0.15739864
v -0.14136803 -0.72201544 0.20470628
v -0.13865589 -0.63170403 0.18334867
v -0.18331249 -0.74085003 0.23133092
v -0.076488495 -0.5656756 0.1510239
v -0.07526265 -0.4900219 0.1351325
v -0.056675777 -0.36196348 0.098154955
v -4.630804E-4 -0.00797994 -0.0375852
v -0.14064816 -0.4265476 0.06195738
v -0.053640977 0.0042651994 -0.03057695
v -0.087470256 -0.4387927 0.054949146
v -0.13140309 -0.41694933 0.1153367
v -0.044395924 0.013863415 0.02280236
v -0.07822519 -0.42919448 0.10832846
v 0.008781971 0.001618279 0.015794117
v -0.13901617 -0.40479007 0.12627919
v -0.055702124 -0.31316948 0.019354848
v -0.13344093 -0.35870844 0.041129746
v -0.056675777 -0.36196348 0.098154955
vn -0.9710971 0.12611362 -0.20264712
vn -0.56380254 0.2848619 0.7752293
vn -0.5930021 0.06916735 0.8022247
vn -0.8118352 -0.14608616 -0.56531614
vn -0.822461 -0.13928413 -0.55150497
vn -0.5969459 -0.04398906 0.8010747
vn -0.56636596 0.27207175 0.77795017
vn -0.9011739 0.028518893 -0.43251857
vn 0.53203964 -0.41199082 -0.7397279
vn 0.566608 -0.27083492 -0.7782055
vn -0.273174 -0.14181826 -0.95145345
vn 0.5321335 -0.41167426 -0.73983663
vn 0.5484283 -0.35225716 -0.7583806
vn -0.46381342 0.292522 -0.83624625
vn 0.5597314 -0.30412644 -0.7708488
vn -0.4680157 0.22537877 -0.8544973
vn -0.23963912 0.8960421 0.37374026
vn 0.39951158 0.77242184 -0.49371544
vn 0.1376416 0.98201513 -0.12923281
vn 0.59644467 0.08662783 -0.79796576
vn 0.5540262 -0.32929367 -0.76460487
vn -0.8884475 -0.035546236 -0.4575996
vn -0.51341754 0.4700197 0.7179721
vn -0.5773879 -0.29769197 0.76026493
vn -0.95222825 -0.090311706 -0.29172778
vn -0.43726203 -0.7131537 0.54791766
vn -0.46181604 -0.66797835 0.58355016
vn -0.59239405 -0.16844125 0.78784317
vn -0.8130235 0.092187144 -0.5748864
vn -0.56888884 0.25891352 0.78059554
vn -0.4824405 0.3240252 -0.8137929
vn -0.51604116 0.4623472 0.72106624
vn -0.78632945 0.10630652 -0.6085926
vn 0.52163696 -0.44546762 -0.7276355
vn 0.5201136 -0.45013538 -0.7258511
vn -0.74745613 0.049859174 -0.6624375
vn 0.49680254 -0.515465 -0.69819987
vn -0.7273632 0.08539923 -0.6809183
vn 0.5818623 -0.178455 -0.79346716
vn 0.591427 -0.09015632 -0.8013026
vn -0.39718023 0.71489537 0.57547593
vn -0.49475387 0.5207318 0.695742
vn -0.42325956 0.6716034 0.60811204
vn 0.14386755 0.9799662 -0.13772494
vn 0.864789 0.017887093 0.50181687
vn 0.8509491 -0.01791813 0.52494246
vn 0.81370825 0.038460087 0.5799998
vn 0.78837425 0.024283025 0.61471653
vn 0.54762805 -0.15391003 0.8224446
vn 0.9345117 0.2639422 0.23879375
vn 0.69091296 -0.10251573 0.7156324
vn 0.6740816 -0.038276847 0.7376645
vn 0.9489122 0.23261766 0.21320061
vn 0.9806011 -0.19498222 -0.02008294
vn 0.96390736 0.16466111 0.20921144
vn 0.7560915 -0.2062196 0.62112737
vn 0.7658746 -0.21298584 0.6066902
vn 0.47967654 0.064596444 0.8750644
vn -0.5646408 0.28073868 0.7761227
vn -0.8022809 0.034019154 -0.5959766
vn -0.8022808 0.03401911 -0.59597665
vn -0.5646407 0.28073868 0.7761228
vn 0.5646409 -0.28073868 -0.7761227
vn 0.5646408 -0.28073868 -0.7761227
vn 0.8022808 -0.034019116 0.59597665
vn 0.8022809 -0.03401914 0.5959766
vn 0.31150994 -0.82779914 -0.46659404
vn 0.31151 -0.82779914 -0.46659407
vn 0.31151 -0.82779914 -0.46659407
vn 0.31150994 -0.82779914 -0.46659407
vn -0.47967637 -0.06459651 -0.8750645
vn 0.5638024 -0.28486177 -0.77522933
vn 0.593002 -0.069167465 -0.80222464
vn -0.7658747 0.21298578 -0.6066902
vn -0.7560915 0.20621955 -0.6211274
vn 0.5969459 0.04398908 -0.8010747
vn 0.56636596 -0.27207184 -0.77795017
vn -0.67408144 0.03827673 -0.7376646
vn -0.5320397 0.4119908 0.73972785
vn -0.566608 0.270835 0.7782055
vn -0.9806011 0.1949823 0.020082923
vn -0.53213346 0.4116742 0.7398367
vn -0.5484284 0.35225713 0.7583807
vn -0.9489122 -0.23261757 -0.2132007
vn -0.5597314 0.30412653 0.7708488
vn -0.96390736 -0.16466114 -0.20921132
vn 0.23963907 -0.8960421 -0.37374014
vn -0.39951155 -0.77242196 0.49371547
vn -0.1376412 -0.98201513 0.12923297
vn -0.5964444 -0.08662784 0.79796594
vn -0.55402607 0.32929364 0.76460505
vn -0.6909129 0.10251578 -0.71563244
vn 0.51341736 -0.4700201 -0.7179719
vn 0.5773879 0.29769242 -0.7602647
vn -0.5476281 0.15391017 -0.82244456
vn 0.43726194 0.7131538 -0.5479176
vn 0.46181622 0.6679782 -0.5835503
vn 0.59239405 0.16844125 -0.78784317
vn -0.7883742 -0.02428299 -0.61471653
vn 0.5688888 -0.25891346 -0.78059554
vn -0.9345116 -0.26394227 -0.23879378
vn 0.5160412 -0.4623472 -0.7210662
vn -0.81370825 -0.03846008 -0.57999974
vn -0.5216371 0.44546762 0.72763544
vn -0.5201136 0.45013535 0.7258511
vn -0.8509491 0.017918106 -0.5249424
vn -0.49680248 0.5154651 0.6981999
vn -0.864789 -0.017887121 -0.5018168
vn -0.58186203 0.17845498 0.7934672
vn -0.5914269 0.09015627 0.8013027
vn 0.39718032 -0.71489537 -0.5754759
vn 0.4947541 -0.5207318 -0.6957419
vn 0.42325962 -0.6716034 -0.608112
vn -0.14386544 -0.9799673 0.1377203
vn 0.7273631 -0.08539922 0.68091846
vn 0.7474562 -0.049859207 0.6624375
vn 0.78632945 -0.10630658 0.60859257
vn 0.81302357 -0.09218719 0.57488626
vn 0.95222825 0.090311825 0.29172784
vn 0.4824405 -0.3240252 0.8137929
vn 0.8884475 0.03554621 0.45759967
vn 0.9011739 -0.028518993 0.43251848
vn 0.4638135 -0.29252213 0.83624625
vn 0.27317408 0.14181833 0.95145345
vn 0.46801594 -0.22537875 0.85449725
vn 0.82246095 0.13928412 0.55150515
vn 0.8118352 0.14608605 0.56531614
vn 0.9710971 -0.12611364 0.20264687
vn 0.5646408 -0.28073868 -0.7761227
vn -0.8022808 0.034019098 -0.5959767
vn -0.8022808 0.034019154 -0.5959766
vn 0.5646407 -0.28073868 -0.7761228
vn -0.56464094 0.2807387 0.7761227
vn -0.56464076 0.28073868 0.77612275
vn 0.8022808 -0.034019124 0.5959766
vn 0.8022808 -0.034019087 0.59597665
vn -0.31151 0.8277991 0.4665942
vn -0.31151003 0.8277991 0.46659425
vn -0.31151003 0.8277991 0.46659425
vn -0.31151 0.8277991 0.46659425
vt 0.19015 0.056247965
vt 0.0316944 0.022406774
vt 0.14909486 0.15871353
vt 0.27915835 0.13898417
vt 0.3170083 0.20521139
vt 0.1407806 0.19769911
vt 0.16118725 0.23881176
vt 0.3497892 0.25278074
vt 0.47892076 0.14058208
vt 0.53927016 0.1898638
vt 0.46666914 0.25043017
vt 0.40400618 0.10920071
vt 0.35412902 0.06487687
vt 0.46703345 0.32267433
vt 0.5701995 0.24834806
vt 0.5960292 0.34058586
vt 0.5624602 0.3710982
vt 0.46381178 0.38540372
vt 0.6756222 0.40774864
vt 0.66877913 0.3583221
vt 0.65762925 0.32010165
vt 0.30802 0.3040917
vt 0.21896116 0.25762513
vt 0.24759637 0.28036696
vt 0.22764193 0.34335127
vt 0.19004966 0.29880664
vt 0.085520305 0.27806273
vt 0.077256195 0.36630362
vt 0.30213335 0.4824139
vt 0.102335766 0.4681334
vt 0.35779274 0.36652595
vt 0.17034891 0.5723224
vt 0.46513933 0.6418402
vt 0.5069649 0.4628117
vt 0.5677889 0.6033595
vt 0.6929052 0.7481057
vt 0.7939878 0.72716236
vt 0.83572143 0.8391844
vt 0.9018074 0.83711207
vt 0.44617018 0.4226118
vt 0.6129791 0.7826147
vt 0.7699702 0.85676754
vt 0.34194216 0.6863468
vt 0.94424796 0.9789783
vt 0.83572143 0.8391844
vt 0.6929052 0.7481057
vt 0.46513933 0.6418402
vt 0.30213335 0.4824139
vt 0.22764193 0.34335127
vt 0.35779274 0.36652595
vt 0.30802 0.3040917
vt 0.3497892 0.25278074
vt 0.46703345 0.32267433
vt 0.46666914 0.25043017
vt 0.5960292 0.34058586
vt 0.3170083 0.20521139
vt 0.27915835 0.13898417
vt 0.19015 0.056247965
vt 0.70290256 0.030917495
vt 0.8374127 0.50734335
vt 0.8374127 0.030917495
vt 0.70290256 0.50734335
vt 0.97192293 0.50734335
vt 0.97192293 0.030917495
vt 0.8374127 0.50734335
vt 0.8374127 0.030917495
vt 0.35412902 0.06487687
vt 0.0316944 0.022406774
vt 0.19015 0.056247965
vt 0.19015 0.056247965
vt 0.19015 0.056247965
vt 0.0316944 0.022406774
vt 0.14909486 0.15871353
vt 0.27915835 0.13898417
vt 0.3170083 0.20521139
vt 0.1407806 0.19769911
vt 0.16118725 0.23881176
vt 0.3497892 0.25278074
vt 0.47892076 0.14058208
vt 0.53927016 0.1898638
vt 0.46666914 0.25043017
vt 0.40400618 0.10920071
vt 0.35412902 0.06487687
vt 0.46703345 0.32267433
vt 0.5701995 0.24834806
vt 0.5960292 0.34058586
vt 0.5624602 0.3710982
vt 0.46381178 0.38540372
vt 0.6756222 0.40774864
vt 0.66877913 0.3583221
vt 0.65762925 0.32010165
vt 0.30802 0.3040917
vt 0.21896116 0.25762513
vt 0.24759637 0.28036696
vt 0.22764193 0.34335127
vt 0.19004966 0.29880664
vt 0.085520305 0.27806273
vt 0.077256195 0.36630362
vt 0.30213335 0.4824139
vt 0.102335766 0.4681334
vt 0.35779274 0.36652595
vt 0.17034891 0.5723224
vt 0.46513933 0.6418402
vt 0.5069649 0.4628117
vt 0.5677889 0.6033595
vt 0.6929052 0.7481057
vt 0.7939878 0.72716236
vt 0.83572143 0.8391844
vt 0.9018074 0.83711207
vt 0.44617018 0.4226118
vt 0.6129791 0.7826147
vt 0.7699702 0.85676754
vt 0.34194216 0.6863468
vt 0.94424796 0.9789783
vt 0.83572143 0.8391844
vt 0.6929052 0.7481057
vt 0.46513933 0.6418402
vt 0.30213335 0.4824139
vt 0.22764193 0.34335127
vt 0.35779274 0.36652595
vt 0.30802 0.3040917
vt 0.3497892 0.25278074
vt 0.46703345 0.32267433
vt 0.46666914 0.25043017
vt 0.5960292 0.34058586
vt 0.3170083 0.20521139
vt 0.27915835 0.13898417
vt 0.19015 0.056247965
vt 0.70290256 0.030917495
vt 0.8374127 0.50734335
vt 0.8374127 0.030917495
vt 0.70290256 0.50734335
vt 0.97192293 0.50734335
vt 0.97192293 0.030917495
vt 0.8374127 0.50734335
vt 0.8374127 0.030917495
vt 0.35412902 0.06487687
vt 0.0316944 0.022406774
vt 0.19015 0.056247965
vt 0.19015 0.056247965

o zhu_jue_03_w_0
s 1
usemtl zhu_jue_03_w_0
f 1/1/1 2/2/2 3/3/3
f 1/1/1 3/3/3 4/4/4
f 5/5/5 4/4/4 3/3/3
f 5/5/5 3/3/3 6/6/6
f 5/5/5 6/6/6 7/7/7
f 8/8/8 5/5/5 7/7/7
f 4/4/4 5/5/5 9/9/9
f 9/9/9 5/5/5 10/10/10
f 10/10/10 5/5/5 11/11/11
f 11/11/11 5/5/5 8/8/8
f 4/4/4 9/9/9 12/12/12
f 1/1/1 4/4/4 12/12/12
f 1/1/1 12/12/12 13/13/13
f 14/14/14 11/11/11 8/8/8
f 14/14/14 15/15/15 11/11/11
f 10/10/10 11/11/11 15/15/15
f 15/15/15 14/14/14 16/16/16
f 17/17/17 16/16/16 14/14/14
f 17/17/17 14/14/14 18/18/18
f 19/19/19 16/16/16 17/17/17
f 16/16/16 19/19/19 20/20/20
f 16/16/16 20/20/20 21/21/21
f 15/15/15 16/16/16 21/21/21
f 14/14/14 8/8/8 22/22/22
f 22/22/22 8/8/8 23/23/23
f 22/22/22 23/23/23 24/24/24
f 25/25/25 22/22/22 24/24/24
f 25/25/25 24/24/24 26/26/26
f 25/25/25 26/26/26 27/27/27
f 25/25/25 27/27/27 28/28/28
f 28/28/28 29/29/29 25/25/25
f 28/28/28 30/30/30 29/29/29
f 25/25/25 29/29/29 31/31/31
f 31/31/31 22/22/22 25/25/25
f 29/29/29 30/30/30 32/32/32
f 33/33/33 29/29/29 32/32/32
f 34/34/34 29/29/29 33/33/33
f 34/34/34 33/33/33 35/35/35
f 35/35/35 33/33/33 36/36/36
f 35/35/35 36/36/36 37/37/37
f 37/37/37 36/36/36 38/38/38
f 37/37/37 38/38/38 39/39/39
f 40/40/40 29/29/29 34/34/34
f 31/31/31 29/29/29 40/40/40
f 38/38/38 36/36/36 41/41/41
f 38/38/38 41/41/41 42/42/42
f 36/36/36 43/43/43 41/41/41
f 36/36/36 33/33/33 43/43/43
f 33/33/33 32/32/32 43/43/43
f 38/38/38 44/44/44 39/39/39
f 42/42/42 44/44/44 38/38/38
f 31/31/31 40/40/40 18/18/18
f 14/14/14 31/31/31 18/18/18
f 31/31/31 14/14/14 22/22/22
f 37/37/37 39/39/39 45/45/45
f 45/45/45 42/42/42 41/41/41
f 45/45/45 39/39/39 44/44/44
f 42/42/42 45/45/45 44/44/44
f 37/37/37 45/45/45 46/46/46
f 35/35/35 37/37/37 46/46/46
f 45/45/45 41/41/41 46/46/46
f 46/46/46 41/41/41 43/43/43
f 35/35/35 46/46/46 47/47/47
f 46/46/46 43/43/43 47/47/47
f 34/34/34 35/35/35 47/47/47
f 34/34/34 47/47/47 48/48/48
f 40/40/40 34/34/34 48/48/48
f 47/47/47 32/32/32 48/48/48
f 47/47/47 43/43/43 32/32/32
f 48/48/48 32/32/32 30/30/30
f 28/28/28 48/48/48 30/30/30
f 28/28/28 49/49/49 48/48/48
f 49/49/49 50/50/50 48/48/48
f 49/49/49 28/28/28 27/27/27
f 49/49/49 27/27/27 26/26/26
f 49/49/49 26/26/26 24/24/24
f 49/49/49 24/24/24 51/51/51
f 50/50/50 49/49/49 51/51/51
f 51/51/51 24/24/24 23/23/23
f 51/51/51 23/23/23 52/52/52
f 50/50/50 51/51/51 53/53/53
f 53/53/53 51/51/51 52/52/52
f 53/53/53 52/52/52 54/54/54
f 53/53/53 54/54/54 15/15/15
f 15/15/15 55/55/55 53/53/53
f 17/17/17 53/53/53 55/55/55
f 17/17/17 18/18/18 53/53/53
f 53/53/53 18/18/18 50/50/50
f 19/19/19 17/17/17 55/55/55
f 55/55/55 20/20/20 19/19/19
f 55/55/55 21/21/21 20/20/20
f 15/15/15 21/21/21 55/55/55
f 10/10/10 15/15/15 54/54/54
f 10/10/10 54/54/54 56/56/56
f 54/54/54 52/52/52 56/56/56
f 9/9/9 10/10/10 56/56/56
f 52/52/52 7/7/7 56/56/56
f 52/52/52 23/23/23 7/7/7
f 8/8/8 7/7/7 23/23/23
f 56/56/56 7/7/7 6/6/6
f 56/56/56 6/6/6 3/3/3
f 56/56/56 3/3/3 57/57/57
f 57/57/57 9/9/9 56/56/56
f 57/57/57 12/12/12 9/9/9
f 58/58/58 12/12/12 57/57/57
f 58/58/58 57/57/57 3/3/3
f 58/58/58 3/3/3 2/2/2
f 58/58/58 13/13/13 12/12/12
f 50/50/50 18/18/18 40/40/40
f 50/50/50 40/40/40 48/48/48
f 59/59/59 60/60/60 61/61/61
f 59/59/59 62/62/62 60/60/60
f 61/61/61 60/60/60 63/63/63
f 61/61/61 63/63/63 64/64/64
f 59/59/59 65/65/65 62/62/62
f 59/59/59 66/66/66 65/65/65
f 66/66/66 63/63/63 65/65/65
f 66/66/66 64/64/64 63/63/63
f 67/67/67 68/68/68 69/69/69
f 67/67/67 70/70/70 68/68/68
f 71/71/71 72/72/72 73/73/73
f 71/71/71 73/73/73 74/74/74
f 75/75/75 74/74/74 73/73/73
f 75/75/75 73/73/73 76/76/76
f 75/75/75 76/76/76 77/77/77
f 78/78/78 75/75/75 77/77/77
f 74/74/74 75/75/75 79/79/79
f 79/79/79 75/75/75 80/80/80
f 80/80/80 75/75/75 81/81/81
f 81/81/81 75/75/75 78/78/78
f 74/74/74 79/79/79 82/82/82
f 71/71/71 74/74/74 82/82/82
f 71/71/71 82/82/82 83/83/83
f 84/84/84 81/81/81 78/78/78
f 84/84/84 85/85/85 81/81/81
f 80/80/80 81/81/81 85/85/85
f 85/85/85 84/84/84 86/86/86
f 87/87/87 86/86/86 84/84/84
f 87/87/87 84/84/84 88/88/88
f 89/89/89 86/86/86 87/87/87
f 86/86/86 89/89/89 90/90/90
f 86/86/86 90/90/90 91/91/91
f 85/85/85 86/86/86 91/91/91
f 84/84/84 78/78/78 92/92/92
f 92/92/92 78/78/78 93/93/93
f 92/92/92 93/93/93 94/94/94
f 95/95/95 92/92/92 94/94/94
f 95/95/95 94/94/94 96/96/96
f 95/95/95 96/96/96 97/97/97
f 95/95/95 97/97/97 98/98/98
f 98/98/98 99/99/99 95/95/95
f 98/98/98 100/100/100 99/99/99
f 95/95/95 99/99/99 101/101/101
f 101/101/101 92/92/92 95/95/95
f 99/99/99 100/100/100 102/102/102
f 103/103/103 99/99/99 102/102/102
f 104/104/104 99/99/99 103/103/103
f 104/104/104 103/103/103 105/105/105
f 105/105/105 103/103/103 106/106/106
f 105/105/105 106/106/106 107/107/107
f 107/107/107 106/106/106 108/108/108
f 107/107/107 108/108/108 109/109/109
f 110/110/110 99/99/99 104/104/104
f 101/101/101 99/99/99 110/110/110
f 108/108/108 106/106/106 111/111/111
f 108/108/108 111/111/111 112/112/112
f 106/106/106 113/113/113 111/111/111
f 106/106/106 103/103/103 113/113/113
f 103/103/103 102/102/102 113/113/113
f 108/108/108 114/114/114 109/109/109
f 112/112/112 114/114/114 108/108/108
f 101/101/101 110/110/110 88/88/88
f 84/84/84 101/101/101 88/88/88
f 101/101/101 84/84/84 92/92/92
f 107/107/107 109/109/109 115/115/115
f 115/115/115 112/112/112 111/111/111
f 115/115/115 109/109/109 114/114/114
f 112/112/112 115/115/115 114/114/114
f 107/107/107 115/115/115 116/116/116
f 105/105/105 107/107/107 116/116/116
f 115/115/115 111/111/111 116/116/116
f 116/116/116 111/111/111 113/113/113
f 105/105/105 116/116/116 117/117/117
f 116/116/116 113/113/113 117/117/117
f 104/104/104 105/105/105 117/117/117
f 104/104/104 117/117/117 118/118/118
f 110/110/110 104/104/104 118/118/118
f 117/117/117 102/102/102 118/118/118
f 117/117/117 113/113/113 102/102/102
f 118/118/118 102/102/102 100/100/100
f 98/98/98 118/118/118 100/100/100
f 98/98/98 119/119/119 118/118/118
f 119/119/119 120/120/120 118/118/118
f 119/119/119 98/98/98 97/97/97
f 119/119/119 97/97/97 96/96/96
f 119/119/119 96/96/96 94/94/94
f 119/119/119 94/94/94 121/121/121
f 120/120/120 119/119/119 121/121/121
f 121/121/121 94/94/94 93/93/93
f 121/121/121 93/93/93 122/122/122
f 120/120/120 121/121/121 123/123/123
f 123/123/123 121/121/121 122/122/122
f 123/123/123 122/122/122 124/124/124
f 123/123/123 124/124/124 85/85/85
f 85/85/85 125/125/125 123/123/123
f 87/87/87 123/123/123 125/125/125
f 87/87/87 88/88/88 123/123/123
f 123/123/123 88/88/88 120/120/120
f 89/89/89 87/87/87 125/125/125
f 125/125/125 90/90/90 89/89/89
f 125/125/125 91/91/91 90/90/90
f 85/85/85 91/91/91 125/125/125
f 80/80/80 85/85/85 124/124/124
f 80/80/80 124/124/124 126/126/126
f 124/124/124 122/122/122 126/126/126
f 79/79/79 80/80/80 126/126/126
f 122/122/122 77/77/77 126/126/126
f 122/122/122 93/93/93 77/77/77
f 78/78/78 77/77/77 93/93/93
f 126/126/126 77/77/77 76/76/76
f 126/126/126 76/76/76 73/73/73
f 126/126/126 73/73/73 127/127/127
f 127/127/127 79/79/79 126/126/126
f 127/127/127 82/82/82 79/79/79
f 128/128/128 82/82/82 127/127/127
f 128/128/128 127/127/127 73/73/73
f 128/128/128 73/73/73 72/72/72
f 128/128/128 83/83/83 82/82/82
f 120/120/120 88/88/88 110/110/110
f 120/120/120 110/110/110 118/118/118
f 129/129/129 130/130/130 131/131/131
f 129/129/129 132/132/132 130/130/130
f 131/131/131 130/130/130 133/133/133
f 131/131/131 133/133/133 134/134/134
f 129/129/129 135/135/135 132/132/132
f 129/129/129 136/136/136 135/135/135
f 136/136/136 133/133/133 135/135/135
f 136/136/136 134/134/134 133/133/133
f 137/137/137 138/138/138 139/139/139
f 137/137/137 140/140/140 138/138/138

