# Created by DisUnity v0.3.1
v -0.117243156 -0.40939474 0.0672114
v -0.061323322 -0.16944817 0.07287904
v -0.07078673 -0.17936656 0.017803714
v -0.10777971 -0.39947626 0.1222868
v -0.016063122 -0.1919515 0.010666875
v -0.06251953 -0.42197955 0.06007466
v -0.07918626 -0.17901045 0.011564123
v -0.06723489 -0.16650894 0.08100474
v -0.010151565 -0.19489072 0.0025411726
v -0.07145796 -0.14074376 0.0033448148
v -0.059506558 -0.12824221 0.072785445
v -0.0024232601 -0.15662403 -0.005678098
v -0.065442994 -0.1409988 0.007813038
v -0.055273265 -0.13034698 0.066966586
v -0.0066565583 -0.15451925 1.4075518E-4
v -0.060376868 -0.115913875 0.0024250436
v -0.050207138 -0.105262116 0.061578616
v -0.0015904283 -0.12943435 -0.005247223
v -0.025838062 -0.11737834 0.028082237
v -0.05293462 -0.41212162 0.1149831
v -0.0064783096 -0.18209343 0.065575324
v 0.0019212129 -0.18244961 0.07181493
v 0.009649544 -0.14418292 0.063595645
v 0.0036345774 -0.14392787 0.059127424
v 0.008700728 -0.118842945 0.053739443
v -0.12857512 -0.48496422 0.08515329
v -0.15078895 -0.4608183 0.17668284
v -0.16775829 -0.5351919 0.19528106
v -0.17367841 -0.72287977 0.13840096
v -0.06329296 -0.63929486 0.048711307
v -0.1905716 -0.70254064 0.21643917
v -0.19862463 -0.7797067 0.22287518
v -0.018945199 -0.5699752 -0.0070312214
v -0.1012277 -0.76996726 0.09231882
v -0.26101366 -1.1208149 0.25066113
v -0.18974788 -1.1961935 0.18715225
v -0.29329345 -1.5507551 0.30630293
v -0.3378126 -1.4126936 0.34254625
v -0.34601232 -1.3346889 0.38960445
v -0.26551467 -1.0928254 0.2950471
v -0.22174491 -0.9050405 0.24684472
v -0.32328197 -1.4132951 0.35451874
v -0.22589025 -1.1223042 0.27675262
v -0.30762523 -1.4139737 0.36497095
v -0.12190898 -0.7250749 0.17685795
v -0.07096128 -0.48740718 0.12795182
vn -0.8335178 0.12975192 -0.53704053
vn -0.41566932 -0.7483947 0.5168409
vn -0.5169933 -0.8532672 -0.068213284
vn -0.54439956 0.36788434 0.7538502
vn 0.06597673 -0.98720527 -0.14516531
vn 0.59065604 0.18978879 -0.7842867
vn -0.76641095 -0.526252 -0.36833814
vn -0.57289165 -0.32443258 0.7526877
vn 0.34911865 -0.78309065 -0.5146701
vn -0.5427278 0.5813158 -0.60623306
vn -0.34925154 0.7829203 0.51483905
vn 0.57284564 0.32469115 -0.7526111
vn -0.16657183 0.8819672 -0.44089407
vn -0.065133356 0.9874257 0.14404233
vn 0.41627872 0.74745107 -0.51771516
vn -0.54264194 0.58127326 -0.60635066
vn -0.34926307 0.78290516 0.51485425
vn 0.5728421 0.32471257 -0.75260454
vn 0.19371656 0.95918095 -0.20602347
vn 0.7601227 0.06217763 0.64679784
vn 0.1671938 -0.8822781 0.44003597
vn 0.54370755 -0.58180416 0.6048853
vn 0.7673916 0.52576387 0.36699107
vn 0.51761824 0.85295635 0.06735733
vn 0.76747733 0.52572083 0.36687338
vn -0.8583509 0.06911195 -0.50838697
vn -0.49482533 0.5205474 0.6958292
vn -0.569501 0.25562376 0.7812331
vn -0.8282367 0.007981665 -0.56032157
vn 0.5168252 -0.46002355 -0.7219904
vn -0.5847743 0.15579437 0.79609495
vn -0.5752083 0.22291037 0.7870491
vn 0.5547985 -0.32599512 -0.7654578
vn 0.5365214 -0.39660057 -0.7448845
vn -0.847398 0.06731119 -0.5266743
vn 0.54675174 -0.3588442 -0.7565007
vn 0.037679724 -0.9934989 -0.1074258
vn -0.9651662 -0.26152164 -0.0077803363
vn -0.57584584 0.21899012 0.7876833
vn -0.54809034 0.35359392 0.7580029
vn -0.5620562 0.29326913 0.7733602
vn -0.5512161 -0.4254476 0.7177431
vn 0.7507893 -4.5582495E-4 0.66054165
vn 0.27046832 -0.3139155 0.910112
vn 0.774222 -0.05996661 0.630067
vn 0.73654675 0.0014843454 0.6763851
vt 0.53162354 0.24129371
vt 0.7073737 0.083664745
vt 0.53162354 0.083664745
vt 0.7073737 0.2412016
vt 0.37525395 0.083664745
vt 0.37525395 0.2391776
vt 0.53162354 0.07870434
vt 0.7073737 0.07870434
vt 0.37525395 0.07870434
vt 0.53162354 0.052806064
vt 0.7073737 0.052806064
vt 0.37525395 0.052806064
vt 0.53162354 0.044633053
vt 0.7073737 0.044633053
vt 0.37525395 0.044633053
vt 0.53162354 0.02792292
vt 0.7073737 0.02792292
vt 0.37525395 0.02792292
vt 0.53162354 0.019213825
vt 0.53162354 0.24129371
vt 0.53162354 0.083664745
vt 0.53162354 0.07870434
vt 0.53162354 0.052806064
vt 0.53162354 0.044633053
vt 0.53162354 0.02792292
vt 0.53162354 0.29335028
vt 0.7999675 0.29319477
vt 0.7999675 0.34360522
vt 0.53162354 0.4637288
vt 0.17471386 0.38055152
vt 0.7999675 0.4637288
vt 0.7999675 0.50505465
vt 0.17471386 0.3254438
vt 0.17471386 0.4637288
vt 0.53162354 0.74013656
vt 0.17471386 0.74013656
vt 0.17471386 0.98425776
vt 0.53162354 0.9129329
vt 0.7999675 0.8751964
vt 0.7999675 0.74013656
vt 0.7999675 0.59052324
vt 0.53783363 0.9533722
vt 0.53162354 0.74013656
vt 0.53162354 0.9129329
vt 0.53162354 0.4637288
vt 0.53162354 0.29335028

o zhu_jue_01_w_0
s 1
usemtl zhu_jue_01_w_0
f 1/1/1 2/2/2 3/3/3
f 1/1/1 4/4/4 2/2/2
f 1/1/1 3/3/3 5/5/5
f 1/1/1 5/5/5 6/6/6
f 2/2/2 7/7/7 3/3/3
f 2/2/2 8/8/8 7/7/7
f 3/3/3 9/9/9 5/5/5
f 3/3/3 7/7/7 9/9/9
f 8/8/8 10/10/10 7/7/7
f 8/8/8 11/11/11 10/10/10
f 7/7/7 12/12/12 9/9/9
f 7/7/7 10/10/10 12/12/12
f 11/11/11 13/13/13 10/10/10
f 11/11/11 14/14/14 13/13/13
f 10/10/10 15/15/15 12/12/12
f 10/10/10 13/13/13 15/15/15
f 14/14/14 16/16/16 13/13/13
f 14/14/14 17/17/17 16/16/16
f 13/13/13 18/18/18 15/15/15
f 13/13/13 16/16/16 18/18/18
f 17/17/17 19/19/19 16/16/16
f 16/16/16 19/19/19 18/18/18
f 20/20/20 6/6/6 5/5/5
f 20/20/20 5/5/5 21/21/21
f 20/20/20 21/21/21 2/2/2
f 20/20/20 2/2/2 4/4/4
f 2/2/2 22/22/22 8/8/8
f 2/2/2 21/21/21 22/22/22
f 21/21/21 9/9/9 22/22/22
f 22/22/22 9/9/9 12/12/12
f 21/21/21 5/5/5 9/9/9
f 8/8/8 22/22/22 23/23/23
f 8/8/8 23/23/23 11/11/11
f 22/22/22 12/12/12 23/23/23
f 23/23/23 12/12/12 15/15/15
f 11/11/11 23/23/23 24/24/24
f 11/11/11 24/24/24 14/14/14
f 23/23/23 15/15/15 24/24/24
f 24/24/24 15/15/15 18/18/18
f 14/14/14 24/24/24 25/25/25
f 14/14/14 25/25/25 17/17/17
f 24/24/24 18/18/18 25/25/25
f 17/17/17 25/25/25 19/19/19
f 25/25/25 18/18/18 19/19/19
f 1/1/1 26/26/26 4/4/4
f 4/4/4 26/26/26 27/27/27
f 26/26/26 28/28/28 27/27/27
f 29/29/29 28/28/28 26/26/26
f 30/30/30 29/29/29 26/26/26
f 28/28/28 29/29/29 31/31/31
f 29/29/29 32/32/32 31/31/31
f 1/1/1 33/33/33 26/26/26
f 30/30/30 26/26/26 33/33/33
f 6/6/6 33/33/33 1/1/1
f 29/29/29 30/30/30 34/34/34
f 34/34/34 35/35/35 29/29/29
f 36/36/36 35/35/35 34/34/34
f 35/35/35 36/36/36 37/37/37
f 35/35/35 37/37/37 38/38/38
f 39/39/39 35/35/35 38/38/38
f 39/39/39 40/40/40 35/35/35
f 35/35/35 40/40/40 41/41/41
f 35/35/35 41/41/41 29/29/29
f 29/29/29 41/41/41 32/32/32
f 37/37/37 42/42/42 38/38/38
f 38/38/38 42/42/42 39/39/39
f 6/6/6 20/20/20 33/33/33
f 39/39/39 43/43/43 40/40/40
f 43/43/43 37/37/37 36/36/36
f 36/36/36 34/34/34 43/43/43
f 43/43/43 41/41/41 40/40/40
f 39/39/39 44/44/44 43/43/43
f 43/43/43 44/44/44 37/37/37
f 37/37/37 44/44/44 42/42/42
f 44/44/44 39/39/39 42/42/42
f 45/45/45 31/31/31 32/32/32
f 34/34/34 45/45/45 43/43/43
f 43/43/43 45/45/45 41/41/41
f 45/45/45 32/32/32 41/41/41
f 28/28/28 31/31/31 45/45/45
f 45/45/45 46/46/46 28/28/28
f 20/20/20 4/4/4 46/46/46
f 4/4/4 27/27/27 46/46/46
f 46/46/46 27/27/27 28/28/28
f 30/30/30 46/46/46 45/45/45
f 20/20/20 46/46/46 33/33/33
f 30/30/30 33/33/33 46/46/46
f 45/45/45 34/34/34 30/30/30

